<svg width="251" height="89" viewBox="0 0 251 89" fill="none" xmlns="http://www.w3.org/2000/svg">
<rect width="250.748" height="89" rx="9.28696" fill="#EF6125"/>
<path d="M182.362 42.7699L180.017 46.3399C176.517 45.2199 174.102 42.9449 172.702 40.1099C171.267 43.2249 168.747 45.7099 165.037 46.9349L162.622 43.3299C167.872 41.6149 170.147 37.5899 170.252 33.5999H163.847V29.9249H181.277V33.5999H174.977C175.082 37.3099 177.287 41.1249 182.362 42.7699ZM166.962 52.5699V48.8949H188.487V60.3049H183.867V52.5699H166.962ZM192.757 35.8049V39.6199H188.487V47.4599H183.867V28.0349H188.487V35.8049H192.757Z" fill="#EAE8DC"/>
<path d="M143.41 30.52V35.21C143.41 41.195 145.965 47.075 151.425 49.42L148.8 53.165C145.09 51.485 142.605 48.3 141.17 44.345C139.735 48.65 137.11 52.115 133.26 53.935L130.495 50.12C136.13 47.705 138.79 41.475 138.79 35.21V30.52H143.41ZM153 28H157.62V60.34H153V28Z" fill="#EAE8DC"/>
<path d="M112.737 28.0349H117.392V46.3049H112.737V28.0349ZM95.9373 47.7399H117.392V59.8849H95.9373V47.7399ZM112.877 51.3449H100.487V56.2799H112.877V51.3449ZM99.8573 29.5049C104.862 29.5049 108.607 32.7249 108.607 37.2749C108.607 41.7899 104.862 45.0099 99.8573 45.0099C94.8523 45.0099 91.0723 41.7899 91.0723 37.2749C91.0723 32.7249 94.8523 29.5049 99.8573 29.5049ZM99.8573 33.3549C97.4073 33.3549 95.5873 34.8249 95.5873 37.2749C95.5873 39.6899 97.4073 41.1599 99.8573 41.1599C102.272 41.1599 104.092 39.6899 104.092 37.2749C104.092 34.8249 102.272 33.3549 99.8573 33.3549Z" fill="#EAE8DC"/>
<path d="M74.975 40.355V28.735H79.28V58.835H74.975V44.065H69.935C68.115 47.74 65.175 50.925 60.625 53.585L58 50.33C64.44 46.48 67.275 41.825 67.835 35.525H59.785V31.85H72.42C72.42 34.895 72.14 37.73 71.37 40.355H74.975ZM81.765 28H86.14V60.235H81.765V28Z" fill="#EAE8DC"/>
<rect x="8.5" y="8.5" width="233" height="73" rx="7.78696" stroke="#FFCD1C" stroke-width="3"/>
<circle cx="225" cy="45" r="4" fill="#EAE8DC"/>
<circle cx="25" cy="45" r="4" fill="#EAE8DC"/>
</svg>
