<svg width="51" height="29" viewBox="0 0 51 29" fill="none" xmlns="http://www.w3.org/2000/svg">
<path d="M42.29 7.60995H46.43V0.949951H50.39V17.39H46.43V10.82H42.29V7.60995ZM43.94 13.55L42.02 16.64C39.02 15.65 36.95 13.7 35.75 11.27C34.55 14.06 32.36 16.31 29.15 17.39L27.14 14.27C31.52 12.74 33.53 9.22995 33.65 5.77995H28.22V2.59995H43.07V5.77995H37.7C37.82 8.92995 39.74 12.17 43.94 13.55ZM41.06 25.61C44.66 25.61 46.55 24.86 46.55 23.3C46.55 21.74 44.66 20.99 41.06 20.99C37.43 20.99 35.54 21.74 35.54 23.3C35.54 24.86 37.43 25.61 41.06 25.61ZM41.06 17.99C46.91 17.99 50.51 19.94 50.51 23.3C50.51 26.66 46.91 28.61 41.06 28.61C35.18 28.61 31.58 26.66 31.58 23.3C31.58 19.94 35.18 17.99 41.06 17.99Z" fill="#EAE8DC"/>
<path d="M18.8323 7.39995H12.9823C11.3023 11.51 7.40234 14.12 1.34234 15.44L0.0223389 12.26C6.29234 11.03 9.11234 8.38995 9.59234 5.14995H1.61234V1.99995H13.9423C13.9423 2.83995 13.8823 3.64995 13.7623 4.42995H18.8323V0.949951H22.7923V14.81H18.8323V12.74H12.7123V9.76995H18.8323V7.39995ZM8.57234 25.19H23.3623V28.31H4.61234V20.51H18.8323V18.95H4.58234V15.83H22.7923V23.45H8.57234V25.19Z" fill="#EAE8DC"/>
</svg>
