<svg width="381" height="273" viewBox="0 0 381 273" fill="none" xmlns="http://www.w3.org/2000/svg">
<rect width="381" height="273" rx="12" fill="#EAE7DC"/>
<rect x="11" y="13" width="361" height="104" rx="12" fill="#434040"/>
<path d="M217.607 150.055C217.607 150.055 244.125 135.511 244.954 112.867C245.782 90.2235 309.372 89.8342 288.601 121.771C267.83 153.709 217.607 150.055 217.607 150.055Z" fill="#434040"/>
<rect x="258.517" y="95.5842" width="70.8648" height="41.0943" transform="rotate(-43.3263 258.517 95.5842)" fill="#434040"/>
<rect x="273.597" y="122.444" width="70.8648" height="11.2075" transform="rotate(-43.3263 273.597 122.444)" fill="#434040"/>
<rect x="182.388" y="131" width="138" height="41.1294" rx="20.5647" transform="rotate(90 182.388 131)" fill="#FFCD1C"/>
<rect x="141.259" y="131" width="138" height="41.1294" rx="20.5647" transform="rotate(90 141.259 131)" fill="#FFCD1C"/>
<rect x="100.129" y="131" width="138" height="41.1294" rx="20.5647" transform="rotate(90 100.129 131)" fill="#FFCD1C"/>
<rect x="59" y="131" width="123.388" height="39.6054" rx="19.8027" fill="#FFCD1C"/>
<rect x="101.415" y="165.655" width="38.5588" height="26.6099" rx="13.3049" fill="#2B9FE6"/>
<rect x="145.757" y="165.655" width="12.8529" height="5.56951" rx="2.78475" fill="#2B9FE6"/>
<rect x="82.778" y="165.655" width="12.8529" height="5.56951" rx="2.78475" fill="#2B9FE6"/>
<path d="M115.553 165.655H125.835V167.321C125.835 170.16 123.534 172.462 120.694 172.462V172.462C117.855 172.462 115.553 170.16 115.553 167.321V165.655Z" fill="#D9D9D9"/>
<ellipse cx="103.021" cy="157.919" rx="9.31838" ry="8.97309" fill="#D9D9D9"/>
<ellipse cx="137.724" cy="157.919" rx="9.31838" ry="8.97309" fill="#D9D9D9"/>
<ellipse cx="103.021" cy="157.919" rx="8.03309" ry="7.73543" fill="#434040"/>
<ellipse cx="137.724" cy="157.919" rx="8.03309" ry="7.73543" fill="#434040"/>
<ellipse cx="134.19" cy="153.897" rx="1.28529" ry="1.23767" fill="#D9D9D9"/>
<ellipse cx="99.4867" cy="153.897" rx="1.28529" ry="1.23767" fill="#D9D9D9"/>
<path d="M124.805 143.627C122.817 146.499 118.571 146.499 116.583 143.627L107.841 131L133.547 131L124.805 143.627Z" fill="#EAE8DC"/>
</svg>
