<svg width="300" height="234" viewBox="0 0 300 234" fill="none" xmlns="http://www.w3.org/2000/svg">
<circle cx="148.356" cy="87.2901" r="86.3556" fill="#EAE8DC"/>
<path d="M97.13 4.986L83.7261 11.3649L84.4786 4.89156L91.3918 1.60159L97.13 4.986Z" fill="#FFCD1C"/>
<path d="M92.7527 13.0601C90.9476 13.9192 88.9735 13.9901 87.2228 13.417C88.6411 15.6549 91.49 16.5562 93.8856 15.4161C96.2813 14.276 97.3811 11.4897 96.5296 8.97026C95.8748 10.6999 94.5674 12.1965 92.7575 13.0579L92.7527 13.0601Z" fill="#FFCD1C"/>
<rect x="211.583" y="38.9346" width="147.021" height="42.1943" rx="21.0972" transform="rotate(90 211.583 38.9346)" fill="#FFCD1C"/>
<rect x="169.388" y="38.9346" width="147.021" height="42.1943" rx="21.0972" transform="rotate(90 169.388 38.9346)" fill="#FFCD1C"/>
<rect x="127.194" y="38.9346" width="147.021" height="42.1943" rx="21.0972" transform="rotate(90 127.194 38.9346)" fill="#FFCD1C"/>
<rect x="85" y="38.9346" width="126.583" height="42.1943" rx="21.0972" fill="#FFCD1C"/>
<rect x="128.513" y="75.855" width="39.5572" height="28.3493" rx="14.1747" fill="#2B9FE6"/>
<rect x="174.004" y="75.855" width="13.1857" height="5.93358" rx="2.96679" fill="#2B9FE6"/>
<rect x="109.394" y="75.855" width="13.1857" height="5.93358" rx="2.96679" fill="#2B9FE6"/>
<path d="M143.017 75.855H153.566V77.8328C153.566 80.7458 151.205 83.1071 148.292 83.1071V83.1071C145.379 83.1071 143.017 80.7457 143.017 77.8328V75.855Z" fill="#D9D9D9"/>
<circle cx="130.161" cy="67.6139" r="9.55965" fill="#D9D9D9"/>
<circle cx="165.763" cy="67.6139" r="9.55965" fill="#D9D9D9"/>
<circle cx="130.161" cy="67.6136" r="8.24108" fill="#434040"/>
<circle cx="165.762" cy="67.6136" r="8.24108" fill="#434040"/>
<circle cx="162.137" cy="63.3283" r="1.31857" fill="#D9D9D9"/>
<circle cx="126.535" cy="63.3283" r="1.31857" fill="#D9D9D9"/>
<path d="M152.452 52.4727C150.472 55.4414 146.11 55.4414 144.131 52.4728L135.106 38.9345L161.477 38.9345L152.452 52.4727Z" fill="#EAE8DC"/>
<path d="M116.2 8.31457C114.597 6.84482 112.586 6.164 110.386 6.3365C109.414 6.41261 108.499 6.6951 107.658 7.17938C106.955 7.58248 106.315 8.11651 105.7 8.80846C104.724 9.91491 103.98 11.2571 103.257 12.5458C102.296 14.2685 101.392 15.8946 100.123 16.7615L103.205 21.272C105.488 19.7122 106.795 17.3652 107.952 15.2888C109.15 13.1321 109.951 11.816 110.932 11.7339C111.647 11.678 112.157 11.8401 112.638 12.2802C113.165 12.7599 113.662 13.5901 114.069 14.6756C114.492 15.7948 114.835 17.2016 115.095 18.8531C115.584 22.0471 115.658 25.5112 115.708 28.0429C115.725 29.0006 115.746 29.8326 115.776 30.4901C115.795 30.7619 115.808 31.0175 115.819 31.2687C115.822 31.3573 115.83 31.4356 115.833 31.5243L79.7273 56.1969C79.6501 56.1592 79.5758 56.1259 79.4942 56.0913C79.264 55.99 79.0309 55.8844 78.7873 55.773C78.1843 55.4937 77.4155 55.179 76.5294 54.8153C74.1931 53.8465 70.9885 52.5211 68.1949 50.902C66.746 50.0634 65.5601 49.2325 64.6712 48.4313C63.8078 47.6578 63.2147 46.8935 62.9595 46.2279C62.7242 45.6197 62.7542 45.0888 63.0705 44.4397C63.5033 43.5559 65.0204 43.2881 67.4652 42.9551C69.8201 42.6318 72.4815 42.267 74.7642 40.7071L71.6819 36.1966C70.4133 37.0635 68.5697 37.3152 66.6157 37.5843C65.1494 37.7851 63.6286 37.9908 62.246 38.5026C61.3778 38.8245 60.6478 39.2264 60.0167 39.7352C59.2643 40.3398 58.6688 41.0892 58.2417 41.9626C57.2815 43.9499 57.1852 46.0706 57.9719 48.0983C59.0046 50.7592 61.5019 53.2075 65.6134 55.5867C68.7253 57.389 72.1258 58.7937 74.6046 59.8202C75.4403 60.1667 76.1661 60.4655 76.6815 60.7014C76.9354 60.8186 77.179 60.93 77.4165 61.0326C78.6075 61.5693 79.4481 61.9512 80.2503 62.5597L82.7305 66.1893C82.4364 66.3903 82.3693 66.7915 82.574 67.0911C82.7787 67.3906 83.1769 67.4739 83.471 67.2729L124.805 39.0277C125.099 38.8267 125.166 38.4254 124.961 38.1259C124.756 37.8264 124.354 37.7461 124.064 37.9441L121.584 34.3145C121.305 33.3416 121.255 32.4197 121.188 31.1152C121.174 30.8596 121.159 30.5922 121.146 30.31C121.114 29.7441 121.098 28.9668 121.08 28.0549C121.021 25.3681 120.951 21.6941 120.403 18.14C119.676 13.448 118.304 10.2243 116.203 8.29976L116.2 8.31457Z" fill="#FEA1BD"/>
<path d="M91.6404 42.3436C92.6487 43.8193 92.6012 49.3378 92.6012 49.3378C92.6012 49.3378 87.4425 47.3769 86.4342 45.9013C85.4258 44.4257 85.7747 42.4296 87.2102 41.4487C88.6456 40.4678 90.632 40.868 91.6404 42.3436Z" fill="#FEA1BD"/>
<path d="M103.813 34.0255C104.821 35.5011 104.774 41.0197 104.774 41.0197C104.774 41.0197 99.6152 39.0588 98.6069 37.5832C97.5985 36.1075 97.9475 34.1115 99.3829 33.1306C100.818 32.1497 102.805 32.5499 103.813 34.0255Z" fill="#FEA1BD"/>
<path d="M74.1965 51.1753C75.0494 47.297 78.869 42.9164 82.6647 41.686C81.8255 45.5937 77.9813 49.9007 74.1965 51.1753Z" fill="#FEA1BD"/>
<path d="M113.327 24.4356C110.768 27.4956 105.355 29.515 101.413 28.874C103.939 25.7848 109.403 23.821 113.327 24.4356Z" fill="#FEA1BD"/>
<path d="M86.6533 38.8245C88.3929 35.2449 93.1629 31.9724 97.1316 31.6642C95.3983 35.2719 90.6215 38.4779 86.6533 38.8245Z" fill="#FEA1BD"/>
<path d="M77.9868 12.8647L82.1996 16.6738L86.2865 13.8811L80.0939 11.4249L77.9868 12.8647Z" fill="#2B9FE6"/>
<path d="M77.9868 12.8646L75.8798 14.3045L78.1084 19.4694L82.1909 16.6797L77.9868 12.8646Z" fill="#2B9FE6"/>
<path d="M75.8798 14.3046L78.1085 19.4696L74.0304 22.2563L73.7727 15.7445L75.8798 14.3046Z" fill="#2B9FE6"/>
<path d="M122.242 35.2865L80.9081 63.5317L81.6486 64.6153L122.982 36.3701L122.242 35.2865Z" fill="#2B9FE6"/>
<path d="M103.681 13.2511C102.661 12.3521 101.539 11.6714 100.355 11.2396C99.0705 10.7734 97.7025 10.5903 96.2912 10.7018C95.2412 10.786 94.2531 11.0929 93.3476 11.6148C92.5798 12.0555 91.8803 12.6433 91.211 13.3979C90.1286 14.6221 89.2921 16.1308 88.4814 17.5829C88.2564 17.9887 88.0313 18.3945 87.7959 18.7944C87.4588 16.718 86.9876 14.8882 86.2923 13.8707L74.0362 22.2458C74.7285 23.2589 76.2606 24.3702 78.0771 25.4358C77.6159 25.5054 77.1591 25.572 76.6993 25.6342C75.0488 25.8574 73.3423 26.093 71.8084 26.6566C70.8549 27.0045 70.0605 27.444 69.3709 27.9992C68.5557 28.6532 67.9064 29.4652 67.4507 30.4098C66.834 31.6842 66.5075 33.0252 66.4751 34.3913C66.4399 35.6496 66.6708 36.9393 67.1407 38.2207C68.356 41.5257 71.2353 44.8439 75.7034 48.0844C79.1492 50.5825 82.572 52.3403 84.2284 53.134L89.382 49.6123C88.8902 49.3733 88.3897 49.1402 87.8625 48.9059C87.6011 48.7873 87.3324 48.6673 87.0562 48.5458C82.7167 46.568 74.0231 41.4979 72.171 36.4504C71.701 35.169 71.7394 34.0378 72.2885 32.9001C72.4669 32.5392 72.7788 32.1192 73.7617 31.7577C74.7652 31.3886 76.1254 31.2022 77.5637 31.0077C79.8081 30.7017 82.3058 30.3519 84.5641 29.1899L95.6258 45.3585L100.02 42.3558L88.9583 26.1872C90.857 24.5085 92.0905 22.3086 93.1955 20.3258C93.8994 19.0564 94.5672 17.8569 95.2757 17.0562C95.9697 16.2718 96.4743 16.1338 96.871 16.1018C98.1378 16.005 99.2026 16.3759 100.221 17.2823C104.249 20.8493 105.815 30.7835 106.081 35.5451C106.1 35.8553 106.114 36.1494 106.127 36.4316C106.157 37.0122 106.192 37.5632 106.233 38.1038L111.386 34.5822C111.249 32.7506 110.855 28.923 109.779 24.805C108.389 19.4618 106.34 15.5693 103.706 13.2405L103.681 13.2511Z" fill="#FEA1BD"/>
<path d="M28.616 158.588L28.6718 158.647L28.7447 158.609C30.4872 157.688 32.3541 159.609 31.3756 161.317L31.3348 161.388L31.3927 161.444C32.809 162.812 31.5537 165.178 29.6245 164.777L29.5451 164.76L29.5086 164.833C28.6417 166.599 26.0001 166.139 25.7834 164.184L25.7748 164.103L25.6933 164.092C23.7405 163.816 23.3628 161.165 25.1611 160.358L25.2362 160.324L25.2212 160.245C24.8821 158.307 27.2898 157.129 28.616 158.585V158.588Z" fill="#FEA1BD"/>
<path d="M39.922 92.7728C38.4022 91.6232 36.2333 91.924 35.0837 93.4438C33.9341 94.9636 34.2348 97.1325 35.7547 98.2822C37.2745 99.4318 39.4434 99.131 40.593 97.6112C42.1128 98.7608 44.2817 98.46 45.4313 96.9402C46.5809 95.4204 46.2802 93.2515 44.7603 92.1019C43.2405 90.9522 41.0716 91.253 39.922 92.7728Z" fill="#EF6125"/>
<path d="M29.3645 115.394C27.7055 115.138 26.052 114.882 24.393 114.627C25.6113 115.66 27.0619 117.247 27.1032 119.205C27.1881 122.992 21.9256 124.864 22.516 127.671C23.0075 130.01 26.8897 129.794 27.5341 132.317C28.1916 134.891 24.5001 136.464 24.0797 140.304C23.7853 142.984 25.2393 145.414 26.6525 147.154C28.6332 147.359 30.6138 147.563 32.5945 147.767C30.903 146.352 28.7915 144.11 28.7949 141.379C28.7989 137.299 33.5189 135.422 32.8382 132.205C32.2076 129.224 27.7658 128.981 27.6477 126.38C27.5392 123.942 31.3906 123.03 31.6263 119.999C31.7741 118.093 30.4122 116.424 29.3645 115.394Z" fill="#FEA1BD"/>
<path d="M109.85 184.531C108.399 184.084 106.95 183.631 105.499 183.184C105.727 183.598 106.195 184.596 106.032 185.845C105.698 188.367 103.109 189.43 103 189.474C104.645 189.885 106.288 190.302 107.932 190.713C109.473 190.308 110.618 189.074 110.829 187.595C111.068 185.924 110.003 184.706 109.845 184.53L109.85 184.531Z" fill="#FEA1BD"/>
<path d="M59.3521 145.799C60.241 147.029 61.1257 148.263 62.0146 149.494C62.0822 149.026 62.3091 147.947 63.191 147.048C64.9763 145.236 67.797 145.976 67.797 145.976C67.797 145.976 65.6701 143.336 64.6045 142.017C63.131 141.412 61.4735 141.708 60.415 142.762C59.2171 143.953 59.3348 145.567 59.3549 145.803L59.3521 145.799Z" fill="#EF6125"/>
<path d="M119.111 172.445C120 173.676 120.885 174.91 121.774 176.14C121.841 175.672 122.068 174.594 122.95 173.695C124.735 171.882 127.556 172.622 127.556 172.622C127.556 172.622 125.429 169.982 124.364 168.664C122.89 168.059 121.233 168.355 120.174 169.409C118.976 170.599 119.094 172.214 119.114 172.449L119.111 172.445Z" fill="#2B9FE6"/>
<path d="M63.9423 167.905C67.2296 165.911 71.1647 170.371 75.6709 168.792C78.6893 167.737 80.3298 164.548 81.2273 162.147C81.7839 164.401 82.3405 166.655 82.8971 168.909C81.532 171.14 79.4241 173.669 76.3428 174.387C72.0696 175.378 68.9364 172.165 66.3943 173.544L63.7139 168.055C63.7886 168.004 63.8589 167.95 63.9379 167.902L63.9423 167.905Z" fill="#EF6125"/>
<path d="M60.5828 115.747C60.1172 115.481 59.6828 115.211 59.2741 114.935C57.4586 115.264 54.8569 116.033 53.6672 118.114C51.7741 121.415 55.1414 125.061 53.3052 127.508C51.3966 130.05 46.7879 127.402 44 129.705L49.0172 133.935C49.0845 133.866 49.1517 133.797 49.2293 133.728C51.6862 131.568 55.5759 134.513 57.7431 132.438C60.3448 129.944 56.181 124.323 58.9431 120.465C60.3707 118.469 63.0034 117.849 65 117.631C63.6655 117.233 62.15 116.644 60.5828 115.752V115.747Z" fill="#14AE59"/>
<path d="M91.105 135.988C90.7267 136.888 89.9597 138.357 88.4879 139.705C87.0355 141.037 85.6048 141.606 85.3063 141.718C83.6964 142.334 83.117 142.044 82.489 142.442C81.5006 143.071 80.87 145.103 82.4257 151.257C80.6917 150.34 78.9537 149.416 77.2197 148.499C76.0016 141.69 77.16 139.334 78.4603 138.453C80.1059 137.336 82.6483 138.132 84.8084 136.096C85.6254 135.325 86.0531 134.468 86.2688 133.941L91.105 135.988Z" fill="#2B9FE6"/>
<path d="M101.09 169.839C101.09 169.839 101.049 169.839 101.026 169.839C101.149 169.524 101.218 169.188 101.218 168.834C101.218 167.233 99.8411 165.935 98.1443 165.935C96.4474 165.935 95.0707 167.233 95.0707 168.834C95.0707 169.343 95.2125 169.822 95.4549 170.236C94.133 170.559 93.1588 171.69 93.1588 173.036C93.1588 174.636 94.5355 175.935 96.2324 175.935C97.2981 175.935 98.2357 175.426 98.7846 174.649C99.3472 175.249 100.17 175.633 101.085 175.633C102.782 175.633 104.159 174.334 104.159 172.734C104.159 171.133 102.782 169.835 101.085 169.835L101.09 169.839Z" fill="#7766C2"/>
<path d="M110.5 155.935C112.433 155.935 114 154.368 114 152.435C114 150.502 112.433 148.935 110.5 148.935C108.567 148.935 107 150.502 107 152.435C107 154.368 108.567 155.935 110.5 155.935Z" fill="#14AE59"/>
<path d="M43.6588 156.935C45.5918 156.935 47.1588 155.368 47.1588 153.435C47.1588 151.502 45.5918 149.935 43.6588 149.935C41.7258 149.935 40.1588 151.502 40.1588 153.435C40.1588 155.368 41.7258 156.935 43.6588 156.935Z" fill="#2B9FE6"/>
<path d="M71.5 113.935C73.433 113.935 75 112.368 75 110.435C75 108.502 73.433 106.935 71.5 106.935C69.567 106.935 68 108.502 68 110.435C68 112.368 69.567 113.935 71.5 113.935Z" fill="#FEA1BD"/>
<path d="M76.3496 182.94C76.2107 183.445 75.9115 184.23 75.2331 185.117C74.4745 186.111 73.577 186.794 73 187.181C74.3943 187.472 75.9596 187.915 77.5409 188.598C81.9002 190.474 84.1439 193.191 85.2604 194.935C85.3192 194.772 85.3833 194.609 85.4528 194.44C86.222 192.671 87.6431 191.234 89 190.163C87.4614 188.41 84.9078 186.121 80.7943 184.393C79.2558 183.745 77.7386 183.276 76.3442 182.935L76.3496 182.94Z" fill="#14AE59"/>
<path d="M25.0054 213.326C22.568 214.554 19.8902 212.154 20.8453 209.597L36.8994 166.624C37.6389 164.645 40.1386 164.03 41.7121 165.44L66.6262 187.773C68.1997 189.184 67.8608 191.735 65.9736 192.686L25.0054 213.326Z" fill="#FFE072"/>
<path d="M270.94 158.588L270.884 158.647L270.811 158.609C269.069 157.688 267.202 159.609 268.181 161.317L268.221 161.388L268.163 161.444C266.747 162.812 268.002 165.178 269.932 164.777L270.011 164.76L270.048 164.833C270.914 166.599 273.556 166.139 273.773 164.184L273.781 164.103L273.863 164.092C275.816 163.816 276.193 161.165 274.395 160.358L274.32 160.324L274.335 160.245C274.674 158.307 272.266 157.129 270.94 158.585V158.588Z" fill="#FEA1BD"/>
<path d="M259.634 92.7728C261.154 91.6232 263.323 91.924 264.472 93.4438C265.622 94.9636 265.321 97.1325 263.801 98.2822C262.282 99.4318 260.113 99.131 258.963 97.6112C257.443 98.7608 255.274 98.46 254.125 96.9402C252.975 95.4204 253.276 93.2515 254.796 92.1019C256.316 90.9522 258.485 91.253 259.634 92.7728Z" fill="#EF6125"/>
<path d="M270.192 115.394C271.851 115.138 273.504 114.882 275.163 114.627C273.945 115.66 272.494 117.247 272.453 119.205C272.368 122.992 277.631 124.864 277.04 127.671C276.549 130.01 272.666 129.794 272.022 132.317C271.365 134.891 275.056 136.464 275.476 140.304C275.771 142.984 274.317 145.414 272.904 147.154C270.923 147.359 268.942 147.563 266.962 147.767C268.653 146.352 270.765 144.11 270.761 141.379C270.757 137.299 266.037 135.422 266.718 132.205C267.349 129.224 271.79 128.981 271.908 126.38C272.017 123.942 268.166 123.03 267.93 119.999C267.782 118.093 269.144 116.424 270.192 115.394Z" fill="#FEA1BD"/>
<path d="M189.707 184.531C191.157 184.084 192.607 183.631 194.057 183.184C193.829 183.598 193.361 184.596 193.524 185.845C193.859 188.367 196.447 189.43 196.556 189.474C194.911 189.885 193.269 190.302 191.624 190.713C190.083 190.308 188.938 189.074 188.727 187.595C188.488 185.924 189.554 184.706 189.711 184.53L189.707 184.531Z" fill="#FEA1BD"/>
<path d="M240.204 145.799C239.315 147.029 238.431 148.263 237.542 149.494C237.474 149.026 237.247 147.947 236.365 147.048C234.58 145.236 231.759 145.976 231.759 145.976C231.759 145.976 233.886 143.336 234.952 142.017C236.425 141.412 238.083 141.708 239.141 142.762C240.339 143.953 240.221 145.567 240.201 145.803L240.204 145.799Z" fill="#EF6125"/>
<path d="M180.445 172.445C179.556 173.676 178.671 174.91 177.782 176.14C177.715 175.672 177.488 174.594 176.606 173.695C174.821 171.882 172 172.622 172 172.622C172 172.622 174.127 169.982 175.193 168.664C176.666 168.059 178.323 168.355 179.382 169.409C180.58 170.599 180.462 172.214 180.442 172.449L180.445 172.445Z" fill="#2B9FE6"/>
<path d="M235.614 167.905C232.327 165.911 228.391 170.371 223.885 168.792C220.867 167.737 219.226 164.548 218.329 162.147C217.772 164.401 217.216 166.655 216.659 168.909C218.024 171.14 220.132 173.669 223.213 174.387C227.487 175.378 230.62 172.165 233.162 173.544L235.842 168.055C235.768 168.004 235.697 167.95 235.618 167.902L235.614 167.905Z" fill="#EF6125"/>
<path d="M238.973 115.747C239.439 115.481 239.873 115.211 240.282 114.935C242.098 115.264 244.699 116.033 245.889 118.114C247.782 121.415 244.415 125.061 246.251 127.508C248.16 130.05 252.768 127.402 255.556 129.705L250.539 133.935C250.472 133.866 250.404 133.797 250.327 133.728C247.87 131.568 243.98 134.513 241.813 132.438C239.211 129.944 243.375 124.323 240.613 120.465C239.185 118.469 236.553 117.849 234.556 117.631C235.891 117.233 237.406 116.644 238.973 115.752V115.747Z" fill="#14AE59"/>
<path d="M208.451 135.988C208.829 136.888 209.596 138.357 211.068 139.705C212.521 141.037 213.951 141.606 214.25 141.718C215.86 142.334 216.439 142.044 217.067 142.442C218.056 143.071 218.686 145.103 217.13 151.257C218.864 150.34 220.602 149.416 222.336 148.499C223.555 141.69 222.396 139.334 221.096 138.453C219.45 137.336 216.908 138.132 214.748 136.096C213.931 135.325 213.503 134.468 213.287 133.941L208.451 135.988Z" fill="#2B9FE6"/>
<path d="M198.466 169.839C198.466 169.839 198.508 169.839 198.531 169.839C198.407 169.524 198.338 169.188 198.338 168.834C198.338 167.233 199.715 165.935 201.412 165.935C203.109 165.935 204.486 167.233 204.486 168.834C204.486 169.343 204.344 169.822 204.101 170.236C205.423 170.559 206.397 171.69 206.397 173.036C206.397 174.636 205.021 175.935 203.324 175.935C202.258 175.935 201.321 175.426 200.772 174.649C200.209 175.249 199.386 175.633 198.471 175.633C196.774 175.633 195.397 174.334 195.397 172.734C195.397 171.133 196.774 169.835 198.471 169.835L198.466 169.839Z" fill="#7766C2"/>
<path d="M189.056 155.935C187.123 155.935 185.556 154.368 185.556 152.435C185.556 150.502 187.123 148.935 189.056 148.935C190.989 148.935 192.556 150.502 192.556 152.435C192.556 154.368 190.989 155.935 189.056 155.935Z" fill="#14AE59"/>
<path d="M255.897 156.935C253.964 156.935 252.397 155.368 252.397 153.435C252.397 151.502 253.964 149.935 255.897 149.935C257.83 149.935 259.397 151.502 259.397 153.435C259.397 155.368 257.83 156.935 255.897 156.935Z" fill="#2B9FE6"/>
<path d="M228.056 113.935C226.123 113.935 224.556 112.368 224.556 110.435C224.556 108.502 226.123 106.935 228.056 106.935C229.989 106.935 231.556 108.502 231.556 110.435C231.556 112.368 229.989 113.935 228.056 113.935Z" fill="#FEA1BD"/>
<path d="M223.207 182.94C223.345 183.445 223.645 184.23 224.323 185.117C225.082 186.111 225.979 186.794 226.556 187.181C225.162 187.472 223.597 187.915 222.015 188.598C217.656 190.474 215.412 193.191 214.296 194.935C214.237 194.772 214.173 194.609 214.103 194.44C213.334 192.671 211.913 191.234 210.556 190.163C212.095 188.41 214.648 186.121 218.762 184.393C220.3 183.745 221.818 183.276 223.212 182.935L223.207 182.94Z" fill="#14AE59"/>
<path d="M274.551 213.326C276.988 214.554 279.666 212.153 278.711 209.597L262.657 166.624C261.917 164.644 259.418 164.029 257.844 165.44L232.93 187.773C231.356 189.183 231.695 191.735 233.583 192.686L274.551 213.326Z" fill="#FFE072"/>
</svg>
