<svg width="300" height="234" viewBox="0 0 300 234" fill="none" xmlns="http://www.w3.org/2000/svg">
<circle cx="148.356" cy="88.2044" r="86.3556" fill="#EAE8DC"/>
<rect x="83" y="37.8489" width="129.892" height="51.3153" rx="25.6577" fill="#EF6125"/>
<rect x="83" y="88.1643" width="129.892" height="51.3153" rx="25.6577" fill="#EF6125"/>
<rect x="83" y="138.48" width="129.892" height="51.3153" rx="25.6577" fill="#EF6125"/>
<path d="M163.982 106.804V106.804C155.568 115.217 141.927 115.217 133.513 106.804V106.804" stroke="black" stroke-width="5" stroke-linecap="round" stroke-linejoin="round"/>
<path d="M163.982 106.804V106.804C155.568 115.217 141.927 115.217 133.513 106.804V106.804" stroke="#444342" stroke-width="5" stroke-linecap="round" stroke-linejoin="round"/>
<circle cx="149.149" cy="74.3309" r="14.8333" fill="#D9D9D9"/>
<circle cx="149.149" cy="74.331" r="11.6261" fill="#434040"/>
<circle cx="144.481" cy="68.8613" r="2.14768" fill="#D9D9D9"/>
<circle cx="149.149" cy="97.583" r="4.40991" fill="#2B9FE6"/>
<path d="M121.119 6.26536C119.683 4.63193 117.757 3.73911 115.551 3.6743C114.577 3.64559 113.637 3.82823 112.749 4.21938C112.006 4.54461 111.313 5.00686 110.627 5.62871C109.537 6.62393 108.653 7.87839 107.796 9.08203C106.656 10.6916 105.582 12.2111 104.228 12.9368L106.808 17.7523C109.245 16.4466 110.796 14.2536 112.169 12.3134C113.593 10.2979 114.53 9.0754 115.514 9.09909C116.231 9.12038 116.721 9.33622 117.152 9.82552C117.625 10.359 118.029 11.2378 118.317 12.3607C118.618 13.5189 118.808 14.9544 118.888 16.6242C119.032 19.8523 118.734 23.3044 118.511 25.8267C118.425 26.7807 118.357 27.6101 118.316 28.2671C118.305 28.5393 118.292 28.7949 118.275 29.0458C118.268 29.1342 118.268 29.2129 118.261 29.3014L79.715 49.9537C79.6422 49.908 79.572 49.8669 79.4945 49.8237C79.2766 49.6983 79.0561 49.5683 78.8259 49.4314C78.2564 49.0889 77.5258 48.6935 76.6839 48.2367C74.4652 47.0226 71.4214 45.3607 68.8179 43.4509C67.4675 42.4616 66.3776 41.5082 65.58 40.6161C64.8046 39.7544 64.297 38.9308 64.1148 38.2416C63.9462 37.6117 64.033 37.087 64.4172 36.4757C64.9424 35.6435 66.4795 35.5402 68.9459 35.4716C71.3219 35.4031 74.0071 35.3262 76.4441 34.0206L73.8641 29.2051C72.5097 29.9307 70.6497 29.983 68.6781 30.0407C67.1987 30.0828 65.6646 30.124 64.2351 30.4843C63.3373 30.7112 62.5684 31.0323 61.8863 31.4704C61.0733 31.9907 60.4008 32.6719 59.8824 33.4943C58.7143 35.367 58.3907 37.4651 58.9552 39.5655C59.6961 42.3219 61.9161 45.0243 65.7483 47.8314C68.6486 49.9574 71.8786 51.7191 74.2328 53.0059C75.0264 53.4402 75.716 53.8152 76.203 54.1051C76.4429 54.2489 76.6731 54.3858 76.8983 54.5134C78.0247 55.1748 78.8194 55.6448 79.5516 56.3359L81.6277 60.2109C81.3137 60.3791 81.2039 60.7709 81.3752 61.0906C81.5466 61.4104 81.9335 61.536 82.2475 61.3677L126.376 37.7249C126.69 37.5567 126.799 37.1649 126.628 36.8452C126.457 36.5254 126.065 36.4023 125.756 36.568L123.68 32.6931C123.507 31.696 123.556 30.774 123.629 29.4697C123.643 29.2142 123.657 28.9467 123.675 28.6647C123.703 28.0987 123.771 27.3241 123.851 26.4156C124.081 23.7381 124.406 20.0777 124.243 16.4853C124.024 11.7424 123.006 8.38997 121.124 6.25093L121.119 6.26536Z" fill="#FFCD1C"/>
<path d="M93.0469 37.46C93.891 39.0354 93.251 44.5169 93.251 44.5169C93.251 44.5169 88.3328 42.0134 87.4887 40.438C86.6447 38.8626 87.206 36.9156 88.7384 36.0945C90.2709 35.2734 92.2029 35.8847 93.0469 37.46Z" fill="#FFCD1C"/>
<path d="M106.043 30.4974C106.887 32.0728 106.247 37.5543 106.247 37.5543C106.247 37.5543 101.328 35.0507 100.484 33.4754C99.6403 31.9 100.202 29.9529 101.734 29.1319C103.267 28.3108 105.198 28.922 106.043 30.4974Z" fill="#FFCD1C"/>
<path d="M74.7555 44.3673C76.0199 40.603 80.2879 36.6579 84.1938 35.8423C82.9398 39.6373 78.6553 43.5065 74.7555 44.3673Z" fill="#FFCD1C"/>
<path d="M116.531 21.9847C113.659 24.7522 108.059 26.1786 104.21 25.118C107.052 22.3178 112.696 20.9523 116.531 21.9847Z" fill="#FFCD1C"/>
<path d="M88.4666 33.4257C90.5806 30.0536 95.6744 27.3123 99.6532 27.4321C97.5425 30.8327 92.449 33.5072 88.4666 33.4257Z" fill="#FFCD1C"/>
<path d="M82.6383 6.6853L86.4177 10.9248L90.7808 8.58713L84.8878 5.48006L82.6383 6.6853Z" fill="#2B9FE6"/>
<path d="M82.6383 6.68501L80.3888 7.89025L82.0499 13.2647L86.4083 10.9295L82.6383 6.68501Z" fill="#2B9FE6"/>
<path d="M80.3888 7.89037L82.0499 13.2648L77.6961 15.5975L78.1393 9.09561L80.3888 7.89037Z" fill="#2B9FE6"/>
<path d="M124.229 33.7302L80.1012 57.373L80.721 58.5299L124.849 34.887L124.229 33.7302Z" fill="#2B9FE6"/>
<path d="M108.142 9.82865C107.225 8.82529 106.182 8.02801 105.052 7.47162C103.825 6.8701 102.484 6.54116 101.069 6.50043C100.016 6.47145 99.0008 6.67043 98.0445 7.09203C97.2337 7.44771 96.4752 7.95703 95.7288 8.63536C94.5212 9.73631 93.5274 11.1464 92.5654 12.5031C92.2981 12.8823 92.0309 13.2616 91.7539 13.634C91.6417 11.5333 91.3697 9.66348 90.7877 8.57717L77.703 15.5877C78.2825 16.6693 79.6865 17.9386 81.378 19.1931C80.912 19.2128 80.4507 19.23 79.9869 19.2424C78.3219 19.2871 76.6 19.3381 75.0145 19.7336C74.0291 19.9771 73.192 20.3287 72.4468 20.8067C71.5661 21.3694 70.8333 22.107 70.2789 22.9972C69.5289 24.198 69.0603 25.4961 68.8814 26.8509C68.7112 28.0981 68.8022 29.4051 69.1318 30.7296C69.9851 34.146 72.4914 37.7543 76.5857 41.4558C79.7433 44.3095 82.9575 46.4247 84.5191 47.3917L90.021 44.4439C89.5578 44.1534 89.0852 43.868 88.5862 43.5785C88.3391 43.4325 88.0848 43.2842 87.8233 43.1338C83.7212 40.7014 75.6225 34.727 74.3231 29.5098C73.9935 28.1853 74.1531 27.0648 74.8212 25.9926C75.0373 25.6529 75.3925 25.2689 76.4086 25.0151C77.4459 24.7559 78.8182 24.7166 80.2691 24.6777C82.5334 24.6145 85.0543 24.535 87.4243 23.6222L96.6856 40.8853L101.377 38.3719L92.1155 21.1088C94.1836 19.6437 95.6462 17.589 96.9577 15.7363C97.7939 14.5499 98.5867 13.4291 99.3771 12.709C100.151 12.0037 100.668 11.9207 101.066 11.9315C102.336 11.9713 103.354 12.4544 104.27 13.465C107.891 17.444 108.382 27.4889 108.135 32.2515C108.12 32.562 108.102 32.8558 108.085 33.1377C108.052 33.7182 108.028 34.2698 108.01 34.8117L113.512 31.8639C113.572 30.0281 113.592 26.1804 112.965 21.9707C112.156 16.509 110.537 12.419 108.168 9.8208L108.142 9.82865Z" fill="#FFCD1C"/>
<path d="M28.616 159.502L28.6718 159.562L28.7447 159.523C30.4872 158.603 32.3541 160.523 31.3756 162.232L31.3348 162.302L31.3927 162.358C32.809 163.726 31.5537 166.092 29.6245 165.692L29.5451 165.675L29.5086 165.747C28.6417 167.514 26.0001 167.053 25.7834 165.099L25.7748 165.017L25.6933 165.007C23.7405 164.73 23.3628 162.08 25.1611 161.273L25.2362 161.238L25.2212 161.159C24.8821 159.221 27.2898 158.044 28.616 159.5V159.502Z" fill="#FEA1BD"/>
<path d="M39.922 93.6871C38.4022 92.5375 36.2333 92.8383 35.0837 94.3581C33.9341 95.8779 34.2348 98.0469 35.7547 99.1965C37.2745 100.346 39.4434 100.045 40.593 98.5255C42.1128 99.6751 44.2817 99.3743 45.4313 97.8545C46.5809 96.3347 46.2802 94.1658 44.7603 93.0162C43.2405 91.8666 41.0716 92.1673 39.922 93.6871Z" fill="#FFCD1C"/>
<path d="M29.3645 116.308C27.7055 116.053 26.052 115.796 24.393 115.541C25.6113 116.574 27.0619 118.161 27.1032 120.119C27.1881 123.906 21.9256 125.779 22.516 128.586C23.0075 130.925 26.8897 130.708 27.5341 133.231C28.1916 135.805 24.5001 137.378 24.0797 141.219C23.7853 143.899 25.2393 146.328 26.6525 148.069C28.6332 148.273 30.6138 148.477 32.5945 148.681C30.903 147.266 28.7915 145.024 28.7949 142.294C28.7989 138.213 33.5189 136.337 32.8382 133.119C32.2076 130.138 27.7658 129.895 27.6477 127.295C27.5392 124.856 31.3906 123.944 31.6263 120.913C31.7741 119.007 30.4122 117.339 29.3645 116.308Z" fill="#FEA1BD"/>
<path d="M109.85 185.446C108.399 184.998 106.95 184.546 105.499 184.098C105.727 184.512 106.195 185.51 106.032 186.759C105.698 189.281 103.109 190.344 103 190.389C104.645 190.8 106.288 191.216 107.932 191.627C109.473 191.223 110.618 189.989 110.829 188.51C111.068 186.838 110.003 185.62 109.845 185.444L109.85 185.446Z" fill="#FEA1BD"/>
<path d="M59.3521 146.713C60.241 147.944 61.1257 149.177 62.0146 150.408C62.0822 149.94 62.3091 148.862 63.191 147.963C64.9763 146.15 67.797 146.89 67.797 146.89C67.797 146.89 65.6701 144.25 64.6045 142.932C63.131 142.327 61.4735 142.623 60.415 143.677C59.2171 144.867 59.3348 146.482 59.3549 146.717L59.3521 146.713Z" fill="#7766C2"/>
<path d="M119.111 173.359C120 174.59 120.885 175.824 121.774 177.055C121.841 176.587 122.068 175.508 122.95 174.609C124.735 172.797 127.556 173.536 127.556 173.536C127.556 173.536 125.429 170.896 124.364 169.578C122.89 168.973 121.233 169.269 120.174 170.323C118.976 171.514 119.094 173.128 119.114 173.364L119.111 173.359Z" fill="#2B9FE6"/>
<path d="M63.9423 168.819C67.2296 166.826 71.1647 171.285 75.6709 169.707C78.6893 168.651 80.3298 165.463 81.2273 163.061C81.7839 165.316 82.3405 167.57 82.8971 169.824C81.532 172.054 79.4241 174.584 76.3428 175.301C72.0696 176.292 68.9364 173.08 66.3943 174.458L63.7139 168.969C63.7886 168.918 63.8589 168.864 63.9379 168.816L63.9423 168.819Z" fill="#FFCD1C"/>
<path d="M60.5828 116.661C60.1172 116.396 59.6828 116.125 59.2741 115.849C57.4586 116.178 54.8569 116.948 53.6672 119.028C51.7741 122.329 55.1414 125.975 53.3052 128.422C51.3966 130.964 46.7879 128.316 44 130.619L49.0172 134.849C49.0845 134.78 49.1517 134.711 49.2293 134.642C51.6862 132.482 55.5759 135.428 57.7431 133.352C60.3448 130.858 56.181 125.238 58.9431 121.379C60.3707 119.384 63.0034 118.763 65 118.545C63.6655 118.147 62.15 117.558 60.5828 116.666V116.661Z" fill="#14AE59"/>
<path d="M91.105 136.902C90.7267 137.802 89.9597 139.271 88.4879 140.62C87.0355 141.951 85.6048 142.52 85.3063 142.632C83.6964 143.248 83.117 142.958 82.489 143.356C81.5006 143.985 80.87 146.017 82.4257 152.172C80.6917 151.254 78.9537 150.33 77.2197 149.413C76.0016 142.604 77.16 140.249 78.4603 139.367C80.1059 138.251 82.6483 139.046 84.8084 137.011C85.6254 136.24 86.0531 135.382 86.2688 134.856L91.105 136.902Z" fill="#2B9FE6"/>
<path d="M101.09 170.753C101.09 170.753 101.049 170.753 101.026 170.753C101.149 170.438 101.218 170.102 101.218 169.748C101.218 168.148 99.8411 166.849 98.1443 166.849C96.4474 166.849 95.0707 168.148 95.0707 169.748C95.0707 170.257 95.2125 170.736 95.4549 171.15C94.133 171.474 93.1588 172.604 93.1588 173.95C93.1588 175.551 94.5355 176.849 96.2324 176.849C97.2981 176.849 98.2357 176.34 98.7846 175.564C99.3472 176.163 100.17 176.547 101.085 176.547C102.782 176.547 104.159 175.249 104.159 173.648C104.159 172.048 102.782 170.749 101.085 170.749L101.09 170.753Z" fill="#7766C2"/>
<path d="M110.5 156.849C112.433 156.849 114 155.282 114 153.349C114 151.416 112.433 149.849 110.5 149.849C108.567 149.849 107 151.416 107 153.349C107 155.282 108.567 156.849 110.5 156.849Z" fill="#14AE59"/>
<path d="M43.6588 157.849C45.5918 157.849 47.1588 156.282 47.1588 154.349C47.1588 152.416 45.5918 150.849 43.6588 150.849C41.7258 150.849 40.1588 152.416 40.1588 154.349C40.1588 156.282 41.7258 157.849 43.6588 157.849Z" fill="#2B9FE6"/>
<path d="M71.5 114.849C73.433 114.849 75 113.282 75 111.349C75 109.416 73.433 107.849 71.5 107.849C69.567 107.849 68 109.416 68 111.349C68 113.282 69.567 114.849 71.5 114.849Z" fill="#FEA1BD"/>
<path d="M76.3496 183.854C76.2107 184.359 75.9115 185.144 75.2331 186.031C74.4745 187.025 73.577 187.708 73 188.096C74.3943 188.386 75.9596 188.83 77.5409 189.513C81.9002 191.389 84.1439 194.106 85.2604 195.849C85.3192 195.686 85.3833 195.523 85.4528 195.355C86.222 193.586 87.6431 192.148 89 191.078C87.4614 189.324 84.9078 187.035 80.7943 185.307C79.2558 184.66 77.7386 184.191 76.3442 183.849L76.3496 183.854Z" fill="#14AE59"/>
<path d="M25.0054 214.24C22.568 215.468 19.8902 213.068 20.8453 210.511L36.8994 167.538C37.6389 165.559 40.1386 164.944 41.7121 166.354L66.6262 188.687C68.1997 190.098 67.8608 192.65 65.9736 193.6L25.0054 214.24Z" fill="#FFE072"/>
<path d="M270.94 159.502L270.884 159.562L270.811 159.523C269.069 158.603 267.202 160.523 268.181 162.232L268.221 162.302L268.163 162.358C266.747 163.726 268.002 166.092 269.932 165.692L270.011 165.675L270.048 165.747C270.914 167.514 273.556 167.053 273.773 165.099L273.781 165.017L273.863 165.007C275.816 164.73 276.193 162.08 274.395 161.273L274.32 161.238L274.335 161.159C274.674 159.221 272.266 158.044 270.94 159.5V159.502Z" fill="#FEA1BD"/>
<path d="M259.634 93.6871C261.154 92.5375 263.323 92.8383 264.472 94.3581C265.622 95.8779 265.321 98.0469 263.801 99.1965C262.282 100.346 260.113 100.045 258.963 98.5255C257.443 99.6751 255.274 99.3743 254.125 97.8545C252.975 96.3347 253.276 94.1658 254.796 93.0162C256.316 91.8666 258.485 92.1673 259.634 93.6871Z" fill="#FFCD1C"/>
<path d="M270.192 116.308C271.851 116.053 273.504 115.796 275.163 115.541C273.945 116.574 272.494 118.161 272.453 120.119C272.368 123.906 277.631 125.779 277.04 128.586C276.549 130.925 272.666 130.708 272.022 133.231C271.365 135.805 275.056 137.378 275.476 141.219C275.771 143.899 274.317 146.328 272.904 148.069C270.923 148.273 268.942 148.477 266.962 148.681C268.653 147.266 270.765 145.024 270.761 142.294C270.757 138.213 266.037 136.337 266.718 133.119C267.349 130.138 271.79 129.895 271.908 127.295C272.017 124.856 268.166 123.944 267.93 120.913C267.782 119.007 269.144 117.339 270.192 116.308Z" fill="#FEA1BD"/>
<path d="M189.707 185.446C191.157 184.998 192.607 184.546 194.057 184.098C193.829 184.512 193.361 185.51 193.524 186.759C193.859 189.281 196.447 190.344 196.556 190.389C194.911 190.8 193.269 191.216 191.624 191.627C190.083 191.223 188.938 189.989 188.727 188.51C188.488 186.838 189.554 185.62 189.711 185.444L189.707 185.446Z" fill="#FEA1BD"/>
<path d="M240.204 146.713C239.315 147.944 238.43 149.177 237.542 150.408C237.474 149.94 237.247 148.862 236.365 147.963C234.58 146.15 231.759 146.89 231.759 146.89C231.759 146.89 233.886 144.25 234.952 142.932C236.425 142.327 238.083 142.623 239.141 143.677C240.339 144.867 240.221 146.482 240.201 146.717L240.204 146.713Z" fill="#7766C2"/>
<path d="M180.445 173.359C179.556 174.59 178.671 175.824 177.782 177.055C177.715 176.587 177.488 175.508 176.606 174.609C174.821 172.797 172 173.536 172 173.536C172 173.536 174.127 170.896 175.193 169.578C176.666 168.973 178.324 169.269 179.382 170.323C180.58 171.514 180.462 173.128 180.442 173.364L180.445 173.359Z" fill="#2B9FE6"/>
<path d="M235.614 168.819C232.327 166.826 228.391 171.285 223.885 169.707C220.867 168.651 219.226 165.463 218.329 163.061C217.772 165.316 217.216 167.57 216.659 169.824C218.024 172.054 220.132 174.584 223.213 175.301C227.487 176.292 230.62 173.08 233.162 174.458L235.842 168.969C235.768 168.918 235.697 168.864 235.618 168.816L235.614 168.819Z" fill="#FFCD1C"/>
<path d="M238.973 116.661C239.439 116.396 239.873 116.125 240.282 115.849C242.098 116.178 244.699 116.948 245.889 119.028C247.782 122.329 244.415 125.975 246.251 128.422C248.16 130.964 252.768 128.316 255.556 130.619L250.539 134.849C250.472 134.78 250.404 134.711 250.327 134.642C247.87 132.482 243.98 135.428 241.813 133.352C239.211 130.858 243.375 125.238 240.613 121.379C239.185 119.384 236.553 118.763 234.556 118.545C235.891 118.147 237.406 117.558 238.973 116.666V116.661Z" fill="#14AE59"/>
<path d="M208.451 136.902C208.829 137.802 209.596 139.271 211.068 140.62C212.521 141.951 213.951 142.52 214.25 142.632C215.86 143.248 216.439 142.958 217.067 143.356C218.056 143.985 218.686 146.017 217.13 152.172C218.864 151.254 220.602 150.33 222.336 149.413C223.555 142.604 222.396 140.249 221.096 139.367C219.45 138.251 216.908 139.046 214.748 137.011C213.931 136.24 213.503 135.382 213.287 134.856L208.451 136.902Z" fill="#2B9FE6"/>
<path d="M198.466 170.753C198.466 170.753 198.508 170.753 198.53 170.753C198.407 170.438 198.338 170.102 198.338 169.748C198.338 168.148 199.715 166.849 201.412 166.849C203.109 166.849 204.485 168.148 204.485 169.748C204.485 170.257 204.344 170.736 204.101 171.15C205.423 171.474 206.397 172.604 206.397 173.95C206.397 175.551 205.021 176.849 203.324 176.849C202.258 176.849 201.32 176.34 200.772 175.564C200.209 176.163 199.386 176.547 198.471 176.547C196.774 176.547 195.397 175.249 195.397 173.648C195.397 172.048 196.774 170.749 198.471 170.749L198.466 170.753Z" fill="#7766C2"/>
<path d="M189.056 156.849C187.123 156.849 185.556 155.282 185.556 153.349C185.556 151.416 187.123 149.849 189.056 149.849C190.989 149.849 192.556 151.416 192.556 153.349C192.556 155.282 190.989 156.849 189.056 156.849Z" fill="#14AE59"/>
<path d="M255.897 157.849C253.964 157.849 252.397 156.282 252.397 154.349C252.397 152.416 253.964 150.849 255.897 150.849C257.83 150.849 259.397 152.416 259.397 154.349C259.397 156.282 257.83 157.849 255.897 157.849Z" fill="#2B9FE6"/>
<path d="M228.056 114.849C226.123 114.849 224.556 113.282 224.556 111.349C224.556 109.416 226.123 107.849 228.056 107.849C229.989 107.849 231.556 109.416 231.556 111.349C231.556 113.282 229.989 114.849 228.056 114.849Z" fill="#FEA1BD"/>
<path d="M223.207 183.854C223.345 184.359 223.645 185.144 224.323 186.031C225.082 187.025 225.979 187.708 226.556 188.096C225.162 188.386 223.597 188.83 222.015 189.513C217.656 191.389 215.412 194.106 214.296 195.849C214.237 195.686 214.173 195.523 214.103 195.355C213.334 193.586 211.913 192.148 210.556 191.078C212.095 189.324 214.648 187.035 218.762 185.307C220.3 184.66 221.818 184.191 223.212 183.849L223.207 183.854Z" fill="#14AE59"/>
<path d="M274.551 214.24C276.988 215.468 279.666 213.068 278.711 210.511L262.657 167.538C261.917 165.559 259.418 164.944 257.844 166.354L232.93 188.687C231.356 190.098 231.695 192.649 233.583 193.6L274.551 214.24Z" fill="#FFE072"/>
</svg>
