<svg width="169" height="123" viewBox="0 0 169 123" fill="none" xmlns="http://www.w3.org/2000/svg">
<ellipse cx="86.9951" cy="99" rx="30" ry="12" fill="#FFCD1C"/>
<path d="M138.246 89.2413L131.518 86.4752L126.324 91.4136C125.216 92.4718 123.364 91.5977 123.478 90.0702L123.996 82.9232L117.566 79.5113C116.204 78.7842 116.446 76.7815 117.949 76.4364L124.994 74.7934L126.22 67.7454C126.482 66.2481 128.486 65.8836 129.308 67.1908L133.145 73.3224L140.327 72.3727C141.856 72.1685 142.846 73.9453 141.86 75.1023L137.184 80.5382L140.388 87.005C141.078 88.3799 139.684 89.8399 138.242 89.2527L138.246 89.2413Z" fill="#FEA1BD"/>
<path d="M52.0101 81.3728L45.0718 83.5591L44.2476 90.6781C44.0747 92.2005 42.0923 92.716 41.2014 91.47L37.0205 85.6504L29.8978 87.1495C28.3861 87.4638 27.2885 85.7713 28.2216 84.5433L32.5786 78.7687L29.0051 72.5712C28.2475 71.2533 29.5523 69.69 31.021 70.1672L37.8957 72.4169L42.8014 67.0873C43.845 65.9506 45.7434 66.6808 45.7277 68.2007L45.6192 75.3706L52.2222 78.2836C53.6326 78.8974 53.4975 80.9115 52.0141 81.3844L52.0101 81.3728Z" fill="#FEA1BD"/>
<path d="M18.9389 90.9938L14.4006 92.4184L13.9168 97.2329C13.8155 98.2625 12.518 98.5957 11.923 97.7446L9.13075 93.7697L4.46586 94.7275C3.47575 94.9282 2.74142 93.7732 3.34424 92.9491L6.1586 89.0735L3.76213 84.8477C3.25406 83.9491 4.09824 82.9009 5.06644 83.2359L9.59872 84.8149L12.777 81.2451C13.4531 80.4837 14.7055 80.9935 14.7074 82.0227L14.694 86.8774L19.0532 88.9034C19.9842 89.3304 19.9118 90.6934 18.9416 91.0016L18.9389 90.9938Z" fill="#FEA1BD"/>
<path d="M162.776 96.7549L158.379 94.9415L154.923 98.3284C154.186 99.0541 152.976 98.4787 153.064 97.4441L153.467 92.6032L149.271 90.3502C148.382 89.87 148.558 88.5127 149.549 88.2661L154.193 87.0931L155.06 82.3131C155.245 81.2976 156.565 81.0335 157.094 81.911L159.563 86.0269L164.29 85.3219C165.297 85.1704 165.932 86.3642 165.274 87.1557L162.154 90.8748L164.203 95.2231C164.644 96.1474 163.716 97.1475 162.773 96.7627L162.776 96.7549Z" fill="#FEA1BD"/>
<path d="M97.5306 26.2727V99H82.1542V40.8679H81.7281L65.0732 51.3082V37.6719L83.0775 26.2727H97.5306Z" fill="#434040"/>
<path d="M93.5306 24.2727V97H78.1542V38.8679H77.7281L61.0732 49.3082V35.6719L79.0775 24.2727H93.5306Z" fill="#EAE8DC"/>
</svg>
