<svg width="300" height="235" viewBox="0 0 300 235" fill="none" xmlns="http://www.w3.org/2000/svg">
<circle cx="148.356" cy="88.3556" r="86.3556" fill="#EAE8DC"/>
<rect x="79.8657" y="150.141" width="131.269" height="51.8592" rx="25.9296" fill="#2B9FE6"/>
<rect x="79.8657" y="37" width="131.269" height="51.8592" rx="25.9296" fill="#2B9FE6"/>
<rect x="171.43" y="61.0078" width="131.269" height="51.8592" rx="25.9296" transform="rotate(90 171.43 61.0078)" fill="#2B9FE6"/>
<circle cx="129.411" cy="59.1951" r="8.48953" fill="#EAE8DC"/>
<circle cx="129.411" cy="59.1952" r="7.35759" fill="#434040"/>
<circle cx="126.015" cy="55.7992" r="1.69791" fill="#D9D9D9"/>
<circle cx="162.237" cy="59.1951" r="8.48953" fill="#EAE8DC"/>
<circle cx="162.237" cy="59.1952" r="7.35759" fill="#434040"/>
<circle cx="158.841" cy="55.7992" r="1.69791" fill="#D9D9D9"/>
<circle cx="145.824" cy="110.668" r="5.99621" fill="#FEA1BD"/>
<circle cx="145.824" cy="131.226" r="5.99621" fill="#FEA1BD"/>
<path d="M143.106 66.1739C144.16 64.6962 146.356 64.6962 147.41 66.1739L152.572 73.4117C153.819 75.1612 152.569 77.5892 150.42 77.5892H140.096C137.947 77.5892 136.697 75.1612 137.944 73.4117L143.106 66.1739Z" fill="#FEA1BD"/>
<path d="M121.375 5.6422C120.018 3.94218 118.137 2.95858 115.937 2.78869C114.965 2.71358 114.017 2.85123 113.111 3.1996C112.354 3.48907 111.64 3.91774 110.925 4.50619C109.789 5.44835 108.846 6.65925 107.933 7.82068C106.717 9.37407 105.572 10.8407 104.185 11.501L106.532 16.434C109.029 15.2459 110.683 13.1293 112.147 11.2568C113.665 9.31144 114.659 8.13501 115.641 8.20555C116.356 8.26101 116.835 8.49993 117.242 9.00923C117.689 9.56466 118.051 10.4617 118.285 11.597C118.531 12.7683 118.652 14.2112 118.653 15.883C118.642 19.1142 118.18 22.5482 117.837 25.057C117.706 26.0058 117.598 26.831 117.527 27.4854C117.503 27.7567 117.477 28.0114 117.448 28.2612C117.437 28.3492 117.434 28.4278 117.422 28.5158L77.9355 47.3075C77.865 47.2583 77.7968 47.214 77.7215 47.1671C77.5098 47.0315 77.2958 46.8911 77.0724 46.7434C76.5198 46.3742 75.8089 45.9444 74.9897 45.448C72.8313 44.1295 69.8703 42.3245 67.3607 40.2928C66.059 39.2402 65.0158 38.2359 64.2616 37.3068C63.5282 36.4091 63.0604 35.5623 62.9112 34.8652C62.7728 34.228 62.8846 33.708 63.2975 33.1157C63.8618 32.3095 65.402 32.2796 67.8689 32.3286C70.2455 32.3734 72.9313 32.4246 75.4277 31.2366L73.0801 26.3036C71.6927 26.9639 69.8324 26.9275 67.8602 26.8911C66.3805 26.8626 64.8462 26.8307 63.4012 27.1225C62.4935 27.3063 61.7102 27.5904 61.008 27.9955C60.1711 28.4765 59.4669 29.1248 58.9099 29.9216C57.6539 31.7365 57.2307 33.8167 57.6944 35.9417C58.3031 38.7303 60.3917 41.5354 64.0858 44.5219C66.8815 46.7837 70.0239 48.6975 72.3141 50.095C73.0861 50.5666 73.757 50.9741 74.2296 51.2868C74.4624 51.4419 74.6858 51.5896 74.9046 51.7277C75.9983 52.4421 76.7697 52.9495 77.4681 53.6747L79.3572 57.6442C79.0355 57.7973 78.9072 58.1833 79.0631 58.5109C79.219 58.8385 79.5995 58.9824 79.9211 58.8293L125.126 37.3165C125.448 37.1634 125.576 36.7774 125.42 36.4498C125.264 36.1222 124.879 35.9806 124.562 36.1314L122.673 32.1619C122.548 31.1577 122.641 30.2391 122.776 28.9398C122.802 28.6852 122.829 28.4187 122.86 28.1379C122.915 27.5739 123.02 26.8034 123.143 25.8997C123.501 23.2362 124 19.5955 124.008 15.9994C124.015 11.2514 123.158 7.8543 121.38 5.628L121.375 5.6422Z" fill="#FFCD1C"/>
<path d="M91.8478 35.4635C92.6159 37.0773 91.7154 42.5221 91.7154 42.5221C91.7154 42.5221 86.9221 39.787 86.154 38.1732C85.386 36.5594 86.0395 34.6413 87.6093 33.8942C89.1792 33.1471 91.0798 33.8497 91.8478 35.4635Z" fill="#FFCD1C"/>
<path d="M105.16 29.1281C105.928 30.7419 105.028 36.1867 105.028 36.1867C105.028 36.1867 100.235 33.4515 99.4665 31.8377C98.6985 30.2239 99.352 28.3058 100.922 27.5587C102.492 26.8116 104.392 27.5142 105.16 29.1281Z" fill="#FFCD1C"/>
<path d="M73.2479 41.491C74.6904 37.7913 79.1415 34.0541 83.0818 33.4256C81.6483 37.1565 77.1843 40.8171 73.2479 41.491Z" fill="#FFCD1C"/>
<path d="M116.043 21.125C113.042 23.7525 107.381 24.9103 103.586 23.6674C106.559 21.006 112.262 19.911 116.043 21.125Z" fill="#FFCD1C"/>
<path d="M87.4648 31.2154C89.7371 27.9479 94.9558 25.4526 98.9244 25.7618C96.654 29.058 91.4388 31.4867 87.4648 31.2154Z" fill="#FFCD1C"/>
<path d="M82.9177 4.22754L86.4908 8.64235L90.9603 6.51529L85.2221 3.13088L82.9177 4.22754Z" fill="#FEA1BD"/>
<path d="M82.9177 4.22748L80.6133 5.32413L82.0164 10.7716L86.4812 8.64686L82.9177 4.22748Z" fill="#FEA1BD"/>
<path d="M80.6133 5.3242L82.0164 10.7717L77.5564 12.8942L78.3089 6.42086L80.6133 5.3242Z" fill="#FEA1BD"/>
<path d="M123.172 33.224L77.9675 54.7368L78.5315 55.9219L123.736 34.4091L123.172 33.224Z" fill="#FEA1BD"/>
<path d="M108.243 8.58308C107.374 7.53713 106.371 6.69107 105.268 6.08143C104.071 5.42212 102.748 5.02966 101.336 4.92153C100.286 4.8424 99.2624 4.99276 98.2871 5.3683C97.4603 5.68494 96.6784 6.15752 95.9005 6.7995C94.6418 7.84165 93.5819 9.20273 92.5564 10.5121C92.2713 10.8782 91.9863 11.2442 91.6918 11.603C91.6799 9.49933 91.4974 7.6187 90.9678 6.50588L77.5639 12.8848C78.0911 13.9928 79.433 15.3276 81.0628 16.6613C80.5964 16.6587 80.1348 16.6539 79.6709 16.6442C78.0057 16.6095 76.2833 16.5784 74.6808 16.8979C73.6848 17.0942 72.832 17.4055 72.0649 17.8474C71.1583 18.3674 70.3912 19.0693 69.795 19.932C68.9886 21.0957 68.4586 22.3701 68.2154 23.7148C67.9859 24.9525 68.0146 26.2623 68.2807 27.601C68.9702 31.0542 71.3016 34.7778 75.2149 38.6703C78.2328 41.6713 81.3426 43.9373 82.8564 44.9776L88.4925 42.2953C88.0437 41.9831 87.5852 41.6755 87.1006 41.3625C86.8607 41.2049 86.6137 41.0447 86.3597 40.882C82.3783 38.2568 74.5734 31.9032 73.5242 26.63C73.2581 25.2913 73.471 24.1797 74.1894 23.1406C74.4214 22.8115 74.7946 22.4449 75.8216 22.2398C76.8701 22.0303 78.2427 22.0565 79.6938 22.0868C81.9585 22.1316 84.4803 22.1723 86.8912 21.3735L95.3191 39.0584L100.125 36.7714L91.6968 19.0866C93.8323 17.7217 95.3913 15.739 96.7896 13.951C97.6813 12.8058 98.5266 11.724 99.3505 11.0424C100.157 10.3748 100.677 10.3165 101.074 10.3462C102.341 10.4466 103.335 10.9776 104.202 12.0307C107.63 16.1778 107.64 26.2347 107.167 30.9801C107.137 31.2895 107.106 31.5822 107.074 31.8629C107.014 32.4412 106.964 32.991 106.92 33.5315L112.557 30.8492C112.704 29.0184 112.907 25.1759 112.481 20.9412C111.933 15.4471 110.512 11.2847 108.269 8.57648L108.243 8.58308Z" fill="#FFCD1C"/>
<path d="M86.5829 14.5894C84.7778 15.4485 82.8037 15.5194 81.053 14.9463C82.4713 17.1842 85.3202 18.0854 87.7158 16.9454C90.1115 15.8053 91.2113 13.019 90.3598 10.4996C89.705 12.2292 88.3976 13.7258 86.5877 14.5871L86.5829 14.5894Z" fill="#FFCD1C"/>
<path d="M28.616 159.653L28.6718 159.713L28.7447 159.674C30.4872 158.754 32.3541 160.674 31.3756 162.383L31.3348 162.453L31.3927 162.509C32.809 163.877 31.5537 166.243 29.6245 165.843L29.5451 165.826L29.5086 165.898C28.6417 167.665 26.0001 167.205 25.7834 165.25L25.7748 165.168L25.6933 165.158C23.7405 164.881 23.3628 162.231 25.1611 161.424L25.2362 161.389L25.2212 161.31C24.8821 159.372 27.2898 158.195 28.616 159.651V159.653Z" fill="#FEA1BD"/>
<path d="M39.922 93.8383C38.4022 92.6887 36.2333 92.9894 35.0837 94.5093C33.9341 96.0291 34.2348 98.198 35.7547 99.3476C37.2745 100.497 39.4434 100.196 40.593 98.6766C42.1128 99.8262 44.2817 99.5254 45.4313 98.0056C46.5809 96.4858 46.2802 94.3169 44.7603 93.1673C43.2405 92.0177 41.0716 92.3185 39.922 93.8383Z" fill="#FFCD1C"/>
<path d="M29.3645 116.459C27.7055 116.204 26.052 115.947 24.393 115.692C25.6113 116.725 27.0619 118.312 27.1032 120.27C27.1881 124.057 21.9256 125.93 22.516 128.737C23.0075 131.076 26.8897 130.859 27.5341 133.382C28.1916 135.956 24.5001 137.529 24.0797 141.37C23.7853 144.05 25.2393 146.479 26.6525 148.22C28.6332 148.424 30.6138 148.628 32.5945 148.832C30.903 147.418 28.7915 145.175 28.7949 142.445C28.7989 138.364 33.5189 136.488 32.8382 133.27C32.2076 130.289 27.7658 130.046 27.6477 127.446C27.5392 125.007 31.3906 124.095 31.6263 121.064C31.7741 119.158 30.4122 117.49 29.3645 116.459Z" fill="#FEA1BD"/>
<path d="M109.85 185.597C108.399 185.149 106.95 184.697 105.499 184.249C105.727 184.664 106.195 185.661 106.032 186.91C105.698 189.432 103.109 190.495 103 190.54C104.645 190.951 106.288 191.367 107.932 191.778C109.473 191.374 110.618 190.14 110.829 188.661C111.068 186.989 110.003 185.771 109.845 185.595L109.85 185.597Z" fill="#FEA1BD"/>
<path d="M59.3519 146.864C60.2409 148.095 61.1256 149.329 62.0145 150.559C62.082 150.091 62.309 149.013 63.1909 148.114C64.9762 146.301 67.7969 147.041 67.7969 147.041C67.7969 147.041 65.67 144.401 64.6044 143.083C63.1308 142.478 61.4734 142.774 60.4149 143.828C59.217 145.018 59.3347 146.633 59.3548 146.868L59.3519 146.864Z" fill="#EF6125"/>
<path d="M119.111 173.51C120 174.741 120.885 175.975 121.774 177.206C121.841 176.738 122.068 175.659 122.95 174.76C124.735 172.948 127.556 173.687 127.556 173.687C127.556 173.687 125.429 171.048 124.364 169.729C122.89 169.124 121.233 169.42 120.174 170.474C118.976 171.665 119.094 173.279 119.114 173.515L119.111 173.51Z" fill="#7766C2"/>
<path d="M63.9423 168.97C67.2296 166.977 71.1647 171.436 75.6709 169.858C78.6893 168.802 80.3298 165.614 81.2273 163.213C81.7839 165.467 82.3405 167.721 82.8971 169.975C81.532 172.205 79.4241 174.735 76.3428 175.452C72.0696 176.443 68.9364 173.231 66.3943 174.609L63.7139 169.12C63.7886 169.069 63.8589 169.016 63.9379 168.967L63.9423 168.97Z" fill="#FFCD1C"/>
<path d="M60.5828 116.812C60.1172 116.547 59.6828 116.276 59.2741 116C57.4586 116.329 54.8569 117.099 53.6672 119.179C51.7741 122.48 55.1414 126.127 53.3052 128.573C51.3966 131.115 46.7879 128.467 44 130.77L49.0172 135C49.0845 134.931 49.1517 134.862 49.2293 134.793C51.6862 132.633 55.5759 135.579 57.7431 133.504C60.3448 131.009 56.181 125.389 58.9431 121.53C60.3707 119.535 63.0034 118.914 65 118.696C63.6655 118.298 62.15 117.709 60.5828 116.818V116.812Z" fill="#14AE59"/>
<path d="M91.105 137.054C90.7267 137.953 89.9597 139.422 88.4879 140.771C87.0355 142.102 85.6048 142.671 85.3063 142.783C83.6964 143.399 83.117 143.109 82.489 143.507C81.5006 144.136 80.87 146.168 82.4257 152.323C80.6917 151.405 78.9537 150.482 77.2197 149.564C76.0016 142.755 77.16 140.4 78.4603 139.518C80.1059 138.402 82.6483 139.197 84.8084 137.162C85.6254 136.391 86.0531 135.533 86.2688 135.007L91.105 137.054Z" fill="#7766C2"/>
<path d="M101.09 170.904C101.09 170.904 101.049 170.904 101.026 170.904C101.149 170.59 101.218 170.253 101.218 169.899C101.218 168.299 99.841 167 98.1441 167C96.4473 167 95.0705 168.299 95.0705 169.899C95.0705 170.408 95.2123 170.887 95.4547 171.301C94.1329 171.625 93.1587 172.755 93.1587 174.101C93.1587 175.702 94.5354 177 96.2323 177C97.298 177 98.2356 176.491 98.7845 175.715C99.347 176.314 100.17 176.698 101.085 176.698C102.782 176.698 104.159 175.4 104.159 173.799C104.159 172.199 102.782 170.9 101.085 170.9L101.09 170.904Z" fill="#EF6125"/>
<path d="M110.5 157C112.433 157 114 155.433 114 153.5C114 151.567 112.433 150 110.5 150C108.567 150 107 151.567 107 153.5C107 155.433 108.567 157 110.5 157Z" fill="#14AE59"/>
<path d="M43.6587 158C45.5917 158 47.1587 156.433 47.1587 154.5C47.1587 152.567 45.5917 151 43.6587 151C41.7257 151 40.1587 152.567 40.1587 154.5C40.1587 156.433 41.7257 158 43.6587 158Z" fill="#7766C2"/>
<path d="M71.5 115C73.433 115 75 113.433 75 111.5C75 109.567 73.433 108 71.5 108C69.567 108 68 109.567 68 111.5C68 113.433 69.567 115 71.5 115Z" fill="#FEA1BD"/>
<path d="M76.3496 184.005C76.2107 184.51 75.9115 185.295 75.2331 186.182C74.4745 187.176 73.577 187.859 73 188.247C74.3943 188.537 75.9596 188.981 77.5409 189.664C81.9002 191.54 84.1439 194.257 85.2604 196C85.3192 195.837 85.3833 195.674 85.4528 195.506C86.222 193.737 87.6431 192.299 89 191.229C87.4614 189.475 84.9078 187.186 80.7943 185.458C79.2558 184.811 77.7386 184.342 76.3442 184L76.3496 184.005Z" fill="#14AE59"/>
<path d="M25.0054 214.391C22.568 215.619 19.8902 213.219 20.8453 210.662L36.8994 167.69C37.6389 165.71 40.1386 165.095 41.7121 166.506L66.6262 188.838C68.1997 190.249 67.8608 192.801 65.9736 193.752L25.0054 214.391Z" fill="#FFE072"/>
<path d="M270.94 159.653L270.884 159.713L270.811 159.674C269.069 158.754 267.202 160.674 268.181 162.383L268.221 162.453L268.163 162.509C266.747 163.877 268.002 166.243 269.932 165.843L270.011 165.826L270.048 165.898C270.914 167.665 273.556 167.205 273.773 165.25L273.781 165.168L273.863 165.158C275.816 164.881 276.193 162.231 274.395 161.424L274.32 161.389L274.335 161.31C274.674 159.372 272.266 158.195 270.94 159.651V159.653Z" fill="#FEA1BD"/>
<path d="M259.634 93.8383C261.154 92.6887 263.323 92.9894 264.472 94.5093C265.622 96.0291 265.321 98.198 263.801 99.3476C262.282 100.497 260.113 100.196 258.963 98.6766C257.443 99.8262 255.274 99.5254 254.125 98.0056C252.975 96.4858 253.276 94.3169 254.796 93.1673C256.316 92.0177 258.485 92.3185 259.634 93.8383Z" fill="#FFCD1C"/>
<path d="M270.192 116.459C271.851 116.204 273.504 115.947 275.163 115.692C273.945 116.725 272.494 118.312 272.453 120.27C272.368 124.057 277.631 125.93 277.04 128.737C276.549 131.076 272.666 130.859 272.022 133.382C271.365 135.956 275.056 137.529 275.476 141.37C275.771 144.05 274.317 146.479 272.904 148.22C270.923 148.424 268.942 148.628 266.962 148.832C268.653 147.418 270.765 145.175 270.761 142.445C270.757 138.364 266.037 136.488 266.718 133.27C267.349 130.289 271.79 130.046 271.908 127.446C272.017 125.007 268.166 124.095 267.93 121.064C267.782 119.158 269.144 117.49 270.192 116.459Z" fill="#FEA1BD"/>
<path d="M189.707 185.597C191.157 185.149 192.607 184.697 194.057 184.249C193.829 184.664 193.361 185.661 193.524 186.91C193.859 189.432 196.447 190.495 196.556 190.54C194.911 190.951 193.269 191.367 191.624 191.778C190.083 191.374 188.938 190.14 188.727 188.661C188.488 186.989 189.554 185.771 189.711 185.595L189.707 185.597Z" fill="#FEA1BD"/>
<path d="M240.204 146.864C239.315 148.095 238.431 149.329 237.542 150.559C237.474 150.091 237.247 149.013 236.365 148.114C234.58 146.301 231.759 147.041 231.759 147.041C231.759 147.041 233.886 144.401 234.952 143.083C236.425 142.478 238.083 142.774 239.141 143.828C240.339 145.018 240.221 146.633 240.201 146.868L240.204 146.864Z" fill="#EF6125"/>
<path d="M180.445 173.51C179.556 174.741 178.671 175.975 177.782 177.206C177.715 176.738 177.488 175.659 176.606 174.76C174.821 172.948 172 173.687 172 173.687C172 173.687 174.127 171.048 175.193 169.729C176.666 169.124 178.323 169.42 179.382 170.474C180.58 171.665 180.462 173.279 180.442 173.515L180.445 173.51Z" fill="#7766C2"/>
<path d="M235.614 168.97C232.327 166.977 228.391 171.436 223.885 169.858C220.867 168.802 219.226 165.614 218.329 163.213C217.772 165.467 217.216 167.721 216.659 169.975C218.024 172.205 220.132 174.735 223.213 175.452C227.487 176.443 230.62 173.231 233.162 174.609L235.842 169.12C235.768 169.069 235.697 169.016 235.618 168.967L235.614 168.97Z" fill="#FFCD1C"/>
<path d="M238.973 116.812C239.439 116.547 239.873 116.276 240.282 116C242.098 116.329 244.699 117.099 245.889 119.179C247.782 122.48 244.415 126.127 246.251 128.573C248.16 131.115 252.768 128.467 255.556 130.77L250.539 135C250.472 134.931 250.404 134.862 250.327 134.793C247.87 132.633 243.98 135.579 241.813 133.504C239.211 131.009 243.375 125.389 240.613 121.53C239.185 119.535 236.553 118.914 234.556 118.696C235.891 118.298 237.406 117.709 238.973 116.818V116.812Z" fill="#14AE59"/>
<path d="M208.451 137.054C208.829 137.953 209.596 139.422 211.068 140.771C212.521 142.102 213.951 142.671 214.25 142.783C215.86 143.399 216.439 143.109 217.067 143.507C218.056 144.136 218.686 146.168 217.13 152.323C218.864 151.405 220.602 150.482 222.336 149.564C223.555 142.755 222.396 140.4 221.096 139.518C219.45 138.402 216.908 139.197 214.748 137.162C213.931 136.391 213.503 135.533 213.287 135.007L208.451 137.054Z" fill="#7766C2"/>
<path d="M198.466 170.904C198.466 170.904 198.508 170.904 198.531 170.904C198.407 170.59 198.338 170.253 198.338 169.899C198.338 168.299 199.715 167 201.412 167C203.109 167 204.486 168.299 204.486 169.899C204.486 170.408 204.344 170.887 204.101 171.301C205.423 171.625 206.397 172.755 206.397 174.101C206.397 175.702 205.021 177 203.324 177C202.258 177 201.321 176.491 200.772 175.715C200.209 176.314 199.386 176.698 198.471 176.698C196.774 176.698 195.397 175.4 195.397 173.799C195.397 172.199 196.774 170.9 198.471 170.9L198.466 170.904Z" fill="#EF6125"/>
<path d="M189.056 157C187.123 157 185.556 155.433 185.556 153.5C185.556 151.567 187.123 150 189.056 150C190.989 150 192.556 151.567 192.556 153.5C192.556 155.433 190.989 157 189.056 157Z" fill="#14AE59"/>
<path d="M255.897 158C253.964 158 252.397 156.433 252.397 154.5C252.397 152.567 253.964 151 255.897 151C257.83 151 259.397 152.567 259.397 154.5C259.397 156.433 257.83 158 255.897 158Z" fill="#7766C2"/>
<path d="M228.056 115C226.123 115 224.556 113.433 224.556 111.5C224.556 109.567 226.123 108 228.056 108C229.989 108 231.556 109.567 231.556 111.5C231.556 113.433 229.989 115 228.056 115Z" fill="#FEA1BD"/>
<path d="M223.207 184.005C223.345 184.51 223.645 185.295 224.323 186.182C225.082 187.176 225.979 187.859 226.556 188.247C225.162 188.537 223.597 188.981 222.015 189.664C217.656 191.54 215.412 194.257 214.296 196C214.237 195.837 214.173 195.674 214.103 195.506C213.334 193.737 211.913 192.299 210.556 191.229C212.095 189.475 214.648 187.186 218.762 185.458C220.3 184.811 221.818 184.342 223.212 184L223.207 184.005Z" fill="#14AE59"/>
<path d="M274.551 214.391C276.988 215.619 279.666 213.219 278.711 210.662L262.657 167.689C261.917 165.71 259.418 165.095 257.844 166.505L232.93 188.838C231.356 190.249 231.695 192.801 233.583 193.751L274.551 214.391Z" fill="#FFE072"/>
</svg>
