<svg width="300" height="259" viewBox="0 0 300 259" fill="none" xmlns="http://www.w3.org/2000/svg">
<circle cx="148.356" cy="112.356" r="86.3556" fill="#EAE8DC"/>
<path d="M97.13 30.0514L83.7261 36.4303L84.4786 29.957L91.3918 26.667L97.13 30.0514Z" fill="#FFCD1C"/>
<rect x="143.818" y="106.24" width="28.4375" height="19.9062" rx="9.95312" transform="rotate(90 143.818 106.24)" fill="#14AE59"/>
<rect x="123.911" y="106.24" width="27.4896" height="18.9583" rx="9.47916" transform="rotate(90 123.911 106.24)" fill="#14AE59"/>
<rect x="104.953" y="106.24" width="28.4375" height="19.9062" rx="9.95312" transform="rotate(90 104.953 106.24)" fill="#14AE59"/>
<rect x="208.276" y="56" width="182" height="60.6666" rx="30" transform="rotate(90 208.276 56)" fill="#FEA1BD"/>
<rect x="208.276" y="238" width="148.823" height="121.333" rx="30" transform="rotate(-180 208.276 238)" fill="#FEA1BD"/>
<circle cx="165.62" cy="81.5937" r="9.47916" fill="#D9D9D9"/>
<circle cx="165.62" cy="81.5937" r="7.42961" fill="#434040"/>
<path d="M175.099 81.5937C170.232 81.5937 170.599 81.5937 165.364 81.5937C160.129 81.5937 161.777 81.5937 156.141 81.5937C156.141 76.3585 160.385 72.1145 165.62 72.1145C170.855 72.1145 175.099 76.3585 175.099 81.5937Z" fill="#14AE59"/>
<circle cx="160.881" cy="83.4897" r="0.947916" fill="#D9D9D9"/>
<circle cx="190.266" cy="81.5937" r="9.47916" fill="#D9D9D9"/>
<circle cx="190.266" cy="81.5937" r="7.42961" fill="#434040"/>
<path d="M199.745 81.5937C194.877 81.5937 195.245 81.5937 190.009 81.5937C184.774 81.5937 186.423 81.5937 180.786 81.5937C180.786 76.3585 185.03 72.1145 190.266 72.1145C195.501 72.1145 199.745 76.3585 199.745 81.5937Z" fill="#14AE59"/>
<circle cx="185.526" cy="83.4897" r="0.947916" fill="#D9D9D9"/>
<path d="M147.609 116.667L147.609 152.688C147.609 153.735 146.761 154.583 145.714 154.583V154.583C144.667 154.583 143.818 153.735 143.818 152.688L143.818 116.667L147.609 116.667Z" fill="#EAE8DC"/>
<rect x="168.464" y="100.552" width="18.9583" height="7.58333" rx="3.79167" fill="#14AE59"/>
<rect x="168.464" y="92.0208" width="18.9583" height="7.58333" rx="3.79167" fill="#14AE59"/>
<path d="M224.937 48.1638C225.045 45.9915 224.286 44.009 222.749 42.4251C222.07 41.7255 221.269 41.2016 220.36 40.8632C219.6 40.5789 218.781 40.4273 217.856 40.3951C216.381 40.3497 214.873 40.6333 213.419 40.8993C211.48 41.259 209.651 41.6005 208.174 41.1771L206.668 46.4286C209.326 47.1905 211.967 46.6989 214.304 46.2643C216.729 45.8108 218.253 45.5873 218.942 46.2899C219.442 46.8049 219.642 47.3009 219.611 47.9522C219.578 48.6643 219.256 49.5765 218.68 50.5824C218.088 51.6228 217.224 52.7848 216.118 54.0383C213.971 56.4532 211.352 58.7215 209.434 60.3751C208.708 60.9993 208.081 61.5466 207.594 61.9899C207.397 62.1774 207.209 62.3511 207.022 62.5196C206.955 62.5782 206.901 62.6346 206.834 62.6932L164.797 50.6423C164.777 50.5588 164.755 50.4804 164.729 50.3954C164.66 50.1537 164.593 49.9068 164.523 49.6481C164.353 49.0056 164.105 48.2129 163.82 47.2986C163.074 44.8816 162.05 41.5687 161.513 38.3846C161.234 36.734 161.117 35.2907 161.167 34.095C161.211 32.9367 161.421 31.9924 161.771 31.3711C162.089 30.8018 162.517 30.486 163.218 30.3153C164.175 30.0845 165.349 31.0816 167.166 32.7512C168.918 34.3579 170.897 36.174 173.555 36.9359L175.06 31.6843C173.583 31.2609 172.213 30.0023 170.758 28.6696C169.668 27.6689 168.539 26.6293 167.263 25.8915C166.461 25.4285 165.686 25.123 164.891 24.9619C163.945 24.7685 162.988 24.7883 162.044 25.0169C159.901 25.5459 158.207 26.8251 157.148 28.7249C155.758 31.2181 155.467 34.7033 156.259 39.387C156.858 42.933 157.946 46.4474 158.738 49.0109C159.005 49.8754 159.238 50.6249 159.385 51.1722C159.457 51.4425 159.527 51.7011 159.599 51.9495C159.946 53.2089 160.188 54.0998 160.232 55.1057L159.021 59.3315C158.678 59.2334 158.326 59.4378 158.226 59.7865C158.126 60.1353 158.316 60.495 158.659 60.5932L206.783 74.389C207.125 74.4872 207.477 74.2828 207.577 73.9341C207.677 73.5853 207.482 73.2241 207.145 73.1274L208.356 68.9016C208.927 68.0663 209.605 67.4392 210.566 66.5549C210.755 66.3812 210.951 66.1988 211.16 66.009C211.575 65.6229 212.163 65.1145 212.854 64.5188C214.885 62.759 217.669 60.3602 220.055 57.6699C223.203 54.1158 224.809 51.0021 224.95 48.1565L224.937 48.1638Z" fill="#FFCD1C"/>
<path d="M183.065 50.973C182.572 52.691 178.293 56.1763 178.293 56.1763C178.293 56.1763 176.511 50.9534 177.003 49.2353C177.496 47.5173 179.255 46.512 180.927 46.9912C182.598 47.4703 183.557 49.2549 183.065 50.973Z" fill="#FFCD1C"/>
<path d="M197.237 55.0357C196.745 56.7538 192.466 60.2391 192.466 60.2391C192.466 60.2391 190.683 55.0161 191.176 53.2981C191.668 51.58 193.428 50.5748 195.099 51.0539C196.77 51.533 197.73 53.3177 197.237 55.0357Z" fill="#FFCD1C"/>
<path d="M165.133 43.1796C168.663 41.3611 174.473 41.5061 177.843 43.6431C174.299 45.4909 168.53 45.28 165.133 43.1796Z" fill="#FFCD1C"/>
<path d="M210.692 56.2399C206.703 56.2232 201.694 53.344 199.672 49.9007C203.662 49.8735 208.661 52.8273 210.692 56.2399Z" fill="#FFCD1C"/>
<path d="M182.591 44.8875C186.457 43.9423 192.021 45.5261 194.791 48.3848C190.907 49.3527 185.391 47.7212 182.591 44.8875Z" fill="#FFCD1C"/>
<path d="M197.047 21.6479L196.803 27.3222L201.561 28.6863L199.5 22.3512L197.047 21.6479Z" fill="#14AE59"/>
<path d="M197.047 21.6479L194.593 20.9446L192.039 25.9567L196.793 27.3193L197.047 21.6479Z" fill="#14AE59"/>
<path d="M194.593 20.9447L192.039 25.9567L187.291 24.5956L192.14 20.2414L194.593 20.9447Z" fill="#14AE59"/>
<path d="M208.028 70.0281L159.903 56.2322L159.542 57.4938L207.666 71.2897L208.028 70.0281Z" fill="#14AE59"/>
<path d="M213.147 41.6759C213.188 40.3169 212.996 39.0187 212.573 37.8318C212.112 36.5453 211.38 35.3753 210.394 34.3599C209.659 33.6053 208.792 33.0404 207.812 32.6763C206.983 32.3665 206.084 32.2031 205.076 32.1694C203.443 32.1174 201.747 32.4362 200.112 32.7388C199.656 32.8245 199.2 32.9103 198.742 32.9843C200.125 31.3995 201.233 29.869 201.573 28.6843L187.303 24.5936C186.965 25.7732 187.087 27.6619 187.426 29.7404C187.078 29.4298 186.735 29.1206 186.394 28.8063C185.169 27.6781 183.898 26.5147 182.486 25.6934C181.609 25.1813 180.764 24.8502 179.896 24.6737C178.873 24.4634 177.833 24.4818 176.815 24.7338C175.44 25.0723 174.2 25.6768 173.127 26.5237C172.136 27.2996 171.29 28.3004 170.604 29.48C168.835 32.5249 168.118 36.8592 168.475 42.3672C168.751 46.6143 169.582 50.3712 170.028 52.153L176.028 53.8731C175.898 53.3419 175.758 52.8078 175.602 52.2525C175.527 51.9756 175.447 51.692 175.365 51.4019C174.118 46.7988 172.473 36.8701 175.177 32.2229C175.864 31.0433 176.759 30.351 177.985 30.0476C178.377 29.9546 178.899 29.9267 179.805 30.4527C180.73 30.9897 181.741 31.918 182.809 32.9011C184.477 34.4338 186.34 36.1334 188.676 37.1305L183.288 55.9653L188.404 57.4319L193.792 38.5971C196.296 38.9876 198.777 38.5333 201.009 38.1185C202.435 37.8504 203.785 37.599 204.853 37.6334C205.9 37.6671 206.328 37.9675 206.606 38.2525C207.489 39.1661 207.883 40.2225 207.836 41.5852C207.66 46.9628 201.011 54.5084 197.515 57.7519C197.288 57.9644 197.071 58.1629 196.862 58.3527C196.434 58.7461 196.032 59.1249 195.642 59.5015L201.642 61.2216C202.965 59.9467 205.66 57.2007 208.144 53.7448C211.37 49.2639 213.06 45.2029 213.171 41.6884L213.147 41.6759Z" fill="#FFCD1C"/>
<path d="M192.935 31.841C191.014 31.2901 189.487 30.0366 188.554 28.4482C188.136 31.0645 189.675 33.6258 192.225 34.3569C194.775 35.088 197.444 33.7274 198.473 31.2753C196.838 32.1383 194.867 32.3948 192.94 31.8425L192.935 31.841Z" fill="#FFCD1C"/>
<path d="M270.94 183.653L270.884 183.713L270.811 183.674C269.069 182.754 267.202 184.674 268.181 186.383L268.221 186.453L268.163 186.509C266.747 187.877 268.002 190.243 269.932 189.843L270.011 189.826L270.048 189.898C270.914 191.665 273.556 191.205 273.773 189.25L273.781 189.168L273.863 189.158C275.816 188.881 276.193 186.231 274.395 185.424L274.32 185.389L274.335 185.31C274.674 183.372 272.266 182.195 270.94 183.651V183.653Z" fill="#FFCD1C"/>
<path d="M259.634 117.838C261.154 116.689 263.323 116.989 264.472 118.509C265.622 120.029 265.321 122.198 263.801 123.348C262.282 124.497 260.113 124.196 258.963 122.677C257.443 123.826 255.274 123.525 254.125 122.006C252.975 120.486 253.276 118.317 254.796 117.167C256.316 116.018 258.485 116.318 259.634 117.838Z" fill="#FFCD1C"/>
<path d="M270.192 140.459C271.851 140.204 273.504 139.947 275.163 139.692C273.945 140.725 272.494 142.312 272.453 144.27C272.368 148.057 277.631 149.93 277.04 152.737C276.549 155.076 272.666 154.859 272.022 157.382C271.365 159.956 275.056 161.529 275.476 165.37C275.771 168.05 274.317 170.479 272.904 172.22C270.923 172.424 268.942 172.628 266.962 172.832C268.653 171.418 270.765 169.175 270.761 166.445C270.757 162.364 266.037 160.488 266.718 157.27C267.349 154.289 271.79 154.046 271.908 151.446C272.017 149.007 268.166 148.095 267.93 145.064C267.782 143.158 269.144 141.49 270.192 140.459Z" fill="#FFCD1C"/>
<path d="M189.707 209.597C191.157 209.149 192.607 208.697 194.057 208.249C193.829 208.664 193.361 209.661 193.524 210.91C193.859 213.432 196.447 214.495 196.556 214.54C194.911 214.951 193.269 215.367 191.624 215.778C190.083 215.374 188.938 214.14 188.727 212.661C188.488 210.989 189.554 209.771 189.711 209.595L189.707 209.597Z" fill="#FFCD1C"/>
<path d="M240.204 170.864C239.315 172.095 238.431 173.329 237.542 174.559C237.474 174.091 237.247 173.013 236.365 172.114C234.58 170.301 231.759 171.041 231.759 171.041C231.759 171.041 233.886 168.401 234.952 167.083C236.425 166.478 238.083 166.774 239.141 167.828C240.339 169.018 240.221 170.633 240.201 170.868L240.204 170.864Z" fill="#EF6125"/>
<path d="M180.445 197.51C179.556 198.741 178.671 199.975 177.782 201.206C177.715 200.738 177.488 199.659 176.606 198.76C174.821 196.948 172 197.687 172 197.687C172 197.687 174.127 195.048 175.193 193.729C176.666 193.124 178.323 193.42 179.382 194.474C180.58 195.665 180.462 197.279 180.442 197.515L180.445 197.51Z" fill="#7766C2"/>
<path d="M235.614 192.97C232.327 190.977 228.391 195.436 223.885 193.858C220.867 192.802 219.226 189.614 218.329 187.213C217.772 189.467 217.216 191.721 216.659 193.975C218.024 196.205 220.132 198.735 223.213 199.452C227.487 200.443 230.62 197.231 233.162 198.609L235.842 193.12C235.768 193.069 235.697 193.016 235.618 192.967L235.614 192.97Z" fill="#FFCD1C"/>
<path d="M238.973 140.812C239.439 140.547 239.873 140.276 240.282 140C242.098 140.329 244.699 141.099 245.889 143.179C247.782 146.48 244.415 150.127 246.251 152.573C248.16 155.115 252.768 152.467 255.556 154.77L250.539 159C250.472 158.931 250.404 158.862 250.327 158.793C247.87 156.633 243.98 159.579 241.813 157.504C239.211 155.009 243.375 149.389 240.613 145.53C239.185 143.535 236.553 142.914 234.556 142.696C235.891 142.298 237.406 141.709 238.973 140.818V140.812Z" fill="#14AE59"/>
<path d="M208.451 161.054C208.829 161.953 209.596 163.422 211.068 164.771C212.521 166.102 213.951 166.671 214.25 166.783C215.86 167.399 216.439 167.109 217.067 167.507C218.056 168.136 218.686 170.168 217.13 176.323C218.864 175.405 220.602 174.482 222.336 173.564C223.555 166.755 222.396 164.4 221.096 163.518C219.45 162.402 216.908 163.197 214.748 161.162C213.931 160.391 213.503 159.533 213.287 159.007L208.451 161.054Z" fill="#7766C2"/>
<path d="M198.466 194.904C198.466 194.904 198.508 194.904 198.531 194.904C198.407 194.59 198.338 194.253 198.338 193.899C198.338 192.299 199.715 191 201.412 191C203.109 191 204.486 192.299 204.486 193.899C204.486 194.408 204.344 194.887 204.101 195.301C205.423 195.625 206.397 196.755 206.397 198.101C206.397 199.702 205.021 201 203.324 201C202.258 201 201.321 200.491 200.772 199.715C200.209 200.314 199.386 200.698 198.471 200.698C196.774 200.698 195.397 199.4 195.397 197.799C195.397 196.199 196.774 194.9 198.471 194.9L198.466 194.904Z" fill="#EF6125"/>
<path d="M189.056 181C187.123 181 185.556 179.433 185.556 177.5C185.556 175.567 187.123 174 189.056 174C190.989 174 192.556 175.567 192.556 177.5C192.556 179.433 190.989 181 189.056 181Z" fill="#14AE59"/>
<path d="M255.897 182C253.964 182 252.397 180.433 252.397 178.5C252.397 176.567 253.964 175 255.897 175C257.83 175 259.397 176.567 259.397 178.5C259.397 180.433 257.83 182 255.897 182Z" fill="#7766C2"/>
<path d="M228.056 139C226.123 139 224.556 137.433 224.556 135.5C224.556 133.567 226.123 132 228.056 132C229.989 132 231.556 133.567 231.556 135.5C231.556 137.433 229.989 139 228.056 139Z" fill="#FFCD1C"/>
<path d="M223.207 208.005C223.345 208.51 223.645 209.295 224.323 210.182C225.082 211.176 225.979 211.859 226.556 212.247C225.162 212.537 223.597 212.981 222.015 213.664C217.656 215.54 215.412 218.257 214.296 220C214.237 219.837 214.173 219.674 214.103 219.506C213.334 217.737 211.913 216.299 210.556 215.229C212.095 213.475 214.648 211.186 218.762 209.458C220.3 208.811 221.818 208.342 223.212 208L223.207 208.005Z" fill="#14AE59"/>
<path d="M274.551 238.391C276.988 239.619 279.666 237.219 278.711 234.662L262.657 191.689C261.917 189.71 259.418 189.095 257.844 190.505L232.93 212.838C231.356 214.249 231.695 216.801 233.583 217.751L274.551 238.391Z" fill="#FFE072"/>
<path d="M28.616 183.653L28.6718 183.713L28.7447 183.674C30.4872 182.754 32.3541 184.674 31.3756 186.383L31.3348 186.453L31.3927 186.509C32.809 187.877 31.5537 190.243 29.6245 189.843L29.5451 189.826L29.5086 189.898C28.6417 191.665 26.0001 191.205 25.7834 189.25L25.7748 189.168L25.6933 189.158C23.7405 188.881 23.3628 186.231 25.1611 185.424L25.2362 185.389L25.2212 185.31C24.8821 183.372 27.2898 182.195 28.616 183.651V183.653Z" fill="#FFCD1C"/>
<path d="M39.922 117.838C38.4022 116.689 36.2333 116.989 35.0837 118.509C33.9341 120.029 34.2348 122.198 35.7547 123.348C37.2745 124.497 39.4434 124.196 40.593 122.677C42.1128 123.826 44.2817 123.525 45.4313 122.006C46.5809 120.486 46.2802 118.317 44.7603 117.167C43.2405 116.018 41.0716 116.318 39.922 117.838Z" fill="#FFCD1C"/>
<path d="M29.3645 140.459C27.7055 140.204 26.052 139.947 24.393 139.692C25.6113 140.725 27.0619 142.312 27.1032 144.27C27.1881 148.057 21.9256 149.93 22.516 152.737C23.0075 155.076 26.8897 154.859 27.5341 157.382C28.1916 159.956 24.5001 161.529 24.0797 165.37C23.7853 168.05 25.2393 170.479 26.6525 172.22C28.6332 172.424 30.6138 172.628 32.5945 172.832C30.903 171.418 28.7915 169.175 28.7949 166.445C28.7989 162.364 33.5189 160.488 32.8382 157.27C32.2076 154.289 27.7658 154.046 27.6477 151.446C27.5392 149.007 31.3906 148.095 31.6263 145.064C31.7741 143.158 30.4122 141.49 29.3645 140.459Z" fill="#FFCD1C"/>
<path d="M109.85 209.597C108.399 209.149 106.95 208.697 105.499 208.249C105.727 208.664 106.195 209.661 106.032 210.91C105.698 213.432 103.109 214.495 103 214.54C104.645 214.951 106.288 215.367 107.932 215.778C109.473 215.374 110.618 214.14 110.829 212.661C111.068 210.989 110.003 209.771 109.845 209.595L109.85 209.597Z" fill="#FFCD1C"/>
<path d="M59.3519 170.864C60.2409 172.095 61.1256 173.329 62.0145 174.559C62.082 174.091 62.309 173.013 63.1909 172.114C64.9762 170.301 67.7969 171.041 67.7969 171.041C67.7969 171.041 65.67 168.401 64.6044 167.083C63.1308 166.478 61.4734 166.774 60.4149 167.828C59.217 169.018 59.3347 170.633 59.3548 170.868L59.3519 170.864Z" fill="#EF6125"/>
<path d="M119.111 197.51C120 198.741 120.885 199.975 121.774 201.206C121.841 200.738 122.068 199.659 122.95 198.76C124.735 196.948 127.556 197.687 127.556 197.687C127.556 197.687 125.429 195.048 124.364 193.729C122.89 193.124 121.233 193.42 120.174 194.474C118.976 195.665 119.094 197.279 119.114 197.515L119.111 197.51Z" fill="#7766C2"/>
<path d="M63.9423 192.97C67.2296 190.977 71.1647 195.436 75.6709 193.858C78.6893 192.802 80.3298 189.614 81.2273 187.213C81.7839 189.467 82.3405 191.721 82.8971 193.975C81.532 196.205 79.4241 198.735 76.3428 199.452C72.0696 200.443 68.9364 197.231 66.3943 198.609L63.7139 193.12C63.7886 193.069 63.8589 193.016 63.9379 192.967L63.9423 192.97Z" fill="#FFCD1C"/>
<path d="M60.5828 140.812C60.1172 140.547 59.6828 140.276 59.2741 140C57.4586 140.329 54.8569 141.099 53.6672 143.179C51.7741 146.48 55.1414 150.127 53.3052 152.573C51.3966 155.115 46.7879 152.467 44 154.77L49.0172 159C49.0845 158.931 49.1517 158.862 49.2293 158.793C51.6862 156.633 55.5759 159.579 57.7431 157.504C60.3448 155.009 56.181 149.389 58.9431 145.53C60.3707 143.535 63.0034 142.914 65 142.696C63.6655 142.298 62.15 141.709 60.5828 140.818V140.812Z" fill="#14AE59"/>
<path d="M91.105 161.054C90.7267 161.953 89.9597 163.422 88.4879 164.771C87.0355 166.102 85.6048 166.671 85.3063 166.783C83.6964 167.399 83.117 167.109 82.489 167.507C81.5006 168.136 80.87 170.168 82.4257 176.323C80.6917 175.405 78.9537 174.482 77.2197 173.564C76.0016 166.755 77.16 164.4 78.4603 163.518C80.1059 162.402 82.6483 163.197 84.8084 161.162C85.6254 160.391 86.0531 159.533 86.2688 159.007L91.105 161.054Z" fill="#7766C2"/>
<path d="M101.09 194.904C101.09 194.904 101.049 194.904 101.026 194.904C101.149 194.59 101.218 194.253 101.218 193.899C101.218 192.299 99.841 191 98.1441 191C96.4473 191 95.0705 192.299 95.0705 193.899C95.0705 194.408 95.2123 194.887 95.4547 195.301C94.1329 195.625 93.1587 196.755 93.1587 198.101C93.1587 199.702 94.5354 201 96.2323 201C97.298 201 98.2356 200.491 98.7845 199.715C99.347 200.314 100.17 200.698 101.085 200.698C102.782 200.698 104.159 199.4 104.159 197.799C104.159 196.199 102.782 194.9 101.085 194.9L101.09 194.904Z" fill="#EF6125"/>
<path d="M110.5 181C112.433 181 114 179.433 114 177.5C114 175.567 112.433 174 110.5 174C108.567 174 107 175.567 107 177.5C107 179.433 108.567 181 110.5 181Z" fill="#14AE59"/>
<path d="M43.6587 182C45.5917 182 47.1587 180.433 47.1587 178.5C47.1587 176.567 45.5917 175 43.6587 175C41.7257 175 40.1587 176.567 40.1587 178.5C40.1587 180.433 41.7257 182 43.6587 182Z" fill="#7766C2"/>
<path d="M71.5 139C73.433 139 75 137.433 75 135.5C75 133.567 73.433 132 71.5 132C69.567 132 68 133.567 68 135.5C68 137.433 69.567 139 71.5 139Z" fill="#FFCD1C"/>
<path d="M76.3496 208.005C76.2107 208.51 75.9115 209.295 75.2331 210.182C74.4745 211.176 73.577 211.859 73 212.247C74.3943 212.537 75.9596 212.981 77.5409 213.664C81.9002 215.54 84.1439 218.257 85.2604 220C85.3192 219.837 85.3833 219.674 85.4528 219.506C86.222 217.737 87.6431 216.299 89 215.229C87.4614 213.475 84.9078 211.186 80.7943 209.458C79.2558 208.811 77.7386 208.342 76.3442 208L76.3496 208.005Z" fill="#14AE59"/>
<path d="M25.0054 238.391C22.568 239.619 19.8902 237.219 20.8453 234.662L36.8994 191.69C37.6389 189.71 40.1386 189.095 41.7121 190.506L66.6262 212.838C68.1997 214.249 67.8608 216.801 65.9736 217.752L25.0054 238.391Z" fill="#FFE072"/>
</svg>
