<svg width="300" height="236" viewBox="0 0 300 236" fill="none" xmlns="http://www.w3.org/2000/svg">
<circle cx="148.356" cy="89.8194" r="86.3556" fill="#EAE8DC"/>
<path d="M116.877 156.687C116.117 158.068 114.132 158.068 113.372 156.687L110.6 151.646L119.65 151.646L116.877 156.687Z" fill="#7766C2"/>
<path d="M156.369 156.687C155.609 158.068 153.624 158.068 152.864 156.687L150.091 151.646L159.141 151.646L156.369 156.687Z" fill="#7766C2"/>
<path fill-rule="evenodd" clip-rule="evenodd" d="M111.011 36.4639C97.1528 36.4639 85.9182 47.6985 85.9182 61.557C85.9182 61.8961 85.925 62.2336 85.9383 62.5695C85.9248 62.9158 85.918 63.2639 85.918 63.6136L85.918 125.318C85.918 134.012 90.1318 141.721 96.6284 146.516C100.848 149.734 106.118 151.646 111.834 151.646H159.141V167.278H111.011C97.1528 167.278 85.9182 178.512 85.9182 192.371C85.9182 206.229 97.1529 217.464 111.011 217.464H185.057C185.124 217.464 185.19 217.464 185.257 217.463C185.327 217.464 185.398 217.464 185.468 217.464C200.008 217.464 211.795 205.677 211.795 191.137L211.795 129.432C211.795 128.943 211.782 128.458 211.756 127.975C211.782 127.504 211.795 127.03 211.795 126.552C211.795 112.694 200.561 101.459 186.702 101.459H138.572V86.6502H186.702C200.561 86.6502 211.795 75.4156 211.795 61.557C211.795 47.6985 200.561 36.4639 186.702 36.4639H111.011Z" fill="#FEA1BD"/>
<path d="M187.114 86.6502C187.114 73.7645 187.114 74.7374 187.114 60.8788C187.114 47.0203 187.114 51.3841 187.114 36.4639C200.745 36.4639 211.795 47.6985 211.795 61.557C211.795 75.4156 200.745 86.6502 187.114 86.6502Z" fill="#7766C2"/>
<circle cx="168.715" cy="125.73" r="14.3977" fill="#EAE8DC"/>
<circle cx="168.715" cy="125.73" r="12.478" fill="#434040"/>
<circle cx="162.956" cy="119.971" r="2.87954" fill="#D9D9D9"/>
<path d="M154.205 126.964C161.598 126.964 161.04 126.964 168.991 126.964C176.943 126.964 174.439 126.964 183 126.964C183 134.234 176.554 140.128 168.602 140.128C160.651 140.128 154.205 134.234 154.205 126.964Z" fill="#7766C2"/>
<circle cx="129.111" cy="125.73" r="14.3977" fill="#EAE8DC"/>
<circle cx="129.111" cy="125.73" r="12.478" fill="#434040"/>
<circle cx="123.352" cy="119.971" r="2.87954" fill="#D9D9D9"/>
<path d="M114.826 126.964C122.219 126.964 121.661 126.964 129.612 126.964C137.564 126.964 135.06 126.964 143.621 126.964C143.621 134.234 137.175 140.128 129.223 140.128C121.272 140.128 114.826 134.234 114.826 126.964Z" fill="#7766C2"/>
<path d="M126.545 5.6422C125.188 3.94218 123.307 2.95858 121.106 2.78869C120.134 2.71358 119.187 2.85123 118.281 3.1996C117.524 3.48907 116.809 3.91774 116.094 4.50619C114.959 5.44835 114.016 6.65925 113.103 7.82068C111.887 9.37407 110.742 10.8407 109.354 11.501L111.702 16.434C114.198 15.2459 115.853 13.1293 117.317 11.2568C118.835 9.31144 119.829 8.13501 120.811 8.20555C121.526 8.26101 122.005 8.49993 122.412 9.00923C122.859 9.56466 123.221 10.4617 123.455 11.597C123.7 12.7683 123.822 14.2112 123.823 15.883C123.812 19.1142 123.35 22.5482 123.007 25.057C122.875 26.0058 122.768 26.831 122.696 27.4854C122.672 27.7567 122.646 28.0114 122.618 28.2612C122.607 28.3492 122.603 28.4278 122.592 28.5158L83.1052 47.3075C83.0347 47.2583 82.9665 47.214 82.8912 47.1671C82.6795 47.0315 82.4654 46.8911 82.242 46.7434C81.6895 46.3742 80.9786 45.9444 80.1594 45.448C78.001 44.1295 75.04 42.3245 72.5304 40.2928C71.2287 39.2402 70.1855 38.2359 69.4313 37.3068C68.6979 36.4091 68.2301 35.5623 68.0809 34.8652C67.9425 34.228 68.0543 33.708 68.4671 33.1157C69.0315 32.3095 70.5717 32.2796 73.0386 32.3286C75.4152 32.3734 78.101 32.4246 80.5974 31.2366L78.2498 26.3036C76.8624 26.9639 75.0021 26.9275 73.0299 26.8911C71.5502 26.8626 70.0159 26.8307 68.5708 27.1225C67.6632 27.3063 66.8799 27.5904 66.1777 27.9955C65.3408 28.4765 64.6366 29.1248 64.0796 29.9216C62.8235 31.7365 62.4004 33.8167 62.8641 35.9417C63.4728 38.7303 65.5614 41.5354 69.2555 44.5219C72.0512 46.7837 75.1936 48.6975 77.4838 50.095C78.2558 50.5666 78.9266 50.9741 79.3993 51.2868C79.6321 51.4419 79.8555 51.5896 80.0743 51.7277C81.168 52.4421 81.9394 52.9495 82.6378 53.6747L84.5269 57.6442C84.2052 57.7973 84.0768 58.1833 84.2327 58.5109C84.3886 58.8385 84.7692 58.9824 85.0908 58.8293L130.296 37.3165C130.617 37.1634 130.746 36.7774 130.59 36.4498C130.434 36.1222 130.048 35.9806 129.732 36.1314L127.842 32.1619C127.718 31.1577 127.811 30.2391 127.946 28.9398C127.972 28.6852 127.998 28.4187 128.03 28.1379C128.085 27.5739 128.189 26.8034 128.313 25.8997C128.67 23.2362 129.169 19.5955 129.177 15.9994C129.185 11.2514 128.328 7.8543 126.55 5.628L126.545 5.6422Z" fill="#FFCD1C"/>
<path d="M97.0175 35.4635C97.7855 37.0773 96.885 42.5221 96.885 42.5221C96.885 42.5221 92.0917 39.787 91.3237 38.1732C90.5557 36.5594 91.2092 34.6413 92.779 33.8942C94.3489 33.1471 96.2495 33.8497 97.0175 35.4635Z" fill="#FFCD1C"/>
<path d="M110.33 29.1281C111.098 30.7419 110.198 36.1867 110.198 36.1867C110.198 36.1867 105.404 33.4515 104.636 31.8377C103.868 30.2239 104.522 28.3058 106.092 27.5587C107.661 26.8116 109.562 27.5142 110.33 29.1281Z" fill="#FFCD1C"/>
<path d="M78.4176 41.491C79.8601 37.7913 84.3112 34.0541 88.2515 33.4256C86.818 37.1565 82.354 40.8171 78.4176 41.491Z" fill="#FFCD1C"/>
<path d="M121.212 21.125C118.212 23.7525 112.551 24.9103 108.756 23.6674C111.729 21.006 117.432 19.911 121.212 21.125Z" fill="#FFCD1C"/>
<path d="M92.6345 31.2154C94.9068 27.9479 100.126 25.4526 104.094 25.7618C101.824 29.058 96.6085 31.4867 92.6345 31.2154Z" fill="#FFCD1C"/>
<path d="M88.0874 4.22754L91.6604 8.64235L96.13 6.51529L90.3918 3.13088L88.0874 4.22754Z" fill="#7766C2"/>
<path d="M128.342 33.224L83.1372 54.7368L83.7012 55.9219L128.906 34.4091L128.342 33.224Z" fill="#7766C2"/>
<path d="M113.413 8.58308C112.544 7.53713 111.541 6.69107 110.438 6.08143C109.241 5.42212 107.918 5.02966 106.506 4.92153C105.456 4.8424 104.432 4.99276 103.457 5.3683C102.63 5.68494 101.848 6.15752 101.07 6.7995C99.8114 7.84165 98.7516 9.20273 97.726 10.5121C97.441 10.8782 97.1559 11.2442 96.8615 11.603C96.8496 9.49933 96.6671 7.6187 96.1375 6.50588L82.7335 12.8848C83.2608 13.9928 84.6026 15.3276 86.2324 16.6613C85.7661 16.6587 85.3045 16.6539 84.8406 16.6442C83.1754 16.6095 81.453 16.5784 79.8504 16.8979C78.8545 17.0942 78.0017 17.4055 77.2346 17.8474C76.328 18.3674 75.5609 19.0693 74.9646 19.932C74.1583 21.0957 73.6283 22.3701 73.385 23.7148C73.1556 24.9525 73.1843 26.2623 73.4504 27.601C74.1399 31.0542 76.4713 34.7778 80.3846 38.6703C83.4025 41.6713 86.5123 43.9373 88.026 44.9776L93.6622 42.2953C93.2133 41.9831 92.7548 41.6755 92.2703 41.3625C92.0304 41.2049 91.7834 41.0447 91.5294 40.882C87.5479 38.2568 79.7431 31.9032 78.6939 26.63C78.4278 25.2913 78.6406 24.1797 79.3591 23.1406C79.5911 22.8115 79.9642 22.4449 80.9912 22.2398C82.0397 22.0303 83.4124 22.0565 84.8635 22.0868C87.1282 22.1316 89.65 22.1723 92.0608 21.3735L100.489 39.0584L105.294 36.7714L96.8665 19.0866C99.002 17.7217 100.561 15.739 101.959 13.951C102.851 12.8058 103.696 11.724 104.52 11.0424C105.327 10.3748 105.847 10.3165 106.244 10.3462C107.51 10.4466 108.505 10.9776 109.371 12.0307C112.799 16.1778 112.81 26.2347 112.336 30.9801C112.307 31.2895 112.275 31.5822 112.244 31.8629C112.184 32.4412 112.133 32.991 112.09 33.5315L117.726 30.8492C117.874 29.0184 118.076 25.1759 117.651 20.9412C117.103 15.4471 115.682 11.2847 113.439 8.57648L113.413 8.58308Z" fill="#FFCD1C"/>
<path d="M91.7526 14.5894C89.9474 15.4485 87.9733 15.5194 86.2227 14.9463C87.641 17.1842 90.4899 18.0854 92.8855 16.9454C95.2811 15.8053 96.381 13.019 95.5294 10.4996C94.8747 12.2292 93.5673 13.7258 91.7574 14.5871L91.7526 14.5894Z" fill="#FFCD1C"/>
<path d="M88.0874 4.22748L85.783 5.32413L87.1861 10.7716L91.6508 8.64686L88.0874 4.22748Z" fill="#7766C2"/>
<path d="M85.783 5.3242L87.1861 10.7717L82.7261 12.8942L83.4786 6.42086L85.783 5.3242Z" fill="#7766C2"/>
<path d="M28.616 161.117L28.6718 161.177L28.7447 161.138C30.4872 160.218 32.3541 162.138 31.3756 163.847L31.3348 163.917L31.3927 163.973C32.809 165.341 31.5537 167.707 29.6245 167.307L29.5451 167.29L29.5086 167.362C28.6417 169.129 26.0001 168.668 25.7834 166.714L25.7748 166.632L25.6933 166.622C23.7405 166.345 23.3628 163.695 25.1611 162.888L25.2362 162.853L25.2212 162.774C24.8821 160.836 27.2898 159.659 28.616 161.115V161.117Z" fill="#FFCD1C"/>
<path d="M39.922 95.3021C38.4022 94.1525 36.2333 94.4533 35.0837 95.9731C33.9341 97.4929 34.2348 99.6618 35.7547 100.811C37.2745 101.961 39.4434 101.66 40.593 100.14C42.1128 101.29 44.2817 100.989 45.4313 99.4695C46.5809 97.9497 46.2802 95.7808 44.7603 94.6312C43.2405 93.4815 41.0716 93.7823 39.922 95.3021Z" fill="#FFCD1C"/>
<path d="M29.3645 117.923C27.7055 117.668 26.052 117.411 24.393 117.156C25.6113 118.189 27.0619 119.776 27.1032 121.734C27.1881 125.521 21.9256 127.394 22.516 130.201C23.0075 132.54 26.8897 132.323 27.5341 134.846C28.1916 137.42 24.5001 138.993 24.0797 142.834C23.7853 145.514 25.2393 147.943 26.6525 149.684C28.6332 149.888 30.6138 150.092 32.5945 150.296C30.903 148.881 28.7915 146.639 28.7949 143.909C28.7989 139.828 33.5189 137.952 32.8382 134.734C32.2076 131.753 27.7658 131.51 27.6477 128.91C27.5392 126.471 31.3906 125.559 31.6263 122.528C31.7741 120.622 30.4122 118.954 29.3645 117.923Z" fill="#FFCD1C"/>
<path d="M109.85 187.061C108.399 186.613 106.95 186.161 105.499 185.713C105.727 186.127 106.195 187.125 106.032 188.374C105.698 190.896 103.109 191.959 103 192.004C104.645 192.415 106.288 192.831 107.932 193.242C109.473 192.838 110.618 191.604 110.829 190.125C111.068 188.453 110.003 187.235 109.845 187.059L109.85 187.061Z" fill="#FFCD1C"/>
<path d="M59.3519 148.328C60.2409 149.559 61.1256 150.792 62.0145 152.023C62.082 151.555 62.309 150.477 63.1909 149.577C64.9762 147.765 67.7969 148.505 67.7969 148.505C67.7969 148.505 65.67 145.865 64.6044 144.546C63.1308 143.942 61.4734 144.238 60.4149 145.292C59.217 146.482 59.3347 148.097 59.3548 148.332L59.3519 148.328Z" fill="#EF6125"/>
<path d="M119.111 174.974C120 176.205 120.885 177.439 121.774 178.67C121.841 178.202 122.068 177.123 122.95 176.224C124.735 174.412 127.556 175.151 127.556 175.151C127.556 175.151 125.429 172.511 124.364 171.193C122.89 170.588 121.233 170.884 120.174 171.938C118.976 173.129 119.094 174.743 119.114 174.979L119.111 174.974Z" fill="#2B9FE6"/>
<path d="M63.9423 170.434C67.2296 168.441 71.1647 172.9 75.6709 171.322C78.6893 170.266 80.3298 167.078 81.2273 164.676C81.7839 166.931 82.3405 169.185 82.8971 171.439C81.532 173.669 79.4241 176.199 76.3428 176.916C72.0696 177.907 68.9364 174.695 66.3943 176.073L63.7139 170.584C63.7886 170.533 63.8589 170.479 63.9379 170.431L63.9423 170.434Z" fill="#FFCD1C"/>
<path d="M60.5828 118.276C60.1172 118.011 59.6828 117.74 59.2741 117.464C57.4586 117.793 54.8569 118.563 53.6672 120.643C51.7741 123.944 55.1414 127.59 53.3052 130.037C51.3966 132.579 46.7879 129.931 44 132.234L49.0172 136.464C49.0845 136.395 49.1517 136.326 49.2293 136.257C51.6862 134.097 55.5759 137.043 57.7431 134.967C60.3448 132.473 56.181 126.853 58.9431 122.994C60.3707 120.999 63.0034 120.378 65 120.16C63.6655 119.762 62.15 119.173 60.5828 118.281V118.276Z" fill="#14AE59"/>
<path d="M91.105 138.517C90.7267 139.417 89.9597 140.886 88.4879 142.235C87.0355 143.566 85.6048 144.135 85.3063 144.247C83.6964 144.863 83.117 144.573 82.489 144.971C81.5006 145.6 80.87 147.632 82.4257 153.787C80.6917 152.869 78.9537 151.945 77.2197 151.028C76.0016 144.219 77.16 141.864 78.4603 140.982C80.1059 139.866 82.6483 140.661 84.8084 138.626C85.6254 137.855 86.0531 136.997 86.2688 136.471L91.105 138.517Z" fill="#2B9FE6"/>
<path d="M101.09 172.368C101.09 172.368 101.049 172.368 101.026 172.368C101.149 172.053 101.218 171.717 101.218 171.363C101.218 169.763 99.841 168.464 98.1441 168.464C96.4473 168.464 95.0705 169.763 95.0705 171.363C95.0705 171.872 95.2123 172.351 95.4547 172.765C94.1329 173.089 93.1587 174.219 93.1587 175.565C93.1587 177.166 94.5354 178.464 96.2323 178.464C97.298 178.464 98.2356 177.955 98.7845 177.179C99.347 177.778 100.17 178.162 101.085 178.162C102.782 178.162 104.159 176.864 104.159 175.263C104.159 173.663 102.782 172.364 101.085 172.364L101.09 172.368Z" fill="#EF6125"/>
<path d="M43.6587 159.464C45.5917 159.464 47.1587 157.897 47.1587 155.964C47.1587 154.031 45.5917 152.464 43.6587 152.464C41.7257 152.464 40.1587 154.031 40.1587 155.964C40.1587 157.897 41.7257 159.464 43.6587 159.464Z" fill="#2B9FE6"/>
<path d="M71.5 116.464C73.433 116.464 75 114.897 75 112.964C75 111.031 73.433 109.464 71.5 109.464C69.567 109.464 68 111.031 68 112.964C68 114.897 69.567 116.464 71.5 116.464Z" fill="#FFCD1C"/>
<path d="M76.3496 185.469C76.2107 185.974 75.9115 186.759 75.2331 187.646C74.4745 188.64 73.577 189.323 73 189.71C74.3943 190.001 75.9596 190.445 77.5409 191.128C81.9002 193.004 84.1439 195.721 85.2604 197.464C85.3192 197.301 85.3833 197.138 85.4528 196.97C86.222 195.201 87.6431 193.763 89 192.693C87.4614 190.939 84.9078 188.65 80.7943 186.922C79.2558 186.275 77.7386 185.806 76.3442 185.464L76.3496 185.469Z" fill="#14AE59"/>
<path d="M25.0054 215.855C22.568 217.083 19.8902 214.683 20.8453 212.126L36.8994 169.153C37.6389 167.174 40.1386 166.559 41.7121 167.969L66.6262 190.302C68.1997 191.713 67.8608 194.265 65.9736 195.215L25.0054 215.855Z" fill="#FFE072"/>
<path d="M270.94 161.117L270.884 161.177L270.811 161.138C269.069 160.218 267.202 162.138 268.181 163.847L268.221 163.917L268.163 163.973C266.747 165.341 268.002 167.707 269.932 167.307L270.011 167.29L270.048 167.362C270.914 169.129 273.556 168.668 273.773 166.714L273.781 166.632L273.863 166.622C275.816 166.345 276.193 163.695 274.395 162.888L274.32 162.853L274.335 162.774C274.674 160.836 272.266 159.659 270.94 161.115V161.117Z" fill="#FFCD1C"/>
<path d="M259.634 95.3021C261.154 94.1525 263.323 94.4533 264.472 95.9731C265.622 97.4929 265.321 99.6618 263.801 100.811C262.282 101.961 260.113 101.66 258.963 100.14C257.443 101.29 255.274 100.989 254.125 99.4695C252.975 97.9497 253.276 95.7808 254.796 94.6312C256.316 93.4815 258.485 93.7823 259.634 95.3021Z" fill="#FFCD1C"/>
<path d="M270.192 117.923C271.851 117.668 273.504 117.411 275.163 117.156C273.945 118.189 272.494 119.776 272.453 121.734C272.368 125.521 277.631 127.394 277.04 130.201C276.549 132.54 272.666 132.323 272.022 134.846C271.365 137.42 275.056 138.993 275.476 142.834C275.771 145.514 274.317 147.943 272.904 149.684C270.923 149.888 268.942 150.092 266.962 150.296C268.653 148.881 270.765 146.639 270.761 143.909C270.757 139.828 266.037 137.952 266.718 134.734C267.349 131.753 271.79 131.51 271.908 128.91C272.017 126.471 268.166 125.559 267.93 122.528C267.782 120.622 269.144 118.954 270.192 117.923Z" fill="#FFCD1C"/>
<path d="M189.707 187.061C191.157 186.613 192.607 186.161 194.057 185.713C193.829 186.127 193.361 187.125 193.524 188.374C193.859 190.896 196.447 191.959 196.556 192.004C194.911 192.415 193.269 192.831 191.624 193.242C190.083 192.838 188.938 191.604 188.727 190.125C188.488 188.453 189.554 187.235 189.711 187.059L189.707 187.061Z" fill="#FFCD1C"/>
<path d="M240.204 148.328C239.315 149.559 238.431 150.792 237.542 152.023C237.474 151.555 237.247 150.477 236.365 149.577C234.58 147.765 231.759 148.505 231.759 148.505C231.759 148.505 233.886 145.865 234.952 144.546C236.425 143.942 238.083 144.238 239.141 145.292C240.339 146.482 240.221 148.097 240.201 148.332L240.204 148.328Z" fill="#EF6125"/>
<path d="M180.445 174.974C179.556 176.205 178.671 177.439 177.782 178.67C177.715 178.202 177.488 177.123 176.606 176.224C174.821 174.412 172 175.151 172 175.151C172 175.151 174.127 172.511 175.193 171.193C176.666 170.588 178.323 170.884 179.382 171.938C180.58 173.129 180.462 174.743 180.442 174.979L180.445 174.974Z" fill="#2B9FE6"/>
<path d="M235.614 170.434C232.327 168.441 228.391 172.9 223.885 171.322C220.867 170.266 219.226 167.078 218.329 164.676C217.772 166.931 217.216 169.185 216.659 171.439C218.024 173.669 220.132 176.199 223.213 176.916C227.487 177.907 230.62 174.695 233.162 176.073L235.842 170.584C235.768 170.533 235.697 170.479 235.618 170.431L235.614 170.434Z" fill="#FFCD1C"/>
<path d="M238.973 118.276C239.439 118.011 239.873 117.74 240.282 117.464C242.098 117.793 244.699 118.563 245.889 120.643C247.782 123.944 244.415 127.59 246.251 130.037C248.16 132.579 252.768 129.931 255.556 132.234L250.539 136.464C250.472 136.395 250.404 136.326 250.327 136.257C247.87 134.097 243.98 137.043 241.813 134.967C239.211 132.473 243.375 126.853 240.613 122.994C239.185 120.999 236.553 120.378 234.556 120.16C235.891 119.762 237.406 119.173 238.973 118.281V118.276Z" fill="#14AE59"/>
<path d="M208.451 138.517C208.83 139.417 209.597 140.886 211.069 142.235C212.521 143.566 213.952 144.135 214.25 144.247C215.86 144.863 216.439 144.573 217.067 144.971C218.056 145.6 218.686 147.632 217.131 153.787C218.865 152.869 220.603 151.945 222.337 151.028C223.555 144.219 222.396 141.864 221.096 140.982C219.451 139.866 216.908 140.661 214.748 138.626C213.931 137.855 213.503 136.997 213.288 136.471L208.451 138.517Z" fill="#2B9FE6"/>
<path d="M198.466 172.368C198.466 172.368 198.508 172.368 198.531 172.368C198.407 172.053 198.338 171.717 198.338 171.363C198.338 169.763 199.715 168.464 201.412 168.464C203.109 168.464 204.486 169.763 204.486 171.363C204.486 171.872 204.344 172.351 204.101 172.765C205.423 173.089 206.397 174.219 206.397 175.565C206.397 177.166 205.021 178.464 203.324 178.464C202.258 178.464 201.321 177.955 200.772 177.179C200.209 177.778 199.386 178.162 198.471 178.162C196.774 178.162 195.397 176.864 195.397 175.263C195.397 173.663 196.774 172.364 198.471 172.364L198.466 172.368Z" fill="#EF6125"/>
<path d="M189.056 158.464C187.123 158.464 185.556 156.897 185.556 154.964C185.556 153.031 187.123 151.464 189.056 151.464C190.989 151.464 192.556 153.031 192.556 154.964C192.556 156.897 190.989 158.464 189.056 158.464Z" fill="#14AE59"/>
<path d="M255.897 159.464C253.964 159.464 252.397 157.897 252.397 155.964C252.397 154.031 253.964 152.464 255.897 152.464C257.83 152.464 259.397 154.031 259.397 155.964C259.397 157.897 257.83 159.464 255.897 159.464Z" fill="#2B9FE6"/>
<path d="M228.056 116.464C226.123 116.464 224.556 114.897 224.556 112.964C224.556 111.031 226.123 109.464 228.056 109.464C229.989 109.464 231.556 111.031 231.556 112.964C231.556 114.897 229.989 116.464 228.056 116.464Z" fill="#FFCD1C"/>
<path d="M223.207 185.469C223.345 185.974 223.645 186.759 224.323 187.646C225.082 188.64 225.979 189.323 226.556 189.71C225.162 190.001 223.597 190.445 222.015 191.128C217.656 193.004 215.412 195.721 214.296 197.464C214.237 197.301 214.173 197.138 214.103 196.97C213.334 195.201 211.913 193.763 210.556 192.693C212.095 190.939 214.648 188.65 218.762 186.922C220.3 186.275 221.818 185.806 223.212 185.464L223.207 185.469Z" fill="#14AE59"/>
<path d="M274.551 215.855C276.988 217.083 279.666 214.683 278.711 212.126L262.657 169.153C261.917 167.174 259.418 166.559 257.844 167.969L232.93 190.302C231.357 191.713 231.696 194.264 233.583 195.215L274.551 215.855Z" fill="#FFE072"/>
</svg>
