<svg width="406" height="297" viewBox="0 0 406 297" fill="none" xmlns="http://www.w3.org/2000/svg">
<rect x="12" y="12" width="381" height="273" rx="12" fill="#EAE7DC"/>
<rect x="23" y="25" width="361" height="104" rx="12" fill="#434040"/>
<path d="M229.607 162.055C229.607 162.055 256.125 147.511 256.954 124.867C257.782 102.224 321.372 101.834 300.601 133.771C279.83 165.709 229.607 162.055 229.607 162.055Z" fill="#434040"/>
<rect x="270.517" y="107.584" width="70.8648" height="41.0943" transform="rotate(-43.3263 270.517 107.584)" fill="#434040"/>
<rect x="285.597" y="134.444" width="70.8648" height="11.2075" transform="rotate(-43.3263 285.597 134.444)" fill="#434040"/>
<rect x="133.605" y="246.964" width="34.0359" height="22.8969" rx="11.4484" transform="rotate(90 133.605 246.964)" fill="#14AE59"/>
<rect x="173.211" y="246.964" width="34.0359" height="22.8969" rx="11.4484" transform="rotate(90 173.211 246.964)" fill="#14AE59"/>
<rect x="149.076" y="175.798" width="18.565" height="12.9955" rx="6.49776" transform="rotate(90 149.076 175.798)" fill="#14AE59"/>
<rect x="136.081" y="175.798" width="17.9462" height="12.3767" rx="6.18834" transform="rotate(90 136.081 175.798)" fill="#14AE59"/>
<rect x="123.704" y="175.798" width="18.565" height="12.9955" rx="6.49776" transform="rotate(90 123.704 175.798)" fill="#14AE59"/>
<rect x="191.157" y="143" width="118.816" height="39.6054" rx="19.8027" transform="rotate(90 191.157 143)" fill="#FEA1BD"/>
<rect x="191.157" y="261.816" width="97.157" height="79.2107" rx="30" transform="rotate(-180 191.157 261.816)" fill="#FEA1BD"/>
<circle cx="163.309" cy="159.708" r="6.18834" fill="#D9D9D9"/>
<circle cx="163.309" cy="159.708" r="4.85032" fill="#434040"/>
<path d="M169.498 159.708C166.32 159.708 166.56 159.708 163.142 159.708C159.724 159.708 160.801 159.708 157.121 159.708C157.121 156.291 159.892 153.52 163.309 153.52C166.727 153.52 169.498 156.291 169.498 159.708Z" fill="#14AE59"/>
<circle cx="160.215" cy="160.946" r="0.618834" fill="#D9D9D9"/>
<circle cx="179.399" cy="159.708" r="6.18834" fill="#D9D9D9"/>
<circle cx="179.399" cy="159.708" r="4.85032" fill="#434040"/>
<path d="M185.587 159.708C182.41 159.708 182.65 159.708 179.232 159.708C175.814 159.708 176.89 159.708 173.211 159.708C173.211 156.291 175.981 153.52 179.399 153.52C182.817 153.52 185.587 156.291 185.587 159.708Z" fill="#14AE59"/>
<circle cx="176.305" cy="160.946" r="0.618834" fill="#D9D9D9"/>
<path d="M151.552 182.605L151.552 206.121C151.552 206.804 150.997 207.359 150.314 207.359V207.359C149.63 207.359 149.076 206.804 149.076 206.121L149.076 182.605L151.552 182.605Z" fill="#EAE8DC"/>
<rect x="165.166" y="172.085" width="12.3767" height="4.95067" rx="2.47534" fill="#14AE59"/>
<rect x="165.166" y="166.516" width="12.3767" height="4.95067" rx="2.47534" fill="#14AE59"/>
</svg>
