<svg width="300" height="241" viewBox="0 0 300 241" fill="none" xmlns="http://www.w3.org/2000/svg">
<circle cx="148.356" cy="94.3556" r="86.3556" fill="#EAE8DC"/>
<path d="M97.13 12.0514L83.7261 18.4303L84.4786 11.957L91.3918 8.66702L97.13 12.0514Z" fill="#FFCD1C"/>
<path fill-rule="evenodd" clip-rule="evenodd" d="M125.772 53.6287C120.785 47.7389 113.335 44 105.013 44C89.9952 44 77.8211 56.1741 77.821 71.1917L77.821 180.808C77.821 195.826 89.9952 208 105.013 208C120.03 208 132.204 195.826 132.204 180.808L132.204 151.358L166.178 196.413C169.686 201.065 174.399 204.272 179.555 205.927C182.767 207.263 186.291 208 189.987 208C205.005 208 217.179 195.826 217.179 180.808V71.1917C217.179 56.1741 205.005 44 189.987 44C174.97 44 162.795 56.1741 162.795 71.1917V101.599L129.967 58.0633C128.711 56.3984 127.302 54.9186 125.772 53.6287Z" fill="#FFCD1C"/>
<circle cx="93.1514" cy="72.9263" r="7.68266" fill="#D9D9D9"/>
<circle cx="93.1509" cy="72.9263" r="6.02154" fill="#434040"/>
<circle cx="92.4334" cy="70.0936" r="1.11235" fill="#D9D9D9"/>
<circle cx="114.395" cy="72.9263" r="7.68266" fill="#D9D9D9"/>
<circle cx="114.395" cy="72.9263" r="6.02154" fill="#434040"/>
<circle cx="111.978" cy="70.0936" r="1.11235" fill="#D9D9D9"/>
<rect x="162.795" y="69.4924" width="54.3834" height="17.8446" fill="#EF6125"/>
<circle cx="97.7899" cy="81.8131" r="5.52332" fill="#EF6125"/>
<path d="M132.935 24.1069C132.112 22.0936 130.584 20.62 128.52 19.8372C127.608 19.4914 126.661 19.3568 125.693 19.4359C124.885 19.5004 124.079 19.7105 123.227 20.0737C121.872 20.658 120.627 21.5543 119.423 22.4115C117.819 23.5597 116.307 24.6445 114.79 24.8873L115.653 30.2818C118.383 29.8449 120.567 28.2798 122.499 26.8954C124.503 25.4562 125.789 24.6075 126.711 24.9516C127.382 25.2063 127.774 25.5704 128.021 26.1737C128.293 26.8325 128.388 27.7953 128.293 28.9505C128.199 30.1435 127.909 31.5622 127.439 33.1665C126.518 36.2639 125.108 39.4288 124.072 41.7395C123.679 42.6129 123.343 43.3744 123.09 43.9821C122.991 44.2358 122.894 44.4728 122.797 44.7045C122.761 44.7858 122.736 44.8602 122.7 44.9415L79.5193 51.8521C79.4655 51.785 79.4126 51.7233 79.3535 51.6571C79.1885 51.4673 79.0227 51.2724 78.85 51.0677C78.4238 50.5578 77.8627 49.9452 77.2165 49.2382C75.5168 47.3652 73.1839 44.7993 71.3481 42.1431C70.3955 40.7665 69.6774 39.5091 69.2153 38.4052C68.7644 37.3373 68.5541 36.393 68.6072 35.6821C68.6539 35.0317 68.9075 34.5643 69.4706 34.1122C70.2391 33.4975 71.7254 33.9026 74.0786 34.6444C76.3464 35.3567 78.9091 36.1622 81.639 35.7253L80.7757 30.3309C79.2585 30.5737 77.4837 30.0148 75.6016 29.4246C74.1899 28.9805 72.7266 28.5177 71.2579 28.3908C70.3352 28.3115 69.5036 28.3636 68.7157 28.5545C67.7773 28.7803 66.919 29.204 66.1601 29.8117C64.4438 31.1994 63.4519 33.0763 63.2984 35.2459C63.0971 38.093 64.3112 41.3728 67.0147 45.2787C69.0603 48.2364 71.5365 50.9576 73.3404 52.9436C73.9484 53.6135 74.4773 54.1934 74.8428 54.6266C75.0225 54.841 75.1952 55.0456 75.3663 55.2398C76.2145 56.2333 76.8118 56.9373 77.2777 57.8299L77.9724 62.1707C77.6206 62.227 77.3887 62.5613 77.4461 62.9195C77.5034 63.2778 77.828 63.523 78.1798 63.4667L127.613 55.5555C127.965 55.4992 128.197 55.1649 128.14 54.8067C128.082 54.4484 127.752 54.2041 127.406 54.2595L126.711 49.9187C126.874 48.92 127.222 48.0647 127.718 46.8562C127.815 46.6192 127.915 46.3708 128.024 46.1102C128.236 45.5846 128.553 44.8747 128.926 44.0424C130.019 41.5874 131.523 38.2346 132.544 34.7862C133.888 30.2325 134.022 26.7315 132.943 24.0947L132.935 24.1069Z" fill="#FEA1BD"/>
<path d="M96.204 44.4056C96.4865 46.1704 94.089 51.1412 94.089 51.1412C94.089 51.1412 90.26 47.1668 89.9776 45.402C89.6951 43.6373 90.8623 41.9809 92.579 41.7061C94.2958 41.4314 95.9216 42.6408 96.204 44.4056Z" fill="#FEA1BD"/>
<path d="M110.762 42.0755C111.045 43.8403 108.647 48.8111 108.647 48.8111C108.647 48.8111 104.818 44.8368 104.536 43.072C104.253 41.3072 105.42 39.6508 107.137 39.376C108.854 39.1013 110.48 40.3107 110.762 42.0755Z" fill="#FEA1BD"/>
<path d="M76.6595 44.9507C79.0855 41.807 84.4089 39.4746 88.3668 39.9812C85.9406 43.1575 80.6263 45.4127 76.6595 44.9507Z" fill="#FEA1BD"/>
<path d="M123.458 37.4614C119.839 39.1374 114.081 38.6541 110.79 36.3928C114.392 34.6764 120.172 35.2317 123.458 37.4614Z" fill="#FEA1BD"/>
<path d="M93.1948 39.095C96.2953 36.5997 102.006 35.675 105.726 37.0895C102.62 39.6128 96.9316 40.4744 93.1948 39.095Z" fill="#FEA1BD"/>
<path d="M96.4324 11.9189L98.6175 17.1613L103.505 16.3791L98.9524 11.5157L96.4324 11.9189Z" fill="#EF6125"/>
<path d="M96.4323 11.9187L93.9123 12.322L93.7244 17.9441L98.6069 17.1628L96.4323 11.9187Z" fill="#EF6125"/>
<path d="M93.9123 12.3222L93.7244 17.9444L88.8472 18.7249L91.3923 12.7255L93.9123 12.3222Z" fill="#EF6125"/>
<path d="M126.891 51.0785L77.4578 58.9897L77.6652 60.2857L127.099 52.3745L126.891 51.0785Z" fill="#EF6125"/>
<path d="M119.506 23.2303C118.967 21.982 118.243 20.8877 117.356 19.9921C116.393 19.0224 115.234 18.2732 113.91 17.7719C112.925 17.4001 111.9 17.2561 110.858 17.3418C109.976 17.4128 109.093 17.646 108.165 18.0429C106.664 18.6884 105.264 19.6959 103.911 20.6634C103.534 20.9344 103.158 21.2054 102.774 21.4667C103.355 19.4449 103.71 17.589 103.515 16.372L88.8571 18.7178C89.051 19.9295 89.9626 21.5882 91.1508 23.3269C90.7041 23.1931 90.2625 23.0584 89.8202 22.9185C88.2321 22.4162 86.5882 21.9013 84.9605 21.7566C83.9497 21.6644 83.0437 21.7229 82.1831 21.9309C81.1668 22.1746 80.2331 22.632 79.418 23.2919C78.3165 24.1814 77.4492 25.2549 76.837 26.4767C76.2683 27.5997 75.9269 28.8646 75.8053 30.224C75.4943 33.7317 76.6827 37.9611 79.3414 42.7981C81.392 46.5276 83.7378 49.5776 84.8972 51.0022L91.0607 50.0158C90.7179 49.5898 90.3646 49.1655 89.9878 48.7287C89.802 48.5099 89.6102 48.2866 89.4122 48.059C86.3313 44.4188 80.6317 36.1243 81.11 30.769C81.2316 29.4096 81.749 28.4029 82.731 27.6082C83.0463 27.3578 83.5075 27.1111 84.5508 27.2035C85.6158 27.2978 86.9255 27.7095 88.3093 28.1472C90.4698 28.8281 92.878 29.5773 95.4163 29.4898L98.5226 48.8324L103.778 47.9914L100.671 28.6488C103.105 27.9406 105.159 26.4772 107.004 25.1553C108.183 24.3076 109.298 23.5077 110.281 23.0857C111.243 22.6724 111.758 22.7628 112.131 22.9031C113.318 23.3561 114.123 24.1458 114.657 25.4002C116.778 30.3448 113.957 39.9977 112.165 44.4176C112.05 44.7062 111.938 44.9782 111.828 45.2388C111.608 45.7766 111.404 46.29 111.211 46.7964L117.374 45.81C118.031 44.0948 119.308 40.465 120.092 36.2818C121.114 30.8559 120.922 26.4615 119.533 23.2313L119.506 23.2303Z" fill="#FEA1BD"/>
<path d="M97.0309 22.8935C95.0569 23.2095 93.1427 22.7216 91.6244 21.6786C92.355 24.2254 94.8348 25.8925 97.4545 25.4732C100.074 25.0539 101.914 22.6901 101.807 20.0329C100.691 21.5081 99.0154 22.5759 97.0361 22.8927L97.0309 22.8935Z" fill="#FEA1BD"/>
<path d="M28.616 165.653L28.6718 165.713L28.7447 165.674C30.4872 164.754 32.3541 166.674 31.3756 168.383L31.3348 168.453L31.3927 168.509C32.809 169.877 31.5537 172.243 29.6245 171.843L29.5451 171.826L29.5086 171.898C28.6417 173.665 26.0001 173.205 25.7834 171.25L25.7748 171.168L25.6933 171.158C23.7405 170.881 23.3628 168.231 25.1611 167.424L25.2362 167.389L25.2212 167.31C24.8821 165.372 27.2898 164.195 28.616 165.651V165.653Z" fill="#FEA1BD"/>
<path d="M39.922 99.8383C38.4022 98.6887 36.2333 98.9894 35.0837 100.509C33.9341 102.029 34.2348 104.198 35.7547 105.348C37.2745 106.497 39.4434 106.196 40.593 104.677C42.1128 105.826 44.2817 105.525 45.4313 104.006C46.5809 102.486 46.2802 100.317 44.7603 99.1673C43.2405 98.0177 41.0716 98.3185 39.922 99.8383Z" fill="#7766C2"/>
<path d="M29.3645 122.459C27.7055 122.204 26.052 121.947 24.393 121.692C25.6113 122.725 27.0619 124.312 27.1032 126.27C27.1881 130.057 21.9256 131.93 22.516 134.737C23.0075 137.076 26.8897 136.859 27.5341 139.382C28.1916 141.956 24.5001 143.529 24.0797 147.37C23.7853 150.05 25.2393 152.479 26.6525 154.22C28.6332 154.424 30.6138 154.628 32.5945 154.832C30.903 153.418 28.7915 151.175 28.7949 148.445C28.7989 144.364 33.5189 142.488 32.8382 139.27C32.2076 136.289 27.7658 136.046 27.6477 133.446C27.5392 131.007 31.3906 130.095 31.6263 127.064C31.7741 125.158 30.4122 123.49 29.3645 122.459Z" fill="#FEA1BD"/>
<path d="M109.85 191.597C108.399 191.149 106.95 190.697 105.499 190.249C105.727 190.664 106.195 191.661 106.032 192.91C105.698 195.432 103.109 196.495 103 196.54C104.645 196.951 106.288 197.367 107.932 197.778C109.473 197.374 110.618 196.14 110.829 194.661C111.068 192.989 110.003 191.771 109.845 191.595L109.85 191.597Z" fill="#FEA1BD"/>
<path d="M59.3519 152.864C60.2409 154.095 61.1256 155.329 62.0145 156.559C62.082 156.091 62.309 155.013 63.1909 154.114C64.9762 152.301 67.7969 153.041 67.7969 153.041C67.7969 153.041 65.67 150.401 64.6044 149.083C63.1308 148.478 61.4734 148.774 60.4149 149.828C59.217 151.018 59.3347 152.633 59.3548 152.868L59.3519 152.864Z" fill="#EF6125"/>
<path d="M119.111 179.51C120 180.741 120.885 181.975 121.774 183.206C121.841 182.738 122.068 181.659 122.95 180.76C124.735 178.948 127.556 179.687 127.556 179.687C127.556 179.687 125.429 177.048 124.364 175.729C122.89 175.124 121.233 175.42 120.174 176.474C118.976 177.665 119.094 179.279 119.114 179.515L119.111 179.51Z" fill="#2B9FE6"/>
<path d="M63.9423 174.97C67.2296 172.977 71.1647 177.436 75.6709 175.858C78.6893 174.802 80.3298 171.614 81.2273 169.213C81.7839 171.467 82.3405 173.721 82.8971 175.975C81.532 178.205 79.4241 180.735 76.3428 181.452C72.0696 182.443 68.9364 179.231 66.3943 180.609L63.7139 175.12C63.7886 175.069 63.8589 175.016 63.9379 174.967L63.9423 174.97Z" fill="#7766C2"/>
<path d="M60.5828 122.812C60.1172 122.547 59.6828 122.276 59.2741 122C57.4586 122.329 54.8569 123.099 53.6672 125.179C51.7741 128.48 55.1414 132.127 53.3052 134.573C51.3966 137.115 46.7879 134.467 44 136.77L49.0172 141C49.0845 140.931 49.1517 140.862 49.2293 140.793C51.6862 138.633 55.5759 141.579 57.7431 139.504C60.3448 137.009 56.181 131.389 58.9431 127.53C60.3707 125.535 63.0034 124.914 65 124.696C63.6655 124.298 62.15 123.709 60.5828 122.818V122.812Z" fill="#14AE59"/>
<path d="M91.105 143.054C90.7267 143.953 89.9597 145.422 88.4879 146.771C87.0355 148.102 85.6048 148.671 85.3063 148.783C83.6964 149.399 83.117 149.109 82.489 149.507C81.5006 150.136 80.87 152.168 82.4257 158.323C80.6917 157.405 78.9537 156.482 77.2197 155.564C76.0016 148.755 77.16 146.4 78.4603 145.518C80.1059 144.402 82.6483 145.197 84.8084 143.162C85.6254 142.391 86.0531 141.533 86.2688 141.007L91.105 143.054Z" fill="#2B9FE6"/>
<path d="M101.09 176.904C101.09 176.904 101.049 176.904 101.026 176.904C101.149 176.59 101.218 176.253 101.218 175.899C101.218 174.299 99.841 173 98.1441 173C96.4473 173 95.0705 174.299 95.0705 175.899C95.0705 176.408 95.2123 176.887 95.4547 177.301C94.1329 177.625 93.1587 178.755 93.1587 180.101C93.1587 181.702 94.5354 183 96.2323 183C97.298 183 98.2356 182.491 98.7845 181.715C99.347 182.314 100.17 182.698 101.085 182.698C102.782 182.698 104.159 181.4 104.159 179.799C104.159 178.199 102.782 176.9 101.085 176.9L101.09 176.904Z" fill="#EF6125"/>
<path d="M110.5 163C112.433 163 114 161.433 114 159.5C114 157.567 112.433 156 110.5 156C108.567 156 107 157.567 107 159.5C107 161.433 108.567 163 110.5 163Z" fill="#14AE59"/>
<path d="M43.6587 164C45.5917 164 47.1587 162.433 47.1587 160.5C47.1587 158.567 45.5917 157 43.6587 157C41.7257 157 40.1587 158.567 40.1587 160.5C40.1587 162.433 41.7257 164 43.6587 164Z" fill="#2B9FE6"/>
<path d="M71.5 121C73.433 121 75 119.433 75 117.5C75 115.567 73.433 114 71.5 114C69.567 114 68 115.567 68 117.5C68 119.433 69.567 121 71.5 121Z" fill="#FEA1BD"/>
<path d="M76.3496 190.005C76.2107 190.51 75.9115 191.295 75.2331 192.182C74.4745 193.176 73.577 193.859 73 194.247C74.3943 194.537 75.9596 194.981 77.5409 195.664C81.9002 197.54 84.1439 200.257 85.2604 202C85.3192 201.837 85.3833 201.674 85.4528 201.506C86.222 199.737 87.6431 198.299 89 197.229C87.4614 195.475 84.9078 193.186 80.7943 191.458C79.2558 190.811 77.7386 190.342 76.3442 190L76.3496 190.005Z" fill="#14AE59"/>
<path d="M25.0054 220.391C22.568 221.619 19.8902 219.219 20.8453 216.662L36.8994 173.69C37.6389 171.71 40.1386 171.095 41.7121 172.506L66.6262 194.838C68.1997 196.249 67.8608 198.801 65.9736 199.752L25.0054 220.391Z" fill="#FFE072"/>
<path d="M270.94 165.653L270.884 165.713L270.811 165.674C269.069 164.754 267.202 166.674 268.181 168.383L268.221 168.453L268.163 168.509C266.747 169.877 268.002 172.243 269.932 171.843L270.011 171.826L270.048 171.898C270.914 173.665 273.556 173.205 273.773 171.25L273.781 171.168L273.863 171.158C275.816 170.881 276.193 168.231 274.395 167.424L274.32 167.389L274.335 167.31C274.674 165.372 272.266 164.195 270.94 165.651V165.653Z" fill="#FEA1BD"/>
<path d="M259.634 99.8383C261.154 98.6887 263.323 98.9894 264.472 100.509C265.622 102.029 265.321 104.198 263.801 105.348C262.282 106.497 260.113 106.196 258.963 104.677C257.443 105.826 255.274 105.525 254.125 104.006C252.975 102.486 253.276 100.317 254.796 99.1673C256.316 98.0177 258.485 98.3185 259.634 99.8383Z" fill="#7766C2"/>
<path d="M270.192 122.459C271.851 122.204 273.504 121.947 275.163 121.692C273.945 122.725 272.494 124.312 272.453 126.27C272.368 130.057 277.631 131.93 277.04 134.737C276.549 137.076 272.666 136.859 272.022 139.382C271.365 141.956 275.056 143.529 275.476 147.37C275.771 150.05 274.317 152.479 272.904 154.22C270.923 154.424 268.942 154.628 266.962 154.832C268.653 153.418 270.765 151.175 270.761 148.445C270.757 144.364 266.037 142.488 266.718 139.27C267.349 136.289 271.79 136.046 271.908 133.446C272.017 131.007 268.166 130.095 267.93 127.064C267.782 125.158 269.144 123.49 270.192 122.459Z" fill="#FEA1BD"/>
<path d="M189.707 191.597C191.157 191.149 192.607 190.697 194.057 190.249C193.829 190.664 193.361 191.661 193.524 192.91C193.859 195.432 196.447 196.495 196.556 196.54C194.911 196.951 193.269 197.367 191.624 197.778C190.083 197.374 188.938 196.14 188.727 194.661C188.488 192.989 189.554 191.771 189.711 191.595L189.707 191.597Z" fill="#FEA1BD"/>
<path d="M240.204 152.864C239.315 154.095 238.431 155.329 237.542 156.559C237.474 156.091 237.247 155.013 236.365 154.114C234.58 152.301 231.759 153.041 231.759 153.041C231.759 153.041 233.886 150.401 234.952 149.083C236.425 148.478 238.083 148.774 239.141 149.828C240.339 151.018 240.221 152.633 240.201 152.868L240.204 152.864Z" fill="#EF6125"/>
<path d="M180.445 179.51C179.556 180.741 178.671 181.975 177.782 183.206C177.715 182.738 177.488 181.659 176.606 180.76C174.821 178.948 172 179.687 172 179.687C172 179.687 174.127 177.048 175.193 175.729C176.666 175.124 178.323 175.42 179.382 176.474C180.58 177.665 180.462 179.279 180.442 179.515L180.445 179.51Z" fill="#2B9FE6"/>
<path d="M235.614 174.97C232.327 172.977 228.391 177.436 223.885 175.858C220.867 174.802 219.226 171.614 218.329 169.213C217.772 171.467 217.216 173.721 216.659 175.975C218.024 178.205 220.132 180.735 223.213 181.452C227.487 182.443 230.62 179.231 233.162 180.609L235.842 175.12C235.768 175.069 235.697 175.016 235.618 174.967L235.614 174.97Z" fill="#7766C2"/>
<path d="M238.973 122.812C239.439 122.547 239.873 122.276 240.282 122C242.098 122.329 244.699 123.099 245.889 125.179C247.782 128.48 244.415 132.127 246.251 134.573C248.16 137.115 252.768 134.467 255.556 136.77L250.539 141C250.472 140.931 250.404 140.862 250.327 140.793C247.87 138.633 243.98 141.579 241.813 139.504C239.211 137.009 243.375 131.389 240.613 127.53C239.185 125.535 236.553 124.914 234.556 124.696C235.891 124.298 237.406 123.709 238.973 122.818V122.812Z" fill="#14AE59"/>
<path d="M208.451 143.054C208.829 143.953 209.596 145.422 211.068 146.771C212.521 148.102 213.951 148.671 214.25 148.783C215.86 149.399 216.439 149.109 217.067 149.507C218.056 150.136 218.686 152.168 217.13 158.323C218.864 157.405 220.602 156.482 222.336 155.564C223.555 148.755 222.396 146.4 221.096 145.518C219.45 144.402 216.908 145.197 214.748 143.162C213.931 142.391 213.503 141.533 213.287 141.007L208.451 143.054Z" fill="#2B9FE6"/>
<path d="M198.466 176.904C198.466 176.904 198.508 176.904 198.531 176.904C198.407 176.59 198.338 176.253 198.338 175.899C198.338 174.299 199.715 173 201.412 173C203.109 173 204.486 174.299 204.486 175.899C204.486 176.408 204.344 176.887 204.101 177.301C205.423 177.625 206.397 178.755 206.397 180.101C206.397 181.702 205.021 183 203.324 183C202.258 183 201.321 182.491 200.772 181.715C200.209 182.314 199.386 182.698 198.471 182.698C196.774 182.698 195.397 181.4 195.397 179.799C195.397 178.199 196.774 176.9 198.471 176.9L198.466 176.904Z" fill="#EF6125"/>
<path d="M189.056 163C187.123 163 185.556 161.433 185.556 159.5C185.556 157.567 187.123 156 189.056 156C190.989 156 192.556 157.567 192.556 159.5C192.556 161.433 190.989 163 189.056 163Z" fill="#14AE59"/>
<path d="M255.897 164C253.964 164 252.397 162.433 252.397 160.5C252.397 158.567 253.964 157 255.897 157C257.83 157 259.397 158.567 259.397 160.5C259.397 162.433 257.83 164 255.897 164Z" fill="#2B9FE6"/>
<path d="M228.056 121C226.123 121 224.556 119.433 224.556 117.5C224.556 115.567 226.123 114 228.056 114C229.989 114 231.556 115.567 231.556 117.5C231.556 119.433 229.989 121 228.056 121Z" fill="#FEA1BD"/>
<path d="M223.207 190.005C223.345 190.51 223.645 191.295 224.323 192.182C225.082 193.176 225.979 193.859 226.556 194.247C225.162 194.537 223.597 194.981 222.015 195.664C217.656 197.54 215.412 200.257 214.296 202C214.237 201.837 214.173 201.674 214.103 201.506C213.334 199.737 211.913 198.299 210.556 197.229C212.095 195.475 214.648 193.186 218.762 191.458C220.3 190.811 221.818 190.342 223.212 190L223.207 190.005Z" fill="#14AE59"/>
<path d="M274.551 220.391C276.988 221.619 279.666 219.219 278.711 216.662L262.657 173.689C261.917 171.71 259.418 171.095 257.844 172.505L232.93 194.838C231.356 196.249 231.695 198.801 233.583 199.751L274.551 220.391Z" fill="#FFE072"/>
</svg>
