<svg width="300" height="233" viewBox="0 0 300 233" fill="none" xmlns="http://www.w3.org/2000/svg">
<circle cx="148.356" cy="86.3556" r="86.3556" fill="#EAE8DC"/>
<path d="M92.7526 12.1256C90.9474 12.9846 88.9733 13.0555 87.2227 12.4825C88.641 14.7204 91.4899 15.6216 93.8855 14.4815C96.2811 13.3414 97.381 10.5551 96.5294 8.03569C95.8747 9.76532 94.5673 11.2619 92.7574 12.1233L92.7526 12.1256Z" fill="#FFCD1C"/>
<rect x="88.0469" y="39" width="122.906" height="48.5556" rx="24.2778" fill="#14AE59"/>
<rect x="136.603" y="39" width="145.667" height="48.5555" rx="24.2778" transform="rotate(90 136.603 39)" fill="#14AE59"/>
<rect x="210.953" y="39" width="145.667" height="48.5555" rx="24.2778" transform="rotate(90 210.953 39)" fill="#14AE59"/>
<rect x="88.0469" y="136.111" width="122.906" height="48.5556" rx="24.2778" fill="#14AE59"/>
<circle cx="149.121" cy="63.657" r="15.553" fill="#D9D9D9"/>
<circle cx="149.121" cy="63.6569" r="12.1902" fill="#434040"/>
<path d="M164.674 63.657C156.687 63.657 157.29 63.657 148.7 63.657C140.111 63.657 142.815 63.657 133.568 63.657C133.568 55.0673 140.531 48.104 149.121 48.104C157.71 48.104 164.674 55.0673 164.674 63.657Z" fill="#7766C2"/>
<circle cx="141.344" cy="66.7677" r="1.5553" fill="#D9D9D9"/>
<path d="M143.185 87.5555L141.69 90.2309C140.939 91.5752 139.014 91.6021 138.226 90.2794L136.602 87.5555L143.185 87.5555Z" fill="#7766C2"/>
<path d="M155.799 136.121L157.294 133.446C158.045 132.102 159.969 132.075 160.758 133.398L162.381 136.121L155.799 136.121Z" fill="#7766C2"/>
<path d="M162.398 87.5555L160.903 90.2309C160.152 91.5752 158.227 91.6021 157.439 90.2794L155.816 87.5555L162.398 87.5555Z" fill="#7766C2"/>
<path d="M136.602 136.121L138.097 133.446C138.848 132.102 140.773 132.075 141.561 133.398L143.184 136.121L136.602 136.121Z" fill="#7766C2"/>
<path d="M28.616 157.653L28.6718 157.713L28.7447 157.674C30.4872 156.754 32.3541 158.674 31.3756 160.383L31.3348 160.453L31.3927 160.509C32.809 161.877 31.5537 164.243 29.6245 163.843L29.5451 163.826L29.5086 163.898C28.6417 165.665 26.0001 165.205 25.7834 163.25L25.7748 163.168L25.6933 163.158C23.7405 162.881 23.3628 160.231 25.1611 159.424L25.2362 159.389L25.2212 159.31C24.8821 157.372 27.2898 156.195 28.616 157.651V157.653Z" fill="#FEA1BD"/>
<path d="M39.922 91.8383C38.4022 90.6887 36.2333 90.9894 35.0837 92.5093C33.9341 94.0291 34.2348 96.198 35.7547 97.3476C37.2745 98.4972 39.4434 98.1964 40.593 96.6766C42.1128 97.8262 44.2817 97.5254 45.4313 96.0056C46.5809 94.4858 46.2802 92.3169 44.7603 91.1673C43.2405 90.0177 41.0716 90.3185 39.922 91.8383Z" fill="#FFCD1C"/>
<path d="M29.3645 114.459C27.7055 114.204 26.052 113.947 24.393 113.692C25.6113 114.725 27.0619 116.312 27.1032 118.27C27.1881 122.057 21.9256 123.93 22.516 126.737C23.0075 129.076 26.8897 128.859 27.5341 131.382C28.1916 133.956 24.5001 135.529 24.0797 139.37C23.7853 142.05 25.2393 144.479 26.6525 146.22C28.6332 146.424 30.6138 146.628 32.5945 146.832C30.903 145.418 28.7915 143.175 28.7949 140.445C28.7989 136.364 33.5189 134.488 32.8382 131.27C32.2076 128.289 27.7658 128.046 27.6477 125.446C27.5392 123.007 31.3906 122.095 31.6263 119.064C31.7741 117.158 30.4122 115.49 29.3645 114.459Z" fill="#FEA1BD"/>
<path d="M109.85 183.597C108.399 183.149 106.95 182.697 105.499 182.249C105.727 182.664 106.195 183.661 106.032 184.91C105.698 187.432 103.109 188.495 103 188.54C104.645 188.951 106.288 189.367 107.932 189.778C109.473 189.374 110.618 188.14 110.829 186.661C111.068 184.989 110.003 183.771 109.845 183.595L109.85 183.597Z" fill="#FEA1BD"/>
<path d="M59.3519 144.864C60.2409 146.095 61.1256 147.329 62.0145 148.559C62.082 148.091 62.309 147.013 63.1909 146.114C64.9762 144.301 67.7969 145.041 67.7969 145.041C67.7969 145.041 65.67 142.401 64.6044 141.083C63.1308 140.478 61.4734 140.774 60.4149 141.828C59.217 143.018 59.3347 144.633 59.3548 144.868L59.3519 144.864Z" fill="#EF6125"/>
<path d="M119.111 171.51C120 172.741 120.885 173.975 121.774 175.206C121.841 174.738 122.068 173.659 122.95 172.76C124.735 170.948 127.556 171.687 127.556 171.687C127.556 171.687 125.429 169.048 124.364 167.729C122.89 167.124 121.233 167.42 120.174 168.474C118.976 169.665 119.094 171.279 119.114 171.515L119.111 171.51Z" fill="#2B9FE6"/>
<path d="M63.9423 166.97C67.2296 164.977 71.1647 169.436 75.6709 167.858C78.6893 166.802 80.3298 163.614 81.2273 161.213C81.7839 163.467 82.3405 165.721 82.8971 167.975C81.532 170.205 79.4241 172.735 76.3428 173.452C72.0696 174.443 68.9364 171.231 66.3943 172.609L63.7139 167.12C63.7886 167.069 63.8589 167.016 63.9379 166.967L63.9423 166.97Z" fill="#FFCD1C"/>
<path d="M60.5828 114.812C60.1172 114.547 59.6828 114.276 59.2741 114C57.4586 114.329 54.8569 115.099 53.6672 117.179C51.7741 120.48 55.1414 124.127 53.3052 126.573C51.3966 129.115 46.7879 126.467 44 128.77L49.0172 133C49.0845 132.931 49.1517 132.862 49.2293 132.793C51.6862 130.633 55.5759 133.579 57.7431 131.504C60.3448 129.009 56.181 123.389 58.9431 119.53C60.3707 117.535 63.0034 116.914 65 116.696C63.6655 116.298 62.15 115.709 60.5828 114.818V114.812Z" fill="#7766C2"/>
<path d="M91.105 135.054C90.7267 135.953 89.9597 137.422 88.4879 138.771C87.0355 140.102 85.6048 140.671 85.3063 140.783C83.6964 141.399 83.117 141.109 82.489 141.507C81.5006 142.136 80.87 144.168 82.4257 150.323C80.6917 149.405 78.9537 148.482 77.2197 147.564C76.0016 140.755 77.16 138.4 78.4603 137.518C80.1059 136.402 82.6483 137.197 84.8084 135.162C85.6254 134.391 86.0531 133.533 86.2688 133.007L91.105 135.054Z" fill="#2B9FE6"/>
<path d="M101.09 168.904C101.09 168.904 101.049 168.904 101.026 168.904C101.149 168.59 101.218 168.253 101.218 167.899C101.218 166.299 99.841 165 98.1441 165C96.4473 165 95.0705 166.299 95.0705 167.899C95.0705 168.408 95.2123 168.887 95.4547 169.301C94.1329 169.625 93.1587 170.755 93.1587 172.101C93.1587 173.702 94.5354 175 96.2323 175C97.298 175 98.2356 174.491 98.7845 173.715C99.347 174.314 100.17 174.698 101.085 174.698C102.782 174.698 104.159 173.4 104.159 171.799C104.159 170.199 102.782 168.9 101.085 168.9L101.09 168.904Z" fill="#EF6125"/>
<path d="M110.5 155C112.433 155 114 153.433 114 151.5C114 149.567 112.433 148 110.5 148C108.567 148 107 149.567 107 151.5C107 153.433 108.567 155 110.5 155Z" fill="#7766C2"/>
<path d="M43.6587 156C45.5917 156 47.1587 154.433 47.1587 152.5C47.1587 150.567 45.5917 149 43.6587 149C41.7257 149 40.1587 150.567 40.1587 152.5C40.1587 154.433 41.7257 156 43.6587 156Z" fill="#2B9FE6"/>
<path d="M71.5 113C73.433 113 75 111.433 75 109.5C75 107.567 73.433 106 71.5 106C69.567 106 68 107.567 68 109.5C68 111.433 69.567 113 71.5 113Z" fill="#FEA1BD"/>
<path d="M76.3496 182.005C76.2107 182.51 75.9115 183.295 75.2331 184.182C74.4745 185.176 73.577 185.859 73 186.247C74.3943 186.537 75.9596 186.981 77.5409 187.664C81.9002 189.54 84.1439 192.257 85.2604 194C85.3192 193.837 85.3833 193.674 85.4528 193.506C86.222 191.737 87.6431 190.299 89 189.229C87.4614 187.475 84.9078 185.186 80.7943 183.458C79.2558 182.811 77.7386 182.342 76.3442 182L76.3496 182.005Z" fill="#7766C2"/>
<path d="M25.0054 212.391C22.568 213.619 19.8902 211.219 20.8453 208.662L36.8994 165.69C37.6389 163.71 40.1386 163.095 41.7121 164.506L66.6262 186.838C68.1997 188.249 67.8608 190.801 65.9736 191.752L25.0054 212.391Z" fill="#FFE072"/>
<path d="M270.94 157.653L270.884 157.713L270.811 157.674C269.069 156.754 267.202 158.674 268.181 160.383L268.221 160.453L268.163 160.509C266.747 161.877 268.002 164.243 269.932 163.843L270.011 163.826L270.048 163.898C270.914 165.665 273.556 165.205 273.773 163.25L273.781 163.168L273.863 163.158C275.816 162.881 276.193 160.231 274.395 159.424L274.32 159.389L274.335 159.31C274.674 157.372 272.266 156.195 270.94 157.651V157.653Z" fill="#FEA1BD"/>
<path d="M259.634 91.8383C261.154 90.6887 263.323 90.9894 264.472 92.5093C265.622 94.0291 265.321 96.198 263.801 97.3476C262.282 98.4972 260.113 98.1964 258.963 96.6766C257.443 97.8262 255.274 97.5254 254.125 96.0056C252.975 94.4858 253.276 92.3169 254.796 91.1673C256.316 90.0177 258.485 90.3185 259.634 91.8383Z" fill="#FFCD1C"/>
<path d="M270.192 114.459C271.851 114.204 273.504 113.947 275.163 113.692C273.945 114.725 272.494 116.312 272.453 118.27C272.368 122.057 277.631 123.93 277.04 126.737C276.549 129.076 272.666 128.859 272.022 131.382C271.365 133.956 275.056 135.529 275.476 139.37C275.771 142.05 274.317 144.479 272.904 146.22C270.923 146.424 268.942 146.628 266.962 146.832C268.653 145.418 270.765 143.175 270.761 140.445C270.757 136.364 266.037 134.488 266.718 131.27C267.349 128.289 271.79 128.046 271.908 125.446C272.017 123.007 268.166 122.095 267.93 119.064C267.782 117.158 269.144 115.49 270.192 114.459Z" fill="#FEA1BD"/>
<path d="M189.707 183.597C191.157 183.149 192.607 182.697 194.057 182.249C193.829 182.664 193.361 183.661 193.524 184.91C193.859 187.432 196.447 188.495 196.556 188.54C194.911 188.951 193.269 189.367 191.624 189.778C190.083 189.374 188.938 188.14 188.727 186.661C188.488 184.989 189.554 183.771 189.711 183.595L189.707 183.597Z" fill="#FEA1BD"/>
<path d="M240.204 144.864C239.315 146.095 238.431 147.329 237.542 148.559C237.474 148.091 237.247 147.013 236.365 146.114C234.58 144.301 231.759 145.041 231.759 145.041C231.759 145.041 233.886 142.401 234.952 141.083C236.425 140.478 238.083 140.774 239.141 141.828C240.339 143.018 240.221 144.633 240.201 144.868L240.204 144.864Z" fill="#EF6125"/>
<path d="M180.445 171.51C179.556 172.741 178.671 173.975 177.782 175.206C177.715 174.738 177.488 173.659 176.606 172.76C174.821 170.948 172 171.687 172 171.687C172 171.687 174.127 169.048 175.193 167.729C176.666 167.124 178.323 167.42 179.382 168.474C180.58 169.665 180.462 171.279 180.442 171.515L180.445 171.51Z" fill="#2B9FE6"/>
<path d="M235.614 166.97C232.327 164.977 228.391 169.436 223.885 167.858C220.867 166.802 219.226 163.614 218.329 161.213C217.772 163.467 217.216 165.721 216.659 167.975C218.024 170.205 220.132 172.735 223.213 173.452C227.487 174.443 230.62 171.231 233.162 172.609L235.842 167.12C235.768 167.069 235.697 167.016 235.618 166.967L235.614 166.97Z" fill="#FFCD1C"/>
<path d="M238.973 114.812C239.439 114.547 239.873 114.276 240.282 114C242.098 114.329 244.699 115.099 245.889 117.179C247.782 120.48 244.415 124.127 246.251 126.573C248.16 129.115 252.768 126.467 255.556 128.77L250.539 133C250.472 132.931 250.404 132.862 250.327 132.793C247.87 130.633 243.98 133.579 241.813 131.504C239.211 129.009 243.375 123.389 240.613 119.53C239.185 117.535 236.553 116.914 234.556 116.696C235.891 116.298 237.406 115.709 238.973 114.818V114.812Z" fill="#7766C2"/>
<path d="M208.451 135.054C208.829 135.953 209.596 137.422 211.068 138.771C212.521 140.102 213.951 140.671 214.25 140.783C215.86 141.399 216.439 141.109 217.067 141.507C218.056 142.136 218.686 144.168 217.13 150.323C218.864 149.405 220.602 148.482 222.336 147.564C223.555 140.755 222.396 138.4 221.096 137.518C219.45 136.402 216.908 137.197 214.748 135.162C213.931 134.391 213.503 133.533 213.287 133.007L208.451 135.054Z" fill="#2B9FE6"/>
<path d="M198.466 168.904C198.466 168.904 198.508 168.904 198.531 168.904C198.407 168.59 198.338 168.253 198.338 167.899C198.338 166.299 199.715 165 201.412 165C203.109 165 204.486 166.299 204.486 167.899C204.486 168.408 204.344 168.887 204.101 169.301C205.423 169.625 206.397 170.755 206.397 172.101C206.397 173.702 205.021 175 203.324 175C202.258 175 201.321 174.491 200.772 173.715C200.209 174.314 199.386 174.698 198.471 174.698C196.774 174.698 195.397 173.4 195.397 171.799C195.397 170.199 196.774 168.9 198.471 168.9L198.466 168.904Z" fill="#EF6125"/>
<path d="M189.056 155C187.123 155 185.556 153.433 185.556 151.5C185.556 149.567 187.123 148 189.056 148C190.989 148 192.556 149.567 192.556 151.5C192.556 153.433 190.989 155 189.056 155Z" fill="#7766C2"/>
<path d="M255.897 156C253.964 156 252.397 154.433 252.397 152.5C252.397 150.567 253.964 149 255.897 149C257.83 149 259.397 150.567 259.397 152.5C259.397 154.433 257.83 156 255.897 156Z" fill="#2B9FE6"/>
<path d="M228.056 113C226.123 113 224.556 111.433 224.556 109.5C224.556 107.567 226.123 106 228.056 106C229.989 106 231.556 107.567 231.556 109.5C231.556 111.433 229.989 113 228.056 113Z" fill="#FEA1BD"/>
<path d="M223.207 182.005C223.345 182.51 223.645 183.295 224.323 184.182C225.082 185.176 225.979 185.859 226.556 186.247C225.162 186.537 223.597 186.981 222.015 187.664C217.656 189.54 215.412 192.257 214.296 194C214.237 193.837 214.173 193.674 214.103 193.506C213.334 191.737 211.913 190.299 210.556 189.229C212.095 187.475 214.648 185.186 218.762 183.458C220.3 182.811 221.818 182.342 223.212 182L223.207 182.005Z" fill="#7766C2"/>
<path d="M274.551 212.391C276.988 213.619 279.666 211.219 278.711 208.662L262.657 165.689C261.917 163.71 259.418 163.095 257.844 164.505L232.93 186.838C231.356 188.249 231.695 190.801 233.583 191.751L274.551 212.391Z" fill="#FFE072"/>
<path d="M128.545 7.17833C127.188 5.47831 125.307 4.49471 123.106 4.32483C122.134 4.24971 121.187 4.38736 120.281 4.73573C119.524 5.0252 118.809 5.45387 118.094 6.04232C116.959 6.98449 116.016 8.19538 115.103 9.35681C113.887 10.9102 112.742 12.3768 111.354 13.0371L113.702 17.9701C116.198 16.7821 117.853 14.6655 119.317 12.7929C120.835 10.8476 121.829 9.67114 122.811 9.74168C123.526 9.79714 124.005 10.0361 124.412 10.5454C124.859 11.1008 125.221 11.9979 125.455 13.1331C125.7 14.3044 125.822 15.7474 125.823 17.4191C125.812 20.6503 125.35 24.0843 125.007 26.5931C124.875 27.5419 124.768 28.3672 124.696 29.0215C124.672 29.2929 124.646 29.5475 124.618 29.7973C124.607 29.8853 124.603 29.9639 124.592 30.052L85.1052 48.8436C85.0347 48.7945 84.9665 48.7501 84.8912 48.7033C84.6795 48.5677 84.4654 48.4273 84.242 48.2795C83.6895 47.9103 82.9786 47.4805 82.1594 46.9841C80.001 45.6656 77.04 43.8606 74.5304 41.8289C73.2287 40.7763 72.1855 39.772 71.4313 38.8429C70.6979 37.9453 70.2301 37.0984 70.0809 36.4014C69.9425 35.7641 70.0543 35.2442 70.4671 34.6518C71.0315 33.8456 72.5717 33.8157 75.0386 33.8648C77.4152 33.9095 80.101 33.9608 82.5974 32.7727L80.2498 27.8397C78.8624 28.5 77.0021 28.4636 75.0299 28.4272C73.5502 28.3988 72.0159 28.3668 70.5708 28.6586C69.6632 28.8424 68.8799 29.1266 68.1777 29.5316C67.3408 30.0126 66.6366 30.6609 66.0796 31.4577C64.8235 33.2726 64.4004 35.3529 64.8641 37.4778C65.4728 40.2664 67.5614 43.0716 71.2555 46.058C74.0512 48.3199 77.1936 50.2336 79.4838 51.6311C80.2558 52.1027 80.9266 52.5102 81.3993 52.8229C81.6321 52.978 81.8555 53.1258 82.0743 53.2639C83.168 53.9783 83.9394 54.4856 84.6378 55.2108L86.5269 59.1803C86.2052 59.3334 86.0768 59.7195 86.2327 60.047C86.3886 60.3746 86.7692 60.5185 87.0908 60.3654L132.296 38.8526C132.617 38.6996 132.746 38.3135 132.59 37.9859C132.434 37.6584 132.048 37.5168 131.732 37.6676L129.842 33.6981C129.718 32.6938 129.811 31.7753 129.946 30.476C129.972 30.2213 129.998 29.9548 130.03 29.674C130.085 29.11 130.189 28.3395 130.313 27.4359C130.67 24.7723 131.169 21.1316 131.177 17.5355C131.185 12.7876 130.328 9.39043 128.55 7.16413L128.545 7.17833Z" fill="#FFCD1C"/>
<path d="M99.0175 36.9996C99.7855 38.6135 98.885 44.0583 98.885 44.0583C98.885 44.0583 94.0917 41.3231 93.3237 39.7093C92.5557 38.0955 93.2092 36.1774 94.779 35.4303C96.3489 34.6832 98.2495 35.3858 99.0175 36.9996Z" fill="#FFCD1C"/>
<path d="M112.33 30.6642C113.098 32.278 112.198 37.7228 112.198 37.7228C112.198 37.7228 107.404 34.9877 106.636 33.3739C105.868 31.76 106.522 29.842 108.092 29.0949C109.661 28.3478 111.562 29.0504 112.33 30.6642Z" fill="#FFCD1C"/>
<path d="M80.4176 43.0272C81.8601 39.3274 86.3112 35.5902 90.2515 34.9617C88.818 38.6927 84.354 42.3533 80.4176 43.0272Z" fill="#FFCD1C"/>
<path d="M123.212 22.6611C120.212 25.2886 114.551 26.4465 110.756 25.2036C113.729 22.5421 119.432 21.4471 123.212 22.6611Z" fill="#FFCD1C"/>
<path d="M94.6345 32.7516C96.9068 29.4841 102.126 26.9887 106.094 27.298C103.824 30.5941 98.6085 33.0228 94.6345 32.7516Z" fill="#FFCD1C"/>
<path d="M90.0874 5.76367L93.6604 10.1785L98.13 8.05142L92.3918 4.66701L90.0874 5.76367Z" fill="#7766C2"/>
<path d="M90.0874 5.76361L87.783 6.86027L89.1861 12.3078L93.6508 10.183L90.0874 5.76361Z" fill="#7766C2"/>
<path d="M87.783 6.86033L89.1861 12.3078L84.7261 14.4303L85.4786 7.95699L87.783 6.86033Z" fill="#7766C2"/>
<path d="M130.342 34.7602L85.1372 56.2729L85.7012 57.458L130.906 35.9452L130.342 34.7602Z" fill="#7766C2"/>
<path d="M115.413 10.1192C114.544 9.07326 113.541 8.22721 112.438 7.61756C111.241 6.95825 109.918 6.56579 108.506 6.45766C107.456 6.37853 106.432 6.52889 105.457 6.90443C104.63 7.22107 103.848 7.69365 103.07 8.33563C101.811 9.37778 100.752 10.7389 99.726 12.0482C99.441 12.4143 99.1559 12.7804 98.8615 13.1391C98.8496 11.0355 98.6671 9.15483 98.1375 8.04201L84.7335 14.4209C85.2608 15.5289 86.6026 16.8637 88.2324 18.1974C87.7661 18.1949 87.3045 18.19 86.8406 18.1803C85.1754 18.1456 83.453 18.1145 81.8504 18.434C80.8545 18.6303 80.0017 18.9416 79.2346 19.3835C78.328 19.9036 77.5609 20.6054 76.9646 21.4682C76.1583 22.6318 75.6283 23.9062 75.385 25.2509C75.1556 26.4886 75.1843 27.7985 75.4504 29.1371C76.1399 32.5903 78.4713 36.3139 82.3846 40.2064C85.4025 43.2074 88.5123 45.4734 90.026 46.5137L95.6622 43.8315C95.2133 43.5192 94.7548 43.2116 94.2703 42.8986C94.0304 42.741 93.7834 42.5808 93.5294 42.4181C89.5479 39.7929 81.7431 33.4393 80.6939 28.1661C80.4278 26.8275 80.6406 25.7158 81.3591 24.6767C81.5911 24.3477 81.9642 23.981 82.9912 23.7759C84.0397 23.5664 85.4124 23.5927 86.8635 23.6229C89.1282 23.6678 91.65 23.7084 94.0608 22.9097L102.489 40.5945L107.294 38.3075L98.8665 20.6227C101.002 19.2578 102.561 17.2751 103.959 15.4871C104.851 14.3419 105.696 13.2601 106.52 12.5786C107.327 11.911 107.847 11.8526 108.244 11.8824C109.51 11.9827 110.505 12.5138 111.371 13.5668C114.799 17.7139 114.81 27.7708 114.336 32.5162C114.307 32.8256 114.275 33.1183 114.244 33.3991C114.184 33.9773 114.133 34.5271 114.09 35.0676L119.726 32.3853C119.874 30.5545 120.076 26.7121 119.651 22.4773C119.103 16.9833 117.682 12.8208 115.439 10.1126L115.413 10.1192Z" fill="#FFCD1C"/>
</svg>
