<svg width="381" height="273" viewBox="0 0 381 273" fill="none" xmlns="http://www.w3.org/2000/svg">
<rect width="381" height="273" rx="12" fill="#EAE7DC"/>
<rect x="11" y="13" width="361" height="104" rx="12" fill="#434040"/>
<path d="M217.607 150.055C217.607 150.055 244.125 135.511 244.954 112.867C245.782 90.2235 309.372 89.8342 288.601 121.771C267.83 153.709 217.607 150.055 217.607 150.055Z" fill="#434040"/>
<rect x="258.517" y="95.5842" width="70.8648" height="41.0943" transform="rotate(-43.3263 258.517 95.5842)" fill="#434040"/>
<rect x="273.597" y="122.444" width="70.8648" height="11.2075" transform="rotate(-43.3263 273.597 122.444)" fill="#434040"/>
<rect x="123.064" y="269.681" width="28.8658" height="28.8657" rx="14.4329" transform="rotate(-180 123.064 269.681)" fill="#FEA1BD"/>
<rect x="153.812" y="269.681" width="28.8658" height="28.8657" rx="14.4329" transform="rotate(-180 153.812 269.681)" fill="#FEA1BD"/>
<rect x="76" y="213.883" width="96.1628" height="37.9903" rx="18.9951" fill="#2B9FE6"/>
<rect x="76" y="131" width="96.1628" height="37.9903" rx="18.9951" fill="#2B9FE6"/>
<rect x="143.077" y="148.587" width="96.1628" height="37.9903" rx="18.9951" transform="rotate(90 143.077 148.587)" fill="#2B9FE6"/>
<circle cx="112.295" cy="147.259" r="6.21914" fill="#EAE8DC"/>
<circle cx="112.295" cy="147.26" r="5.38992" fill="#434040"/>
<circle cx="109.807" cy="144.772" r="1.24383" fill="#D9D9D9"/>
<circle cx="136.342" cy="147.259" r="6.21914" fill="#EAE8DC"/>
<circle cx="136.342" cy="147.26" r="5.38992" fill="#434040"/>
<circle cx="133.855" cy="144.772" r="1.24383" fill="#D9D9D9"/>
<circle cx="124.319" cy="184.966" r="4.39261" fill="#FEA1BD"/>
<circle cx="124.319" cy="200.027" r="4.39261" fill="#FEA1BD"/>
<path d="M121.752 153.179C122.806 151.701 125.002 151.701 126.056 153.179L128.465 156.557C129.713 158.306 128.462 160.734 126.313 160.734H121.495C119.346 160.734 118.095 158.306 119.343 156.557L121.752 153.179Z" fill="#FEA1BD"/>
</svg>
