<svg width="56" height="38" viewBox="0 0 56 38" fill="none" xmlns="http://www.w3.org/2000/svg">
<path d="M25.2404 25.2449L18.5121 22.4788L13.3187 27.4172C12.2107 28.4754 10.3582 27.6013 10.4724 26.0739L10.9902 18.9268L4.56063 15.515C3.19845 14.7879 3.43995 12.7852 4.94314 12.44L11.988 10.7971L13.2142 3.74905C13.4768 2.25177 15.4802 1.88726 16.3023 3.1945L20.1399 9.32607L27.321 8.37635C28.8506 8.17213 29.8405 9.94898 28.8547 11.106L24.1782 16.5419L27.3823 23.0087C28.072 24.3835 26.678 25.8436 25.2361 25.2564L25.2404 25.2449Z" fill="#2B9FE6"/>
<path d="M49.7706 32.7586L45.3731 30.9452L41.9174 34.3321C41.1801 35.0578 39.9703 34.4824 40.0586 33.4478L40.461 28.6069L36.2654 26.3539C35.3766 25.8737 35.5527 24.5164 36.5435 24.2698L41.1873 23.0968L42.0543 18.3167C42.2398 17.3013 43.5595 17.0372 44.0884 17.9147L46.557 22.0306L51.2843 21.3255C52.2912 21.1741 52.9263 22.3679 52.2685 23.1594L49.1481 26.8785L51.1975 31.2267C51.6388 32.1511 50.7101 33.1512 49.7676 32.7664L49.7706 32.7586Z" fill="#2B9FE6"/>
</svg>
