<svg width="381" height="273" viewBox="0 0 381 273" fill="none" xmlns="http://www.w3.org/2000/svg">
<rect width="381" height="273" rx="12" fill="#EAE7DC"/>
<rect x="11" y="13" width="361" height="104" rx="12" fill="#434040"/>
<path d="M217.607 150.055C217.607 150.055 244.125 135.511 244.954 112.867C245.782 90.2235 309.372 89.8342 288.601 121.771C267.83 153.709 217.607 150.055 217.607 150.055Z" fill="#434040"/>
<rect x="258.517" y="95.5842" width="70.8648" height="41.0943" transform="rotate(-43.3263 258.517 95.5842)" fill="#434040"/>
<rect x="273.597" y="122.444" width="70.8648" height="11.2075" transform="rotate(-43.3263 273.597 122.444)" fill="#434040"/>
<rect x="78" y="131" width="98.9204" height="39.0796" rx="19.5398" fill="#14AE59"/>
<rect x="117.08" y="131" width="117.239" height="39.0796" rx="19.5398" transform="rotate(90 117.08 131)" fill="#14AE59"/>
<rect x="176.92" y="131" width="117.239" height="39.0796" rx="19.5398" transform="rotate(90 176.92 131)" fill="#14AE59"/>
<rect x="78" y="209.159" width="98.9204" height="39.0796" rx="19.5398" fill="#14AE59"/>
<circle cx="127.155" cy="150.845" r="12.5177" fill="#D9D9D9"/>
<circle cx="127.155" cy="150.845" r="9.81117" fill="#434040"/>
<path d="M139.673 150.845C133.245 150.845 133.73 150.845 126.817 150.845C119.903 150.845 122.08 150.845 114.637 150.845C114.637 143.932 120.242 138.328 127.155 138.328C134.068 138.328 139.673 143.932 139.673 150.845Z" fill="#7766C2"/>
<circle cx="120.896" cy="153.349" r="1.25177" fill="#D9D9D9"/>
<rect x="149.443" y="258.619" width="45.7965" height="10.3805" rx="5.19026" transform="rotate(-180 149.443 258.619)" fill="#7766C2"/>
<rect x="149.443" y="269" width="45.7965" height="10.3805" rx="5.19026" transform="rotate(-180 149.443 269)" fill="#7766C2"/>
<path d="M122.377 170.08L121.504 171.643C120.753 172.987 118.828 173.014 118.04 171.691L117.08 170.08L122.377 170.08Z" fill="#7766C2"/>
<path d="M132.53 209.167L133.403 207.604C134.154 206.26 136.078 206.233 136.867 207.556L137.827 209.167L132.53 209.167Z" fill="#7766C2"/>
<path d="M137.841 170.08L136.968 171.643C136.216 172.987 134.292 173.014 133.504 171.691L132.543 170.08L137.841 170.08Z" fill="#7766C2"/>
<path d="M117.08 209.167L117.953 207.604C118.704 206.26 120.629 206.233 121.417 207.556L122.377 209.167L117.08 209.167Z" fill="#7766C2"/>
</svg>
