<svg width="168" height="20" viewBox="0 0 168 20" fill="none" xmlns="http://www.w3.org/2000/svg">
<path d="M3 3L3 17" stroke="#EF6125" stroke-width="4.2" stroke-linecap="round"/>
<path d="M3 3L3 9.06667" stroke="#EAE8DC" stroke-width="2.8" stroke-linecap="round"/>
<path d="M19.275 3L19.275 17" stroke="#EF6125" stroke-width="4.2" stroke-linecap="round"/>
<path d="M19.275 3L19.275 9.06667" stroke="#EAE8DC" stroke-width="2.8" stroke-linecap="round"/>
<path d="M35.55 3L35.55 17" stroke="#EF6125" stroke-width="4.2" stroke-linecap="round"/>
<path d="M35.55 3L35.55 9.06667" stroke="#EAE8DC" stroke-width="2.8" stroke-linecap="round"/>
<path d="M51.825 3L51.825 17" stroke="#EF6125" stroke-width="4.2" stroke-linecap="round"/>
<path d="M51.825 3L51.825 9.06667" stroke="#EAE8DC" stroke-width="2.8" stroke-linecap="round"/>
<path d="M68.1 3L68.1 17" stroke="#EF6125" stroke-width="4.2" stroke-linecap="round"/>
<path d="M68.1 3L68.1 9.06667" stroke="#EAE8DC" stroke-width="2.8" stroke-linecap="round"/>
<path d="M84.375 3L84.375 17" stroke="#EF6125" stroke-width="4.2" stroke-linecap="round"/>
<path d="M84.375 3L84.375 9.06667" stroke="#EAE8DC" stroke-width="2.8" stroke-linecap="round"/>
<path d="M100.65 3L100.65 17" stroke="#EF6125" stroke-width="4.2" stroke-linecap="round"/>
<path d="M100.65 3L100.65 9.06667" stroke="#EAE8DC" stroke-width="2.8" stroke-linecap="round"/>
<path d="M116.925 3L116.925 17" stroke="#EF6125" stroke-width="4.2" stroke-linecap="round"/>
<path d="M116.925 3L116.925 9.06667" stroke="#EAE8DC" stroke-width="2.8" stroke-linecap="round"/>
<path d="M133.2 3L133.2 17" stroke="#EF6125" stroke-width="4.2" stroke-linecap="round"/>
<path d="M133.2 3L133.2 9.06667" stroke="#EAE8DC" stroke-width="2.8" stroke-linecap="round"/>
<path d="M149.3 3L149.3 17" stroke="#EF6125" stroke-width="4.2" stroke-linecap="round"/>
<path d="M149.3 3L149.3 9.06667" stroke="#EAE8DC" stroke-width="2.8" stroke-linecap="round"/>
<path d="M165.575 3L165.575 17" stroke="#EF6125" stroke-width="4.2" stroke-linecap="round"/>
<path d="M165.575 3L165.575 9.06667" stroke="#EAE8DC" stroke-width="2.8" stroke-linecap="round"/>
</svg>
