<svg width="523" height="445" viewBox="0 0 523 445" fill="none" xmlns="http://www.w3.org/2000/svg">
<rect y="20" width="523" height="425" rx="12" fill="#EAE8DC"/>
<path d="M36 6L36 45" stroke="#2B9FE6" stroke-width="11.7" stroke-linecap="round"/>
<path d="M36 6L36 22.9" stroke="#EAE8DC" stroke-width="7.8" stroke-linecap="round"/>
<path d="M81.3374 6L81.3374 45" stroke="#2B9FE6" stroke-width="11.7" stroke-linecap="round"/>
<path d="M81.3374 6L81.3374 22.9" stroke="#EAE8DC" stroke-width="7.8" stroke-linecap="round"/>
<path d="M126.675 6L126.675 45" stroke="#2B9FE6" stroke-width="11.7" stroke-linecap="round"/>
<path d="M126.675 6L126.675 22.9" stroke="#EAE8DC" stroke-width="7.8" stroke-linecap="round"/>
<path d="M172.013 6L172.013 45" stroke="#2B9FE6" stroke-width="11.7" stroke-linecap="round"/>
<path d="M172.013 6L172.013 22.9" stroke="#EAE8DC" stroke-width="7.8" stroke-linecap="round"/>
<path d="M217.35 6L217.35 45" stroke="#2B9FE6" stroke-width="11.7" stroke-linecap="round"/>
<path d="M217.35 6L217.35 22.9" stroke="#EAE8DC" stroke-width="7.8" stroke-linecap="round"/>
<path d="M262.688 6L262.687 45" stroke="#2B9FE6" stroke-width="11.7" stroke-linecap="round"/>
<path d="M262.688 6L262.687 22.9" stroke="#EAE8DC" stroke-width="7.8" stroke-linecap="round"/>
<path d="M308.025 6L308.025 45" stroke="#2B9FE6" stroke-width="11.7" stroke-linecap="round"/>
<path d="M308.025 6L308.025 22.9" stroke="#EAE8DC" stroke-width="7.8" stroke-linecap="round"/>
<path d="M353.362 6L353.362 45" stroke="#2B9FE6" stroke-width="11.7" stroke-linecap="round"/>
<path d="M353.362 6L353.362 22.9" stroke="#EAE8DC" stroke-width="7.8" stroke-linecap="round"/>
<path d="M398.7 6L398.7 45" stroke="#2B9FE6" stroke-width="11.7" stroke-linecap="round"/>
<path d="M398.7 6L398.7 22.9" stroke="#EAE8DC" stroke-width="7.8" stroke-linecap="round"/>
<path d="M443.55 6L443.55 45" stroke="#2B9FE6" stroke-width="11.7" stroke-linecap="round"/>
<path d="M443.55 6L443.55 22.9" stroke="#EAE8DC" stroke-width="7.8" stroke-linecap="round"/>
<path d="M488.888 6L488.888 45" stroke="#2B9FE6" stroke-width="11.7" stroke-linecap="round"/>
<path d="M488.888 6L488.888 22.9" stroke="#EAE8DC" stroke-width="7.8" stroke-linecap="round"/>
</svg>
