<svg width="381" height="273" viewBox="0 0 381 273" fill="none" xmlns="http://www.w3.org/2000/svg">
<rect width="381" height="273" rx="12" fill="#EAE7DC"/>
<rect x="11" y="13" width="361" height="104" rx="12" fill="#434040"/>
<path d="M217.607 150.055C217.607 150.055 244.125 135.511 244.954 112.867C245.782 90.2235 309.372 89.8342 288.601 121.771C267.83 153.709 217.607 150.055 217.607 150.055Z" fill="#434040"/>
<rect x="258.517" y="95.5842" width="70.8648" height="41.0943" transform="rotate(-43.3263 258.517 95.5842)" fill="#434040"/>
<rect x="273.597" y="122.444" width="70.8648" height="11.2075" transform="rotate(-43.3263 273.597 122.444)" fill="#434040"/>
<path d="M108.021 221.905C107.261 223.286 105.276 223.286 104.516 221.905L102.818 218.818L109.718 218.818L108.021 221.905Z" fill="#7766C2"/>
<path d="M138.13 221.905C137.37 223.286 135.385 223.286 134.625 221.905L132.927 218.818L139.827 218.818L138.13 221.905Z" fill="#7766C2"/>
<path fill-rule="evenodd" clip-rule="evenodd" d="M103.132 131C92.5657 131 84 139.566 84 150.132C84 150.391 84.0052 150.649 84.0154 150.906C84.0052 151.169 84 151.434 84 151.7L84 198.745C84 205.373 87.2121 211.25 92.1645 214.906C95.3816 217.36 99.4001 218.818 103.759 218.818H139.827V230.736H103.132C92.5656 230.736 84 239.302 84 249.868C84 260.434 92.5656 269 103.132 269H159.586C159.642 269 159.697 269 159.753 268.999C159.802 269 159.851 269 159.9 269C170.986 269 179.973 260.013 179.973 248.927V201.882C179.973 201.509 179.963 201.139 179.943 200.772C179.963 200.412 179.973 200.051 179.973 199.686C179.973 189.12 171.407 180.555 160.841 180.555H124.145V169.264H160.841C171.407 169.264 179.973 160.698 179.973 150.132C179.973 139.566 171.407 131 160.841 131H103.132Z" fill="#FEA1BD"/>
<path d="M161.154 169.264C161.154 159.439 161.154 160.181 161.154 149.615C161.154 139.049 161.154 142.376 161.154 131C171.547 131 179.973 139.566 179.973 150.132C179.973 160.698 171.547 169.264 161.154 169.264Z" fill="#7766C2"/>
<path d="M102.818 230.736C102.818 240.561 102.818 239.819 102.818 250.385C102.818 260.951 102.818 257.624 102.818 269C92.4252 269 84 260.434 84 249.868C84 239.302 92.4252 230.736 102.818 230.736Z" fill="#7766C2"/>
<circle cx="147.126" cy="199.059" r="10.9773" fill="#EAE8DC"/>
<circle cx="147.126" cy="199.059" r="9.51364" fill="#434040"/>
<circle cx="142.735" cy="194.668" r="2.19545" fill="#D9D9D9"/>
<path d="M136.064 200C141.7 200 141.275 200 147.337 200C153.4 200 151.491 200 158.018 200C158.018 205.543 153.103 210.036 147.041 210.036C140.978 210.036 136.064 205.543 136.064 200Z" fill="#7766C2"/>
<circle cx="116.932" cy="199.059" r="10.9773" fill="#EAE8DC"/>
<circle cx="116.932" cy="199.059" r="9.51364" fill="#434040"/>
<circle cx="112.541" cy="194.668" r="2.19545" fill="#D9D9D9"/>
<path d="M106.04 200C111.677 200 111.252 200 117.314 200C123.377 200 121.468 200 127.995 200C127.995 205.543 123.08 210.036 117.018 210.036C110.955 210.036 106.04 205.543 106.04 200Z" fill="#7766C2"/>
</svg>
