<svg width="300" height="235" viewBox="0 0 300 235" fill="none" xmlns="http://www.w3.org/2000/svg">
<circle cx="148.356" cy="88.8194" r="86.3556" fill="#EAE8DC"/>
<rect x="208.987" y="30.4639" width="177" height="51.027" rx="23.9189" transform="rotate(90 208.987 30.4639)" fill="#7766C2"/>
<path d="M134.689 54.1057L144.932 59.8374C146.004 60.4368 146.024 61.9711 144.97 62.5991L134.884 68.6045L134.689 54.1057Z" fill="#EF6125"/>
<rect x="138.027" y="31.2612" width="149.892" height="51.027" rx="23.9189" transform="rotate(90 138.027 31.2612)" fill="#7766C2"/>
<path d="M114.906 159.626C127.264 179.16 167.548 180.062 181.081 164.046" stroke="#7766C2" stroke-width="55.8108" stroke-linecap="round"/>
<circle cx="115.304" cy="64.3818" r="13.1882" fill="#D9D9D9"/>
<circle cx="115.304" cy="64.3821" r="10.3367" fill="#434040"/>
<circle cx="111.154" cy="59.5191" r="1.90949" fill="#D9D9D9"/>
<circle cx="115.304" cy="98.6001" r="13.1882" fill="#D9D9D9"/>
<circle cx="115.304" cy="98.5997" r="10.3367" fill="#434040"/>
<circle cx="111.154" cy="93.7369" r="1.90949" fill="#D9D9D9"/>
<path d="M176.297 81.8898C176.297 87.2829 172.361 95.2513 163.54 108.599C157.238 118.138 159.554 130.126 157.561 129.728C148.314 129.728 145.203 107.083 145.203 97.8358C145.203 88.5887 154.293 69.9302 163.54 69.9302C172.788 69.9302 176.297 72.6428 176.297 81.8898Z" fill="#EF6125"/>
<path d="M97.13 6.5153L83.7261 12.8942L84.4786 6.42086L91.3918 3.13089L97.13 6.5153Z" fill="#FFCD1C"/>
<path d="M92.7526 14.5894C90.9474 15.4485 88.9733 15.5194 87.2227 14.9463C88.641 17.1842 91.4899 18.0854 93.8855 16.9454C96.2811 15.8053 97.381 13.019 96.5294 10.4996C95.8747 12.2292 94.5673 13.7258 92.7574 14.5871L92.7526 14.5894Z" fill="#FFCD1C"/>
<path d="M127.545 5.6422C126.188 3.94218 124.307 2.95858 122.106 2.78869C121.134 2.71358 120.187 2.85123 119.281 3.1996C118.524 3.48907 117.809 3.91774 117.094 4.50619C115.959 5.44835 115.016 6.65925 114.103 7.82068C112.887 9.37407 111.742 10.8407 110.354 11.501L112.702 16.434C115.198 15.2459 116.853 13.1293 118.317 11.2568C119.835 9.31144 120.829 8.13501 121.811 8.20555C122.526 8.26101 123.005 8.49993 123.412 9.00923C123.859 9.56466 124.221 10.4617 124.455 11.597C124.7 12.7683 124.822 14.2112 124.823 15.883C124.812 19.1142 124.35 22.5482 124.007 25.057C123.875 26.0058 123.768 26.831 123.696 27.4854C123.672 27.7567 123.646 28.0114 123.618 28.2612C123.607 28.3492 123.603 28.4278 123.592 28.5158L84.1052 47.3075C84.0347 47.2583 83.9665 47.214 83.8912 47.1671C83.6795 47.0315 83.4654 46.8911 83.242 46.7434C82.6895 46.3742 81.9786 45.9444 81.1594 45.448C79.001 44.1295 76.04 42.3245 73.5304 40.2928C72.2287 39.2402 71.1855 38.2359 70.4313 37.3068C69.6979 36.4091 69.2301 35.5623 69.0809 34.8652C68.9425 34.228 69.0543 33.708 69.4671 33.1157C70.0315 32.3095 71.5717 32.2796 74.0386 32.3286C76.4152 32.3734 79.101 32.4246 81.5974 31.2366L79.2498 26.3036C77.8624 26.9639 76.0021 26.9275 74.0299 26.8911C72.5502 26.8626 71.0159 26.8307 69.5708 27.1225C68.6632 27.3063 67.8799 27.5904 67.1777 27.9955C66.3408 28.4765 65.6366 29.1248 65.0796 29.9216C63.8235 31.7365 63.4004 33.8167 63.8641 35.9417C64.4728 38.7303 66.5614 41.5354 70.2555 44.5219C73.0512 46.7837 76.1936 48.6975 78.4838 50.095C79.2558 50.5666 79.9266 50.9741 80.3993 51.2868C80.6321 51.4419 80.8555 51.5896 81.0743 51.7277C82.168 52.4421 82.9394 52.9495 83.6378 53.6747L85.5269 57.6442C85.2052 57.7973 85.0768 58.1833 85.2327 58.5109C85.3886 58.8385 85.7692 58.9824 86.0908 58.8293L131.296 37.3165C131.617 37.1634 131.746 36.7774 131.59 36.4498C131.434 36.1222 131.048 35.9806 130.732 36.1314L128.842 32.1619C128.718 31.1577 128.811 30.2391 128.946 28.9398C128.972 28.6852 128.998 28.4187 129.03 28.1379C129.085 27.5739 129.189 26.8034 129.313 25.8997C129.67 23.2362 130.169 19.5955 130.177 15.9994C130.185 11.2514 129.328 7.8543 127.55 5.628L127.545 5.6422Z" fill="#FFCD1C"/>
<path d="M98.0175 35.4635C98.7855 37.0773 97.885 42.5221 97.885 42.5221C97.885 42.5221 93.0917 39.787 92.3237 38.1732C91.5557 36.5594 92.2092 34.6413 93.779 33.8942C95.3489 33.1471 97.2495 33.8497 98.0175 35.4635Z" fill="#FFCD1C"/>
<path d="M111.33 29.1281C112.098 30.7419 111.198 36.1867 111.198 36.1867C111.198 36.1867 106.404 33.4515 105.636 31.8377C104.868 30.2239 105.522 28.3058 107.092 27.5587C108.661 26.8116 110.562 27.5142 111.33 29.1281Z" fill="#FFCD1C"/>
<path d="M79.4176 41.491C80.8601 37.7913 85.3112 34.0541 89.2515 33.4256C87.818 37.1565 83.354 40.8171 79.4176 41.491Z" fill="#FFCD1C"/>
<path d="M122.212 21.125C119.212 23.7525 113.551 24.9103 109.756 23.6674C112.729 21.006 118.432 19.911 122.212 21.125Z" fill="#FFCD1C"/>
<path d="M93.6345 31.2154C95.9068 27.9479 101.126 25.4526 105.094 25.7618C102.824 29.058 97.6085 31.4867 93.6345 31.2154Z" fill="#FFCD1C"/>
<path d="M89.0874 4.22748L86.783 5.32413L88.1861 10.7716L92.6508 8.64686L89.0874 4.22748Z" fill="#EF6125"/>
<path d="M129.342 33.224L84.1372 54.7368L84.7012 55.9219L129.906 34.4091L129.342 33.224Z" fill="#EF6125"/>
<path d="M114.413 8.58308C113.544 7.53713 112.541 6.69107 111.438 6.08143C110.241 5.42212 108.918 5.02966 107.506 4.92153C106.456 4.8424 105.432 4.99276 104.457 5.3683C103.63 5.68494 102.848 6.15752 102.07 6.7995C100.811 7.84165 99.7516 9.20273 98.726 10.5121C98.441 10.8782 98.1559 11.2442 97.8615 11.603C97.8496 9.49933 97.6671 7.6187 97.1375 6.50588L83.7335 12.8848C84.2608 13.9928 85.6026 15.3276 87.2324 16.6613C86.7661 16.6587 86.3045 16.6539 85.8406 16.6442C84.1754 16.6095 82.453 16.5784 80.8504 16.8979C79.8545 17.0942 79.0017 17.4055 78.2346 17.8474C77.328 18.3674 76.5609 19.0693 75.9646 19.932C75.1583 21.0957 74.6283 22.3701 74.385 23.7148C74.1556 24.9525 74.1843 26.2623 74.4504 27.601C75.1399 31.0542 77.4713 34.7778 81.3846 38.6703C84.4025 41.6713 87.5123 43.9373 89.026 44.9776L94.6622 42.2953C94.2133 41.9831 93.7548 41.6755 93.2703 41.3625C93.0304 41.2049 92.7834 41.0447 92.5294 40.882C88.5479 38.2568 80.7431 31.9032 79.6939 26.63C79.4278 25.2913 79.6406 24.1797 80.3591 23.1406C80.5911 22.8115 80.9642 22.4449 81.9912 22.2398C83.0397 22.0303 84.4124 22.0565 85.8635 22.0868C88.1282 22.1316 90.65 22.1723 93.0608 21.3735L101.489 39.0584L106.294 36.7714L97.8665 19.0866C100.002 17.7217 101.561 15.739 102.959 13.951C103.851 12.8058 104.696 11.724 105.52 11.0424C106.327 10.3748 106.847 10.3165 107.244 10.3462C108.51 10.4466 109.505 10.9776 110.371 12.0307C113.799 16.1778 113.81 26.2347 113.336 30.9801C113.307 31.2895 113.275 31.5822 113.244 31.8629C113.184 32.4412 113.133 32.991 113.09 33.5315L118.726 30.8492C118.874 29.0184 119.076 25.1759 118.651 20.9412C118.103 15.4471 116.682 11.2847 114.439 8.57648L114.413 8.58308Z" fill="#FFCD1C"/>
<path d="M89.0874 4.22754L92.6604 8.64235L97.13 6.51529L91.3918 3.13088L89.0874 4.22754Z" fill="#EF6125"/>
<path d="M86.783 5.3242L88.1861 10.7717L83.7261 12.8942L84.4786 6.42086L86.783 5.3242Z" fill="#EF6125"/>
<path d="M28.616 160.117L28.6718 160.177L28.7447 160.138C30.4872 159.218 32.3541 161.138 31.3756 162.847L31.3348 162.917L31.3927 162.973C32.809 164.341 31.5537 166.707 29.6245 166.307L29.5451 166.29L29.5086 166.362C28.6417 168.129 26.0001 167.668 25.7834 165.714L25.7748 165.632L25.6933 165.622C23.7405 165.345 23.3628 162.695 25.1611 161.888L25.2362 161.853L25.2212 161.774C24.8821 159.836 27.2898 158.659 28.616 160.115V160.117Z" fill="#FEA1BD"/>
<path d="M39.922 94.3021C38.4022 93.1525 36.2333 93.4533 35.0837 94.9731C33.9341 96.4929 34.2348 98.6618 35.7547 99.8115C37.2745 100.961 39.4434 100.66 40.593 99.1405C42.1128 100.29 44.2817 99.9893 45.4313 98.4695C46.5809 96.9497 46.2802 94.7808 44.7603 93.6312C43.2405 92.4815 41.0716 92.7823 39.922 94.3021Z" fill="#FFCD1C"/>
<path d="M29.3645 116.923C27.7055 116.668 26.052 116.411 24.393 116.156C25.6113 117.189 27.0619 118.776 27.1032 120.734C27.1881 124.521 21.9256 126.394 22.516 129.201C23.0075 131.54 26.8897 131.323 27.5341 133.846C28.1916 136.42 24.5001 137.993 24.0797 141.834C23.7853 144.514 25.2393 146.943 26.6525 148.684C28.6332 148.888 30.6138 149.092 32.5945 149.296C30.903 147.881 28.7915 145.639 28.7949 142.909C28.7989 138.828 33.5189 136.952 32.8382 133.734C32.2076 130.753 27.7658 130.51 27.6477 127.91C27.5392 125.471 31.3906 124.559 31.6263 121.528C31.7741 119.622 30.4122 117.954 29.3645 116.923Z" fill="#FEA1BD"/>
<path d="M109.85 186.061C108.399 185.613 106.95 185.161 105.499 184.713C105.727 185.127 106.195 186.125 106.032 187.374C105.698 189.896 103.109 190.959 103 191.004C104.645 191.415 106.288 191.831 107.932 192.242C109.473 191.838 110.618 190.604 110.829 189.125C111.068 187.453 110.003 186.235 109.845 186.059L109.85 186.061Z" fill="#FEA1BD"/>
<path d="M59.3519 147.328C60.2409 148.559 61.1256 149.792 62.0145 151.023C62.082 150.555 62.309 149.477 63.1909 148.577C64.9762 146.765 67.7969 147.505 67.7969 147.505C67.7969 147.505 65.67 144.865 64.6044 143.546C63.1308 142.942 61.4734 143.238 60.4149 144.292C59.217 145.482 59.3347 147.097 59.3548 147.332L59.3519 147.328Z" fill="#EF6125"/>
<path d="M119.111 173.974C120 175.205 120.885 176.439 121.774 177.67C121.841 177.202 122.068 176.123 122.95 175.224C124.735 173.412 127.556 174.151 127.556 174.151C127.556 174.151 125.429 171.511 124.364 170.193C122.89 169.588 121.233 169.884 120.174 170.938C118.976 172.129 119.094 173.743 119.114 173.979L119.111 173.974Z" fill="#2B9FE6"/>
<path d="M63.9423 169.434C67.2296 167.441 71.1647 171.9 75.6709 170.322C78.6893 169.266 80.3298 166.078 81.2273 163.676C81.7839 165.931 82.3405 168.185 82.8971 170.439C81.532 172.669 79.4241 175.199 76.3428 175.916C72.0696 176.907 68.9364 173.695 66.3943 175.073L63.7139 169.584C63.7886 169.533 63.8589 169.479 63.9379 169.431L63.9423 169.434Z" fill="#FFCD1C"/>
<path d="M60.5828 117.276C60.1172 117.011 59.6828 116.74 59.2741 116.464C57.4586 116.793 54.8569 117.563 53.6672 119.643C51.7741 122.944 55.1414 126.59 53.3052 129.037C51.3966 131.579 46.7879 128.931 44 131.234L49.0172 135.464C49.0845 135.395 49.1517 135.326 49.2293 135.257C51.6862 133.097 55.5759 136.043 57.7431 133.967C60.3448 131.473 56.181 125.853 58.9431 121.994C60.3707 119.999 63.0034 119.378 65 119.16C63.6655 118.762 62.15 118.173 60.5828 117.281V117.276Z" fill="#14AE59"/>
<path d="M91.105 137.517C90.7267 138.417 89.9597 139.886 88.4879 141.235C87.0355 142.566 85.6048 143.135 85.3063 143.247C83.6964 143.863 83.117 143.573 82.489 143.971C81.5006 144.6 80.87 146.632 82.4257 152.787C80.6917 151.869 78.9537 150.945 77.2197 150.028C76.0016 143.219 77.16 140.864 78.4603 139.982C80.1059 138.866 82.6483 139.661 84.8084 137.626C85.6254 136.855 86.0531 135.997 86.2688 135.471L91.105 137.517Z" fill="#2B9FE6"/>
<path d="M101.09 171.368C101.09 171.368 101.049 171.368 101.026 171.368C101.149 171.053 101.218 170.717 101.218 170.363C101.218 168.763 99.841 167.464 98.1441 167.464C96.4473 167.464 95.0705 168.763 95.0705 170.363C95.0705 170.872 95.2123 171.351 95.4547 171.765C94.1329 172.089 93.1587 173.219 93.1587 174.565C93.1587 176.166 94.5354 177.464 96.2323 177.464C97.298 177.464 98.2356 176.955 98.7845 176.179C99.347 176.778 100.17 177.162 101.085 177.162C102.782 177.162 104.159 175.864 104.159 174.263C104.159 172.663 102.782 171.364 101.085 171.364L101.09 171.368Z" fill="#EF6125"/>
<path d="M110.5 157.464C112.433 157.464 114 155.897 114 153.964C114 152.031 112.433 150.464 110.5 150.464C108.567 150.464 107 152.031 107 153.964C107 155.897 108.567 157.464 110.5 157.464Z" fill="#14AE59"/>
<path d="M43.6587 158.464C45.5917 158.464 47.1587 156.897 47.1587 154.964C47.1587 153.031 45.5917 151.464 43.6587 151.464C41.7257 151.464 40.1587 153.031 40.1587 154.964C40.1587 156.897 41.7257 158.464 43.6587 158.464Z" fill="#2B9FE6"/>
<path d="M71.5 115.464C73.433 115.464 75 113.897 75 111.964C75 110.031 73.433 108.464 71.5 108.464C69.567 108.464 68 110.031 68 111.964C68 113.897 69.567 115.464 71.5 115.464Z" fill="#FEA1BD"/>
<path d="M76.3496 184.469C76.2107 184.974 75.9115 185.759 75.2331 186.646C74.4745 187.64 73.577 188.323 73 188.71C74.3943 189.001 75.9596 189.445 77.5409 190.128C81.9002 192.004 84.1439 194.721 85.2604 196.464C85.3192 196.301 85.3833 196.138 85.4528 195.97C86.222 194.201 87.6431 192.763 89 191.693C87.4614 189.939 84.9078 187.65 80.7943 185.922C79.2558 185.275 77.7386 184.806 76.3442 184.464L76.3496 184.469Z" fill="#14AE59"/>
<path d="M25.0054 214.855C22.568 216.083 19.8902 213.683 20.8453 211.126L36.8994 168.153C37.6389 166.174 40.1386 165.559 41.7121 166.969L66.6262 189.302C68.1997 190.713 67.8608 193.265 65.9736 194.215L25.0054 214.855Z" fill="#FFE072"/>
<path d="M270.94 160.117L270.884 160.177L270.811 160.138C269.069 159.218 267.202 161.138 268.181 162.847L268.221 162.917L268.163 162.973C266.747 164.341 268.002 166.707 269.932 166.307L270.011 166.29L270.048 166.362C270.914 168.129 273.556 167.668 273.773 165.714L273.781 165.632L273.863 165.622C275.816 165.345 276.193 162.695 274.395 161.888L274.32 161.853L274.335 161.774C274.674 159.836 272.266 158.659 270.94 160.115V160.117Z" fill="#FEA1BD"/>
<path d="M259.634 94.3021C261.154 93.1525 263.323 93.4533 264.472 94.9731C265.622 96.4929 265.321 98.6618 263.801 99.8115C262.282 100.961 260.113 100.66 258.963 99.1405C257.443 100.29 255.274 99.9893 254.125 98.4695C252.975 96.9497 253.276 94.7808 254.796 93.6312C256.316 92.4815 258.485 92.7823 259.634 94.3021Z" fill="#FFCD1C"/>
<path d="M270.192 116.923C271.851 116.668 273.504 116.411 275.163 116.156C273.945 117.189 272.494 118.776 272.453 120.734C272.368 124.521 277.631 126.394 277.04 129.201C276.549 131.54 272.666 131.323 272.022 133.846C271.365 136.42 275.056 137.993 275.476 141.834C275.771 144.514 274.317 146.943 272.904 148.684C270.923 148.888 268.942 149.092 266.962 149.296C268.653 147.881 270.765 145.639 270.761 142.909C270.757 138.828 266.037 136.952 266.718 133.734C267.349 130.753 271.79 130.51 271.908 127.91C272.017 125.471 268.166 124.559 267.93 121.528C267.782 119.622 269.144 117.954 270.192 116.923Z" fill="#FEA1BD"/>
<path d="M189.707 186.061C191.157 185.613 192.607 185.161 194.057 184.713C193.829 185.127 193.361 186.125 193.524 187.374C193.859 189.896 196.447 190.959 196.556 191.004C194.911 191.415 193.269 191.831 191.624 192.242C190.083 191.838 188.938 190.604 188.727 189.125C188.488 187.453 189.554 186.235 189.711 186.059L189.707 186.061Z" fill="#FEA1BD"/>
<path d="M240.204 147.328C239.315 148.559 238.431 149.792 237.542 151.023C237.474 150.555 237.247 149.477 236.365 148.577C234.58 146.765 231.759 147.505 231.759 147.505C231.759 147.505 233.886 144.865 234.952 143.546C236.425 142.942 238.083 143.238 239.141 144.292C240.339 145.482 240.221 147.097 240.201 147.332L240.204 147.328Z" fill="#EF6125"/>
<path d="M180.445 173.974C179.556 175.205 178.671 176.439 177.782 177.67C177.715 177.202 177.488 176.123 176.606 175.224C174.821 173.412 172 174.151 172 174.151C172 174.151 174.127 171.511 175.193 170.193C176.666 169.588 178.323 169.884 179.382 170.938C180.58 172.129 180.462 173.743 180.442 173.979L180.445 173.974Z" fill="#2B9FE6"/>
<path d="M235.614 169.434C232.327 167.441 228.391 171.9 223.885 170.322C220.867 169.266 219.226 166.078 218.329 163.676C217.772 165.931 217.216 168.185 216.659 170.439C218.024 172.669 220.132 175.199 223.213 175.916C227.487 176.907 230.62 173.695 233.162 175.073L235.842 169.584C235.768 169.533 235.697 169.479 235.618 169.431L235.614 169.434Z" fill="#FFCD1C"/>
<path d="M238.973 117.276C239.439 117.011 239.873 116.74 240.282 116.464C242.098 116.793 244.699 117.563 245.889 119.643C247.782 122.944 244.415 126.59 246.251 129.037C248.16 131.579 252.768 128.931 255.556 131.234L250.539 135.464C250.472 135.395 250.404 135.326 250.327 135.257C247.87 133.097 243.98 136.043 241.813 133.967C239.211 131.473 243.375 125.853 240.613 121.994C239.185 119.999 236.553 119.378 234.556 119.16C235.891 118.762 237.406 118.173 238.973 117.281V117.276Z" fill="#14AE59"/>
<path d="M208.451 137.517C208.829 138.417 209.596 139.886 211.068 141.235C212.521 142.566 213.951 143.135 214.25 143.247C215.86 143.863 216.439 143.573 217.067 143.971C218.056 144.6 218.686 146.632 217.13 152.787C218.864 151.869 220.602 150.945 222.336 150.028C223.555 143.219 222.396 140.864 221.096 139.982C219.45 138.866 216.908 139.661 214.748 137.626C213.931 136.855 213.503 135.997 213.287 135.471L208.451 137.517Z" fill="#2B9FE6"/>
<path d="M198.466 171.368C198.466 171.368 198.508 171.368 198.531 171.368C198.407 171.053 198.338 170.717 198.338 170.363C198.338 168.763 199.715 167.464 201.412 167.464C203.109 167.464 204.486 168.763 204.486 170.363C204.486 170.872 204.344 171.351 204.101 171.765C205.423 172.089 206.397 173.219 206.397 174.565C206.397 176.166 205.021 177.464 203.324 177.464C202.258 177.464 201.321 176.955 200.772 176.179C200.209 176.778 199.386 177.162 198.471 177.162C196.774 177.162 195.397 175.864 195.397 174.263C195.397 172.663 196.774 171.364 198.471 171.364L198.466 171.368Z" fill="#EF6125"/>
<path d="M189.056 157.464C187.123 157.464 185.556 155.897 185.556 153.964C185.556 152.031 187.123 150.464 189.056 150.464C190.989 150.464 192.556 152.031 192.556 153.964C192.556 155.897 190.989 157.464 189.056 157.464Z" fill="#14AE59"/>
<path d="M255.897 158.464C253.964 158.464 252.397 156.897 252.397 154.964C252.397 153.031 253.964 151.464 255.897 151.464C257.83 151.464 259.397 153.031 259.397 154.964C259.397 156.897 257.83 158.464 255.897 158.464Z" fill="#2B9FE6"/>
<path d="M228.056 115.464C226.123 115.464 224.556 113.897 224.556 111.964C224.556 110.031 226.123 108.464 228.056 108.464C229.989 108.464 231.556 110.031 231.556 111.964C231.556 113.897 229.989 115.464 228.056 115.464Z" fill="#FEA1BD"/>
<path d="M223.207 184.469C223.345 184.974 223.645 185.759 224.323 186.646C225.082 187.64 225.979 188.323 226.556 188.71C225.162 189.001 223.597 189.445 222.015 190.128C217.656 192.004 215.412 194.721 214.296 196.464C214.237 196.301 214.173 196.138 214.103 195.97C213.334 194.201 211.913 192.763 210.556 191.693C212.095 189.939 214.648 187.65 218.762 185.922C220.3 185.275 221.818 184.806 223.212 184.464L223.207 184.469Z" fill="#14AE59"/>
<path d="M274.551 214.855C276.988 216.083 279.666 213.683 278.711 211.126L262.657 168.153C261.917 166.174 259.418 165.559 257.844 166.969L232.93 189.302C231.356 190.713 231.695 193.264 233.583 194.215L274.551 214.855Z" fill="#FFE072"/>
</svg>
