<svg width="57" height="37" viewBox="0 0 57 37" fill="none" xmlns="http://www.w3.org/2000/svg">
<path d="M52.0103 17.3845L45.0719 19.5708L44.2478 26.6898C44.0748 28.2122 42.0924 28.7278 41.2015 27.4817L37.0206 21.6621L29.8979 23.1612C28.3862 23.4755 27.2886 21.783 28.2218 20.555L32.5788 14.7804L29.0052 8.58296C28.2476 7.26506 29.5524 5.70173 31.0211 6.1789L37.8958 8.42862L42.8015 3.099C43.8452 1.96231 45.7436 2.69252 45.7278 4.21246L45.6193 11.3823L52.2223 14.2953C53.6327 14.9091 53.4977 16.9232 52.0143 17.3961L52.0103 17.3845Z" fill="#2B9FE6"/>
<path d="M18.9389 27.0055L14.4006 28.4301L13.9168 33.2446C13.8155 34.2742 12.518 34.6074 11.923 33.7563L9.13075 29.7815L4.46586 30.7393C3.47575 30.94 2.74142 29.7849 3.34424 28.9608L6.1586 25.0852L3.76213 20.8594C3.25406 19.9608 4.09824 18.9126 5.06644 19.2476L9.59872 20.8266L12.777 17.2568C13.4531 16.4954 14.7055 17.0053 14.7074 18.0345L14.694 22.8891L19.0532 24.9151C19.9842 25.3421 19.9118 26.7051 18.9416 27.0134L18.9389 27.0055Z" fill="#2B9FE6"/>
</svg>
