<svg width="381" height="273" viewBox="0 0 381 273" fill="none" xmlns="http://www.w3.org/2000/svg">
<rect width="381" height="273" rx="12" fill="#EAE7DC"/>
<rect x="11" y="13" width="361" height="104" rx="12" fill="#434040"/>
<path d="M217.607 150.055C217.607 150.055 244.125 135.511 244.954 112.867C245.782 90.2235 309.372 89.8342 288.601 121.771C267.83 153.709 217.607 150.055 217.607 150.055Z" fill="#434040"/>
<rect x="258.517" y="95.5842" width="70.8648" height="41.0943" transform="rotate(-43.3263 258.517 95.5842)" fill="#434040"/>
<rect x="273.597" y="122.444" width="70.8648" height="11.2075" transform="rotate(-43.3263 273.597 122.444)" fill="#434040"/>
<path d="M75 259.886C75 255.403 78.6345 251.768 83.1179 251.768H113.092V268.004H83.1179C78.6345 268.004 75 264.37 75 259.886V259.886Z" fill="#EF6125"/>
<rect x="84.9912" y="239.279" width="28.1004" height="24.3537" rx="10" fill="#EF6125"/>
<path d="M138.07 259.262C138.07 254.778 141.704 251.144 146.188 251.144H176.161V267.38H146.188C141.704 267.38 138.07 263.745 138.07 259.262V259.262Z" fill="#EF6125"/>
<rect x="148.061" y="238.655" width="28.1004" height="24.3537" rx="10" fill="#EF6125"/>
<path fill-rule="evenodd" clip-rule="evenodd" d="M113.36 137.076C109.695 132.748 104.221 130 98.1047 130C87.0687 130 78.1222 138.946 78.1222 149.982L78.1222 230.537C78.1222 241.573 87.0687 250.519 98.1047 250.519C109.141 250.519 118.087 241.573 118.087 230.537V208.895L143.054 242.004C145.631 245.423 149.095 247.779 152.883 248.996C155.244 249.977 157.834 250.519 160.55 250.519C171.586 250.519 180.533 241.573 180.533 230.537L180.533 149.982C180.533 138.946 171.586 130 160.55 130C149.514 130 140.568 138.946 140.568 149.982V172.328L116.443 140.335C115.52 139.111 114.484 138.024 113.36 137.076Z" fill="#FFCD1C"/>
<circle cx="89.3881" cy="151.257" r="5.64579" fill="#D9D9D9"/>
<circle cx="89.3882" cy="151.257" r="4.42508" fill="#434040"/>
<circle cx="88.8604" cy="149.176" r="0.81744" fill="#D9D9D9"/>
<circle cx="104.999" cy="151.257" r="5.64579" fill="#D9D9D9"/>
<circle cx="105" cy="151.257" r="4.42508" fill="#434040"/>
<circle cx="103.223" cy="149.176" r="0.81744" fill="#D9D9D9"/>
<rect x="140.568" y="148.733" width="39.965" height="13.1135" fill="#EF6125"/>
<rect x="78.1222" y="218.048" width="39.965" height="13.1135" fill="#EF6125"/>
<circle cx="92.7969" cy="157.788" r="4.05894" fill="#EF6125"/>
</svg>
