<svg width="78" height="78" viewBox="0 0 78 78" fill="none" xmlns="http://www.w3.org/2000/svg">
<circle cx="39" cy="39" r="34" fill="#14AE59" stroke="#434040" stroke-width="10"/>
<path d="M37.7513 52.5014L37.7514 52.5013C38.3732 51.9389 38.7335 51.1647 38.7335 50.3456C38.7335 49.5277 38.3744 48.7547 37.7544 48.1925L31.127 42.0094L56.3819 42.0094C57.2396 42.0094 58.0711 41.7018 58.6914 41.1409L58.3561 40.77L58.6914 41.1409C59.3134 40.5784 59.6738 39.8042 59.6738 38.9848C59.6738 38.1655 59.3134 37.3912 58.6914 36.8288C58.0711 36.2679 57.2396 35.9602 56.3819 35.9602L31.127 35.9602L37.7571 29.7746L37.7577 29.774C38.3625 29.2078 38.7074 28.4384 38.6996 27.6284C38.6918 26.8185 38.3323 26.0551 37.7174 25.4991C37.104 24.9445 36.284 24.6373 35.436 24.6306C34.5879 24.6239 33.7626 24.9182 33.1393 25.4626L33.1392 25.4625L33.1328 25.4683L20.569 36.8291L20.5689 36.8291C19.9471 37.3915 19.5869 38.1656 19.5869 38.9848C19.5869 39.804 19.9471 40.5781 20.5689 41.1405L20.569 41.1406L33.1328 52.5013L33.1329 52.5014C33.7532 53.0621 34.5845 53.3696 35.4421 53.3696C36.2997 53.3696 37.131 53.0621 37.7513 52.5014Z" fill="#EAE8DC" stroke="#EAE8DC"/>
</svg>
