<svg width="50" height="50" viewBox="0 0 50 50" fill="none" xmlns="http://www.w3.org/2000/svg">
<circle cx="25" cy="25" r="25" fill="#FEA1BD"/>
<rect x="18.1851" y="34.499" width="14.1113" height="5.64453" rx="2.82227" fill="#14AE59"/>
<rect x="18.1851" y="28.1494" width="14.1113" height="5.64453" rx="2.82227" fill="#14AE59"/>
<circle cx="16.2501" cy="20.4168" r="7.08333" fill="#D9D9D9"/>
<circle cx="16.2498" cy="20.4165" r="5.5518" fill="#434040"/>
<path d="M23.3334 20.4168C19.696 20.4168 19.9707 20.4168 16.0586 20.4168C12.1466 20.4168 13.3785 20.4168 9.16675 20.4168C9.16675 16.5048 12.3381 13.3335 16.2501 13.3335C20.1621 13.3335 23.3334 16.5048 23.3334 20.4168Z" fill="#14AE59"/>
<circle cx="12.7083" cy="21.8333" r="0.708333" fill="#D9D9D9"/>
<circle cx="34.6668" cy="20.4168" r="7.08333" fill="#D9D9D9"/>
<circle cx="34.6665" cy="20.4165" r="5.5518" fill="#434040"/>
<path d="M41.7502 20.4168C38.1128 20.4168 38.3874 20.4168 34.4754 20.4168C30.5634 20.4168 31.7952 20.4168 27.5835 20.4168C27.5835 16.5048 30.7548 13.3335 34.6668 13.3335C38.5788 13.3335 41.7502 16.5048 41.7502 20.4168Z" fill="#14AE59"/>
<circle cx="31.1253" cy="21.8333" r="0.708333" fill="#D9D9D9"/>
</svg>
