<svg width="119" height="174" viewBox="0 0 119 174" fill="none" xmlns="http://www.w3.org/2000/svg">
<rect x="119" y="0.666748" width="172.667" height="49.7778" rx="23.3333" transform="rotate(90 119 0.666748)" fill="#7766C2"/>
<path d="M46.5213 23.7295L56.5141 29.3209C57.5591 29.9056 57.5793 31.4023 56.5504 32.0149L46.7117 37.8733L46.5213 23.7295Z" fill="#EF6125"/>
<rect x="49.7778" y="1.44434" width="146.222" height="49.7778" rx="23.3333" transform="rotate(90 49.7778 1.44434)" fill="#7766C2"/>
<path d="M27.2222 126.667C39.2778 145.722 78.5763 146.602 91.7778 130.979" stroke="#7766C2" stroke-width="54.4444" stroke-linecap="round"/>
<circle cx="27.6111" cy="33.7543" r="12.8654" fill="#D9D9D9"/>
<circle cx="27.6111" cy="33.7543" r="10.0837" fill="#434040"/>
<circle cx="23.5627" cy="29.0105" r="1.86275" fill="#D9D9D9"/>
<circle cx="27.6111" cy="67.1346" r="12.8654" fill="#D9D9D9"/>
<circle cx="27.6111" cy="67.1347" r="10.0837" fill="#434040"/>
<circle cx="23.5627" cy="62.3911" r="1.86275" fill="#D9D9D9"/>
<path d="M87.1111 50.8334C87.1111 56.0944 83.2709 63.8677 74.6667 76.8889C68.518 86.1939 70.7778 97.8889 68.8333 97.5C59.8127 97.5 56.7778 75.4096 56.7778 66.3889C56.7778 57.3683 65.646 39.1665 74.6667 39.1665C83.6873 39.1665 87.1111 41.8127 87.1111 50.8334Z" fill="#EF6125"/>
</svg>
