<svg width="122" height="177" viewBox="0 0 122 177" fill="none" xmlns="http://www.w3.org/2000/svg">
<rect x="121.987" width="177" height="51.027" rx="23.9189" transform="rotate(90 121.987 0)" fill="#7766C2"/>
<path d="M47.6888 23.6419L57.9324 29.3736C59.0037 29.973 59.0243 31.5072 57.9696 32.1352L47.884 38.1406L47.6888 23.6419Z" fill="#EF6125"/>
<rect x="51.0271" y="0.797363" width="149.892" height="51.027" rx="23.9189" transform="rotate(90 51.0271 0.797363)" fill="#7766C2"/>
<path d="M27.9055 129.162C40.2636 148.696 80.5484 149.598 94.0811 133.582" stroke="#7766C2" stroke-width="55.8108" stroke-linecap="round"/>
<circle cx="28.3041" cy="33.9177" r="13.1882" fill="#D9D9D9"/>
<circle cx="28.3041" cy="33.9183" r="10.3367" fill="#434040"/>
<circle cx="24.1541" cy="29.055" r="1.90949" fill="#D9D9D9"/>
<circle cx="28.3041" cy="68.1365" r="13.1882" fill="#D9D9D9"/>
<circle cx="28.3041" cy="68.136" r="10.3367" fill="#434040"/>
<circle cx="24.1541" cy="63.2733" r="1.90949" fill="#D9D9D9"/>
<path d="M89.2974 51.426C89.2974 56.8191 85.3608 64.7875 76.5406 78.1354C70.2377 87.6739 72.5541 99.6624 70.5609 99.2638C61.3138 99.2638 58.2028 76.6189 58.2028 67.3719C58.2028 58.1249 67.2936 39.4663 76.5406 39.4663C85.7876 39.4663 89.2974 42.1789 89.2974 51.426Z" fill="#EF6125"/>
</svg>
