<svg width="157" height="223" viewBox="0 0 157 223" fill="none" xmlns="http://www.w3.org/2000/svg">
<rect x="64" y="168" width="55" height="37" rx="18.5" transform="rotate(90 64 168)" fill="#14AE59"/>
<rect x="128" y="168" width="55" height="37" rx="18.5" transform="rotate(90 128 168)" fill="#14AE59"/>
<rect x="89" y="53" width="30" height="21" rx="10.5" transform="rotate(90 89 53)" fill="#14AE59"/>
<rect x="68" y="53" width="29" height="20" rx="10" transform="rotate(90 68 53)" fill="#14AE59"/>
<rect x="48" y="53" width="30" height="21" rx="10.5" transform="rotate(90 48 53)" fill="#14AE59"/>
<rect x="157" width="192" height="64" rx="30" transform="rotate(90 157 0)" fill="#FEA1BD"/>
<rect x="157" y="192" width="157" height="128" rx="30" transform="rotate(-180 157 192)" fill="#FEA1BD"/>
<circle cx="112" cy="27" r="10" fill="#D9D9D9"/>
<circle cx="112" cy="26.9999" r="7.83784" fill="#434040"/>
<path d="M122 27C116.865 27 117.253 27 111.73 27C106.207 27 107.946 27 102 27C102 21.4772 106.477 17 112 17C117.523 17 122 21.4772 122 27Z" fill="#14AE59"/>
<circle cx="107" cy="29" r="1" fill="#D9D9D9"/>
<circle cx="138" cy="27" r="10" fill="#D9D9D9"/>
<circle cx="138" cy="26.9999" r="7.83784" fill="#434040"/>
<path d="M148 27C142.865 27 143.253 27 137.73 27C132.207 27 133.946 27 128 27C128 21.4772 132.477 17 138 17C143.523 17 148 21.4772 148 27Z" fill="#14AE59"/>
<circle cx="133" cy="29" r="1" fill="#D9D9D9"/>
<path d="M93 64L93 102C93 103.105 92.1046 104 91 104C89.8954 104 89 103.105 89 102L89 64L93 64Z" fill="#EAE8DC"/>
<rect x="115" y="47" width="20" height="8" rx="4" fill="#14AE59"/>
<rect x="115" y="38" width="20" height="8" rx="4" fill="#14AE59"/>
</svg>
