<svg width="140" height="161" viewBox="0 0 140 161" fill="none" xmlns="http://www.w3.org/2000/svg">
<rect x="139.309" width="161" height="46.2063" rx="23.1031" transform="rotate(90 139.309 0)" fill="#FFCD1C"/>
<rect x="93.1031" width="161" height="46.2063" rx="23.1031" transform="rotate(90 93.1031 0)" fill="#FFCD1C"/>
<rect x="46.8969" width="161" height="46.2063" rx="23.1031" transform="rotate(90 46.8969 0)" fill="#FFCD1C"/>
<rect x="0.690552" width="138.619" height="46.2063" rx="23.1031" fill="#FFCD1C"/>
<rect x="48.3408" y="40.4304" width="43.3184" height="31.0448" rx="15.5224" fill="#2B9FE6"/>
<rect x="98.1569" y="40.4304" width="14.4395" height="6.49776" rx="3.24888" fill="#2B9FE6"/>
<rect x="27.4037" y="40.4304" width="14.4395" height="6.49776" rx="3.24888" fill="#2B9FE6"/>
<path d="M64.2242 40.4304H75.7758V42.5963C75.7758 45.7862 73.1899 48.3721 70 48.3721C66.8101 48.3721 64.2242 45.7862 64.2242 42.5963V40.4304Z" fill="#D9D9D9"/>
<circle cx="50.1457" cy="31.4061" r="10.4686" fill="#D9D9D9"/>
<circle cx="89.1322" cy="31.4061" r="10.4686" fill="#D9D9D9"/>
<circle cx="50.1458" cy="31.406" r="9.02466" fill="#434040"/>
<circle cx="89.1322" cy="31.406" r="9.02466" fill="#434040"/>
<circle cx="85.1615" cy="26.713" r="1.44395" fill="#D9D9D9"/>
<circle cx="46.1749" cy="26.713" r="1.44395" fill="#D9D9D9"/>
<path d="M74.1602 15.4188C72.1811 18.3875 67.8188 18.3875 65.8397 15.4188L55.5605 -1.20614e-05L84.4395 -9.53674e-06L74.1602 15.4188Z" fill="#EAE8DC"/>
</svg>
