<svg width="128" height="146" viewBox="0 0 128 146" fill="none" xmlns="http://www.w3.org/2000/svg">
<path d="M28.6159 70.6532L28.6717 70.7132L28.7447 70.6746C30.4871 69.754 32.354 71.6745 31.3755 73.3831L31.3347 73.4537L31.3927 73.5094C32.8089 74.8776 31.5536 77.2434 29.6245 76.8431L29.5451 76.8259L29.5086 76.8987C28.6416 78.6651 26.0001 78.2048 25.7833 76.25L25.7748 76.1686L25.6932 76.1579C23.7405 75.8817 23.3628 73.2311 25.161 72.4239L25.2361 72.3896L25.2211 72.3104C24.8821 70.3727 27.2897 69.1951 28.6159 70.6511V70.6532Z" fill="#FEA1BD"/>
<path d="M39.9219 4.83852C38.4021 3.6889 36.2332 3.98969 35.0836 5.5095C33.934 7.02931 34.2348 9.19822 35.7546 10.3478C37.2744 11.4974 39.4433 11.1967 40.5929 9.67685C42.1127 10.8265 44.2817 10.5257 45.4313 9.00587C46.5809 7.48605 46.2801 5.31715 44.7603 4.16753C43.2405 3.01792 41.0716 3.31871 39.9219 4.83852Z" fill="#FFCD1C"/>
<path d="M29.3645 27.4594C27.7055 27.2041 26.0519 26.9477 24.3929 26.6924C25.6112 27.7254 27.0618 29.3122 27.1031 31.2707C27.1881 35.0572 21.9255 36.9299 22.5159 39.7371C23.0074 42.0761 26.8897 41.8597 27.5341 44.3825C28.1915 46.9567 24.5001 48.5296 24.0796 52.3701C23.7853 55.0501 25.2392 57.4793 26.6524 59.2202C28.6331 59.4243 30.6138 59.6285 32.5944 59.8326C30.903 58.4178 28.7914 56.1755 28.7948 53.4449C28.7989 49.3647 33.5189 47.4879 32.8382 44.2702C32.2075 41.2894 27.7658 41.0466 27.6476 38.446C27.5391 36.0077 31.3905 35.0954 31.6262 32.0643C31.7741 30.1584 30.4122 28.49 29.3645 27.4594Z" fill="#FEA1BD"/>
<path d="M109.849 96.597C108.399 96.1494 106.95 95.6969 105.499 95.2493C105.727 95.6638 106.195 96.6616 106.032 97.9104C105.698 100.432 103.109 101.496 103 101.54C104.645 101.951 106.288 102.367 107.932 102.778C109.473 102.374 110.618 101.14 110.829 99.6611C111.068 97.9893 110.002 96.7712 109.845 96.5953L109.849 96.597Z" fill="#FEA1BD"/>
<path d="M59.352 57.8642C60.241 59.0951 61.1256 60.3288 62.0146 61.5597C62.0821 61.0915 62.3091 60.0129 63.191 59.1139C64.9763 57.3014 67.7969 58.0412 67.7969 58.0412C67.7969 58.0412 65.67 55.4014 64.6044 54.0829C63.1309 53.4782 61.4735 53.7739 60.4149 54.8281C59.2171 56.0186 59.3348 57.633 59.3549 57.8685L59.352 57.8642Z" fill="#EF6125"/>
<path d="M119.111 84.5107C120 85.7415 120.885 86.9753 121.774 88.2062C121.841 87.738 122.068 86.6594 122.95 85.7604C124.735 83.9479 127.556 84.6877 127.556 84.6877C127.556 84.6877 125.429 82.0478 124.364 80.7294C122.89 80.1246 121.233 80.4204 120.174 81.4746C118.976 82.6651 119.094 84.2794 119.114 84.515L119.111 84.5107Z" fill="#2B9FE6"/>
<path d="M63.9422 79.9703C67.2295 77.9771 71.1646 82.4367 75.6708 80.858C78.6892 79.8022 80.3297 76.6139 81.2273 74.2129C81.7839 76.4669 82.3405 78.721 82.8971 80.9751C81.532 83.2057 79.4241 85.7351 76.3427 86.4522C72.0696 87.4437 68.9363 84.2311 66.3942 85.6092L63.7138 80.1206C63.7885 80.0695 63.8588 80.0158 63.9379 79.9675L63.9422 79.9703Z" fill="#FFCD1C"/>
<path d="M60.5827 27.8125C60.1172 27.5471 59.6827 27.2765 59.2741 27.0005C57.4586 27.3295 54.8568 28.0991 53.6672 30.1795C51.7741 33.4807 55.1413 37.1267 53.3051 39.5734C51.3965 42.1156 46.7879 39.4672 43.9999 41.7706L49.0172 46.0005C49.0844 45.9315 49.1517 45.8625 49.2292 45.7935C51.6861 43.6334 55.5758 46.579 57.743 44.5038C60.3448 42.0094 56.181 36.389 58.943 32.5307C60.3706 30.5351 63.0034 29.9142 64.9999 29.6966C63.6655 29.2985 62.1499 28.7094 60.5827 27.8178V27.8125Z" fill="#14AE59"/>
<path d="M91.1049 48.0538C90.7266 48.9535 89.9596 50.4226 88.4878 51.7711C87.0354 53.1024 85.6047 53.6713 85.3062 53.7835C83.6964 54.3996 83.1169 54.1093 82.4889 54.5072C81.5005 55.1366 80.8699 57.1686 82.4256 63.323C80.6916 62.4055 78.9536 61.4819 77.2196 60.5643C76.0016 53.7557 77.16 51.4001 78.4603 50.5184C80.1058 49.402 82.6483 50.1973 84.8084 48.1621C85.6253 47.391 86.053 46.5334 86.2687 46.0071L91.1049 48.0538Z" fill="#2B9FE6"/>
<path d="M101.09 81.9047C101.09 81.9047 101.049 81.9047 101.026 81.9047C101.149 81.5898 101.218 81.2533 101.218 80.8995C101.218 79.299 99.8411 78.0005 98.1442 78.0005C96.4473 78.0005 95.0706 79.299 95.0706 80.8995C95.0706 81.4086 95.2124 81.8875 95.4548 82.3016C94.133 82.6252 93.1588 83.7555 93.1588 85.1014C93.1588 86.702 94.5355 88.0005 96.2323 88.0005C97.298 88.0005 98.2357 87.4914 98.7845 86.7149C99.3471 87.3146 100.17 87.6985 101.085 87.6985C102.782 87.6985 104.159 86.4 104.159 84.7995C104.159 83.1989 102.782 81.9004 101.085 81.9004L101.09 81.9047Z" fill="#EF6125"/>
<path d="M110.5 68.0005C112.433 68.0005 114 66.4335 114 64.5005C114 62.5675 112.433 61.0005 110.5 61.0005C108.567 61.0005 107 62.5675 107 64.5005C107 66.4335 108.567 68.0005 110.5 68.0005Z" fill="#14AE59"/>
<path d="M43.6588 69.0005C45.5918 69.0005 47.1588 67.4335 47.1588 65.5005C47.1588 63.5675 45.5918 62.0005 43.6588 62.0005C41.7258 62.0005 40.1588 63.5675 40.1588 65.5005C40.1588 67.4335 41.7258 69.0005 43.6588 69.0005Z" fill="#2B9FE6"/>
<path d="M71.4999 26.0005C73.4329 26.0005 74.9999 24.4335 74.9999 22.5005C74.9999 20.5675 73.4329 19.0005 71.4999 19.0005C69.5669 19.0005 67.9999 20.5675 67.9999 22.5005C67.9999 24.4335 69.5669 26.0005 71.4999 26.0005Z" fill="#FEA1BD"/>
<path d="M76.3495 95.0056C76.2106 95.5103 75.9115 96.2953 75.233 97.1823C74.4744 98.1764 73.5769 98.8595 72.9999 99.2469C74.3943 99.5374 75.9595 99.9809 77.5408 100.664C81.9001 102.54 84.1438 105.257 85.2604 107C85.3191 106.837 85.3832 106.674 85.4527 106.506C86.222 104.737 87.643 103.3 88.9999 102.229C87.4614 100.475 84.9078 98.1866 80.7943 96.4584C79.2557 95.811 77.7385 95.342 76.3442 95.0005L76.3495 95.0056Z" fill="#14AE59"/>
<path d="M25.0054 125.391C22.568 126.619 19.8902 124.219 20.8453 121.662L36.8994 78.6896C37.6389 76.7101 40.1386 76.0951 41.7121 77.5056L66.6262 99.8385C68.1997 101.249 67.8608 103.801 65.9736 104.752L25.0054 125.391Z" fill="#FFE072"/>
</svg>
