<svg width="115" height="17" viewBox="0 0 115 17" fill="none" xmlns="http://www.w3.org/2000/svg">
<path d="M3 7.64286L8.25 13L17 3" stroke="#202020" stroke-width="5" stroke-linecap="round"/>
<path d="M3 7.64286L8.25 13L17 3" stroke="#14AE59" stroke-width="5" stroke-linecap="round"/>
<path d="M29 7.64286L34.25 13L43 3" stroke="#202020" stroke-width="5" stroke-linecap="round"/>
<path d="M29 7.64286L34.25 13L43 3" stroke="#14AE59" stroke-width="5" stroke-linecap="round"/>
<path d="M55 3L66 14M66 3L55 14" stroke="#202020" stroke-width="5" stroke-linecap="round"/>
<path d="M55 3L66 14M66 3L55 14" stroke="#EAE8DC" stroke-width="5" stroke-linecap="round"/>
<path d="M78 3L89 14M89 3L78 14" stroke="#202020" stroke-width="5" stroke-linecap="round"/>
<path d="M78 3L89 14M89 3L78 14" stroke="#EAE8DC" stroke-width="5" stroke-linecap="round"/>
<path d="M101 3L112 14M112 3L101 14" stroke="#202020" stroke-width="5" stroke-linecap="round"/>
<path d="M101 3L112 14M112 3L101 14" stroke="#EAE8DC" stroke-width="5" stroke-linecap="round"/>
</svg>
