<svg width="1296" height="85" viewBox="0 0 1296 85" fill="none" xmlns="http://www.w3.org/2000/svg">
<path d="M608 18L648 58L688 18L728 58L768 18L808 58L848 18L888 58L928 18L968 58L1008 18L1048 58L1088 18L1128 58L1168 18L1208 58L1248 18L1288 58" stroke="black" stroke-width="15" stroke-linecap="round" stroke-linejoin="round"/>
<path d="M608 18L648 58L688 18L728 58L768 18L808 58L848 18L888 58L928 18L968 58L1008 18L1048 58L1088 18L1128 58L1168 18L1208 58L1248 18L1288 58" stroke="#FEA1BD" stroke-width="15" stroke-linecap="round" stroke-linejoin="round"/>
<path d="M8 58L48 18L88 58L128 18L168 58L208 18L248 58L288 18L328 58L368 18L408 58L448 18L488 58L528 18L568 58L608 18L648 58" stroke="black" stroke-width="15" stroke-linecap="round" stroke-linejoin="round"/>
<path d="M8 58L48 18L88 58L128 18L168 58L208 18L248 58L288 18L328 58L368 18L408 58L448 18L488 58L528 18L568 58L608 18L648 58" stroke="#FEA1BD" stroke-width="15" stroke-linecap="round" stroke-linejoin="round"/>
<ellipse cx="652.178" cy="44" rx="137.178" ry="41" fill="#434040"/>
<ellipse cx="649" cy="41" rx="137.178" ry="41" fill="#14AE59"/>
<path d="M778.894 41.0979C778.898 45.8441 775.572 50.5845 769.024 55.0745C762.508 59.5423 753.012 63.6086 741.187 67.0427C717.55 73.9071 684.832 78.1813 648.648 78.2111C612.464 78.2408 579.74 74.0204 556.091 67.1949C544.26 63.7802 534.758 59.7296 528.235 55.2725C521.679 50.7933 518.346 46.0584 518.342 41.3121C518.338 36.5659 521.664 31.8255 528.212 27.3355C534.728 22.8677 544.223 18.8014 556.049 15.3673C579.686 8.50295 612.403 4.22869 648.588 4.19894C684.772 4.16918 717.496 8.38963 741.145 15.2151C752.975 18.6298 762.478 22.6805 769.001 27.1375C775.557 31.6167 778.89 36.3516 778.894 41.0979Z" stroke="#EAE8DC" stroke-width="2"/>
<path d="M737.303 35.4599H734.521C734.645 33.7293 734.583 32.2459 734.583 31.0097C734.583 29.4645 734.336 28.661 733.656 28.661C733.038 28.661 732.791 29.2791 732.791 30.7625C732.791 34.1001 733.162 35.6453 735.819 37.8086C740.208 40.9608 742 43.9894 742 53.0133C742 61.9137 739.404 65.4986 732.852 65.4986C725.745 65.4986 723.952 62.2845 723.952 54.9294C723.952 52.8279 723.952 50.4174 724.138 47.8215C725.312 47.8833 726.857 48.0069 728.526 48.0069C729.515 48.0069 730.566 48.0069 731.122 47.9451C730.998 49.5521 731.06 51.0355 731.06 52.0862C731.06 53.755 731.184 54.6203 731.864 54.6203C732.543 54.6203 732.729 53.8787 732.729 52.148C732.729 48.3159 732.296 47.2652 729.7 45.5964C724.879 42.6914 723.767 39.0447 723.767 30.3916C723.767 21.3677 726.424 18.03 733.038 18.03C740.084 18.03 741.753 21.1822 741.753 29.0318C741.753 30.9479 741.753 33.1112 741.629 35.5835C740.517 35.4599 738.724 35.4599 737.303 35.4599Z" fill="#444342"/>
<path d="M713.713 18.5864H722.799C722.737 23.4693 722.737 28.3521 722.737 35.5836V52.519C722.737 61.9756 720.759 65.4987 712.786 65.4987C704.689 65.4987 702.711 61.9756 702.711 52.519C702.711 46.8327 702.773 39.8484 702.773 35.5836C702.773 28.3521 702.711 23.4693 702.65 18.5864H712.23C712.168 28.5993 712.106 41.27 712.106 49.614C712.106 50.8502 712.415 51.2828 712.972 51.2828C713.59 51.2828 713.837 50.8502 713.837 49.614C713.837 41.3318 713.713 28.5993 713.713 18.5864Z" fill="#444342"/>
<path d="M701.609 40.5281C701.609 60.1212 699.198 65.4367 691.472 65.4367C683.622 65.4367 681.336 60.1212 681.336 40.5281C681.336 21.8621 684.364 18.0918 691.41 18.0918C698.518 18.0918 701.609 21.8621 701.609 40.5281ZM691.41 52.2098C692.276 52.2098 692.461 51.4681 692.461 40.1572C692.461 30.268 692.276 29.5881 691.41 29.5881C690.607 29.5881 690.421 30.268 690.421 40.1572C690.421 51.4681 690.607 52.2098 691.41 52.2098Z" fill="#444342"/>
<path d="M680.247 64.9424H670.481C670.543 58.2671 670.481 51.6537 670.481 41.7644C670.481 31.9369 670.543 25.1999 670.481 18.5864H680.247C680.185 25.1999 680.123 31.8751 680.123 41.7644C680.123 51.5919 680.185 58.2671 680.247 64.9424Z" fill="#444342"/>
<path d="M661.062 18.5864H668.911C668.911 20.0698 668.726 31.8751 668.726 41.7026C668.726 52.0863 668.726 59.1325 668.849 64.9424H659.145C658.713 61.7902 658.342 58.947 657.848 56.1039C657.229 52.4572 656.673 48.2542 656.179 44.1131H655.808C656.055 48.8723 656.179 53.1371 656.179 56.5983C656.179 60.7395 656.241 63.8917 656.302 64.9424H648.329V41.7644C648.329 31.9369 648.391 25.2617 648.329 18.5864H658.651C658.898 21.2442 659.455 26.0034 660.134 31.6279C660.567 34.2856 661.062 38.0559 661.432 41.8262L661.741 41.7644C661.494 37.7469 661.309 33.853 661.309 31.4425C661.247 26.8069 661.185 22.7276 661.062 18.5864Z" fill="#444342"/>
<path d="M646.808 64.9424H637.042C637.104 58.2671 637.042 51.6537 637.042 41.7644C637.042 31.9369 637.104 25.1999 637.042 18.5864H646.808C646.746 25.1999 646.684 31.8751 646.684 41.7644C646.684 51.5919 646.746 58.2671 646.808 64.9424Z" fill="#444342"/>
<path d="M625.377 18.5864H635.452C635.39 25.3853 635.328 29.9591 635.328 35.8927C635.328 38.7358 635.39 44.7312 635.39 54.2496C635.39 61.4193 634.278 65.3132 628.468 65.3132C625.995 65.3132 624.265 64.9424 622.781 64.6334C622.843 62.7173 622.967 51.7773 622.905 49.5522C623.276 49.6758 623.647 49.8613 624.326 49.8613C625.315 49.8613 625.933 49.3668 625.933 47.3271C625.933 41.9498 625.872 23.8401 625.377 18.5864Z" fill="#444342"/>
<path d="M622.659 40.5281C622.659 60.1212 620.248 65.4367 612.522 65.4367C604.672 65.4367 602.385 60.1212 602.385 40.5281C602.385 21.8621 605.414 18.0918 612.46 18.0918C619.568 18.0918 622.659 21.8621 622.659 40.5281ZM612.46 52.2098C613.326 52.2098 613.511 51.4681 613.511 40.1572C613.511 30.268 613.326 29.5881 612.46 29.5881C611.657 29.5881 611.471 30.268 611.471 40.1572C611.471 51.4681 611.657 52.2098 612.46 52.2098Z" fill="#444342"/>
<path d="M590.066 18.5864H601.192C601.13 24.6436 601.068 31.5661 601.068 41.7026C601.068 51.5301 601.068 58.2671 601.192 64.9424H591.982C592.044 60.554 592.23 57.8345 592.23 53.3843C592.23 50.603 592.415 46.8945 592.601 43.186L592.168 43.1242C591.797 47.1417 591.426 51.0974 591.117 53.2607L589.634 64.9424H585.863L584.256 53.3225C583.947 51.1592 583.515 47.0799 583.144 43.1242L582.711 43.186C582.897 46.8327 583.144 50.4175 583.082 53.4461C583.082 57.8963 583.329 60.554 583.391 64.9424H575.294C575.294 58.2671 575.356 51.5301 575.356 41.7026C575.356 31.5661 575.294 24.6436 575.294 18.5864H587.409C587.78 22.2949 587.841 25.7562 588.089 29.5264C588.212 32.0606 588.398 36.2635 588.583 39.6629H588.954C589.139 36.2017 589.325 32.0606 589.448 29.4646C589.634 25.6943 589.819 22.4185 590.066 18.5864Z" fill="#444342"/>
<path d="M558.09 18.5864H573.851C573.79 20.3789 573.79 23.1602 573.79 25.5707C573.79 28.2903 573.79 31.1953 573.851 33.0495C571.626 32.9877 568.969 32.9259 567.053 32.9259V34.7801C569.216 34.7801 571.874 34.7183 573.604 34.5947C573.542 37.6233 573.481 43.6805 573.542 47.1417C571.812 47.0181 569.278 47.0181 567.053 47.0181V48.8105C568.969 48.8105 571.626 48.7487 573.851 48.6869C573.851 50.7266 573.79 53.817 573.79 56.6601C573.79 59.5033 573.851 62.7173 573.851 64.9424H558.09C558.152 58.2671 558.214 51.6537 558.214 41.7644C558.214 31.9369 558.152 25.2617 558.09 18.5864Z" fill="#444342"/>
<path d="M734.212 34.4298H731.431C731.554 32.6992 731.493 31.2158 731.493 29.9797C731.493 28.4345 731.245 27.631 730.566 27.631C729.947 27.631 729.7 28.2491 729.7 29.7324C729.7 33.0701 730.071 34.6153 732.729 36.7785C737.117 39.9308 738.91 42.9593 738.91 51.9833C738.91 60.8837 736.314 64.4685 729.762 64.4685C722.654 64.4685 720.862 61.2545 720.862 53.8994C720.862 51.7979 720.862 49.3874 721.047 46.7914C722.221 46.8532 723.767 46.9769 725.435 46.9769C726.424 46.9769 727.475 46.9769 728.031 46.9151C727.908 48.5221 727.97 50.0055 727.97 51.0562C727.97 52.725 728.093 53.5903 728.773 53.5903C729.453 53.5903 729.638 52.8486 729.638 51.118C729.638 47.2859 729.206 46.2352 726.61 44.5664C721.789 41.6614 720.676 38.0147 720.676 29.3616C720.676 20.3376 723.334 17 729.947 17C736.994 17 738.662 20.1522 738.662 28.0018C738.662 29.9179 738.662 32.0811 738.539 34.5535C737.426 34.4298 735.634 34.4298 734.212 34.4298Z" fill="#FFCD1C"/>
<path d="M710.623 17.5562H719.709C719.647 22.439 719.647 27.3218 719.647 34.5533V51.4887C719.647 60.9454 717.669 64.4684 709.696 64.4684C701.599 64.4684 699.621 60.9454 699.621 51.4887C699.621 45.8024 699.683 38.8181 699.683 34.5533C699.683 27.3218 699.621 22.439 699.559 17.5562H709.139C709.078 27.569 709.016 40.2397 709.016 48.5838C709.016 49.8199 709.325 50.2526 709.881 50.2526C710.499 50.2526 710.746 49.8199 710.746 48.5838C710.746 40.3015 710.623 27.569 710.623 17.5562Z" fill="#FFCD1C"/>
<path d="M698.518 39.4981C698.518 59.0912 696.108 64.4067 688.382 64.4067C680.532 64.4067 678.245 59.0912 678.245 39.4981C678.245 20.8321 681.274 17.0618 688.32 17.0618C695.428 17.0618 698.518 20.8321 698.518 39.4981ZM688.32 51.1798C689.185 51.1798 689.371 50.4381 689.371 39.1272C689.371 29.2379 689.185 28.558 688.32 28.558C687.516 28.558 687.331 29.2379 687.331 39.1272C687.331 50.4381 687.516 51.1798 688.32 51.1798Z" fill="#FFCD1C"/>
<path d="M677.156 63.9121H667.391C667.452 57.2369 667.391 50.6234 667.391 40.7341C667.391 30.9067 667.452 24.1696 667.391 17.5562H677.156C677.094 24.1696 677.033 30.8449 677.033 40.7341C677.033 50.5616 677.094 57.2369 677.156 63.9121Z" fill="#FFCD1C"/>
<path d="M657.971 17.5562H665.821C665.821 19.0395 665.635 30.8449 665.635 40.6723C665.635 51.0561 665.635 58.1022 665.759 63.9121H656.055C655.622 60.7599 655.252 57.9168 654.757 55.0736C654.139 51.4269 653.583 47.224 653.088 43.0828H652.717C652.965 47.8421 653.088 52.1068 653.088 55.5681C653.088 59.7092 653.15 62.8614 653.212 63.9121H645.239V40.7341C645.239 30.9067 645.3 24.2314 645.239 17.5562H655.561C655.808 20.2139 656.364 24.9731 657.044 30.5976C657.477 33.2554 657.971 37.0257 658.342 40.7959L658.651 40.7341C658.404 36.7166 658.218 32.8227 658.218 30.4122C658.157 25.7766 658.095 21.6973 657.971 17.5562Z" fill="#FFCD1C"/>
<path d="M643.717 63.9121H633.951C634.013 57.2369 633.951 50.6234 633.951 40.7341C633.951 30.9067 634.013 24.1696 633.951 17.5562H643.717C643.655 24.1696 643.593 30.8449 643.593 40.7341C643.593 50.5616 643.655 57.2369 643.717 63.9121Z" fill="#FFCD1C"/>
<path d="M622.287 17.5562H632.361C632.299 24.355 632.238 28.9288 632.238 34.8624C632.238 37.7055 632.3 43.7009 632.3 53.2193C632.3 60.3891 631.187 64.283 625.377 64.283C622.905 64.283 621.174 63.9121 619.691 63.6031C619.752 61.687 619.876 50.747 619.814 48.5219C620.185 48.6456 620.556 48.831 621.236 48.831C622.225 48.831 622.843 48.3365 622.843 46.2969C622.843 40.9196 622.781 22.8098 622.287 17.5562Z" fill="#FFCD1C"/>
<path d="M619.568 39.4981C619.568 59.0912 617.158 64.4067 609.432 64.4067C601.582 64.4067 599.295 59.0912 599.295 39.4981C599.295 20.8321 602.324 17.0618 609.37 17.0618C616.478 17.0618 619.568 20.8321 619.568 39.4981ZM609.37 51.1798C610.235 51.1798 610.42 50.4381 610.42 39.1272C610.42 29.2379 610.235 28.558 609.37 28.558C608.566 28.558 608.381 29.2379 608.381 39.1272C608.381 50.4381 608.566 51.1798 609.37 51.1798Z" fill="#FFCD1C"/>
<path d="M586.976 17.5562H598.101C598.04 23.6133 597.978 30.5358 597.978 40.6723C597.978 50.4998 597.978 57.2369 598.101 63.9121H588.892C588.954 59.5238 589.139 56.8042 589.139 52.354C589.139 49.5727 589.325 45.8642 589.51 42.1557L589.077 42.0939C588.707 46.1114 588.336 50.0671 588.027 52.2304L586.543 63.9121H582.773L581.166 52.2922C580.857 50.129 580.424 46.0496 580.053 42.0939L579.621 42.1557C579.806 45.8024 580.053 49.3873 579.992 52.4158C579.992 56.866 580.239 59.5238 580.301 63.9121H572.204C572.204 57.2369 572.266 50.4998 572.266 40.6723C572.266 30.5358 572.204 23.6133 572.204 17.5562H584.318C584.689 21.2646 584.751 24.7259 584.998 28.4962C585.122 31.0303 585.307 35.2332 585.493 38.6327H585.863C586.049 35.1714 586.234 31.0303 586.358 28.4344C586.543 24.6641 586.729 21.3882 586.976 17.5562Z" fill="#FFCD1C"/>
<path d="M555 17.5562H570.761C570.699 19.3486 570.699 22.1299 570.699 24.5405C570.699 27.26 570.699 30.165 570.761 32.0192C568.536 31.9574 565.878 31.8956 563.962 31.8956V33.7498C566.125 33.7498 568.783 33.688 570.514 33.5644C570.452 36.593 570.39 42.6502 570.452 46.1114C568.721 45.9878 566.187 45.9878 563.962 45.9878V47.7803C565.878 47.7803 568.536 47.7184 570.761 47.6566C570.761 49.6963 570.699 52.7867 570.699 55.6299C570.699 58.473 570.761 61.687 570.761 63.9121H555C555.062 57.2369 555.124 50.6234 555.124 40.7341C555.124 30.9067 555.062 24.2314 555 17.5562Z" fill="#FFCD1C"/>
</svg>
