<svg width="37" height="37" viewBox="0 0 37 37" fill="none" xmlns="http://www.w3.org/2000/svg">
<circle cx="18.5" cy="18.5" r="18.5" fill="#FEA1BD"/>
<rect x="13.4568" y="25.5293" width="10.4424" height="4.17695" rx="2.08848" fill="#14AE59"/>
<rect x="13.4569" y="20.8306" width="10.4424" height="4.17695" rx="2.08848" fill="#14AE59"/>
<circle cx="12.025" cy="15.1084" r="5.24167" fill="#D9D9D9"/>
<circle cx="12.0248" cy="15.1083" r="4.10833" fill="#434040"/>
<path d="M17.2667 15.1084C14.575 15.1084 14.7782 15.1084 11.8833 15.1084C8.98843 15.1084 9.89999 15.1084 6.78333 15.1084C6.78333 12.2135 9.1301 9.8667 12.025 9.8667C14.9199 9.8667 17.2667 12.2135 17.2667 15.1084Z" fill="#14AE59"/>
<circle cx="9.40423" cy="16.157" r="0.524167" fill="#D9D9D9"/>
<circle cx="25.6534" cy="15.1084" r="5.24167" fill="#D9D9D9"/>
<circle cx="25.6533" cy="15.1083" r="4.10833" fill="#434040"/>
<path d="M30.8951 15.1084C28.2034 15.1084 28.4066 15.1084 25.5117 15.1084C22.6169 15.1084 23.5284 15.1084 20.4117 15.1084C20.4117 12.2135 22.7585 9.8667 25.6534 9.8667C28.5483 9.8667 30.8951 12.2135 30.8951 15.1084Z" fill="#14AE59"/>
<circle cx="23.0326" cy="16.157" r="0.524167" fill="#D9D9D9"/>
</svg>
