<svg width="948" height="42" viewBox="0 0 948 42" fill="none" xmlns="http://www.w3.org/2000/svg">
<rect width="948" height="18" rx="9" fill="#EAE8DC"/>
<path d="M0 9C0 4.02944 4.02944 0 9 0H434V18H9.00001C4.02945 18 0 13.9706 0 9Z" fill="#EF6125"/>
<path d="M827 32.6429L832.25 38L841 28" stroke="#202020" stroke-width="5" stroke-linecap="round"/>
<path d="M827 32.6429L832.25 38L841 28" stroke="#14AE59" stroke-width="5" stroke-linecap="round"/>
<path d="M853 32.6429L858.25 38L867 28" stroke="#202020" stroke-width="5" stroke-linecap="round"/>
<path d="M853 32.6429L858.25 38L867 28" stroke="#14AE59" stroke-width="5" stroke-linecap="round"/>
<path d="M879 28L890 39M890 28L879 39" stroke="#202020" stroke-width="5" stroke-linecap="round"/>
<path d="M879 28L890 39M890 28L879 39" stroke="#EAE8DC" stroke-width="5" stroke-linecap="round"/>
<path d="M902 28L913 39M913 28L902 39" stroke="#202020" stroke-width="5" stroke-linecap="round"/>
<path d="M902 28L913 39M913 28L902 39" stroke="#EAE8DC" stroke-width="5" stroke-linecap="round"/>
<path d="M925 28L936 39M936 28L925 39" stroke="#202020" stroke-width="5" stroke-linecap="round"/>
<path d="M925 28L936 39M936 28L925 39" stroke="#EAE8DC" stroke-width="5" stroke-linecap="round"/>
</svg>
