<svg width="60" height="60" viewBox="0 0 60 60" fill="none" xmlns="http://www.w3.org/2000/svg">
<circle cx="30" cy="30" r="30" fill="#FEA1BD"/>
<rect x="21.822" y="41.3989" width="16.9336" height="6.77344" rx="3.38672" fill="#14AE59"/>
<rect x="21.822" y="33.7793" width="16.9336" height="6.77344" rx="3.38672" fill="#14AE59"/>
<circle cx="19.5" cy="24.5" r="8.5" fill="#D9D9D9"/>
<circle cx="19.4996" cy="24.5001" r="6.66216" fill="#434040"/>
<path d="M28 24.5C23.6351 24.5 23.9647 24.5 19.2703 24.5C14.5758 24.5 16.0541 24.5 11 24.5C11 19.8056 14.8056 16 19.5 16C24.1944 16 28 19.8056 28 24.5Z" fill="#14AE59"/>
<circle cx="15.25" cy="26.2001" r="0.85" fill="#D9D9D9"/>
<circle cx="41.6001" cy="24.5" r="8.5" fill="#D9D9D9"/>
<circle cx="41.5997" cy="24.5001" r="6.66216" fill="#434040"/>
<path d="M50.1001 24.5C45.7352 24.5 46.0648 24.5 41.3704 24.5C36.6759 24.5 38.1542 24.5 33.1001 24.5C33.1001 19.8056 36.9057 16 41.6001 16C46.2945 16 50.1001 19.8056 50.1001 24.5Z" fill="#14AE59"/>
<circle cx="37.3501" cy="26.2001" r="0.85" fill="#D9D9D9"/>
</svg>
