<svg width="184" height="253" viewBox="0 0 184 253" fill="none" xmlns="http://www.w3.org/2000/svg">
<rect x="90.0315" y="253" width="85.473" height="34.1892" rx="17.0946" transform="rotate(-180 90.0315 253)" fill="#2B9FE6"/>
<rect x="183.482" y="253" width="85.473" height="34.1892" rx="17.0946" transform="rotate(-180 183.482 253)" fill="#2B9FE6"/>
<circle cx="94.0203" cy="51.8536" r="21.0833" fill="#D9D9D9"/>
<circle cx="94.0203" cy="51.8536" r="16.5248" fill="#434040"/>
<path d="M115.104 98.009L112.791 100.322C102.109 111.003 84.7915 111.003 74.1101 100.322L71.7973 98.009" stroke="black" stroke-width="7.97748" stroke-linecap="round" stroke-linejoin="round"/>
<path d="M115.104 98.009L112.791 100.322C102.109 111.003 84.7915 111.003 74.1101 100.322L71.7973 98.009" stroke="#444342" stroke-width="7.97748" stroke-linecap="round" stroke-linejoin="round"/>
<rect x="0.418945" width="183.162" height="72.3604" rx="33.9189" fill="#EF6125"/>
<rect x="0.418945" y="72.3604" width="183.162" height="72.3604" rx="33.9189" fill="#EF6125"/>
<rect x="0.418945" y="144.721" width="183.162" height="72.3604" rx="33.9189" fill="#EF6125"/>
<rect x="89.7387" y="251" width="84.7973" height="33.9189" rx="16.9595" transform="rotate(-180 89.7387 251)" fill="#2B9FE6"/>
<rect x="182.45" y="251" width="84.7973" height="33.9189" rx="16.9595" transform="rotate(-180 182.45 251)" fill="#2B9FE6"/>
<path d="M114.613 97.2343L112.318 99.5289C101.721 110.126 84.5402 110.126 73.9433 99.5289L71.6487 97.2343" stroke="black" stroke-width="5.65315" stroke-linecap="round" stroke-linejoin="round"/>
<path d="M114.613 97.2343L112.318 99.5289C101.721 110.126 84.5402 110.126 73.9433 99.5289L71.6487 97.2343" stroke="#444342" stroke-width="5.65315" stroke-linecap="round" stroke-linejoin="round"/>
<circle cx="93.696" cy="51.4438" r="20.9167" fill="#D9D9D9"/>
<circle cx="93.6959" cy="51.4437" r="16.3941" fill="#434040"/>
<circle cx="87.114" cy="43.7311" r="3.02847" fill="#D9D9D9"/>
<circle cx="93.6959" cy="84.2319" r="6.21847" fill="#2B9FE6"/>
</svg>
