<svg width="40" height="38" viewBox="0 0 40 38" fill="none" xmlns="http://www.w3.org/2000/svg">
<path d="M14.6667 4.21558C10.6113 5.14146 7.06343 7.58595 4.75048 11.0477C2.43753 14.5095 1.53482 18.7263 2.22748 22.8333M14.6667 4.21558L9.23945 2M14.6667 4.21558L12.8576 9.24638" stroke="#FFCD1C" stroke-width="3" stroke-linecap="round" stroke-linejoin="round"/>
<path d="M4.66669 29C6.14952 31.2575 8.15817 33.1081 10.5142 34.3874C12.8703 35.6667 15.5009 36.3351 18.1724 36.3333C22.1684 36.3384 26.0251 34.8417 29 32.1313M4.66669 29H10.9539M4.66669 29V35.4167" stroke="#FEA1BD" stroke-width="3" stroke-linecap="round" stroke-linejoin="round"/>
<path d="M32.6946 27.3333C33.8106 25.0811 34.3896 22.5997 34.386 20.0847C34.386 12.0025 28.5258 5.29569 20.8333 4M32.6946 27.3333L38 23.709M32.6946 27.3333L29.8684 21.8969" stroke="#14AE59" stroke-width="3" stroke-linecap="round" stroke-linejoin="round"/>
</svg>
