<svg width="935" height="776" viewBox="0 0 935 776" fill="none" xmlns="http://www.w3.org/2000/svg">
<g style="mix-blend-mode:multiply" opacity="0.2">
<path fill-rule="evenodd" clip-rule="evenodd" d="M595.269 78.6432C572.17 32.0392 524.114 2.42769e-06 468.575 0C413.536 -2.40586e-06 365.845 31.4655 342.511 77.3893C296.798 56.4915 240.987 64.857 203.358 102.486C184.656 121.187 173.183 144.38 168.938 168.592C118.986 169.025 77.7385 205.935 70.5339 253.981C28.3917 278.13 4.55057e-06 323.551 0 375.604C-3.65575e-06 417.421 18.3237 454.958 47.38 480.624C43.9749 492.129 42.1472 504.311 42.1472 516.92C42.1471 587.436 99.3116 644.601 169.828 644.601H327.601C332.691 718.02 393.862 776 468.575 776C543.288 776 604.459 718.02 609.549 644.601H764.844C835.36 644.601 892.524 587.436 892.524 516.92C892.524 504.311 890.696 492.129 887.291 480.624C916.347 454.958 934.671 417.421 934.671 375.604C934.671 323.551 906.279 278.13 864.137 253.982C856.89 205.65 815.195 168.588 764.844 168.588H764.217C759.571 145.473 748.287 123.428 730.366 105.507C693.843 68.9834 640.191 60.029 595.269 78.6432Z" fill="#434040"/>
</g>
</svg>
