<svg width="854" height="640" viewBox="0 0 854 640" fill="none" xmlns="http://www.w3.org/2000/svg">
<rect x="108.989" y="33.9944" width="764" height="444.272" transform="rotate(13.0495 108.989 33.9944)" fill="#14AE59"/>
<rect x="100.989" y="20.9944" width="764" height="444.272" transform="rotate(13.0495 100.989 20.9944)" fill="#FEA1BD"/>
<ellipse cx="431.725" cy="334.353" rx="287.662" ry="137.557" fill="#14AE59"/>
<path d="M707.5 333C707.5 367.358 677.731 399.23 627.806 422.661C578.08 445.998 509.209 460.5 433 460.5C356.791 460.5 287.92 445.998 238.194 422.661C188.269 399.23 158.5 367.358 158.5 333C158.5 298.642 188.269 266.77 238.194 243.339C287.92 220.002 356.791 205.5 433 205.5C509.209 205.5 578.08 220.002 627.806 243.339C677.731 266.77 707.5 298.642 707.5 333Z" stroke="#EAE8DC" stroke-width="5"/>
<path d="M699.838 311.635H691.288C691.668 306.315 691.478 301.755 691.478 297.955C691.478 293.205 690.718 290.735 688.628 290.735C686.728 290.735 685.968 292.635 685.968 297.195C685.968 307.455 687.108 312.205 695.278 318.855C708.768 328.545 714.278 337.855 714.278 365.595C714.278 392.955 706.298 403.975 686.158 403.975C664.308 403.975 658.798 394.095 658.798 371.485C658.798 365.025 658.798 357.615 659.368 349.635C662.978 349.825 667.728 350.205 672.858 350.205C675.898 350.205 679.128 350.205 680.838 350.015C680.458 354.955 680.648 359.515 680.648 362.745C680.648 367.875 681.028 370.535 683.118 370.535C685.208 370.535 685.778 368.255 685.778 362.935C685.778 351.155 684.448 347.925 676.468 342.795C661.648 333.865 658.228 322.655 658.228 296.055C658.228 268.315 666.398 258.055 686.728 258.055C708.388 258.055 713.518 267.745 713.518 291.875C713.518 297.765 713.518 304.415 713.138 312.015C709.718 311.635 704.208 311.635 699.838 311.635Z" fill="#444342"/>
<path d="M627.323 259.765H655.253C655.063 274.775 655.063 289.785 655.063 312.015V364.075C655.063 393.145 648.983 403.975 624.473 403.975C599.583 403.975 593.503 393.145 593.503 364.075C593.503 346.595 593.693 325.125 593.693 312.015C593.693 289.785 593.503 274.775 593.313 259.765H622.763C622.573 290.545 622.383 329.495 622.383 355.145C622.383 358.945 623.333 360.275 625.043 360.275C626.943 360.275 627.703 358.945 627.703 355.145C627.703 329.685 627.323 290.545 627.323 259.765Z" fill="#444342"/>
<path d="M590.113 327.215C590.113 387.445 582.703 403.785 558.953 403.785C534.823 403.785 527.793 387.445 527.793 327.215C527.793 269.835 537.103 258.245 558.763 258.245C580.613 258.245 590.113 269.835 590.113 327.215ZM558.763 363.125C561.423 363.125 561.993 360.845 561.993 326.075C561.993 295.675 561.423 293.585 558.763 293.585C556.293 293.585 555.723 295.675 555.723 326.075C555.723 360.845 556.293 363.125 558.763 363.125Z" fill="#444342"/>
<path d="M524.446 402.265H494.426C494.616 381.745 494.426 361.415 494.426 331.015C494.426 300.805 494.616 280.095 494.426 259.765H524.446C524.256 280.095 524.066 300.615 524.066 331.015C524.066 361.225 524.256 381.745 524.446 402.265Z" fill="#444342"/>
<path d="M465.47 259.765H489.6C489.6 264.325 489.03 300.615 489.03 330.825C489.03 362.745 489.03 384.405 489.41 402.265H459.58C458.25 392.575 457.11 383.835 455.59 375.095C453.69 363.885 451.98 350.965 450.46 338.235H449.32C450.08 352.865 450.46 365.975 450.46 376.615C450.46 389.345 450.65 399.035 450.84 402.265H426.33V331.015C426.33 300.805 426.52 280.285 426.33 259.765H458.06C458.82 267.935 460.53 282.565 462.62 299.855C463.95 308.025 465.47 319.615 466.61 331.205L467.56 331.015C466.8 318.665 466.23 306.695 466.23 299.285C466.04 285.035 465.85 272.495 465.47 259.765Z" fill="#444342"/>
<path d="M421.653 402.265H391.633C391.823 381.745 391.633 361.415 391.633 331.015C391.633 300.805 391.823 280.095 391.633 259.765H421.653C421.463 280.095 421.273 300.615 421.273 331.015C421.273 361.225 421.463 381.745 421.653 402.265Z" fill="#444342"/>
<path d="M355.775 259.765H386.745C386.555 280.665 386.365 294.725 386.365 312.965C386.365 321.705 386.555 340.135 386.555 369.395C386.555 391.435 383.135 403.405 365.275 403.405C357.675 403.405 352.355 402.265 347.795 401.315C347.985 395.425 348.365 361.795 348.175 354.955C349.315 355.335 350.455 355.905 352.545 355.905C355.585 355.905 357.485 354.385 357.485 348.115C357.485 331.585 357.295 275.915 355.775 259.765Z" fill="#444342"/>
<path d="M347.418 327.215C347.418 387.445 340.008 403.785 316.258 403.785C292.128 403.785 285.098 387.445 285.098 327.215C285.098 269.835 294.408 258.245 316.068 258.245C337.918 258.245 347.418 269.835 347.418 327.215ZM316.068 363.125C318.728 363.125 319.298 360.845 319.298 326.075C319.298 295.675 318.728 293.585 316.068 293.585C313.598 293.585 313.028 295.675 313.028 326.075C313.028 360.845 313.598 363.125 316.068 363.125Z" fill="#444342"/>
<path d="M247.228 259.765H281.428C281.238 278.385 281.048 299.665 281.048 330.825C281.048 361.035 281.048 381.745 281.428 402.265H253.118C253.308 388.775 253.878 380.415 253.878 366.735C253.878 358.185 254.448 346.785 255.018 335.385L253.688 335.195C252.548 347.545 251.408 359.705 250.458 366.355L245.898 402.265H234.308L229.368 366.545C228.418 359.895 227.088 347.355 225.948 335.195L224.618 335.385C225.188 346.595 225.948 357.615 225.758 366.925C225.758 380.605 226.518 388.775 226.708 402.265H201.818C201.818 381.745 202.008 361.035 202.008 330.825C202.008 299.665 201.818 278.385 201.818 259.765H239.058C240.198 271.165 240.388 281.805 241.148 293.395C241.528 301.185 242.098 314.105 242.668 324.555H243.808C244.378 313.915 244.948 301.185 245.328 293.205C245.898 281.615 246.468 271.545 247.228 259.765Z" fill="#444342"/>
<path d="M148.933 259.765H197.383C197.193 265.275 197.193 273.825 197.193 281.235C197.193 289.595 197.193 298.525 197.383 304.225C190.543 304.035 182.373 303.845 176.483 303.845V309.545C183.133 309.545 191.303 309.355 196.623 308.975C196.433 318.285 196.243 336.905 196.433 347.545C191.113 347.165 183.323 347.165 176.483 347.165V352.675C182.373 352.675 190.543 352.485 197.383 352.295C197.383 358.565 197.193 368.065 197.193 376.805C197.193 385.545 197.383 395.425 197.383 402.265H148.933C149.123 381.745 149.313 361.415 149.313 331.015C149.313 300.805 149.123 280.285 148.933 259.765Z" fill="#444342"/>
<path d="M690.465 321.153H681.915C682.295 315.833 682.105 311.273 682.105 307.473C682.105 302.723 681.345 300.253 679.255 300.253C677.355 300.253 676.595 302.153 676.595 306.713C676.595 316.973 677.735 321.723 685.905 328.373C699.395 338.063 704.905 347.373 704.905 375.113C704.905 402.473 696.925 413.493 676.785 413.493C654.935 413.493 649.425 403.613 649.425 381.003C649.425 374.543 649.425 367.133 649.995 359.153C653.605 359.343 658.355 359.723 663.485 359.723C666.525 359.723 669.755 359.723 671.465 359.533C671.085 364.473 671.275 369.033 671.275 372.263C671.275 377.393 671.655 380.053 673.745 380.053C675.835 380.053 676.405 377.773 676.405 372.453C676.405 360.673 675.075 357.443 667.095 352.313C652.275 343.383 648.855 332.173 648.855 305.573C648.855 277.833 657.025 267.573 677.355 267.573C699.015 267.573 704.145 277.263 704.145 301.393C704.145 307.283 704.145 313.933 703.765 321.533C700.345 321.153 694.835 321.153 690.465 321.153Z" fill="#FFCD1C"/>
<path d="M617.951 269.283H645.881C645.691 284.293 645.691 299.303 645.691 321.533V373.593C645.691 402.663 639.611 413.493 615.101 413.493C590.211 413.493 584.131 402.663 584.131 373.593C584.131 356.113 584.321 334.643 584.321 321.533C584.321 299.303 584.131 284.293 583.941 269.283H613.391C613.201 300.063 613.011 339.013 613.011 364.663C613.011 368.463 613.961 369.793 615.671 369.793C617.571 369.793 618.331 368.463 618.331 364.663C618.331 339.203 617.951 300.063 617.951 269.283Z" fill="#FFCD1C"/>
<path d="M580.74 336.733C580.74 396.963 573.33 413.303 549.58 413.303C525.45 413.303 518.42 396.963 518.42 336.733C518.42 279.353 527.73 267.763 549.39 267.763C571.24 267.763 580.74 279.353 580.74 336.733ZM549.39 372.643C552.05 372.643 552.62 370.363 552.62 335.593C552.62 305.193 552.05 303.103 549.39 303.103C546.92 303.103 546.35 305.193 546.35 335.593C546.35 370.363 546.92 372.643 549.39 372.643Z" fill="#FFCD1C"/>
<path d="M515.073 411.783H485.053C485.243 391.263 485.053 370.933 485.053 340.533C485.053 310.323 485.243 289.613 485.053 269.283H515.073C514.883 289.613 514.693 310.133 514.693 340.533C514.693 370.743 514.883 391.263 515.073 411.783Z" fill="#FFCD1C"/>
<path d="M456.097 269.283H480.227C480.227 273.843 479.657 310.133 479.657 340.343C479.657 372.263 479.657 393.923 480.037 411.783H450.207C448.877 402.093 447.737 393.353 446.217 384.613C444.317 373.403 442.607 360.483 441.087 347.753H439.947C440.707 362.383 441.087 375.493 441.087 386.133C441.087 398.863 441.277 408.553 441.467 411.783H416.957V340.533C416.957 310.323 417.147 289.803 416.957 269.283H448.687C449.447 277.453 451.157 292.083 453.247 309.373C454.577 317.543 456.097 329.133 457.237 340.723L458.187 340.533C457.427 328.183 456.857 316.213 456.857 308.803C456.667 294.553 456.477 282.013 456.097 269.283Z" fill="#FFCD1C"/>
<path d="M412.28 411.783H382.26C382.45 391.263 382.26 370.933 382.26 340.533C382.26 310.323 382.45 289.613 382.26 269.283H412.28C412.09 289.613 411.9 310.133 411.9 340.533C411.9 370.743 412.09 391.263 412.28 411.783Z" fill="#FFCD1C"/>
<path d="M346.402 269.283H377.372C377.182 290.183 376.992 304.243 376.992 322.483C376.992 331.223 377.182 349.653 377.182 378.913C377.182 400.953 373.762 412.923 355.902 412.923C348.302 412.923 342.982 411.783 338.422 410.833C338.612 404.943 338.992 371.313 338.802 364.473C339.942 364.853 341.082 365.423 343.172 365.423C346.212 365.423 348.112 363.903 348.112 357.633C348.112 341.103 347.922 285.433 346.402 269.283Z" fill="#FFCD1C"/>
<path d="M338.045 336.733C338.045 396.963 330.635 413.303 306.885 413.303C282.755 413.303 275.725 396.963 275.725 336.733C275.725 279.353 285.035 267.763 306.695 267.763C328.545 267.763 338.045 279.353 338.045 336.733ZM306.695 372.643C309.355 372.643 309.925 370.363 309.925 335.593C309.925 305.193 309.355 303.103 306.695 303.103C304.225 303.103 303.655 305.193 303.655 335.593C303.655 370.363 304.225 372.643 306.695 372.643Z" fill="#FFCD1C"/>
<path d="M237.856 269.283H272.056C271.866 287.903 271.676 309.183 271.676 340.343C271.676 370.553 271.676 391.263 272.056 411.783H243.746C243.936 398.293 244.506 389.933 244.506 376.253C244.506 367.703 245.076 356.303 245.646 344.903L244.316 344.713C243.176 357.063 242.036 369.223 241.086 375.873L236.526 411.783H224.936L219.996 376.063C219.046 369.413 217.716 356.873 216.576 344.713L215.246 344.903C215.816 356.113 216.576 367.133 216.386 376.443C216.386 390.123 217.146 398.293 217.336 411.783H192.446C192.446 391.263 192.636 370.553 192.636 340.343C192.636 309.183 192.446 287.903 192.446 269.283H229.686C230.826 280.683 231.016 291.323 231.776 302.913C232.156 310.703 232.726 323.623 233.296 334.073H234.436C235.006 323.433 235.576 310.703 235.956 302.723C236.526 291.133 237.096 281.063 237.856 269.283Z" fill="#FFCD1C"/>
<path d="M139.56 269.283H188.01C187.82 274.793 187.82 283.343 187.82 290.753C187.82 299.113 187.82 308.043 188.01 313.743C181.17 313.553 173 313.363 167.11 313.363V319.063C173.76 319.063 181.93 318.873 187.25 318.493C187.06 327.803 186.87 346.423 187.06 357.063C181.74 356.683 173.95 356.683 167.11 356.683V362.193C173 362.193 181.17 362.003 188.01 361.813C188.01 368.083 187.82 377.583 187.82 386.323C187.82 395.063 188.01 404.943 188.01 411.783H139.56C139.75 391.263 139.94 370.933 139.94 340.533C139.94 310.323 139.75 289.803 139.56 269.283Z" fill="#FFCD1C"/>
<path d="M172.66 8.29272L156.861 75.0131" stroke="#2B9FE6" stroke-width="15" stroke-linecap="round"/>
<path d="M172.66 8.29272L165.814 37.2049" stroke="#EAE8DC" stroke-width="10" stroke-linecap="round"/>
<path d="M220.849 19.7034L205.05 86.4238" stroke="#2B9FE6" stroke-width="15" stroke-linecap="round"/>
<path d="M220.849 19.7034L214.003 48.6155" stroke="#EAE8DC" stroke-width="10" stroke-linecap="round"/>
<path d="M269.037 31.114L253.238 97.8344" stroke="#2B9FE6" stroke-width="15" stroke-linecap="round"/>
<path d="M269.037 31.114L262.191 60.0262" stroke="#EAE8DC" stroke-width="10" stroke-linecap="round"/>
<path d="M317.226 42.5247L301.427 109.245" stroke="#2B9FE6" stroke-width="15" stroke-linecap="round"/>
<path d="M317.226 42.5247L310.379 71.4368" stroke="#EAE8DC" stroke-width="10" stroke-linecap="round"/>
<path d="M365.414 53.9355L349.615 120.656" stroke="#2B9FE6" stroke-width="15" stroke-linecap="round"/>
<path d="M365.414 53.9355L358.568 82.8477" stroke="#EAE8DC" stroke-width="10" stroke-linecap="round"/>
<path d="M413.603 65.3464L397.804 132.067" stroke="#2B9FE6" stroke-width="15" stroke-linecap="round"/>
<path d="M413.603 65.3464L406.756 94.2586" stroke="#EAE8DC" stroke-width="10" stroke-linecap="round"/>
<path d="M461.791 76.7568L445.992 143.477" stroke="#2B9FE6" stroke-width="15" stroke-linecap="round"/>
<path d="M461.791 76.7568L454.945 105.669" stroke="#EAE8DC" stroke-width="10" stroke-linecap="round"/>
<path d="M509.98 88.1677L494.181 154.888" stroke="#2B9FE6" stroke-width="15" stroke-linecap="round"/>
<path d="M509.98 88.1677L503.134 117.08" stroke="#EAE8DC" stroke-width="10" stroke-linecap="round"/>
<path d="M558.168 99.5784L542.369 166.299" stroke="#2B9FE6" stroke-width="15" stroke-linecap="round"/>
<path d="M558.168 99.5784L551.322 128.491" stroke="#EAE8DC" stroke-width="10" stroke-linecap="round"/>
<path d="M605.839 110.866L590.04 177.587" stroke="#2B9FE6" stroke-width="15" stroke-linecap="round"/>
<path d="M605.839 110.866L598.992 139.779" stroke="#EAE8DC" stroke-width="10" stroke-linecap="round"/>
<path d="M654.027 122.277L638.228 188.997" stroke="#2B9FE6" stroke-width="15" stroke-linecap="round"/>
<path d="M654.027 122.277L647.181 151.189" stroke="#EAE8DC" stroke-width="10" stroke-linecap="round"/>
<path d="M702.216 133.688L686.417 200.408" stroke="#2B9FE6" stroke-width="15" stroke-linecap="round"/>
<path d="M702.216 133.688L695.369 162.6" stroke="#EAE8DC" stroke-width="10" stroke-linecap="round"/>
<path d="M750.404 145.099L734.605 211.819" stroke="#2B9FE6" stroke-width="15" stroke-linecap="round"/>
<path d="M750.404 145.099L743.558 174.011" stroke="#EAE8DC" stroke-width="10" stroke-linecap="round"/>
<path d="M798.593 156.51L782.794 223.23" stroke="#2B9FE6" stroke-width="15" stroke-linecap="round"/>
<path d="M798.593 156.51L791.746 185.422" stroke="#EAE8DC" stroke-width="10" stroke-linecap="round"/>
</svg>
