<svg width="65" height="65" viewBox="0 0 65 65" fill="none" xmlns="http://www.w3.org/2000/svg">
<rect width="64.1667" height="64.1667" rx="10" fill="#EAE8DC"/>
<path d="M27.1976 39.4219V38.6648C27.1976 36.572 27.3699 34.9039 27.7146 33.6605C28.0716 32.4172 28.5887 31.42 29.2657 30.6691C29.9428 29.9058 30.7676 29.2103 31.7402 28.5824C32.5157 28.09 33.2051 27.5914 33.8083 27.0867C34.4239 26.5696 34.9102 26.0156 35.2672 25.4247C35.6242 24.8338 35.8027 24.1629 35.8027 23.412C35.8027 22.6856 35.6303 22.0455 35.2856 21.4915C34.9409 20.9375 34.467 20.5128 33.8638 20.2174C33.2728 19.9096 32.6142 19.7557 31.8879 19.7557C31.1616 19.7557 30.4783 19.9219 29.8382 20.2543C29.2103 20.5867 28.6933 21.0606 28.287 21.6762C27.8931 22.2794 27.69 23.0119 27.6777 23.8736H19.1833C19.2203 21.2884 19.8173 19.171 20.9745 17.5213C22.1441 15.8717 23.689 14.653 25.6095 13.8651C27.5299 13.0649 29.6474 12.6648 31.9618 12.6648C34.4977 12.6648 36.7506 13.0587 38.7203 13.8466C40.7023 14.6345 42.2596 15.7978 43.3922 17.3367C44.5247 18.8755 45.091 20.759 45.091 22.9872C45.091 24.4522 44.8448 25.7448 44.3524 26.8651C43.86 27.9853 43.1706 28.9763 42.2842 29.8381C41.4102 30.6875 40.3822 31.4631 39.2004 32.1648C38.2771 32.7065 37.5077 33.2728 36.8922 33.8637C36.2889 34.4546 35.8334 35.1317 35.5257 35.8949C35.2179 36.6459 35.064 37.5692 35.064 38.6648V39.4219H27.1976ZM31.2785 51.5355C29.949 51.5355 28.8102 51.0677 27.8623 50.1321C26.9267 49.1965 26.4651 48.0639 26.4774 46.7344C26.4651 45.4295 26.9267 44.3154 27.8623 43.3921C28.8102 42.4565 29.949 41.9887 31.2785 41.9887C32.5465 41.9887 33.6606 42.4565 34.6208 43.3921C35.5811 44.3154 36.0673 45.4295 36.0797 46.7344C36.0673 47.6208 35.8334 48.4271 35.378 49.1534C34.9348 49.8798 34.35 50.4584 33.6237 50.8892C32.9097 51.3201 32.128 51.5355 31.2785 51.5355Z" fill="#2B9FE6"/>
</svg>
