<svg width="27" height="40" viewBox="0 0 27 40" fill="none" xmlns="http://www.w3.org/2000/svg">
<path d="M8.86418 27.4219V26.6648C8.86418 24.572 9.03653 22.9039 9.38123 21.6605C9.73823 20.4172 10.2553 19.42 10.9324 18.6691C11.6094 17.9058 12.4343 17.2103 13.4068 16.5824C14.1824 16.09 14.8718 15.5914 15.475 15.0867C16.0905 14.5696 16.5768 14.0156 16.9338 13.4247C17.2908 12.8338 17.4693 12.1629 17.4693 11.412C17.4693 10.6856 17.2969 10.0455 16.9523 9.4915C16.6076 8.93752 16.1336 8.51281 15.5304 8.21735C14.9395 7.90959 14.2808 7.7557 13.5545 7.7557C12.8282 7.7557 12.145 7.9219 11.5048 8.25428C10.877 8.58667 10.3599 9.06063 9.95367 9.67616C9.55973 10.2794 9.35661 11.0119 9.3443 11.8736H0.849976C0.886907 9.28837 1.48397 7.17095 2.64117 5.52133C3.81068 3.87171 5.35566 2.65296 7.27611 1.86508C9.19657 1.06489 11.314 0.664795 13.6284 0.664795C16.1644 0.664795 18.4172 1.05873 20.3869 1.84661C22.3689 2.63449 23.9262 3.79785 25.0588 5.33667C26.1914 6.8755 26.7576 8.75902 26.7576 10.9872C26.7576 12.4522 26.5114 13.7448 26.019 14.8651C25.5266 15.9853 24.8372 16.9763 23.9508 17.8381C23.0768 18.6875 22.0488 19.4631 20.867 20.1648C19.9437 20.7065 19.1743 21.2728 18.5588 21.8637C17.9556 22.4546 17.5001 23.1317 17.1923 23.8949C16.8845 24.6459 16.7307 25.5692 16.7307 26.6648V27.4219H8.86418ZM12.9451 39.5355C11.6156 39.5355 10.4769 39.0677 9.52895 38.1321C8.59335 37.1965 8.1317 36.0639 8.14401 34.7344C8.1317 33.4295 8.59335 32.3154 9.52895 31.3921C10.4769 30.4565 11.6156 29.9887 12.9451 29.9887C14.2131 29.9887 15.3272 30.4565 16.2875 31.3921C17.2477 32.3154 17.734 33.4295 17.7463 34.7344C17.734 35.6208 17.5001 36.4271 17.0446 37.1534C16.6014 37.8798 16.0166 38.4584 15.2903 38.8892C14.5763 39.3201 13.7946 39.5355 12.9451 39.5355Z" fill="#2B9FE6"/>
</svg>
