<svg width="235" height="235" viewBox="0 0 235 235" fill="none" xmlns="http://www.w3.org/2000/svg">
<circle cx="117.128" cy="117.128" r="71.3962" transform="rotate(50.1695 117.128 117.128)" fill="#2B9FE6"/>
<path d="M144.613 157.476L132.721 147.447L122.692 159.339L110.8 149.31L100.771 161.202L88.8789 151.173L78.8498 163.064" stroke="black" stroke-width="5" stroke-linecap="round" stroke-linejoin="round"/>
<path d="M144.613 157.476L132.721 147.447L122.692 159.339L110.8 149.31L100.771 161.202L88.8789 151.173L78.8498 163.064" stroke="#444342" stroke-width="5" stroke-linecap="round" stroke-linejoin="round"/>
<ellipse cx="107.189" cy="124.526" rx="24.5" ry="19" transform="rotate(-4.85701 107.189 124.526)" fill="#7766C2"/>
<path d="M73.7046 114.325L95.9839 128.49L76.414 146.21" stroke="black" stroke-width="5" stroke-linecap="round" stroke-linejoin="round"/>
<path d="M73.7046 114.325L95.9839 128.49L76.414 146.21" stroke="#444342" stroke-width="5" stroke-linecap="round" stroke-linejoin="round"/>
<path d="M143.173 140.537L119.898 126.457L140.464 108.652" stroke="black" stroke-width="5" stroke-linecap="round" stroke-linejoin="round"/>
<path d="M143.173 140.537L119.898 126.457L140.464 108.652" stroke="#444342" stroke-width="5" stroke-linecap="round" stroke-linejoin="round"/>
</svg>
