<svg width="191" height="191" viewBox="0 0 191 191" fill="none" xmlns="http://www.w3.org/2000/svg">
<circle cx="95.289" cy="95.289" r="71.3962" transform="rotate(25.6894 95.289 95.289)" fill="#7766C2"/>
<circle cx="85.1331" cy="66.3052" r="5.6522" transform="rotate(25.6894 85.1331 66.3052)" fill="#EAE8DC"/>
<circle cx="119.983" cy="83.0696" r="5.6522" transform="rotate(25.6894 119.983 83.0696)" fill="#EAE8DC"/>
<path d="M135.875 106.267C134.771 108.73 131.833 109.812 129.313 108.683C126.793 107.554 125.645 104.642 126.749 102.178C127.852 99.7149 134.838 93.6941 136.264 93.1689C136.845 98.7847 136.978 103.804 135.875 106.267Z" fill="#2B9FE6"/>
<path d="M153.871 97.8932C152.768 100.357 149.83 101.438 147.31 100.309C144.79 99.1801 143.642 96.2679 144.745 93.8045C145.849 91.3412 152.834 85.3203 154.261 84.7951C154.841 90.4109 154.975 95.4299 153.871 97.8932Z" fill="#2B9FE6"/>
<path d="M100.345 106.635C95.9093 115.856 87.2483 120.894 81.0002 117.889C74.752 114.883 73.2827 104.972 77.7184 95.7505C82.1541 86.5294 90.8151 81.4908 97.0632 84.4964C103.311 87.502 104.781 97.4137 100.345 106.635Z" fill="#FEA1BD"/>
</svg>
