<svg width="1280" height="832" viewBox="0 0 1280 832" fill="none" xmlns="http://www.w3.org/2000/svg">
<g clip-path="url(#clip0_349_164)">
<rect width="1280" height="832" fill="#434040"/>
<rect x="678" y="394.61" width="647" height="355" transform="rotate(-44.5151 678 394.61)" fill="#EAE8DC"/>
<rect x="735.395" y="355.916" width="607.565" height="329.516" transform="rotate(-44.5151 735.395 355.916)" stroke="#7766C2" stroke-width="5"/>
<rect x="910.187" y="-273" width="647" height="355" transform="rotate(18.0824 910.187 -273)" fill="#FEA1BD"/>
<rect x="680" y="506.399" width="647" height="355" transform="rotate(-7.31681 680 506.399)" fill="#2B9FE6"/>
<rect x="-412" y="297.127" width="647" height="355" transform="rotate(-4.26585 -412 297.127)" fill="#EAE8DC"/>
<rect x="-387.349" y="305.465" width="613.017" height="334.098" transform="rotate(-4.26585 -387.349 305.465)" stroke="#EF6125" stroke-width="5"/>
<rect x="-221" y="796.327" width="647" height="355" transform="rotate(-31.5281 -221 796.327)" fill="#FFCD1C"/>
<rect x="-235" y="792.327" width="647" height="355" transform="rotate(-31.5281 -235 792.327)" fill="#7766C2"/>
<rect x="47" y="59.3011" width="647" height="355" transform="rotate(-17.5691 47 59.3011)" fill="#EF6125"/>
<rect x="53" y="47.3011" width="647" height="355" transform="rotate(-17.5691 53 47.3011)" fill="#14AE59"/>
<rect x="689" y="495.399" width="647" height="355" transform="rotate(-7.31681 689 495.399)" fill="#FFCD1C"/>
<rect x="922.187" y="-280" width="647" height="355" transform="rotate(18.0824 922.187 -280)" fill="#EF6125"/>
<path d="M147.727 769.464L191.642 663.346C199.949 643.273 222.956 633.734 243.029 642.041L258.654 648.507C278.727 656.814 288.266 679.821 279.959 699.895L236.044 806.012L147.727 769.464Z" fill="#EAE8DC"/>
<path d="M154.689 752.642L181.665 687.455L269.982 724.004L243.006 789.19L154.689 752.642Z" fill="#2B9FE6"/>
<path d="M150.12 763.681L154.689 752.641L243.006 789.19L238.437 800.229L150.12 763.681Z" fill="#EF6125"/>
<circle cx="371.5" cy="189.5" r="18.5" fill="#EF6125"/>
<circle cx="40.5" cy="390.5" r="18.5" fill="#FEA1BD"/>
<circle cx="115.5" cy="510.5" r="18.5" fill="#2B9FE6"/>
<circle cx="380.5" cy="685.5" r="18.5" fill="#14AE59"/>
<circle cx="357.5" cy="704.5" r="18.5" fill="#FFCD1C"/>
<circle cx="415.5" cy="729.5" r="18.5" fill="#EF6125"/>
<circle cx="1182.5" cy="682.5" r="18.5" fill="#14AE59"/>
<circle cx="1164.5" cy="700.5" r="18.5" fill="#2B9FE6"/>
<circle cx="390.5" cy="209.5" r="18.5" fill="#7766C2"/>
<circle cx="871.5" cy="558.5" r="18.5" fill="#FEC601"/>
<circle cx="1199.5" cy="231.5" r="18.5" fill="#14AE59"/>
<circle cx="134.5" cy="87.5" r="18.5" fill="#7766C2"/>
<circle cx="125.5" cy="113.5" r="18.5" fill="#7766C2"/>
<circle cx="143.5" cy="131.5" r="18.5" fill="#7766C2"/>
<circle cx="168.5" cy="117.5" r="18.5" fill="#7766C2"/>
<circle cx="162.5" cy="90.5" r="18.5" fill="#7766C2"/>
<circle cx="147.5" cy="108.5" r="18.5" fill="#FEC601"/>
<path d="M854.294 744.698C845.612 733.674 833.75 744.16 834.682 750.895C830.537 744.803 815.264 744.585 815.48 758.369C815.721 773.698 842.427 778.108 844.738 779.559C845.768 777.375 863.594 756.571 854.258 744.711L854.294 744.698Z" fill="#EF6125"/>
<path d="M68.1999 648.113C54.1956 648.998 56.09 664.717 62.163 667.774C54.7947 667.727 45.9419 680.174 57.4101 687.824C70.1649 696.331 88.9605 676.853 91.4677 675.776C90.2549 673.687 83.2538 647.2 68.19 648.149L68.1999 648.113Z" fill="#FEA1BD"/>
<path d="M647.059 72.8353C649.78 59.0694 634.099 56.886 629.592 61.9766C631.52 54.8649 621.747 43.1265 611.422 52.2602C599.938 62.4187 613.969 85.5661 614.37 88.2653C616.699 87.6263 644.096 87.6229 647.026 72.8164L647.059 72.8353Z" fill="#FEC601"/>
</g>
<defs>
<clipPath id="clip0_349_164">
<rect width="1280" height="832" fill="white"/>
</clipPath>
</defs>
</svg>
