<svg width="794" height="819" viewBox="0 0 794 819" fill="none" xmlns="http://www.w3.org/2000/svg">
<path d="M469.889 119.29L485.672 104.809L635.513 268.121L619.729 282.603L469.889 119.29Z" fill="#EF6125"/>
<path d="M619.729 282.603L635.513 268.121L649.404 283.261L633.62 297.742L619.729 282.603Z" fill="#434040"/>
<path d="M485.672 104.809L501.456 90.3275L651.296 253.64L635.512 268.122L485.672 104.809Z" fill="#FFCD1C"/>
<path d="M635.513 268.122L651.296 253.64L665.187 268.78L649.403 283.261L635.513 268.122Z" fill="#434040"/>
<path d="M501.456 90.3274L517.24 75.8458L667.08 239.159L651.296 253.64L501.456 90.3274Z" fill="#EF6125"/>
<path d="M651.297 253.64L667.081 239.159L680.971 254.298L665.187 268.78L651.297 253.64Z" fill="#434040"/>
<path d="M457.437 63.0173C456.811 60.1882 459.479 57.7404 462.244 58.6071L517.24 75.8457L469.889 119.291L457.437 63.0173Z" fill="#EAE8DC"/>
<path d="M506.272 111.419L485.672 104.809L501.456 90.3275L506.272 111.419Z" fill="#EAE8DC"/>
<path d="M522.056 96.9371L501.456 90.3269L517.24 75.8453L522.056 96.9371Z" fill="#EAE8DC"/>
<path d="M490.489 125.901L469.889 119.291L485.673 104.809L490.489 125.901Z" fill="#EAE8DC"/>
<path d="M457.479 63.0757C456.837 60.235 459.523 57.7711 462.298 58.6543L479.074 63.9935L461.358 80.2484L457.479 63.0757Z" fill="#434040"/>
<path d="M633.62 297.743L680.971 254.298L689.919 264.05C698.362 273.252 697.746 287.555 688.544 295.998L674.516 308.869C665.314 317.312 651.011 316.697 642.568 307.495L633.62 297.743Z" fill="#FEA1BD"/>
<path fill-rule="evenodd" clip-rule="evenodd" d="M167.618 773.11C172.447 783.952 185.151 788.827 195.993 783.998C380.452 701.844 479.004 553.301 508.233 508.634C523.77 484.888 553.375 425.488 578.187 364.031C590.677 333.093 602.209 301.008 610.261 272.007C618.12 243.701 623.387 215.878 621.494 194.547C620.444 182.724 610.009 173.991 598.186 175.041C586.364 176.091 577.631 186.526 578.68 198.348C579.844 211.455 576.51 232.904 568.846 260.509C561.375 287.418 550.465 317.883 538.33 347.94C513.892 408.474 485.521 464.844 472.267 485.099C443.912 528.431 351.046 667.889 178.506 744.735C167.663 749.564 162.789 762.268 167.618 773.11Z" fill="#FEA1BD"/>
<path fill-rule="evenodd" clip-rule="evenodd" d="M167.618 773.11C172.447 783.952 185.151 788.827 195.993 783.998C380.452 701.844 479.004 553.301 508.233 508.634C523.77 484.888 553.375 425.488 578.187 364.031C590.677 333.093 602.209 301.008 610.261 272.007C618.12 243.701 623.387 215.878 621.494 194.547C620.444 182.724 610.009 173.991 598.186 175.041C586.364 176.091 577.631 186.526 578.68 198.348C579.844 211.455 576.51 232.904 568.846 260.509C561.375 287.418 550.465 317.883 538.33 347.94C513.892 408.474 485.521 464.844 472.267 485.099C443.912 528.431 351.046 667.889 178.506 744.735C167.663 749.564 162.789 762.268 167.618 773.11Z" fill="#2B9FE6"/>
<path fill-rule="evenodd" clip-rule="evenodd" d="M167.618 773.11C172.447 783.952 185.151 788.827 195.993 783.998C206.921 779.131 217.546 774.032 227.873 768.735L208.257 730.491C198.615 735.436 188.699 740.195 178.506 744.735C167.663 749.564 162.789 762.268 167.618 773.11ZM288.85 733.194C309.26 719.799 328.197 705.788 345.701 691.562L318.593 658.207C302.143 671.576 284.379 684.717 265.267 697.26L288.85 733.194ZM398.094 644.596C416.119 626.824 431.993 609.386 445.792 593.058L412.963 565.314C399.912 580.758 384.919 597.226 367.917 613.989L398.094 644.596ZM488.694 537.512C497.054 525.659 503.566 515.765 508.233 508.634C512.368 502.314 517.298 493.802 522.664 483.865L484.845 463.443C479.735 472.904 475.455 480.227 472.267 485.099C467.684 492.102 461.495 501.502 453.57 512.739L488.694 537.512ZM547.261 434.764C554.58 419.225 562.163 402.336 569.561 384.876L529.985 368.108C522.814 385.032 515.462 401.405 508.376 416.452L547.261 434.764ZM589.835 334.023C596.435 316.272 602.473 298.569 607.476 281.7L566.269 269.478C561.601 285.215 555.893 301.979 549.548 319.043L589.835 334.023ZM620.206 226.103C621.72 215.066 622.36 204.305 621.494 194.547C620.444 182.724 610.009 173.991 598.186 175.041C586.364 176.091 577.631 186.526 578.68 198.348C579.161 203.767 578.885 211.062 577.623 220.262L620.206 226.103Z" fill="#FEA1BD"/>
<path fill-rule="evenodd" clip-rule="evenodd" d="M167.618 773.11C172.447 783.952 185.151 788.827 195.993 783.998C206.921 779.131 217.546 774.032 227.873 768.735L208.257 730.491C198.615 735.436 188.699 740.195 178.506 744.735C167.663 749.564 162.789 762.268 167.618 773.11ZM288.85 733.194C309.26 719.799 328.197 705.788 345.701 691.562L318.593 658.207C302.143 671.576 284.379 684.717 265.267 697.26L288.85 733.194ZM398.094 644.596C416.119 626.824 431.993 609.386 445.792 593.058L412.963 565.314C399.912 580.758 384.919 597.226 367.917 613.989L398.094 644.596ZM488.694 537.512C497.054 525.659 503.566 515.765 508.233 508.634C512.368 502.314 517.298 493.802 522.664 483.865L484.845 463.443C479.735 472.904 475.455 480.227 472.267 485.099C467.684 492.102 461.495 501.502 453.57 512.739L488.694 537.512ZM547.261 434.764C554.58 419.225 562.163 402.336 569.561 384.876L529.985 368.108C522.814 385.032 515.462 401.405 508.376 416.452L547.261 434.764ZM589.835 334.023C596.435 316.272 602.473 298.569 607.476 281.7L566.269 269.478C561.601 285.215 555.893 301.979 549.548 319.043L589.835 334.023ZM620.206 226.103C621.72 215.066 622.36 204.305 621.494 194.547C620.444 182.724 610.009 173.991 598.186 175.041C586.364 176.091 577.631 186.526 578.68 198.348C579.161 203.767 578.885 211.062 577.623 220.262L620.206 226.103Z" fill="#EF6125"/>
<path d="M662.631 219.041C697.148 184.738 701.165 114.524 666.862 80.0068C632.559 45.49 563.627 47.7739 545.226 100.904C535.722 128.347 545.823 153.333 541.25 157.878C529.817 169.24 513.397 187.393 523.616 208.731C544.591 252.525 628.114 253.344 662.631 219.041Z" fill="#7766C2"/>
</svg>
