<svg width="508" height="442" viewBox="0 0 508 442" fill="none" xmlns="http://www.w3.org/2000/svg">
<rect x="237.684" y="109.698" width="21.4206" height="221.638" transform="rotate(-42.5366 237.684 109.698)" fill="#EF6125"/>
<rect x="387.524" y="273.011" width="21.4206" height="20.5463" transform="rotate(-42.5366 387.524 273.011)" fill="#434040"/>
<rect x="253.467" y="95.217" width="21.4206" height="221.638" transform="rotate(-42.5366 253.467 95.217)" fill="#FFCD1C"/>
<rect x="403.308" y="258.53" width="21.4206" height="20.5463" transform="rotate(-42.5366 403.308 258.53)" fill="#434040"/>
<rect x="269.251" y="80.7354" width="21.4206" height="221.638" transform="rotate(-42.5366 269.251 80.7354)" fill="#EF6125"/>
<rect x="419.092" y="244.048" width="21.4206" height="20.5463" transform="rotate(-42.5366 419.092 244.048)" fill="#434040"/>
<path d="M225.232 53.4253C224.606 50.5962 227.274 48.1484 230.039 49.0151L285.035 66.2537L237.684 109.699L225.232 53.4253Z" fill="#EAE8DC"/>
<path d="M274.068 101.827L253.467 95.2171L269.251 80.7354L274.068 101.827Z" fill="#EAE8DC"/>
<path d="M289.851 87.3451L269.251 80.7349L285.034 66.2533L289.851 87.3451Z" fill="#EAE8DC"/>
<path d="M258.284 116.309L237.684 109.699L253.467 95.2171L258.284 116.309Z" fill="#EAE8DC"/>
<path d="M225.274 53.4837C224.633 50.643 227.318 48.1791 230.093 49.0623L246.869 54.4015L229.153 70.6564L225.274 53.4837Z" fill="#434040"/>
<path d="M401.415 288.151L448.766 244.706L457.714 254.458C466.156 263.66 465.541 277.963 456.339 286.406L442.311 299.277C433.109 307.72 418.805 307.105 410.362 297.903L401.415 288.151Z" fill="#FEA1BD"/>
<path d="M112.347 573.538C182.484 544.612 244.71 517.781 306.854 422.811C349.734 357.282 373.996 255.732 367.881 186.855" stroke="#FEA1BD" stroke-width="42.9817" stroke-linecap="round" stroke-linejoin="round"/>
<path d="M112.347 573.538C182.484 544.612 244.71 517.781 306.854 422.811C349.734 357.282 373.996 255.732 367.881 186.855" stroke="#2B9FE6" stroke-width="42.9817" stroke-linecap="round" stroke-linejoin="round"/>
<path d="M112.347 573.538C182.484 544.612 244.71 517.781 306.854 422.811C349.734 357.282 373.996 255.732 367.881 186.855" stroke="#FEA1BD" stroke-width="42.9817" stroke-linecap="round" stroke-linejoin="round" stroke-dasharray="64.47 64.47"/>
<path d="M112.347 573.538C182.484 544.612 244.71 517.781 306.854 422.811C349.734 357.282 373.996 255.732 367.881 186.855" stroke="#EF6125" stroke-width="42.9817" stroke-linecap="round" stroke-linejoin="round" stroke-dasharray="64.47 64.47"/>
<path d="M430.425 209.449C464.942 175.146 468.959 104.931 434.656 70.4146C400.353 35.8977 331.421 38.1816 313.02 91.3117C303.516 118.755 313.617 143.741 309.044 148.286C297.611 159.648 281.191 177.801 291.41 199.139C312.385 242.933 395.908 243.752 430.425 209.449Z" fill="#7766C2"/>
</svg>
