<svg width="59" height="59" viewBox="0 0 59 59" fill="none" xmlns="http://www.w3.org/2000/svg">
<circle cx="29.5" cy="29.5" r="29.5" fill="#14AE59"/>
<circle cx="29.0545" cy="21.0545" r="11.0545" fill="#D9D9D9"/>
<circle cx="29.0545" cy="21.0546" r="8.66437" fill="#434040"/>
<path d="M40.1091 21.0545C34.4324 21.0545 34.861 21.0545 28.7558 21.0545C22.6505 21.0545 24.573 21.0545 18 21.0545C18 14.9493 22.9493 10 29.0545 10C35.1598 10 40.1091 14.9493 40.1091 21.0545Z" fill="#7766C2"/>
<circle cx="23.5273" cy="23.2655" r="1.10545" fill="#D9D9D9"/>
<path fill-rule="evenodd" clip-rule="evenodd" d="M18 56.6744V37H41V56.6744C37.4661 58.1718 33.5797 59 29.5 59C25.4203 59 21.5339 58.1718 18 56.6744Z" fill="#434040"/>
<path d="M41 37.0191L39.3375 39.9947C38.8396 40.8858 37.5637 40.9037 37.0412 40.0268L35.2486 37.0191L41 37.0191Z" fill="#7766C2"/>
<path d="M23.7512 37.0191L22.0887 39.9947C21.5909 40.8858 20.315 40.9037 19.7924 40.0268L17.9998 37.0191L23.7512 37.0191Z" fill="#7766C2"/>
</svg>
