<svg width="28" height="25" viewBox="0 0 28 25" fill="none" xmlns="http://www.w3.org/2000/svg">
<path d="M24.271 0H2.97937C1.33224 0 0 1.33224 0 2.95515V16.4955C0 18.1184 1.33224 19.4507 2.97937 19.4507H6.12829V24.5132L10.8517 19.4507H24.271C25.9181 19.4507 27.2503 18.1184 27.2503 16.4955V2.95515C27.2503 1.30802 25.9181 0 24.271 0Z" fill="#EAE8DC"/>
<path d="M6.34644 11.627C7.40328 11.627 8.26002 10.7702 8.26002 9.71338C8.26002 8.65654 7.40328 7.7998 6.34644 7.7998C5.2896 7.7998 4.43286 8.65654 4.43286 9.71338C4.43286 10.7702 5.2896 11.627 6.34644 11.627Z" fill="#FEA1BD"/>
<path d="M13.613 11.627C14.6699 11.627 15.5266 10.7702 15.5266 9.71338C15.5266 8.65654 14.6699 7.7998 13.613 7.7998C12.5562 7.7998 11.6995 8.65654 11.6995 9.71338C11.6995 10.7702 12.5562 11.627 13.613 11.627Z" fill="#FEA1BD"/>
<path d="M20.9043 7.7998C21.9701 7.7998 22.8179 8.64759 22.8179 9.71338C22.8179 10.7792 21.9701 11.627 20.9043 11.627C19.8385 11.627 18.9907 10.7792 18.9907 9.71338C18.9907 8.64759 19.8385 7.7998 20.9043 7.7998Z" fill="#FEA1BD"/>
</svg>
