<svg width="27" height="28" viewBox="0 0 27 28" fill="none" xmlns="http://www.w3.org/2000/svg">
<path d="M5.54541 8.25948C6.02529 8.35546 6.24124 8.83534 6.04929 9.31522L4.63364 12.7464C4.44168 13.2263 3.93781 13.3942 3.52991 13.1303L0.482659 11.1868C0.0747599 10.9228 -0.0931986 10.323 0.098754 9.84309L0.818577 8.11552C1.01053 7.63563 1.56239 7.34771 2.04228 7.44368L5.56941 8.23549L5.54541 8.25948Z" fill="#EAE8DC"/>
<path d="M3.53045 15.6964C3.93835 15.4325 4.44223 15.6004 4.63418 16.0803L6.04983 19.5115C6.24178 19.9914 6.02584 20.4472 5.54596 20.5672L2.01882 21.359C1.53894 21.455 0.987079 21.1671 0.795126 20.6872L0.075304 18.9596C-0.116649 18.4797 0.075304 17.8799 0.459209 17.6159L3.50646 15.6724L3.53045 15.6964Z" fill="#EAE8DC"/>
<path d="M7.34615 22.3681C7.44213 21.8882 7.92201 21.6722 8.40189 21.8642L11.833 23.2798C12.3129 23.4718 12.4809 23.9757 12.217 24.3836L10.2734 27.4308C10.0095 27.8387 9.40964 28.0067 8.92976 27.8147L7.20219 27.0949C6.7223 26.9029 6.43438 26.3511 6.53035 25.8712L7.32216 22.3441L7.34615 22.3681Z" fill="#EAE8DC"/>
<path d="M14.7836 24.3836C14.5196 23.9757 14.6876 23.4718 15.1675 23.2798L18.5986 21.8642C19.0785 21.6722 19.5344 21.8882 19.6544 22.3681L20.4462 25.8952C20.5421 26.3751 20.2542 26.9269 19.7743 27.1189L18.0468 27.8387C17.5669 28.0307 16.967 27.8387 16.7031 27.4548L14.7596 24.4076L14.7836 24.3836Z" fill="#EAE8DC"/>
<path d="M21.454 20.5672C20.9741 20.4712 20.7582 19.9913 20.9501 19.5115L22.3658 16.0803C22.5577 15.6004 23.0616 15.4325 23.4695 15.6964L26.5168 17.6399C26.9247 17.9039 27.0926 18.5037 26.9007 18.9836L26.1808 20.7112C25.9889 21.1911 25.437 21.479 24.9571 21.383L21.43 20.5912L21.454 20.5672Z" fill="#EAE8DC"/>
<path d="M23.4695 13.1292C23.0616 13.3932 22.5577 13.2252 22.3658 12.7453L20.9501 9.31418C20.7582 8.83429 20.9741 8.37841 21.454 8.25844L24.9811 7.46663C25.461 7.37066 26.0129 7.65858 26.2048 8.13847L26.9247 9.86604C27.1166 10.3459 26.9247 10.9458 26.5407 11.2097L23.4935 13.1532L23.4695 13.1292Z" fill="#EAE8DC"/>
<path d="M19.6544 6.45899C19.5584 6.93887 19.0785 7.15481 18.5986 6.96286L15.1675 5.54721C14.6876 5.35526 14.5196 4.85138 14.7836 4.44348L16.7271 1.39623C16.991 0.988334 17.5909 0.820376 18.0708 1.01233L19.7983 1.73215C20.2782 1.9241 20.5661 2.47597 20.4702 2.95585L19.6784 6.48298L19.6544 6.45899Z" fill="#EAE8DC"/>
<path d="M12.2164 4.44354C12.4803 4.85144 12.3124 5.35531 11.8325 5.54727L8.40133 6.96292C7.92145 7.15487 7.46556 6.93892 7.34559 6.45904L6.55379 2.93191C6.45781 2.45203 6.74574 1.90017 7.22562 1.70821L8.9532 0.98839C9.43308 0.796437 10.0329 0.98839 10.2969 1.3723L12.2404 4.41954L12.2164 4.44354Z" fill="#EAE8DC"/>
<path d="M13.5119 21.5757C9.55291 21.5757 6.33771 18.3605 6.33771 14.4015C6.33771 10.4425 9.55291 7.22729 13.5119 7.22729C17.471 7.22729 20.6862 10.4425 20.6862 14.4015C20.6862 18.3605 17.471 21.5757 13.5119 21.5757ZM13.5119 3.02832C7.20149 3.02832 2.11475 8.11507 2.11475 14.4255C2.11475 20.736 7.20149 25.8227 13.5119 25.8227C19.8224 25.8227 24.9091 20.712 24.9091 14.4255C24.9091 8.13906 19.7984 3.02832 13.5119 3.02832Z" fill="#EAE8DC"/>
<path d="M13.512 17.7843C11.6405 17.7843 10.1289 16.2727 10.1289 14.4012C10.1289 12.5296 11.6405 11.018 13.512 11.018C15.3836 11.018 16.8952 12.5296 16.8952 14.4012C16.8952 16.2727 15.3836 17.7843 13.512 17.7843ZM13.512 5.54736C8.61723 5.54736 4.6582 9.50639 4.6582 14.4012C4.6582 19.296 8.61723 23.255 13.512 23.255C18.4068 23.255 22.3658 19.296 22.3658 14.4012C22.3658 9.50639 18.4068 5.54736 13.512 5.54736Z" fill="#EAE8DC"/>
<path d="M13.5119 17.7852C11.6403 17.7852 10.1287 16.2735 10.1287 14.402C10.1287 12.5305 11.6403 11.0188 13.5119 11.0188C15.3834 11.0188 16.895 12.5305 16.895 14.402C16.895 16.2735 15.3834 17.7852 13.5119 17.7852ZM13.5119 7.65967C9.79279 7.65967 6.76953 10.6829 6.76953 14.402C6.76953 18.1211 9.79279 21.1443 13.5119 21.1443C17.231 21.1443 20.2542 18.1211 20.2542 14.402C20.2542 10.6829 17.231 7.65967 13.5119 7.65967Z" fill="#EAE8DC"/>
</svg>
