<svg width="30" height="27" viewBox="0 0 30 27" fill="none" xmlns="http://www.w3.org/2000/svg">
<path d="M24.271 2H2.97937C1.33224 2 0 3.33224 0 4.95515V18.4955C0 20.1184 1.33224 21.4507 2.97937 21.4507H6.12829V26.5132L10.8517 21.4507H24.271C25.9181 21.4507 27.2503 20.1184 27.2503 18.4955V4.95515C27.2503 3.30802 25.9181 2 24.271 2Z" fill="#EAE8DC"/>
<path d="M6.34644 13.627C7.40328 13.627 8.26002 12.7702 8.26002 11.7134C8.26002 10.6565 7.40328 9.7998 6.34644 9.7998C5.2896 9.7998 4.43286 10.6565 4.43286 11.7134C4.43286 12.7702 5.2896 13.627 6.34644 13.627Z" fill="#FEA1BD"/>
<path d="M13.613 13.627C14.6699 13.627 15.5266 12.7702 15.5266 11.7134C15.5266 10.6565 14.6699 9.7998 13.613 9.7998C12.5562 9.7998 11.6995 10.6565 11.6995 11.7134C11.6995 12.7702 12.5562 13.627 13.613 13.627Z" fill="#FEA1BD"/>
<path d="M20.9043 9.7998C21.9701 9.7998 22.8179 10.6476 22.8179 11.7134C22.8179 12.7792 21.9701 13.627 20.9043 13.627C19.8385 13.627 18.9907 12.7792 18.9907 11.7134C18.9907 10.6476 19.8385 9.7998 20.9043 9.7998Z" fill="#FEA1BD"/>
<circle cx="26.5" cy="3.5" r="3.5" fill="#14AE59"/>
</svg>
