<svg width="31" height="31" viewBox="0 0 31 31" fill="none" xmlns="http://www.w3.org/2000/svg">
<circle cx="15.5" cy="15.5" r="15.5" fill="#EF6125"/>
<path d="M8.14511 8.10949L8.14511 8.10949L8.14466 8.10993C7.78727 8.4515 7.5819 8.91965 7.5819 9.41301C7.5819 9.90636 7.78727 10.3745 8.14466 10.7161L8.14482 10.7162L12.8016 15.163L8.14488 19.6097C8.14486 19.6097 8.14484 19.6097 8.14482 19.6098C7.78713 19.9512 7.58154 20.4195 7.58154 20.913C7.58154 21.4065 7.78715 21.8748 8.14488 22.2163C8.50182 22.557 8.98111 22.7445 9.47622 22.7445C9.9713 22.7445 10.4506 22.557 10.8075 22.2164C10.8075 22.2163 10.8075 22.2163 10.8076 22.2163L15.5 17.7388L20.1925 22.2163C20.5494 22.557 21.0287 22.7445 21.5238 22.7445C22.0189 22.7445 22.4982 22.557 22.8552 22.2163C23.2129 21.8748 23.4185 21.4065 23.4185 20.913C23.4185 20.4195 23.2129 19.9512 22.8552 19.6097L18.1984 15.163L22.8552 10.7163C23.0321 10.5474 23.1738 10.3455 23.271 10.1217C23.3681 9.89776 23.4185 9.65688 23.4185 9.41301C23.4185 9.16914 23.3681 8.92825 23.271 8.70433C23.1738 8.48047 23.0321 8.27864 22.8552 8.10971C22.6782 7.94083 22.4694 7.80803 22.2413 7.71783C22.0132 7.62763 21.7695 7.58148 21.5238 7.58148C21.2782 7.58148 21.0345 7.62763 20.8063 7.71783C20.5782 7.80803 20.3694 7.94083 20.1925 8.10971L15.5 12.5872L10.8075 8.10965L10.8073 8.10949C10.4503 7.76913 9.97116 7.58182 9.47622 7.58182C8.98128 7.58182 8.50213 7.76913 8.14511 8.10949Z" fill="#EAE8DC" stroke="#EAE8DC" stroke-width="1.01087"/>
</svg>
