<svg width="60" height="60" viewBox="0 0 60 60" fill="none" xmlns="http://www.w3.org/2000/svg">
<circle cx="30" cy="30" r="30" fill="#FFCD1C"/>
<rect x="18.5509" y="31.3048" width="23.8983" height="17.1271" rx="8.56356" fill="#2B9FE6"/>
<rect x="46.0339" y="31.3048" width="7.9661" height="3.58475" rx="1.79237" fill="#2B9FE6"/>
<rect x="7" y="31.3048" width="7.9661" height="3.58475" rx="1.79237" fill="#2B9FE6"/>
<path d="M27.3135 31.3048H33.6864V32.4997C33.6864 34.2595 32.2597 35.6862 30.4999 35.6862C28.7401 35.6862 27.3135 34.2595 27.3135 32.4997V31.3048Z" fill="#D9D9D9"/>
<circle cx="19.5464" cy="26.3262" r="5.77542" fill="#D9D9D9"/>
<circle cx="41.055" cy="26.3262" r="5.77542" fill="#D9D9D9"/>
<circle cx="19.5467" cy="26.3261" r="4.97881" fill="#434040"/>
<circle cx="41.0551" cy="26.3261" r="4.97881" fill="#434040"/>
<circle cx="38.8645" cy="23.7372" r="0.79661" fill="#D9D9D9"/>
<circle cx="17.3559" cy="23.7372" r="0.79661" fill="#D9D9D9"/>
<path fill-rule="evenodd" clip-rule="evenodd" d="M30.0129 9.18883e-07C34.3962 0.00107412 38.5597 0.942189 42.313 2.63271L34.7113 14.4575C32.7431 17.5191 28.2677 17.5191 26.2995 14.4575L18.48 2.29378C22.0263 0.816881 25.9169 0.000999548 29.9979 9.17823e-07C30.0004 3.05953e-07 30.0029 0 30.0054 0C30.0079 0 30.0104 3.06306e-07 30.0129 9.18883e-07Z" fill="#434040"/>
</svg>
