<svg width="29" height="29" viewBox="0 0 29 29" fill="none" xmlns="http://www.w3.org/2000/svg">
<path d="M5.54541 9.25948C6.02529 9.35546 6.24124 9.83534 6.04929 10.3152L4.63364 13.7464C4.44168 14.2263 3.93781 14.3942 3.52991 14.1303L0.482659 12.1868C0.0747599 11.9228 -0.0931986 11.323 0.098754 10.8431L0.818577 9.11552C1.01053 8.63563 1.56239 8.34771 2.04228 8.44368L5.56941 9.23549L5.54541 9.25948Z" fill="#EAE8DC"/>
<path d="M3.53045 16.6964C3.93835 16.4325 4.44223 16.6004 4.63418 17.0803L6.04983 20.5115C6.24178 20.9914 6.02584 21.4472 5.54596 21.5672L2.01882 22.359C1.53894 22.455 0.987079 22.1671 0.795126 21.6872L0.075304 19.9596C-0.116649 19.4797 0.075304 18.8799 0.459209 18.6159L3.50646 16.6724L3.53045 16.6964Z" fill="#EAE8DC"/>
<path d="M7.34615 23.3681C7.44213 22.8882 7.92201 22.6722 8.40189 22.8642L11.833 24.2798C12.3129 24.4718 12.4809 24.9757 12.217 25.3836L10.2734 28.4308C10.0095 28.8387 9.40964 29.0067 8.92976 28.8147L7.20219 28.0949C6.7223 27.9029 6.43438 27.3511 6.53035 26.8712L7.32216 23.3441L7.34615 23.3681Z" fill="#EAE8DC"/>
<path d="M14.7836 25.3836C14.5196 24.9757 14.6876 24.4718 15.1675 24.2798L18.5986 22.8642C19.0785 22.6722 19.5344 22.8882 19.6544 23.3681L20.4462 26.8952C20.5421 27.3751 20.2542 27.9269 19.7743 28.1189L18.0468 28.8387C17.5669 29.0307 16.967 28.8387 16.7031 28.4548L14.7596 25.4076L14.7836 25.3836Z" fill="#EAE8DC"/>
<path d="M21.454 21.5672C20.9741 21.4712 20.7582 20.9913 20.9501 20.5115L22.3658 17.0803C22.5577 16.6004 23.0616 16.4325 23.4695 16.6964L26.5168 18.6399C26.9247 18.9039 27.0926 19.5037 26.9007 19.9836L26.1808 21.7112C25.9889 22.1911 25.437 22.479 24.9571 22.383L21.43 21.5912L21.454 21.5672Z" fill="#EAE8DC"/>
<path d="M23.4695 14.1292C23.0616 14.3932 22.5577 14.2252 22.3658 13.7453L20.9501 10.3142C20.7582 9.83429 20.9741 9.37841 21.454 9.25844L24.9811 8.46663C25.461 8.37066 26.0129 8.65858 26.2048 9.13847L26.9247 10.866C27.1166 11.3459 26.9247 11.9458 26.5407 12.2097L23.4935 14.1532L23.4695 14.1292Z" fill="#EAE8DC"/>
<path d="M19.6544 7.45899C19.5584 7.93887 19.0785 8.15481 18.5986 7.96286L15.1675 6.54721C14.6876 6.35526 14.5196 5.85138 14.7836 5.44348L16.7271 2.39623C16.991 1.98833 17.5909 1.82038 18.0708 2.01233L19.7983 2.73215C20.2782 2.9241 20.5661 3.47597 20.4702 3.95585L19.6784 7.48298L19.6544 7.45899Z" fill="#EAE8DC"/>
<path d="M12.2164 5.44354C12.4803 5.85144 12.3124 6.35531 11.8325 6.54727L8.40133 7.96292C7.92145 8.15487 7.46556 7.93892 7.34559 7.45904L6.55379 3.93191C6.45781 3.45203 6.74574 2.90017 7.22562 2.70821L8.9532 1.98839C9.43308 1.79644 10.0329 1.98839 10.2969 2.3723L12.2404 5.41954L12.2164 5.44354Z" fill="#EAE8DC"/>
<path d="M13.5119 22.5757C9.55291 22.5757 6.33771 19.3605 6.33771 15.4015C6.33771 11.4425 9.55291 8.22729 13.5119 8.22729C17.471 8.22729 20.6862 11.4425 20.6862 15.4015C20.6862 19.3605 17.471 22.5757 13.5119 22.5757ZM13.5119 4.02832C7.20149 4.02832 2.11475 9.11507 2.11475 15.4255C2.11475 21.736 7.20149 26.8227 13.5119 26.8227C19.8224 26.8227 24.9091 21.712 24.9091 15.4255C24.9091 9.13906 19.7984 4.02832 13.5119 4.02832Z" fill="#EAE8DC"/>
<path d="M13.512 18.7843C11.6405 18.7843 10.1289 17.2727 10.1289 15.4012C10.1289 13.5296 11.6405 12.018 13.512 12.018C15.3836 12.018 16.8952 13.5296 16.8952 15.4012C16.8952 17.2727 15.3836 18.7843 13.512 18.7843ZM13.512 6.54736C8.61723 6.54736 4.6582 10.5064 4.6582 15.4012C4.6582 20.296 8.61723 24.255 13.512 24.255C18.4068 24.255 22.3658 20.296 22.3658 15.4012C22.3658 10.5064 18.4068 6.54736 13.512 6.54736Z" fill="#EAE8DC"/>
<path d="M13.5119 18.7852C11.6403 18.7852 10.1287 17.2735 10.1287 15.402C10.1287 13.5305 11.6403 12.0188 13.5119 12.0188C15.3834 12.0188 16.895 13.5305 16.895 15.402C16.895 17.2735 15.3834 18.7852 13.5119 18.7852ZM13.5119 8.65967C9.79279 8.65967 6.76953 11.6829 6.76953 15.402C6.76953 19.1211 9.79279 22.1443 13.5119 22.1443C17.231 22.1443 20.2542 19.1211 20.2542 15.402C20.2542 11.6829 17.231 8.65967 13.5119 8.65967Z" fill="#EAE8DC"/>
<circle cx="25.5" cy="3.5" r="3.5" fill="#FA0606"/>
</svg>
