<svg width="470" height="433" viewBox="0 0 470 433" fill="none" xmlns="http://www.w3.org/2000/svg">
<rect width="470" height="433" rx="20" fill="#EAE8DC"/>
<path d="M91.1699 323.5C93.0944 320.167 97.9056 320.167 99.8301 323.5L136.636 387.25C138.561 390.583 136.155 394.75 132.306 394.75H58.6939C54.8449 394.75 52.4393 390.583 54.3638 387.25L91.1699 323.5Z" fill="#14AE59"/>
<path fill-rule="evenodd" clip-rule="evenodd" d="M91.1713 323.488C93.0965 320.158 97.9035 320.158 99.8287 323.488L126.863 370.25H64.1367L91.1713 323.488Z" fill="#FFCD1C"/>
<path fill-rule="evenodd" clip-rule="evenodd" d="M91.002 323.497C92.9272 320.167 97.7343 320.167 99.6594 323.497L113.536 347.5H77.125L91.002 323.497Z" fill="#EF6125"/>
<path d="M91.1362 95.5C93.0607 92.1667 97.872 92.1667 99.7965 95.5L136.603 159.25C138.527 162.583 136.121 166.75 132.272 166.75H58.6603C54.8113 166.75 52.4056 162.583 54.3301 159.25L91.1362 95.5Z" fill="#14AE59"/>
<path fill-rule="evenodd" clip-rule="evenodd" d="M91.1378 95.4875C93.0629 92.1575 97.87 92.1575 99.7951 95.4875L126.83 142.25H64.1032L91.1378 95.4875Z" fill="#D9D9D9"/>
<path fill-rule="evenodd" clip-rule="evenodd" d="M91.1345 95.4965C93.0597 92.1665 97.8667 92.1665 99.7919 95.4965L113.669 119.5H77.2574L91.1345 95.4965Z" fill="#9F9F9F"/>
<path d="M91.1699 208.5C93.0944 205.167 97.9056 205.167 99.8301 208.5L136.636 272.25C138.561 275.583 136.155 279.75 132.306 279.75H58.6939C54.8449 279.75 52.4393 275.583 54.3638 272.25L91.1699 208.5Z" fill="#14AE59"/>
<path d="M91.1699 208.5C93.0944 205.167 97.9056 205.167 99.8301 208.5L136.636 272.25C138.561 275.583 136.155 279.75 132.306 279.75H58.6939C54.8449 279.75 52.4393 275.583 54.3638 272.25L91.1699 208.5Z" fill="#14AE59"/>
<path fill-rule="evenodd" clip-rule="evenodd" d="M91.1713 208.487C93.0964 205.157 97.9035 205.157 99.8286 208.487L126.863 255.25H64.1367L91.1713 208.487Z" fill="#FFCD1C"/>
<path fill-rule="evenodd" clip-rule="evenodd" d="M91.168 208.497C93.0931 205.167 97.9002 205.167 99.8253 208.497L113.702 232.5H77.2909L91.168 208.497Z" fill="#9F9F9F"/>
<path d="M188.749 158.264C188.377 158.264 188.037 158.173 187.729 157.992C187.421 157.807 187.175 157.561 186.991 157.253C186.809 156.945 186.718 156.605 186.718 156.233C186.718 155.857 186.809 155.517 186.991 155.213C187.175 154.905 187.421 154.66 187.729 154.479C188.037 154.294 188.377 154.202 188.749 154.202C189.125 154.202 189.465 154.294 189.77 154.479C190.077 154.66 190.322 154.905 190.504 155.213C190.688 155.517 190.781 155.857 190.781 156.233C190.781 156.605 190.688 156.945 190.504 157.253C190.322 157.561 190.077 157.807 189.77 157.992C189.465 158.173 189.125 158.264 188.749 158.264ZM199.033 158.388H209.927V159.792H199.033V158.388ZM203.609 156.074H205.338V159.116H203.609V156.074ZM203.596 151.628H205.13V151.888C205.13 154.189 203.297 156.048 199.995 156.477L199.371 155.112C202.296 154.761 203.596 153.266 203.596 151.888V151.628ZM203.83 151.628H205.351V151.888C205.351 153.266 206.651 154.761 209.576 155.112L208.952 156.477C205.65 156.048 203.83 154.189 203.83 151.888V151.628ZM199.956 150.744H208.991V152.135H199.956V150.744ZM203.609 149.275H205.338V151.316H203.609V149.275ZM213.774 149.743H215.217V150.822C215.217 153.24 214.138 155.359 211.772 156.152L210.875 154.761C212.929 154.098 213.774 152.473 213.774 150.822V149.743ZM214.138 149.743H215.529V150.744C215.529 152.343 216.309 153.825 218.22 154.436L217.323 155.788C215.1 155.021 214.138 153.084 214.138 150.744V149.743ZM219.325 149.119H221.054V156.165H219.325V149.119ZM216.972 156.477C219.52 156.477 221.093 157.348 221.093 158.817C221.093 160.299 219.52 161.157 216.972 161.157C214.424 161.157 212.851 160.299 212.851 158.817C212.851 157.348 214.424 156.477 216.972 156.477ZM216.972 157.816C215.412 157.816 214.58 158.141 214.58 158.817C214.58 159.493 215.412 159.831 216.972 159.831C218.545 159.831 219.377 159.493 219.377 158.817C219.377 158.141 218.545 157.816 216.972 157.816ZM217.128 151.303H219.572V152.707H217.128V151.303ZM223.445 150.315H228.632V151.68H223.445V150.315ZM224.992 153.76H226.695V157.842H224.992V153.76ZM227.943 150.315H229.646V151.29C229.646 152.46 229.646 153.916 229.321 155.918L227.631 155.762C227.943 153.838 227.943 152.447 227.943 151.29V150.315ZM230.673 149.119H232.402V161.157H230.673V149.119ZM231.895 153.955H234.014V155.385H231.895V153.955ZM222.99 158.726L222.834 157.335C224.953 157.335 227.761 157.296 230.127 156.997L230.218 158.258C227.787 158.674 225.083 158.726 222.99 158.726ZM239.245 149.6H246.876V150.965H239.245V149.6ZM237.919 153.357H248.813V154.722H237.919V153.357ZM245.836 149.6H247.539V150.419C247.539 151.277 247.539 152.369 247.227 153.76L245.524 153.604C245.836 152.239 245.836 151.264 245.836 150.419V149.6ZM239.128 155.541H247.5V158.934H240.87V160.156H239.141V157.66H245.784V156.88H239.128V155.541ZM239.141 159.74H247.812V161.079H239.141V159.74ZM252.569 151.017H253.934V152.369C253.934 155.086 252.79 157.855 250.58 158.895L249.605 157.53C251.594 156.594 252.569 154.345 252.569 152.369V151.017ZM252.933 151.017H254.298V152.369C254.298 154.189 255.234 156.321 257.21 157.231L256.261 158.596C254.051 157.569 252.933 154.93 252.933 152.369V151.017ZM250.073 150.276H256.677V151.693H250.073V150.276ZM257.561 149.119H259.303V161.157H257.561V149.119ZM258.913 153.708H261.045V155.138H258.913V153.708ZM266.361 149.47H267.882V150.029C267.882 152.343 266.062 154.306 262.903 154.774L262.227 153.383C264.996 153.019 266.361 151.446 266.361 150.029V149.47ZM266.686 149.47H268.194V150.029C268.194 151.433 269.572 153.019 272.328 153.383L271.665 154.774C268.506 154.306 266.686 152.343 266.686 150.029V149.47ZM266.374 156.75H268.09V161.157H266.374V156.75ZM261.837 155.658H272.718V157.062H261.837V155.658ZM281.479 149.106H283.221V161.144H281.479V149.106ZM282.766 153.708H284.885V155.125H282.766V153.708ZM278.32 150.354H280.01C280.01 153.968 278.632 157.062 274.628 159.077L273.666 157.764C276.825 156.126 278.32 153.916 278.32 150.653V150.354ZM274.329 150.354H279.204V151.745H274.329V150.354ZM297.733 153.669H299.852V155.086H297.733V153.669ZM296.446 149.106H298.188V161.144H296.446V149.106ZM289.114 150.263H290.843V157.738H289.114V150.263ZM289.114 156.776H290.154C291.87 156.776 293.729 156.659 295.666 156.269L295.848 157.686C293.859 158.102 291.922 158.206 290.154 158.206H289.114V156.776ZM301.177 157.036H302.191C304.219 157.036 305.766 157.01 307.56 156.724L307.716 158.102C305.896 158.388 304.258 158.44 302.191 158.44H301.177V157.036ZM301.177 150.12H306.832V151.524H302.919V157.491H301.177V150.12ZM302.503 153.461H306.663V154.813H302.503V153.461ZM308.405 149.119H310.147V161.157H308.405V149.119ZM309.757 153.682H311.889V155.112H309.757V153.682ZM321.651 153.669H323.77V155.086H321.651V153.669ZM320.364 149.106H322.106V161.144H320.364V149.106ZM313.032 150.263H314.761V157.738H313.032V150.263ZM313.032 156.776H314.072C315.788 156.776 317.647 156.659 319.584 156.269L319.766 157.686C317.777 158.102 315.84 158.206 314.072 158.206H313.032V156.776ZM327.032 155.229H328.748V158.609H327.032V155.229ZM331.4 155.229H333.129V158.609H331.4V155.229ZM324.64 158.362H335.534V159.766H324.64V158.362ZM330.074 149.704C332.661 149.704 334.572 150.978 334.572 152.941C334.572 154.904 332.661 156.165 330.074 156.165C327.474 156.165 325.576 154.904 325.576 152.941C325.576 150.978 327.474 149.704 330.074 149.704ZM330.074 151.056C328.397 151.056 327.279 151.745 327.279 152.941C327.279 154.124 328.397 154.826 330.074 154.826C331.751 154.826 332.869 154.124 332.869 152.941C332.869 151.745 331.751 151.056 330.074 151.056Z" fill="#434040"/>
<path d="M188.749 270.996C188.377 270.996 188.037 270.905 187.729 270.724C187.421 270.539 187.175 270.293 186.991 269.985C186.809 269.677 186.718 269.337 186.718 268.965C186.718 268.589 186.809 268.249 186.991 267.945C187.175 267.637 187.421 267.392 187.729 267.211C188.037 267.026 188.377 266.934 188.749 266.934C189.125 266.934 189.465 267.026 189.77 267.211C190.077 267.392 190.322 267.637 190.504 267.945C190.688 268.249 190.781 268.589 190.781 268.965C190.781 269.337 190.688 269.677 190.504 269.985C190.322 270.293 190.077 270.539 189.77 270.724C189.465 270.905 189.125 270.996 188.749 270.996ZM200.359 262.332H207.99V263.697H200.359V262.332ZM199.033 266.089H209.927V267.454H199.033V266.089ZM206.95 262.332H208.653V263.151C208.653 264.009 208.653 265.101 208.341 266.492L206.638 266.336C206.95 264.971 206.95 263.996 206.95 263.151V262.332ZM200.242 268.273H208.614V271.666H201.984V272.888H200.255V270.392H206.898V269.612H200.242V268.273ZM200.255 272.472H208.926V273.811H200.255V272.472ZM213.683 263.749H215.048V265.101C215.048 267.818 213.904 270.587 211.694 271.627L210.719 270.262C212.708 269.326 213.683 267.077 213.683 265.101V263.749ZM214.047 263.749H215.412V265.101C215.412 266.921 216.348 269.053 218.324 269.963L217.375 271.328C215.165 270.301 214.047 267.662 214.047 265.101V263.749ZM211.187 263.008H217.791V264.425H211.187V263.008ZM218.675 261.851H220.417V273.889H218.675V261.851ZM220.027 266.44H222.159V267.87H220.027V266.44ZM227.475 262.202H228.996V262.761C228.996 265.075 227.176 267.038 224.017 267.506L223.341 266.115C226.11 265.751 227.475 264.178 227.475 262.761V262.202ZM227.8 262.202H229.308V262.761C229.308 264.165 230.686 265.751 233.442 266.115L232.779 267.506C229.62 267.038 227.8 265.075 227.8 262.761V262.202ZM227.488 269.482H229.204V273.889H227.488V269.482ZM222.951 268.39H233.832V269.794H222.951V268.39ZM235.248 262.839H240.981V268.65H235.248V262.839ZM239.278 264.204H236.951V267.285H239.278V264.204ZM242.645 261.851H244.374V270.626H242.645V261.851ZM243.88 265.322H245.973V266.739H243.88V265.322ZM236.613 272.303H244.803V273.681H236.613V272.303ZM236.613 269.768H238.342V272.992H236.613V269.768ZM258.848 266.401H260.967V267.818H258.848V266.401ZM257.561 261.838H259.303V273.876H257.561V261.838ZM250.229 262.995H251.958V270.47H250.229V262.995ZM250.229 269.508H251.269C252.985 269.508 254.844 269.391 256.781 269.001L256.963 270.418C254.974 270.834 253.037 270.938 251.269 270.938H250.229V269.508ZM262.292 269.768H263.306C265.334 269.768 266.881 269.742 268.675 269.456L268.831 270.834C267.011 271.12 265.373 271.172 263.306 271.172H262.292V269.768ZM262.292 262.852H267.947V264.256H264.034V270.223H262.292V262.852ZM263.618 266.193H267.778V267.545H263.618V266.193ZM269.52 261.851H271.262V273.889H269.52V261.851ZM270.872 266.414H273.004V267.844H270.872V266.414ZM282.766 266.401H284.885V267.818H282.766V266.401ZM281.479 261.838H283.221V273.876H281.479V261.838ZM274.147 262.995H275.876V270.47H274.147V262.995ZM274.147 269.508H275.187C276.903 269.508 278.762 269.391 280.699 269.001L280.881 270.418C278.892 270.834 276.955 270.938 275.187 270.938H274.147V269.508ZM288.147 267.961H289.863V271.341H288.147V267.961ZM292.515 267.961H294.244V271.341H292.515V267.961ZM285.755 271.094H296.649V272.498H285.755V271.094ZM291.189 262.436C293.776 262.436 295.687 263.71 295.687 265.673C295.687 267.636 293.776 268.897 291.189 268.897C288.589 268.897 286.691 267.636 286.691 265.673C286.691 263.71 288.589 262.436 291.189 262.436ZM291.189 263.788C289.512 263.788 288.394 264.477 288.394 265.673C288.394 266.856 289.512 267.558 291.189 267.558C292.866 267.558 293.984 266.856 293.984 265.673C293.984 264.477 292.866 263.788 291.189 263.788Z" fill="#434040"/>
<path d="M188.749 385.996C188.377 385.996 188.037 385.905 187.729 385.724C187.421 385.539 187.175 385.293 186.991 384.985C186.809 384.677 186.718 384.337 186.718 383.965C186.718 383.589 186.809 383.249 186.991 382.945C187.175 382.637 187.421 382.392 187.729 382.211C188.037 382.026 188.377 381.934 188.749 381.934C189.125 381.934 189.465 382.026 189.77 382.211C190.077 382.392 190.322 382.637 190.504 382.945C190.688 383.249 190.781 383.589 190.781 383.965C190.781 384.337 190.688 384.677 190.504 384.985C190.322 385.293 190.077 385.539 189.77 385.724C189.465 385.905 189.125 385.996 188.749 385.996ZM202.244 377.683C204.077 377.683 205.403 379.347 205.403 381.973C205.403 384.625 204.077 386.289 202.244 386.289C200.411 386.289 199.085 384.625 199.085 381.973C199.085 379.347 200.411 377.683 202.244 377.683ZM202.244 379.256C201.347 379.256 200.749 380.205 200.749 381.973C200.749 383.767 201.347 384.729 202.244 384.729C203.141 384.729 203.752 383.767 203.752 381.973C203.752 380.205 203.141 379.256 202.244 379.256ZM206.716 376.851H208.458V388.889H206.716V376.851ZM208.068 381.388H210.2V382.818H208.068V381.388ZM210.979 383.585H221.886V384.963H210.979V383.585ZM215.529 384.469H217.245V388.889H215.529V384.469ZM212.24 377.436H220.586V382.298H212.24V377.436ZM218.883 378.801H213.943V380.933H218.883V378.801ZM223.393 382.792H224.381C226.63 382.792 228.034 382.753 229.633 382.493L229.763 383.871C228.125 384.131 226.669 384.17 224.381 384.17H223.393V382.792ZM223.38 377.644H228.814V381.505H225.109V383.689H223.393V380.205H227.111V379.022H223.38V377.644ZM231.284 376.864H233.013V385.717H231.284V376.864ZM225.005 387.303H233.312V388.681H225.005V387.303ZM225.005 385.015H226.734V387.745H225.005V385.015ZM229.399 379.737H231.622V381.193H229.399V379.737ZM246.174 376.851H247.916V385.873H246.174V376.851ZM239.895 387.303H248.215V388.681H239.895V387.303ZM239.895 385.171H241.624V387.563H239.895V385.171ZM238.049 378.138H245.29V379.49H238.049V378.138ZM241.676 379.893C243.444 379.893 244.692 380.842 244.692 382.22C244.692 383.611 243.444 384.534 241.676 384.534C239.921 384.534 238.673 383.611 238.673 382.22C238.673 380.842 239.921 379.893 241.676 379.893ZM241.676 381.219C240.87 381.219 240.311 381.583 240.311 382.22C240.311 382.87 240.87 383.221 241.676 383.221C242.495 383.221 243.041 382.87 243.041 382.22C243.041 381.583 242.495 381.219 241.676 381.219ZM240.805 376.838H242.547V378.918H240.805V376.838ZM251.152 383.052H259.615V384.404H251.152V383.052ZM249.878 386.107H260.772V387.511H249.878V386.107ZM251.152 377.722H259.511V379.113H252.907V383.429H251.152V377.722ZM252.374 380.374H259.238V381.713H252.374V380.374ZM263.098 382.22H271.561V383.598H263.098V382.22ZM261.837 386.12H272.731V387.537H261.837V386.12ZM266.4 382.844H268.129V386.575H266.4V382.844ZM263.098 377.67H271.47V379.061H264.827V382.818H263.098V377.67ZM285.488 376.851H287.126V388.889H285.488V376.851ZM281.523 380.959H283.512V382.363H281.523V380.959ZM283.057 377.046H284.669V388.343H283.057V377.046ZM278.923 378.814H280.223V380.049C280.223 382.753 279.482 385.444 277.571 386.64L276.544 385.366C278.312 384.261 278.923 382.103 278.923 380.049V378.814ZM279.313 378.814H280.6V380.049C280.6 382.051 281.198 384.079 282.94 385.093L281.926 386.354C280.015 385.223 279.313 382.701 279.313 380.049V378.814ZM276.999 378.06H282.368V379.451H276.999V378.06ZM294.132 384.339C296.732 384.339 298.396 385.197 298.396 386.627C298.396 388.031 296.732 388.889 294.132 388.889C291.532 388.889 289.868 388.031 289.868 386.627C289.868 385.197 291.532 384.339 294.132 384.339ZM294.132 385.639C292.507 385.639 291.584 385.977 291.584 386.627C291.584 387.264 292.507 387.589 294.132 387.589C295.757 387.589 296.68 387.264 296.68 386.627C296.68 385.977 295.757 385.639 294.132 385.639ZM289.998 377.384H297.616V378.749H289.998V377.384ZM288.776 382.22H299.618V383.598H288.776V382.22ZM292.793 380.127H294.509V382.571H292.793V380.127ZM296.615 377.384H298.331V378.372C298.331 379.321 298.331 380.348 298.006 381.596L296.29 381.414C296.615 380.179 296.615 379.308 296.615 378.372V377.384ZM301.528 381.726H307.82V383.104H301.528V381.726ZM303.79 382.844H305.532V385.379H303.79V382.844ZM301.528 377.917H307.742V379.282H303.257V382.155H301.528V377.917ZM309.029 376.838H310.758V388.915H309.029V376.838ZM300.969 386.536L300.761 385.145C303.062 385.145 305.896 385.132 308.366 384.859L308.496 386.12C305.896 386.523 303.205 386.549 300.969 386.536ZM315.567 378.749H316.945V380.101C316.945 382.883 315.814 385.6 313.552 386.627L312.577 385.262C314.592 384.365 315.567 382.142 315.567 380.101V378.749ZM315.957 378.749H317.322V380.101C317.322 382.051 318.284 384.131 320.299 384.963L319.363 386.328C317.075 385.34 315.957 382.779 315.957 380.101V378.749ZM313.058 378.008H319.805V379.425H313.058V378.008ZM320.923 376.851H322.665V388.889H320.923V376.851ZM330.925 377.423C332.771 377.423 334.136 378.593 334.136 380.231C334.136 381.882 332.771 383.052 330.925 383.052C329.092 383.052 327.714 381.882 327.714 380.231C327.714 378.593 329.092 377.423 330.925 377.423ZM330.925 378.827C330.054 378.827 329.391 379.36 329.391 380.231C329.391 381.115 330.054 381.648 330.925 381.648C331.809 381.648 332.472 381.115 332.472 380.231C332.472 379.36 331.809 378.827 330.925 378.827ZM335.384 376.851H337.113V382.779H335.384V376.851ZM336.424 379.347H338.712V380.751H336.424V379.347ZM328.702 387.199H329.365C330.418 387.199 331.341 387.121 332.225 386.822L332.485 388.174C331.484 388.525 330.548 388.577 329.365 388.577H328.702V387.199ZM328.702 383.936H330.379V387.615H328.702V383.936ZM332.056 383.975H338.075V385.21H332.056V383.975ZM335.072 385.509C336.437 385.509 337.386 386.172 337.386 387.212C337.386 388.252 336.437 388.902 335.072 388.902C333.694 388.902 332.745 388.252 332.745 387.212C332.745 386.172 333.694 385.509 335.072 385.509ZM335.072 386.692C334.604 386.692 334.279 386.861 334.279 387.212C334.279 387.563 334.604 387.732 335.072 387.732C335.514 387.732 335.852 387.563 335.852 387.212C335.852 386.861 335.514 386.692 335.072 386.692ZM334.24 383.117H335.917V384.898H334.24V383.117ZM342.819 377.683C344.652 377.683 345.978 379.347 345.978 381.973C345.978 384.625 344.652 386.289 342.819 386.289C340.986 386.289 339.66 384.625 339.66 381.973C339.66 379.347 340.986 377.683 342.819 377.683ZM342.819 379.256C341.922 379.256 341.324 380.205 341.324 381.973C341.324 383.767 341.922 384.729 342.819 384.729C343.716 384.729 344.327 383.767 344.327 381.973C344.327 380.205 343.716 379.256 342.819 379.256ZM347.291 376.851H349.033V388.889H347.291V376.851ZM348.643 381.388H350.775V382.818H348.643V381.388ZM353.959 382.961H355.675V386.341H353.959V382.961ZM358.327 382.961H360.056V386.341H358.327V382.961ZM351.567 386.094H362.461V387.498H351.567V386.094ZM357.001 377.436C359.588 377.436 361.499 378.71 361.499 380.673C361.499 382.636 359.588 383.897 357.001 383.897C354.401 383.897 352.503 382.636 352.503 380.673C352.503 378.71 354.401 377.436 357.001 377.436ZM357.001 378.788C355.324 378.788 354.206 379.477 354.206 380.673C354.206 381.856 355.324 382.558 357.001 382.558C358.678 382.558 359.796 381.856 359.796 380.673C359.796 379.477 358.678 378.788 357.001 378.788ZM366.128 378.277L365.948 384.897H364.258L364.073 378.277H366.128ZM365.103 387.852C364.798 387.852 364.537 387.744 364.318 387.529C364.1 387.31 363.992 387.049 363.995 386.744C363.992 386.442 364.1 386.184 364.318 385.968C364.537 385.753 364.798 385.645 365.103 385.645C365.395 385.645 365.652 385.753 365.874 385.968C366.095 386.184 366.208 386.442 366.211 386.744C366.208 386.947 366.154 387.133 366.049 387.303C365.948 387.469 365.814 387.603 365.648 387.704C365.481 387.803 365.3 387.852 365.103 387.852Z" fill="#434040"/>
<rect x="200" y="211" width="211.805" height="40.7318" rx="10.4739" fill="#EAE7DC"/>
<rect x="203.873" y="214.873" width="204.241" height="33.1673" rx="7.85542" fill="#EAE8DC" stroke="#14AE59" stroke-width="1.74565"/>
<circle cx="271.819" cy="231.819" r="5.81883" fill="#14AE59"/>
<circle cx="287.53" cy="231.819" r="5.81883" fill="#14AE59"/>
<circle cx="324.77" cy="231.819" r="5.81883" fill="#14AE59"/>
<circle cx="303.241" cy="231.819" r="5.81883" fill="#14AE59"/>
<circle cx="340.481" cy="231.819" r="5.81883" fill="#14AE59"/>
<rect x="200" y="326" width="211.805" height="40.7318" rx="10.4739" fill="#EAE7DC"/>
<rect x="203.815" y="329.815" width="204.241" height="33.1673" rx="7.85542" fill="#EAE8DC" stroke="#14AE59" stroke-width="1.74565"/>
<path d="M294.438 349.58V349.374C294.442 348.668 294.504 348.105 294.625 347.686C294.75 347.266 294.932 346.927 295.17 346.669C295.408 346.411 295.694 346.177 296.029 345.967C296.279 345.806 296.503 345.638 296.701 345.465C296.899 345.291 297.056 345.1 297.173 344.89C297.29 344.676 297.349 344.438 297.349 344.176C297.349 343.897 297.282 343.653 297.149 343.444C297.016 343.234 296.836 343.072 296.61 342.959C296.388 342.846 296.142 342.79 295.872 342.79C295.61 342.79 295.362 342.849 295.128 342.966C294.894 343.078 294.702 343.248 294.553 343.474C294.403 343.696 294.323 343.972 294.311 344.303H291.842C291.862 343.496 292.055 342.83 292.422 342.306C292.79 341.777 293.276 341.384 293.881 341.126C294.486 340.864 295.154 340.732 295.884 340.732C296.687 340.732 297.397 340.866 298.014 341.132C298.632 341.394 299.116 341.775 299.467 342.276C299.818 342.776 299.993 343.379 299.993 344.085C299.993 344.557 299.915 344.977 299.757 345.344C299.604 345.707 299.388 346.03 299.11 346.312C298.831 346.591 298.503 346.843 298.123 347.069C297.805 347.258 297.542 347.456 297.337 347.662C297.135 347.867 296.984 348.105 296.883 348.376C296.786 348.646 296.735 348.979 296.731 349.374V349.58H294.438ZM295.636 353.453C295.233 353.453 294.888 353.312 294.601 353.03C294.319 352.743 294.18 352.4 294.184 352.001C294.18 351.605 294.319 351.267 294.601 350.984C294.888 350.702 295.233 350.56 295.636 350.56C296.019 350.56 296.356 350.702 296.647 350.984C296.937 351.267 297.084 351.605 297.088 352.001C297.084 352.267 297.014 352.511 296.877 352.733C296.743 352.951 296.568 353.126 296.35 353.26C296.132 353.389 295.894 353.453 295.636 353.453ZM304.024 349.58V349.374C304.028 348.668 304.09 348.105 304.211 347.686C304.336 347.266 304.518 346.927 304.756 346.669C304.994 346.411 305.281 346.177 305.615 345.967C305.866 345.806 306.089 345.638 306.287 345.465C306.485 345.291 306.642 345.1 306.759 344.89C306.876 344.676 306.935 344.438 306.935 344.176C306.935 343.897 306.868 343.653 306.735 343.444C306.602 343.234 306.422 343.072 306.196 342.959C305.974 342.846 305.728 342.79 305.458 342.79C305.196 342.79 304.948 342.849 304.714 342.966C304.48 343.078 304.288 343.248 304.139 343.474C303.989 343.696 303.909 343.972 303.897 344.303H301.428C301.448 343.496 301.641 342.83 302.009 342.306C302.376 341.777 302.862 341.384 303.467 341.126C304.072 340.864 304.74 340.732 305.47 340.732C306.273 340.732 306.983 340.866 307.6 341.132C308.218 341.394 308.702 341.775 309.053 342.276C309.404 342.776 309.579 343.379 309.579 344.085C309.579 344.557 309.501 344.977 309.343 345.344C309.19 345.707 308.974 346.03 308.696 346.312C308.417 346.591 308.089 346.843 307.709 347.069C307.391 347.258 307.128 347.456 306.923 347.662C306.721 347.867 306.57 348.105 306.469 348.376C306.372 348.646 306.321 348.979 306.317 349.374V349.58H304.024ZM305.222 353.453C304.819 353.453 304.474 353.312 304.187 353.03C303.905 352.743 303.766 352.4 303.77 352.001C303.766 351.605 303.905 351.267 304.187 350.984C304.474 350.702 304.819 350.56 305.222 350.56C305.605 350.56 305.942 350.702 306.233 350.984C306.523 351.267 306.67 351.605 306.674 352.001C306.67 352.267 306.6 352.511 306.463 352.733C306.329 352.951 306.154 353.126 305.936 353.26C305.718 353.389 305.48 353.453 305.222 353.453ZM313.61 349.58V349.374C313.614 348.668 313.676 348.105 313.797 347.686C313.922 347.266 314.104 346.927 314.342 346.669C314.58 346.411 314.867 346.177 315.201 345.967C315.452 345.806 315.675 345.638 315.873 345.465C316.071 345.291 316.228 345.1 316.345 344.89C316.462 344.676 316.521 344.438 316.521 344.176C316.521 343.897 316.454 343.653 316.321 343.444C316.188 343.234 316.008 343.072 315.782 342.959C315.56 342.846 315.314 342.79 315.044 342.79C314.782 342.79 314.534 342.849 314.3 342.966C314.066 343.078 313.874 343.248 313.725 343.474C313.575 343.696 313.495 343.972 313.483 344.303H311.014C311.034 343.496 311.227 342.83 311.595 342.306C311.962 341.777 312.448 341.384 313.053 341.126C313.658 340.864 314.326 340.732 315.056 340.732C315.859 340.732 316.569 340.866 317.186 341.132C317.804 341.394 318.288 341.775 318.639 342.276C318.99 342.776 319.165 343.379 319.165 344.085C319.165 344.557 319.087 344.977 318.929 345.344C318.776 345.707 318.56 346.03 318.282 346.312C318.003 346.591 317.675 346.843 317.295 347.069C316.977 347.258 316.714 347.456 316.509 347.662C316.307 347.867 316.156 348.105 316.055 348.376C315.958 348.646 315.907 348.979 315.903 349.374V349.58H313.61ZM314.808 353.453C314.405 353.453 314.06 353.312 313.773 353.03C313.491 352.743 313.352 352.4 313.356 352.001C313.352 351.605 313.491 351.267 313.773 350.984C314.06 350.702 314.405 350.56 314.808 350.56C315.191 350.56 315.528 350.702 315.819 350.984C316.109 351.267 316.256 351.605 316.26 352.001C316.256 352.267 316.186 352.511 316.049 352.733C315.916 352.951 315.74 353.126 315.522 353.26C315.304 353.389 315.066 353.453 314.808 353.453Z" fill="#14AE59"/>
<rect x="31" y="74" width="36" height="21" rx="10.5" fill="#434040"/>
<path d="M39.7761 89V80.2727H41.6213V87.4787H45.3627V89H39.7761ZM51.8326 82.4545L49.5442 89H47.4988L45.2104 82.4545H47.128L48.4874 87.1378H48.5556L49.9107 82.4545H51.8326ZM53.4125 89.1108C53.1312 89.1108 52.8897 89.0114 52.688 88.8125C52.4892 88.6108 52.3897 88.3693 52.3897 88.0881C52.3897 87.8097 52.4892 87.571 52.688 87.3722C52.8897 87.1733 53.1312 87.0739 53.4125 87.0739C53.6852 87.0739 53.9238 87.1733 54.1284 87.3722C54.3329 87.571 54.4352 87.8097 54.4352 88.0881C54.4352 88.2756 54.3869 88.4474 54.2903 88.6037C54.1966 88.7571 54.073 88.8807 53.9196 88.9744C53.7662 89.0653 53.5971 89.1108 53.4125 89.1108ZM58.6156 80.2727V89H56.7704V82.0241H56.7193L54.7207 83.277V81.6406L56.8812 80.2727H58.6156Z" fill="#EAE8DC"/>
<rect x="31" y="195" width="36" height="21" rx="10.5" fill="#434040"/>
<path d="M37.8874 210V201.273H39.7326V208.479H43.4741V210H37.8874ZM49.9439 203.455L47.6555 210H45.6101L43.3217 203.455H45.2393L46.5987 208.138H46.6669L48.022 203.455H49.9439ZM51.5238 210.111C51.2425 210.111 51.0011 210.011 50.7994 209.812C50.6005 209.611 50.5011 209.369 50.5011 209.088C50.5011 208.81 50.6005 208.571 50.7994 208.372C51.0011 208.173 51.2425 208.074 51.5238 208.074C51.7965 208.074 52.0352 208.173 52.2397 208.372C52.4442 208.571 52.5465 208.81 52.5465 209.088C52.5465 209.276 52.4982 209.447 52.4016 209.604C52.3079 209.757 52.1843 209.881 52.0309 209.974C51.8775 210.065 51.7085 210.111 51.5238 210.111ZM54.0199 210V208.67L57.1264 205.794C57.3906 205.538 57.6122 205.308 57.7912 205.104C57.973 204.899 58.1108 204.699 58.2045 204.503C58.2983 204.304 58.3452 204.089 58.3452 203.859C58.3452 203.604 58.2869 203.384 58.1705 203.199C58.054 203.011 57.8949 202.868 57.6932 202.768C57.4915 202.666 57.2628 202.615 57.0071 202.615C56.7401 202.615 56.5071 202.669 56.3082 202.777C56.1094 202.885 55.956 203.04 55.848 203.241C55.7401 203.443 55.6861 203.683 55.6861 203.962H53.9347C53.9347 203.391 54.0639 202.895 54.3224 202.474C54.581 202.054 54.9432 201.729 55.4091 201.499C55.875 201.268 56.4119 201.153 57.0199 201.153C57.6449 201.153 58.1889 201.264 58.652 201.486C59.1179 201.705 59.4801 202.009 59.7386 202.398C59.9972 202.787 60.1264 203.233 60.1264 203.736C60.1264 204.065 60.0611 204.391 59.9304 204.712C59.8026 205.033 59.5739 205.389 59.2443 205.781C58.9148 206.17 58.4503 206.638 57.8509 207.183L56.5767 208.432V208.491H60.2415V210H54.0199Z" fill="#EAE8DC"/>
<rect x="31" y="313" width="36" height="21" rx="10.5" fill="#434040"/>
<path d="M37.8523 328V319.273H39.6974V326.479H43.4389V328H37.8523ZM49.9087 321.455L47.6204 328H45.5749L43.2866 321.455H45.2042L46.5636 326.138H46.6317L47.9869 321.455H49.9087ZM51.4886 328.111C51.2074 328.111 50.9659 328.011 50.7642 327.812C50.5653 327.611 50.4659 327.369 50.4659 327.088C50.4659 326.81 50.5653 326.571 50.7642 326.372C50.9659 326.173 51.2074 326.074 51.4886 326.074C51.7614 326.074 52 326.173 52.2045 326.372C52.4091 326.571 52.5114 326.81 52.5114 327.088C52.5114 327.276 52.4631 327.447 52.3665 327.604C52.2727 327.757 52.1491 327.881 51.9957 327.974C51.8423 328.065 51.6733 328.111 51.4886 328.111ZM56.9293 328.119C56.293 328.119 55.7262 328.01 55.229 327.791C54.7347 327.57 54.3441 327.266 54.0572 326.879C53.7731 326.49 53.6268 326.041 53.6183 325.533H55.4762C55.4876 325.746 55.5572 325.933 55.685 326.095C55.8157 326.254 55.989 326.378 56.2049 326.466C56.4208 326.554 56.6637 326.598 56.9336 326.598C57.2148 326.598 57.4634 326.548 57.6793 326.449C57.8952 326.349 58.0643 326.212 58.1864 326.036C58.3086 325.859 58.3697 325.656 58.3697 325.426C58.3697 325.193 58.3043 324.987 58.1737 324.808C58.0458 324.626 57.8612 324.484 57.6197 324.382C57.381 324.28 57.0969 324.229 56.7674 324.229H55.9535V322.874H56.7674C57.0458 322.874 57.2915 322.825 57.5046 322.729C57.7205 322.632 57.8881 322.499 58.0075 322.328C58.1268 322.155 58.1864 321.953 58.1864 321.723C58.1864 321.504 58.1339 321.312 58.0288 321.148C57.9265 320.98 57.7816 320.849 57.5941 320.756C57.4094 320.662 57.1935 320.615 56.9464 320.615C56.6964 320.615 56.4677 320.661 56.2603 320.751C56.0529 320.839 55.8867 320.966 55.7617 321.131C55.6367 321.295 55.57 321.489 55.5614 321.71H53.793C53.8015 321.207 53.945 320.764 54.2234 320.381C54.5018 319.997 54.8768 319.697 55.3484 319.482C55.8228 319.263 56.3583 319.153 56.9549 319.153C57.5572 319.153 58.0842 319.263 58.5359 319.482C58.9876 319.7 59.3384 319.996 59.5884 320.368C59.8413 320.737 59.9663 321.152 59.9634 321.612C59.9663 322.101 59.8143 322.509 59.5075 322.835C59.2035 323.162 58.8072 323.369 58.3185 323.457V323.526C58.9606 323.608 59.4492 323.831 59.7844 324.195C60.1225 324.555 60.2901 325.007 60.2873 325.55C60.2901 326.047 60.1467 326.489 59.8569 326.875C59.57 327.261 59.1737 327.565 58.668 327.787C58.1623 328.009 57.5827 328.119 56.9293 328.119Z" fill="#EAE8DC"/>
<rect x="180" y="19" width="110" height="48" rx="5.63478" fill="#FFCD1C"/>
<rect x="183.91" y="23.9101" width="102.18" height="39.1798" rx="4.72467" stroke="#434040" stroke-width="1.82022"/>
<circle cx="278.022" cy="43.2699" r="2.1573" fill="#434040"/>
<circle cx="192.157" cy="43.2696" r="2.1573" fill="#434040"/>
<path d="M217.948 41.4937L218.273 43.6469C215.206 44.2766 212.341 44.4594 209.701 44.4594H208.096V35.2781H210.777V42.225C213.012 42.1844 215.429 42.0016 217.948 41.4937ZM212.707 46.2469V50.2891H222.681V52.4219H210.026V46.2469H212.707ZM222.071 39.2797H224.549V41.5344H222.071V47.4859H219.39V34.0391H222.071V39.2797ZM238.848 34.0187H241.529V52.7875H238.848V34.0187ZM231.474 35.3391C234.298 35.3391 236.39 37.8984 236.39 42.0016C236.39 46.125 234.298 48.7047 231.474 48.7047C228.651 48.7047 226.559 46.125 226.559 42.0016C226.559 37.8984 228.651 35.3391 231.474 35.3391ZM231.474 37.7562C230.093 37.7562 229.138 39.2391 229.138 42.0016C229.138 44.7844 230.093 46.2672 231.474 46.2672C232.855 46.2672 233.81 44.7844 233.81 42.0016C233.81 39.2391 232.855 37.7562 231.474 37.7562ZM254.507 48.4406H261.657V50.6344H244.716V48.4406H251.826V44.5406H246.687V35.3187H259.707V37.4719H249.388V42.3875H259.849V44.5406H254.507V48.4406Z" fill="#434040"/>
<rect x="200" y="98" width="211.805" height="40.7318" rx="10.4739" fill="#EAE7DC"/>
<rect x="203.815" y="101.814" width="204.241" height="33.1673" rx="7.85542" fill="#EAE8DC" stroke="#14AE59" stroke-width="1.74565"/>
<path d="M266.88 114.315H276.798V122.768H274.583V116.104H266.88V114.315ZM284.824 120.723H292.646V122.512H282.557V114.315H284.824V120.723ZM300.552 120.961H308.204V122.768H298.303V114.264H308.067V116.053H300.552V120.961ZM319.901 120.927H327.962V122.75H317.771V117.468H325.593V115.866H317.753V114.093H327.723V119.24H319.901V120.927ZM333.567 114.349H343.502V122.648H333.567V114.349ZM341.27 116.155H335.782V120.859H341.27V116.155Z" fill="#14AE59"/>
</svg>
