<svg width="229" height="63" viewBox="0 0 229 63" fill="none" xmlns="http://www.w3.org/2000/svg">
<rect width="229" height="63" rx="12" fill="#FFCD1C"/>
<path d="M102 21.9V25.25C102 29.525 103.825 33.725 107.725 35.4L105.85 38.075C103.2 36.875 101.425 34.6 100.4 31.775C99.375 34.85 97.5 37.325 94.75 38.625L92.775 35.9C96.8 34.175 98.7 29.725 98.7 25.25V21.9H102ZM108.85 20.1H112.15V43.2H108.85V20.1ZM129.823 30.65L128.148 33.2C125.648 32.4 123.923 30.775 122.923 28.75C121.898 30.975 120.098 32.75 117.448 33.625L115.723 31.05C119.473 29.825 121.098 26.95 121.173 24.1H116.598V21.475H129.048V24.1H124.548C124.623 26.75 126.198 29.475 129.823 30.65ZM118.823 37.65V35.025H134.198V43.175H130.898V37.65H118.823ZM137.248 25.675V28.4H134.198V34H130.898V20.125H134.198V25.675H137.248Z" fill="#434040"/>
</svg>
