<svg width="84" height="74" viewBox="0 0 84 74" fill="none" xmlns="http://www.w3.org/2000/svg">
<path d="M37.6454 2.50605C39.5741 -0.83535 44.4159 -0.83535 46.3446 2.50605L83.3213 66.4743C85.25 69.8157 82.8392 74 78.9717 74H5.02828C1.16084 74 -1.25003 69.8157 0.678667 66.4743L37.6454 2.50605Z" fill="#EF6125"/>
<path d="M37.6454 2.50605C39.5741 -0.83535 44.4159 -0.83535 46.3446 2.50605L83.3213 66.4743C85.25 69.8157 82.8392 74 78.9717 74H5.02828C1.16084 74 -1.25003 69.8157 0.678667 66.4743L37.6454 2.50605Z" fill="#EF6125"/>
<path fill-rule="evenodd" clip-rule="evenodd" d="M24.0684 26L0.678667 66.4743C-1.25003 69.8157 1.16084 74 5.02828 74H78.9717C82.8391 74 85.25 69.8157 83.3213 66.4743L59.9252 26H24.0684Z" fill="#FFCD1C"/>
<path fill-rule="evenodd" clip-rule="evenodd" d="M10.7769 49L0.678667 66.4743C-1.25003 69.8157 1.16084 74 5.02828 74H78.9717C82.8391 74 85.25 69.8157 83.3213 66.4743L73.2203 49H10.7769Z" fill="#14AE59"/>
</svg>
