<svg width="21" height="21" viewBox="0 0 21 21" fill="none" xmlns="http://www.w3.org/2000/svg">
<rect width="21" height="21" rx="10.5" fill="#14AE59"/>
<path d="M8.90091 12.9019V12.6541C8.90091 11.9692 8.95731 11.4233 9.07012 11.0164C9.18696 10.6094 9.35618 10.2831 9.57777 10.0373C9.79936 9.78753 10.0693 9.5599 10.3876 9.35442C10.6414 9.19326 10.867 9.03009 11.0644 8.86491C11.2659 8.69569 11.425 8.51439 11.5419 8.321C11.6587 8.12761 11.7171 7.90804 11.7171 7.66227C11.7171 7.42457 11.6607 7.21506 11.5479 7.03376C11.4351 6.85246 11.28 6.71346 11.0826 6.61677C10.8892 6.51604 10.6736 6.46568 10.4359 6.46568C10.1982 6.46568 9.97462 6.52007 9.76511 6.62885C9.55964 6.73763 9.39042 6.89275 9.25747 7.09419C9.12854 7.29161 9.06206 7.53133 9.05804 7.81336H6.27808C6.29016 6.96728 6.48557 6.27431 6.86429 5.73443C7.24703 5.19456 7.75266 4.79569 8.38118 4.53784C9.00969 4.27596 9.70266 4.14502 10.4601 4.14502C11.2901 4.14502 12.0274 4.27395 12.672 4.5318C13.3206 4.78965 13.8303 5.17038 14.201 5.674C14.5716 6.17761 14.757 6.79404 14.757 7.52327C14.757 8.00272 14.6764 8.42575 14.5152 8.79239C14.3541 9.15902 14.1284 9.48335 13.8384 9.76537C13.5523 10.0434 13.2159 10.2972 12.8291 10.5268C12.5269 10.7041 12.2751 10.8894 12.0737 11.0828C11.8763 11.2762 11.7272 11.4978 11.6265 11.7476C11.5258 11.9934 11.4754 12.2955 11.4754 12.6541V12.9019H8.90091ZM10.2365 16.8664C9.80137 16.8664 9.4287 16.7133 9.11847 16.4071C8.81227 16.1009 8.66119 15.7302 8.66521 15.2951C8.66119 14.868 8.81227 14.5034 9.11847 14.2012C9.4287 13.895 9.80137 13.7419 10.2365 13.7419C10.6515 13.7419 11.0161 13.895 11.3303 14.2012C11.6446 14.5034 11.8037 14.868 11.8078 15.2951C11.8037 15.5852 11.7272 15.849 11.5781 16.0868C11.4331 16.3245 11.2417 16.5138 11.004 16.6548C10.7703 16.7958 10.5145 16.8664 10.2365 16.8664Z" fill="#EAE8DC"/>
</svg>
