<svg width="60" height="60" viewBox="0 0 60 60" fill="none" xmlns="http://www.w3.org/2000/svg">
<circle cx="30" cy="30" r="30" transform="rotate(-90 30 30)" fill="#7766C2"/>
<circle cx="19.7693" cy="17.6541" r="7.7693" fill="#D9D9D9"/>
<circle cx="19.7694" cy="17.654" r="6.08945" fill="#434040"/>
<circle cx="17.3246" cy="14.7893" r="1.1249" fill="#D9D9D9"/>
<circle cx="19.7693" cy="37.8123" r="7.7693" fill="#D9D9D9"/>
<circle cx="19.7694" cy="37.8121" r="6.08945" fill="#434040"/>
<circle cx="17.3246" cy="34.9475" r="1.1249" fill="#D9D9D9"/>
<path fill-rule="evenodd" clip-rule="evenodd" d="M32 60C47.6361 58.9708 60 45.9621 60 30.0656C60 14.1691 47.6361 1.16039 32 0.131214L32 60Z" fill="#434040"/>
<path d="M32.0097 9.95699L35.1093 11.7465C36.4426 12.5163 36.4426 14.4408 35.1093 15.2106L32.0097 17.0001L32.0097 9.95699Z" fill="#EF6125"/>
<path fill-rule="evenodd" clip-rule="evenodd" d="M47 54.72C54.8526 49.3098 60 40.2551 60 29.9982C60 19.7412 54.8526 10.6865 47 5.27638L47 54.72Z" fill="#7766C2"/>
<path d="M55.8999 20.9991C55.8999 23.7044 54.0009 27.7014 49.7461 34.3969C46.7055 39.1815 47.823 45.1951 46.8614 44.9951C42.4007 44.9951 40.8999 33.6362 40.8999 28.9978C40.8999 24.3594 45.2853 15 49.7461 15C54.2068 15 55.8999 16.3607 55.8999 20.9991Z" fill="#EF6125"/>
</svg>
