<svg width="59" height="59" viewBox="0 0 59 59" fill="none" xmlns="http://www.w3.org/2000/svg">
<circle cx="29.5" cy="29.5" r="29.5" fill="#FEA1BD"/>
<circle cx="40.2115" cy="29.7884" r="7.7884" fill="#EAE8DC"/>
<circle cx="40.2116" cy="29.7884" r="6.74995" fill="#434040"/>
<circle cx="37.0963" cy="26.673" r="1.55768" fill="#D9D9D9"/>
<path d="M32.3624 30.456C36.3619 30.456 36.0599 30.456 40.3613 30.456C44.6627 30.456 43.3083 30.456 47.9392 30.456C47.9392 34.3887 44.4522 37.5768 40.1508 37.5768C35.8494 37.5768 32.3624 34.3887 32.3624 30.456Z" fill="#7766C2"/>
<circle cx="18.7884" cy="29.7884" r="7.7884" fill="#EAE8DC"/>
<circle cx="18.7883" cy="29.7884" r="6.74995" fill="#434040"/>
<circle cx="15.6729" cy="26.673" r="1.55768" fill="#D9D9D9"/>
<path d="M11.0607 30.456C15.0601 30.456 14.7581 30.456 19.0596 30.456C23.361 30.456 22.0065 30.456 26.6375 30.456C26.6375 34.3887 23.1505 37.5768 18.8491 37.5768C14.5476 37.5768 11.0607 34.3887 11.0607 30.456Z" fill="#7766C2"/>
<path fill-rule="evenodd" clip-rule="evenodd" d="M56.457 17H3C7.7051 6.95648 17.9044 0 29.7285 0C41.5526 0 51.7519 6.95648 56.457 17Z" fill="#434040"/>
<path fill-rule="evenodd" clip-rule="evenodd" d="M55.7334 43C50.8342 52.5023 40.9242 59 29.4967 59C18.0692 59 8.15928 52.5023 3.26001 43H55.7334Z" fill="#434040"/>
<path d="M11.6922 46.4689C11.3054 47.1723 10.2947 47.1723 9.90789 46.469L8 43.0001L13.6001 43.0001L11.6922 46.4689Z" fill="#7766C2"/>
<path d="M32.6922 46.4689C32.3054 47.1723 31.2947 47.1723 30.9079 46.469L29 43.0001L34.6001 43.0001L32.6922 46.4689Z" fill="#7766C2"/>
<path fill-rule="evenodd" clip-rule="evenodd" d="M45.8743 54C41.1772 57.1575 35.5223 59 29.4371 59C23.3519 59 17.6971 57.1575 13 54H45.8743Z" fill="#FEA1BD"/>
<path fill-rule="evenodd" clip-rule="evenodd" d="M13.0002 5C17.6973 1.84248 23.3522 -1.96896e-06 29.4374 -1.43698e-06C35.5226 -9.04996e-07 41.1774 1.84248 45.8745 5L13.0002 5Z" fill="#FEA1BD"/>
</svg>
