<svg width="359" height="359" viewBox="0 0 359 359" fill="none" xmlns="http://www.w3.org/2000/svg">
<rect width="359" height="359" rx="12" fill="#EAE8DC"/>
<circle cx="37.5" cy="34.5" r="11.5" fill="#434040"/>
<path d="M88 285.231C88 277.456 94.3025 271.154 102.077 271.154H154.053V299.308H102.077C94.3025 299.308 88 293.005 88 285.231V285.231Z" fill="#EF6125"/>
<rect x="105.325" y="249.497" width="48.7278" height="42.2308" rx="10" fill="#EF6125"/>
<path d="M197.367 284.148C197.367 276.373 203.669 270.071 211.444 270.071H263.42V298.225H211.444C203.669 298.225 197.367 291.922 197.367 284.148V284.148Z" fill="#EF6125"/>
<rect x="214.692" y="248.414" width="48.7278" height="42.2308" rx="10" fill="#EF6125"/>
<path fill-rule="evenodd" clip-rule="evenodd" d="M154.52 72.2709C148.164 64.765 138.671 60 128.065 60C108.928 60 93.4142 75.5137 93.4142 94.6509L93.4142 234.337C93.4142 253.474 108.928 268.988 128.065 268.988C147.202 268.988 162.716 253.474 162.716 234.337V196.809L206.009 254.223C210.479 260.151 216.486 264.237 223.055 266.347C227.149 268.049 231.639 268.988 236.349 268.988C255.486 268.988 271 253.474 271 234.337V94.6509C271 75.5137 255.486 60 236.349 60C217.212 60 201.698 75.5137 201.698 94.6509V133.4L159.864 77.9212C158.265 75.7999 156.469 73.9144 154.52 72.2709Z" fill="#FFCD1C"/>
<circle cx="112.95" cy="96.8612" r="9.79015" fill="#D9D9D9"/>
<circle cx="112.95" cy="96.8611" r="7.67336" fill="#434040"/>
<circle cx="112.035" cy="93.2512" r="1.41749" fill="#D9D9D9"/>
<circle cx="140.021" cy="96.8612" r="9.79015" fill="#D9D9D9"/>
<circle cx="140.021" cy="96.8611" r="7.67336" fill="#434040"/>
<circle cx="136.94" cy="93.2512" r="1.41749" fill="#D9D9D9"/>
<rect x="201.698" y="92.4851" width="69.3018" height="22.7396" fill="#EF6125"/>
<rect x="93.4142" y="212.68" width="69.3018" height="22.7396" fill="#EF6125"/>
<circle cx="118.861" cy="108.186" r="7.03846" fill="#EF6125"/>
</svg>
