<svg width="359" height="359" viewBox="0 0 359 359" fill="none" xmlns="http://www.w3.org/2000/svg">
<rect width="359" height="359" rx="12" fill="#EAE8DC"/>
<circle cx="37.5" cy="34.5" r="11.5" fill="#434040"/>
<rect x="162.783" y="246.391" width="64.2946" height="42.656" rx="21.328" transform="rotate(90 162.783 246.391)" fill="#14AE59"/>
<rect x="236.567" y="246.391" width="64.2946" height="42.656" rx="21.328" transform="rotate(90 236.567 246.391)" fill="#14AE59"/>
<rect x="191.605" y="111.957" width="35.0698" height="24.2102" rx="12.1051" transform="rotate(90 191.605 111.957)" fill="#14AE59"/>
<rect x="167.395" y="111.957" width="33.9008" height="23.0573" rx="11.5287" transform="rotate(90 167.395 111.957)" fill="#14AE59"/>
<rect x="144.338" y="111.957" width="35.0698" height="24.2102" rx="12.1051" transform="rotate(90 144.338 111.957)" fill="#14AE59"/>
<rect x="270" y="50" width="224.447" height="73.7834" rx="30" transform="rotate(90 270 50)" fill="#FEA1BD"/>
<rect x="270" y="274.447" width="181" height="149.631" rx="30" transform="rotate(-180 270 274.447)" fill="#FEA1BD"/>
<ellipse cx="218.121" cy="81.563" rx="11.5287" ry="11.6899" fill="#D9D9D9"/>
<ellipse cx="218.121" cy="81.5628" rx="9.03598" ry="9.16238" fill="#434040"/>
<path d="M229.65 81.563C223.73 81.563 224.177 81.563 217.809 81.563C211.442 81.563 213.447 81.563 206.592 81.563C206.592 75.1068 211.754 69.873 218.121 69.873C224.488 69.873 229.65 75.1068 229.65 81.563Z" fill="#14AE59"/>
<ellipse cx="212.357" cy="83.9009" rx="1.15287" ry="1.16899" fill="#D9D9D9"/>
<ellipse cx="248.096" cy="81.563" rx="11.5287" ry="11.6899" fill="#D9D9D9"/>
<ellipse cx="248.096" cy="81.5628" rx="9.03598" ry="9.16238" fill="#434040"/>
<path d="M259.624 81.563C253.704 81.563 254.151 81.563 247.784 81.563C241.417 81.563 243.422 81.563 236.567 81.563C236.567 75.1068 241.728 69.873 248.096 69.873C254.463 69.873 259.624 75.1068 259.624 81.563Z" fill="#14AE59"/>
<ellipse cx="242.331" cy="83.9009" rx="1.15287" ry="1.16899" fill="#D9D9D9"/>
<path d="M196.217 124.815L196.217 169.269C196.217 170.543 195.184 171.575 193.911 171.575V171.575C192.637 171.575 191.605 170.543 191.605 169.269L191.605 124.815L196.217 124.815Z" fill="#EAE8DC"/>
<rect x="221.58" y="104.943" width="23.0573" height="9.35195" rx="4.67597" fill="#14AE59"/>
<rect x="221.58" y="94.4219" width="23.0573" height="9.35195" rx="4.67597" fill="#14AE59"/>
</svg>
