<svg width="359" height="359" viewBox="0 0 359 359" fill="none" xmlns="http://www.w3.org/2000/svg">
<rect width="359" height="359" rx="12" fill="#EAE8DC"/>
<circle cx="37.5" cy="34.5" r="11.5" fill="#434040"/>
<rect x="89" y="54" width="181" height="71.5062" rx="30" fill="#14AE59"/>
<rect x="160.506" y="54" width="214.519" height="71.5062" rx="30" transform="rotate(90 160.506 54)" fill="#14AE59"/>
<rect x="270" y="54" width="214.519" height="71.5062" rx="30" transform="rotate(90 270 54)" fill="#14AE59"/>
<rect x="89" y="197.012" width="181" height="71.5062" rx="30" fill="#14AE59"/>
<circle cx="178.941" cy="90.3118" r="22.9043" fill="#D9D9D9"/>
<circle cx="178.941" cy="90.3117" r="17.952" fill="#434040"/>
<path d="M201.846 90.3118C190.084 90.3118 190.972 90.3118 178.322 90.3118C165.673 90.3118 169.656 90.3118 156.037 90.3118C156.037 77.6621 166.292 67.4075 178.941 67.4075C191.591 67.4075 201.846 77.6621 201.846 90.3118Z" fill="#7766C2"/>
<circle cx="167.489" cy="94.8927" r="2.29043" fill="#D9D9D9"/>
<rect x="219.722" y="287.512" width="83.7963" height="18.9938" rx="9.49691" transform="rotate(-180 219.722 287.512)" fill="#7766C2"/>
<rect x="219.722" y="306.506" width="83.7963" height="18.9938" rx="9.49691" transform="rotate(-180 219.722 306.506)" fill="#7766C2"/>
<path d="M170.2 125.506L167.199 130.876C166.448 132.22 164.524 132.247 163.735 130.925L160.506 125.506L170.2 125.506Z" fill="#7766C2"/>
<path d="M188.776 197.027L191.776 191.658C192.527 190.313 194.452 190.287 195.24 191.609L198.469 197.027L188.776 197.027Z" fill="#7766C2"/>
<path d="M198.494 125.506L195.494 130.876C194.743 132.22 192.818 132.247 192.03 130.925L188.8 125.506L198.494 125.506Z" fill="#7766C2"/>
<path d="M160.506 197.027L163.506 191.658C164.257 190.313 166.182 190.287 166.97 191.609L170.2 197.027L160.506 197.027Z" fill="#7766C2"/>
</svg>
