<svg width="81" height="64" viewBox="0 0 81 64" fill="none" xmlns="http://www.w3.org/2000/svg">
<rect width="81" height="64" rx="10" fill="#2B9FE6"/>
<path d="M57.29 24.61H61.43V17.95H65.39V34.39H61.43V27.82H57.29V24.61ZM58.94 30.55L57.02 33.64C54.02 32.65 51.95 30.7 50.75 28.27C49.55 31.06 47.36 33.31 44.15 34.39L42.14 31.27C46.52 29.74 48.53 26.23 48.65 22.78H43.22V19.6H58.07V22.78H52.7C52.82 25.93 54.74 29.17 58.94 30.55ZM56.06 42.61C59.66 42.61 61.55 41.86 61.55 40.3C61.55 38.74 59.66 37.99 56.06 37.99C52.43 37.99 50.54 38.74 50.54 40.3C50.54 41.86 52.43 42.61 56.06 42.61ZM56.06 34.99C61.91 34.99 65.51 36.94 65.51 40.3C65.51 43.66 61.91 45.61 56.06 45.61C50.18 45.61 46.58 43.66 46.58 40.3C46.58 36.94 50.18 34.99 56.06 34.99Z" fill="#EAE8DC"/>
<path d="M33.8323 24.4H27.9823C26.3023 28.51 22.4023 31.12 16.3423 32.44L15.0223 29.26C21.2923 28.03 24.1123 25.39 24.5923 22.15H16.6123V19H28.9423C28.9423 19.84 28.8823 20.65 28.7623 21.43H33.8323V17.95H37.7923V31.81H33.8323V29.74H27.7123V26.77H33.8323V24.4ZM23.5723 42.19H38.3623V45.31H19.6123V37.51H33.8323V35.95H19.5823V32.83H37.7923V40.45H23.5723V42.19Z" fill="#EAE8DC"/>
</svg>
