<svg width="359" height="359" viewBox="0 0 359 359" fill="none" xmlns="http://www.w3.org/2000/svg">
<rect width="359" height="359" rx="12" fill="#EAE8DC"/>
<circle cx="37.5" cy="34.5" r="11.5" fill="#434040"/>
<rect x="177.584" y="310.029" width="54.3318" height="54.3318" rx="27.1659" transform="rotate(-180 177.584 310.029)" fill="#FEA1BD"/>
<rect x="235.46" y="310.029" width="54.3318" height="54.3318" rx="27.1659" transform="rotate(-180 235.46 310.029)" fill="#FEA1BD"/>
<rect x="89" y="205.004" width="181" height="71.5062" rx="30" fill="#2B9FE6"/>
<rect x="89" y="49" width="181" height="71.5062" rx="30" fill="#2B9FE6"/>
<rect x="215.253" y="82.1033" width="181" height="71.5062" rx="30" transform="rotate(90 215.253 82.1033)" fill="#2B9FE6"/>
<circle cx="157.315" cy="79.6038" r="11.7058" fill="#EAE8DC"/>
<circle cx="157.316" cy="79.604" r="10.145" fill="#434040"/>
<circle cx="152.633" cy="74.9215" r="2.34116" fill="#D9D9D9"/>
<circle cx="202.578" cy="79.6038" r="11.7058" fill="#EAE8DC"/>
<circle cx="202.578" cy="79.604" r="10.145" fill="#434040"/>
<circle cx="197.896" cy="74.9215" r="2.34116" fill="#D9D9D9"/>
<circle cx="179.947" cy="150.577" r="8.26788" fill="#FEA1BD"/>
<circle cx="179.947" cy="178.924" r="8.26788" fill="#FEA1BD"/>
<path d="M177.015 88.0834C178.069 86.6057 180.264 86.6057 181.318 88.0834L190.38 100.789C191.627 102.538 190.377 104.966 188.228 104.966H170.105C167.956 104.966 166.705 102.538 167.953 100.789L177.015 88.0834Z" fill="#FEA1BD"/>
</svg>
