<svg width="359" height="359" viewBox="0 0 359 359" fill="none" xmlns="http://www.w3.org/2000/svg">
<rect width="359" height="359" rx="12" fill="#EAE8DC"/>
<circle cx="37.5" cy="34.5" r="11.5" fill="#434040"/>
<rect x="270" y="49" width="262.627" height="75.7124" rx="30" transform="rotate(90 270 49)" fill="#7766C2"/>
<path d="M159.759 84.0787L175.512 92.8927C176.855 93.6445 176.881 95.5688 175.558 96.3565L160.049 105.591L159.759 84.0787Z" fill="#EF6125"/>
<rect x="164.712" y="50.1831" width="222.405" height="75.7124" rx="30" transform="rotate(90 164.712 50.1831)" fill="#7766C2"/>
<path d="M130.405 240.647C148.742 269.631 208.515 270.969 228.595 247.205" stroke="#7766C2" stroke-width="70" stroke-linecap="round"/>
<circle cx="130.997" cy="99.3264" r="19.5683" fill="#D9D9D9"/>
<circle cx="130.997" cy="99.3263" r="15.3373" fill="#434040"/>
<circle cx="124.839" cy="92.1113" r="2.83325" fill="#D9D9D9"/>
<circle cx="130.997" cy="150.098" r="19.5683" fill="#D9D9D9"/>
<circle cx="130.997" cy="150.098" r="15.3373" fill="#434040"/>
<circle cx="124.839" cy="142.883" r="2.83325" fill="#D9D9D9"/>
<path d="M221.497 125.304C221.497 133.306 215.656 145.129 202.569 164.935C193.217 179.088 196.654 196.876 193.696 196.284C179.976 196.284 175.359 162.685 175.359 148.964C175.359 135.244 188.848 107.559 202.569 107.559C216.289 107.559 221.497 111.583 221.497 125.304Z" fill="#EF6125"/>
</svg>
