<svg width="359" height="359" viewBox="0 0 359 359" fill="none" xmlns="http://www.w3.org/2000/svg">
<rect width="359" height="359" rx="12" fill="#EAE8DC"/>
<circle cx="37.5" cy="34.5" r="11.5" fill="#434040"/>
<path d="M135.661 221.441C134.901 222.823 132.916 222.823 132.156 221.441L127.725 213.385L140.091 213.385L135.661 221.441Z" fill="#7766C2"/>
<path d="M189.622 221.441C188.862 222.823 186.877 222.823 186.117 221.441L181.686 213.385L194.052 213.385L189.622 221.441Z" fill="#7766C2"/>
<path fill-rule="evenodd" clip-rule="evenodd" d="M94 90.2876V87.124C94 73.109 103.61 61.3387 116.6 58.0434C120.248 56.7211 124.184 56 128.288 56H231.712C250.649 56 266 71.3511 266 90.2876C266 109.224 250.649 124.575 231.712 124.575H165.948V144.81H236C252.569 144.81 266 158.242 266 174.81V177.028C266 177.038 266 177.049 266 177.059L266 183.385L266 273.32C266 289.889 252.569 303.32 236 303.32H224.052L223.934 303.32H128.288C109.351 303.32 94 287.969 94 269.032C94 250.096 109.351 234.745 128.288 234.745H194.052V213.385H125.124C125.097 213.385 125.07 213.385 125.043 213.385H124C107.431 213.385 94 199.954 94 183.385L94 90.2876Z" fill="#FEA1BD"/>
<path d="M232.275 124.575C232.275 106.968 232.275 108.297 232.275 89.3609C232.275 70.4244 232.275 76.3872 232.275 56C250.901 56 266 71.3511 266 90.2876C266 109.224 250.901 124.575 232.275 124.575Z" fill="#7766C2"/>
<path d="M127.725 234.745C127.725 252.352 127.725 251.023 127.725 269.959C127.725 288.896 127.725 282.933 127.725 303.32C109.099 303.32 94 287.969 94 269.033C94 250.096 109.099 234.745 127.725 234.745Z" fill="#7766C2"/>
<circle cx="207.134" cy="177.974" r="19.6732" fill="#EAE8DC"/>
<circle cx="207.134" cy="177.974" r="17.0501" fill="#434040"/>
<circle cx="199.264" cy="170.105" r="3.93464" fill="#D9D9D9"/>
<path d="M187.307 179.66C197.41 179.66 196.647 179.66 207.512 179.66C218.377 179.66 214.956 179.66 226.654 179.66C226.654 189.594 217.846 197.647 206.98 197.647C196.115 197.647 187.307 189.594 187.307 179.66Z" fill="#7766C2"/>
<circle cx="153.02" cy="177.974" r="19.6732" fill="#EAE8DC"/>
<circle cx="153.019" cy="177.974" r="17.0501" fill="#434040"/>
<circle cx="145.15" cy="170.105" r="3.93464" fill="#D9D9D9"/>
<path d="M133.5 179.66C143.602 179.66 142.839 179.66 153.705 179.66C164.57 179.66 161.149 179.66 172.846 179.66C172.846 189.594 164.038 197.647 153.173 197.647C142.308 197.647 133.5 189.594 133.5 179.66Z" fill="#7766C2"/>
</svg>
