<svg width="359" height="359" viewBox="0 0 359 359" fill="none" xmlns="http://www.w3.org/2000/svg">
<rect width="359" height="359" rx="12" fill="#EAE8DC"/>
<circle cx="184.02" cy="104.854" r="21.0833" fill="#D9D9D9"/>
<circle cx="184.02" cy="104.854" r="16.5248" fill="#434040"/>
<path d="M205.104 151.009L202.791 153.322C192.109 164.003 174.791 164.003 164.11 153.322L161.797 151.009" stroke="black" stroke-width="7.97748" stroke-linecap="round" stroke-linejoin="round"/>
<path d="M205.104 151.009L202.791 153.322C192.109 164.003 174.791 164.003 164.11 153.322L161.797 151.009" stroke="#444342" stroke-width="7.97748" stroke-linecap="round" stroke-linejoin="round"/>
<rect x="90.4189" y="53" width="183.162" height="72.3604" rx="33.9189" fill="#EF6125"/>
<rect x="90.4189" y="124.36" width="183.162" height="72.3604" rx="33.9189" fill="#EF6125"/>
<rect x="90.4189" y="195.721" width="183.162" height="72.3604" rx="33.9189" fill="#EF6125"/>
<rect x="179.739" y="301" width="84.7973" height="33.9189" rx="16.9595" transform="rotate(-180 179.739 301)" fill="#2B9FE6"/>
<path d="M272.45 284.041C272.45 293.407 264.857 301 255.491 301L204.613 301C195.246 301 187.653 293.407 187.653 284.041V284.041C187.653 274.674 195.246 267.081 204.613 267.081L255.491 267.081C264.857 267.081 272.45 274.674 272.45 284.041V284.041Z" fill="#2B9FE6"/>
<path d="M204.613 150.234L202.318 152.529C191.721 163.126 174.54 163.126 163.943 152.529L161.649 150.234" stroke="black" stroke-width="5.65315" stroke-linecap="round" stroke-linejoin="round"/>
<path d="M204.613 150.234L202.318 152.529C191.721 163.126 174.54 163.126 163.943 152.529L161.649 150.234" stroke="#444342" stroke-width="5.65315" stroke-linecap="round" stroke-linejoin="round"/>
<circle cx="183.696" cy="104.444" r="20.9167" fill="#D9D9D9"/>
<circle cx="183.696" cy="104.444" r="16.3941" fill="#434040"/>
<circle cx="177.114" cy="96.7311" r="3.02847" fill="#D9D9D9"/>
<circle cx="183.696" cy="137.232" r="6.21847" fill="#2B9FE6"/>
<circle cx="37.5" cy="34.5" r="11.5" fill="#434040"/>
</svg>
