<svg width="82" height="64" viewBox="0 0 82 64" fill="none" xmlns="http://www.w3.org/2000/svg">
<path d="M27.4168 18.8082C27.4168 20.9986 26.6266 22.8604 25.0464 24.3936C23.4662 25.9269 21.5473 26.6935 19.2898 26.6935C17.0323 26.6935 15.1135 25.9269 13.5332 24.3936C11.953 22.8604 11.1628 20.9986 11.1628 18.8082C11.1628 16.6178 11.953 14.756 13.5332 13.2228C15.1135 11.6895 17.0323 10.9229 19.2898 10.9229C21.5473 10.9229 23.4662 11.6895 25.0464 13.2228C26.6266 14.756 27.4168 16.6178 27.4168 18.8082ZM70.7605 34.5788V52.9778H11.1628V45.0925L24.7078 31.9504L31.4802 38.5214L53.1521 17.494L70.7605 34.5788ZM74.824 5.66604H7.09937C6.73253 5.66604 6.41507 5.7961 6.14699 6.0562C5.87891 6.31631 5.74488 6.62433 5.74488 6.98026V56.9205C5.74488 57.2764 5.87891 57.5844 6.14699 57.8445C6.41507 58.1046 6.73253 58.2347 7.09937 58.2347H74.824C75.1909 58.2347 75.5083 58.1046 75.7764 57.8445C76.0445 57.5844 76.1785 57.2764 76.1785 56.9205V6.98026C76.1785 6.62433 76.0445 6.31631 75.7764 6.0562C75.5083 5.7961 75.1909 5.66604 74.824 5.66604ZM81.5965 6.98026V56.9205C81.5965 58.7275 80.9333 60.2745 79.6071 61.5613C78.2808 62.8481 76.6864 63.4915 74.824 63.4915H7.09937C5.23694 63.4915 3.64259 62.8481 2.31632 61.5613C0.990041 60.2745 0.326904 58.7275 0.326904 56.9205V6.98026C0.326904 5.17321 0.990041 3.62627 2.31632 2.33943C3.64259 1.0526 5.23694 0.40918 7.09937 0.40918H74.824C76.6864 0.40918 78.2808 1.0526 79.6071 2.33943C80.9333 3.62627 81.5965 5.17321 81.5965 6.98026Z" fill="#9F9F9F"/>
</svg>
