<svg width="89" height="70" viewBox="0 0 89 70" fill="none" xmlns="http://www.w3.org/2000/svg">
<path d="M29.4591 20.7329C29.4591 23.1088 28.6021 25.1283 26.888 26.7915C25.1739 28.4546 23.0925 29.2861 20.6438 29.2861C18.195 29.2861 16.1136 28.4546 14.3995 26.7915C12.6854 25.1283 11.8284 23.1088 11.8284 20.7329C11.8284 18.357 12.6854 16.3375 14.3995 14.6744C16.1136 13.0113 18.195 12.1797 20.6438 12.1797C23.0925 12.1797 25.1739 13.0113 26.888 14.6744C28.6021 16.3375 29.4591 18.357 29.4591 20.7329ZM76.4744 37.8394V57.7969H11.8284V49.2437L26.5207 34.9883L33.8668 42.116L57.3744 19.3074L76.4744 37.8394ZM80.8821 6.47754H7.42072C7.0228 6.47754 6.67845 6.61861 6.38767 6.90075C6.09688 7.18289 5.95149 7.517 5.95149 7.90308V62.0735C5.95149 62.4596 6.09688 62.7937 6.38767 63.0758C6.67845 63.358 7.0228 63.4991 7.42072 63.4991H80.8821C81.28 63.4991 81.6243 63.358 81.9151 63.0758C82.2059 62.7937 82.3513 62.4596 82.3513 62.0735V7.90308C82.3513 7.517 82.2059 7.18289 81.9151 6.90075C81.6243 6.61861 81.28 6.47754 80.8821 6.47754ZM88.2282 7.90308V62.0735C88.2282 64.0336 87.5089 65.7116 86.0703 67.1074C84.6316 68.5033 82.9022 69.2012 80.8821 69.2012H7.42072C5.40053 69.2012 3.67113 68.5033 2.23251 67.1074C0.793894 65.7116 0.074585 64.0336 0.074585 62.0735V7.90308C0.074585 5.94297 0.793894 4.26499 2.23251 2.86915C3.67113 1.47331 5.40053 0.775391 7.42072 0.775391H80.8821C82.9022 0.775391 84.6316 1.47331 86.0703 2.86915C87.5089 4.26499 88.2282 5.94297 88.2282 7.90308Z" fill="#9F9F9F"/>
</svg>
