<svg width="66" height="51" viewBox="0 0 66 51" fill="none" xmlns="http://www.w3.org/2000/svg">
<path d="M22.0186 15.0758C22.0186 16.8306 21.3856 18.3222 20.1196 19.5505C18.8536 20.7789 17.3163 21.3931 15.5078 21.3931C13.6992 21.3931 12.1619 20.7789 10.8959 19.5505C9.62986 18.3222 8.99686 16.8306 8.99686 15.0758C8.99686 13.321 9.62986 11.8294 10.8959 10.601C12.1619 9.37267 13.6992 8.75849 15.5078 8.75849C17.3163 8.75849 18.8536 9.37267 20.1196 10.601C21.3856 11.8294 22.0186 13.321 22.0186 15.0758ZM56.7434 27.7103V42.4507H8.99686V36.1334L19.8483 25.6046L25.2741 30.869L42.6365 14.0229L56.7434 27.7103ZM59.9988 4.54697H5.74142C5.44752 4.54697 5.19319 4.65116 4.97842 4.85954C4.76365 5.06793 4.65627 5.3147 4.65627 5.59985V45.6093C4.65627 45.8945 4.76365 46.1412 4.97842 46.3496C5.19319 46.558 5.44752 46.6622 5.74142 46.6622H59.9988C60.2927 46.6622 60.5471 46.558 60.7618 46.3496C60.9766 46.1412 61.084 45.8945 61.084 45.6093V5.59985C61.084 5.3147 60.9766 5.06793 60.7618 4.85954C60.5471 4.65116 60.2927 4.54697 59.9988 4.54697ZM65.4246 5.59985V45.6093C65.4246 47.057 64.8933 48.2963 63.8308 49.3273C62.7682 50.3582 61.4909 50.8737 59.9988 50.8737H5.74142C4.24934 50.8737 2.97203 50.3582 1.90949 49.3273C0.846944 48.2963 0.315674 47.057 0.315674 45.6093V5.59985C0.315674 4.15214 0.846944 2.91281 1.90949 1.88187C2.97203 0.850922 4.24934 0.335449 5.74142 0.335449H59.9988C61.4909 0.335449 62.7682 0.850922 63.8308 1.88187C64.8933 2.91281 65.4246 4.15214 65.4246 5.59985Z" fill="#9F9F9F"/>
</svg>
