<svg width="207" height="207" viewBox="0 0 207 207" fill="none" xmlns="http://www.w3.org/2000/svg">
<path d="M36.033 116.336C37.0599 128.041 40.9389 139.272 47.3253 149.03C53.7142 158.787 62.4125 166.771 72.6482 172.271C87.9455 180.529 105.805 182.746 122.787 178.498M36.033 116.336L60.1169 129.297M36.033 116.336L22.8035 140.917" stroke="#14AE59" stroke-width="13.0499" stroke-linecap="round" stroke-linejoin="round"/>
<path d="M125.352 36.231C114.702 31.2681 103.038 29.0128 91.3932 29.6652C79.7481 30.3176 68.4859 33.859 58.6026 39.9761C43.8034 49.0959 32.9536 63.4523 28.1414 80.2845M125.352 36.231L102.085 50.6066M125.352 36.231L110.679 12.4845" stroke="#FEA1BD" stroke-width="13.0499" stroke-linecap="round" stroke-linejoin="round"/>
<path d="M148.527 154.8C158.15 148.058 165.938 139.085 171.194 128.673C176.45 118.261 179.014 106.738 178.659 95.1203C178.161 77.7433 171.154 61.1697 158.982 48.5852M148.527 154.8L147.71 127.461M148.527 154.8L176.428 153.967" stroke="#FFCD1C" stroke-width="13.0499" stroke-linecap="round" stroke-linejoin="round"/>
</svg>
