<svg width="125" height="128" viewBox="0 0 125 128" fill="none" xmlns="http://www.w3.org/2000/svg">
<path d="M19.7572 71.2132C19.5133 78.6943 20.07 93.9456 24.2476 95.1024C28.4251 96.2592 30.7456 77.5799 31.3836 68.0956" stroke="black" stroke-width="5.72639" stroke-linecap="round"/>
<path d="M19.7572 71.2132C19.5133 78.6943 20.07 93.9456 24.2476 95.1024C28.4251 96.2592 30.7456 77.5799 31.3836 68.0956" stroke="#2B9FE6" stroke-width="5.72639" stroke-linecap="round"/>
<path d="M19.7572 71.2132C19.5133 78.6943 20.07 93.9456 24.2476 95.1024C28.4251 96.2592 30.7456 77.5799 31.3836 68.0956" stroke="black" stroke-width="5.72639" stroke-linecap="round" stroke-linejoin="round" stroke-dasharray="8.59 8.02"/>
<path d="M19.7572 71.2132C19.5133 78.6943 20.07 93.9456 24.2476 95.1024C28.4251 96.2592 30.7456 77.5799 31.3836 68.0956" stroke="#EF6125" stroke-width="5.72639" stroke-linecap="round" stroke-linejoin="round" stroke-dasharray="8.59 8.02"/>
<path fill-rule="evenodd" clip-rule="evenodd" d="M76.9629 9.03403C74.3097 3.68048 68.7894 0 62.4095 0C56.0871 0 50.6088 3.61456 47.9285 8.88997C42.6775 6.48944 36.2666 7.45046 31.9443 11.773C29.7962 13.9212 28.4783 16.5853 27.9906 19.3665C22.2524 19.4165 17.5142 23.6566 16.6869 29.1761C11.8461 31.9502 8.58478 37.1678 8.58478 43.1471C8.58478 47.9508 10.6897 52.2628 14.0275 55.2112C13.6362 56.533 13.4262 57.9326 13.4262 59.3813C13.4262 67.4818 19.9929 74.0485 28.0934 74.0485H46.216C46.8005 82.4824 53.8272 89.1426 62.4095 89.1426C70.9919 89.1426 78.0186 82.4824 78.6031 74.0485H96.4409C104.541 74.0485 111.108 67.4818 111.108 59.3813C111.108 57.9326 110.898 56.533 110.507 55.2112C113.845 52.2628 115.95 47.9508 115.95 43.1471C115.95 37.1678 112.688 31.9502 107.847 29.1761C107.015 23.6237 102.225 19.366 96.4411 19.366H96.3695C95.8358 16.7109 94.5397 14.1786 92.4812 12.12C88.2859 7.92448 82.123 6.89582 76.9629 9.03403Z" fill="#FEA1BD"/>
<ellipse cx="72.1935" cy="44.2864" rx="12.673" ry="12.6736" fill="#D9D9D9"/>
<ellipse cx="71.7317" cy="46.9578" rx="9.93291" ry="9.93339" fill="#434040"/>
<ellipse cx="67.9605" cy="42.9694" rx="2.84787" ry="2.99041" fill="#D9D9D9"/>
<ellipse cx="72.0738" cy="46.6563" rx="1.8349" ry="1.83499" fill="#D9D9D9"/>
<ellipse cx="34.032" cy="44.2864" rx="12.673" ry="12.6736" fill="#D9D9D9"/>
<ellipse cx="33.5703" cy="46.9578" rx="9.93291" ry="9.93339" fill="#434040"/>
<ellipse cx="29.799" cy="42.9694" rx="2.84787" ry="2.99041" fill="#D9D9D9"/>
<ellipse cx="33.9123" cy="46.6563" rx="1.8349" ry="1.83499" fill="#D9D9D9"/>
<path d="M63.1534 58.6691C63.1534 64.1551 58.7063 68.6025 53.2205 68.6025C47.7347 68.6025 43.2876 64.1551 43.2876 58.6691C47.5594 58.6691 47.7347 58.669 53.2205 58.669C58.7063 58.669 57.6693 58.669 63.1534 58.6691Z" fill="#EF6125"/>
<path d="M113.792 52.9666C113.792 47.3616 113.792 47.7848 113.792 41.7567C113.792 35.7285 113.792 37.6267 113.792 31.1367C119.819 31.1367 124.706 36.0235 124.706 42.0517C124.706 48.0798 119.819 52.9666 113.792 52.9666Z" fill="#14AE59"/>
<rect x="113.791" y="18.4673" width="1.1694" height="20.2706" rx="0.584701" fill="#45AAE8"/>
<rect x="113.012" y="29.5771" width="2.72861" height="24.7535" rx="1.3643" fill="#FFCD1C"/>
<ellipse cx="114.376" cy="18.0778" rx="1.5592" ry="1.55928" fill="#FFCD1C"/>
<path d="M36.494 80.5985C49.8751 80.5985 48.8648 80.5985 63.2562 80.5985C77.6477 80.5985 73.116 80.5985 88.61 80.5985C88.61 90.0359 76.9434 97.6865 62.552 97.6865C48.1605 97.6865 36.494 90.0359 36.494 80.5985Z" fill="#45AAE8"/>
<path d="M10.653 52.0936C10.653 46.6229 10.653 47.0359 10.653 41.1522C10.653 35.2684 10.653 37.1211 10.653 30.7866C4.7695 30.7866 2.08482e-07 35.5564 4.65657e-07 41.4401C7.22832e-07 47.3239 4.7695 52.0936 10.653 52.0936Z" fill="#14AE59"/>
<rect width="1.14139" height="19.7851" rx="0.570696" transform="matrix(-1 0 0 1 10.6531 18.4209)" fill="#45AAE8"/>
<rect width="2.66325" height="24.1606" rx="1.33162" transform="matrix(-1 0 0 1 11.414 29.2646)" fill="#FFCD1C"/>
<ellipse cx="1.52185" cy="1.52193" rx="1.52185" ry="1.52193" transform="matrix(-1 0 0 1 11.6042 16.5186)" fill="#FFCD1C"/>
<rect x="95.4448" y="80.5991" width="66.3554" height="6.55041" rx="3.27521" transform="rotate(-180 95.4448 80.5991)" fill="#7766C2"/>
<rect x="90.847" y="59.2383" width="8.8284" height="4.84161" rx="2.42081" transform="rotate(-180 90.847 59.2383)" fill="#EF6125"/>
<rect width="2.83863" height="29.3711" transform="matrix(0.70709 -0.707124 0.70709 0.707124 57.8879 101.506)" fill="#EF6125"/>
<rect width="2.83863" height="2.72277" transform="matrix(0.70709 -0.707124 0.70709 0.707124 78.6559 122.275)" fill="#434040"/>
<rect width="2.83863" height="29.3711" transform="matrix(0.70709 -0.707124 0.70709 0.707124 59.8951 99.499)" fill="#FFCD1C"/>
<rect width="2.83863" height="2.72277" transform="matrix(0.70709 -0.707124 0.70709 0.707124 80.6631 120.269)" fill="#434040"/>
<rect width="2.83863" height="29.3711" transform="matrix(0.70709 -0.707124 0.70709 0.707124 61.9023 97.4917)" fill="#EF6125"/>
<rect width="2.83863" height="2.72277" transform="matrix(0.70709 -0.707124 0.70709 0.707124 82.6703 118.261)" fill="#434040"/>
<path d="M55.9203 94.1306C55.8207 93.7576 56.1618 93.4165 56.5348 93.516L63.9096 95.4839L57.8881 101.506L55.9203 94.1306Z" fill="#EAE8DC"/>
<path d="M62.66 100.257L59.895 99.4987L61.9022 97.4915L62.66 100.257Z" fill="#EAE8DC"/>
<path d="M64.6672 98.2497L61.9022 97.4919L63.9094 95.4846L64.6672 98.2497Z" fill="#EAE8DC"/>
<path d="M60.6528 102.264L57.8879 101.506L59.895 99.4988L60.6528 102.264Z" fill="#EAE8DC"/>
<path d="M55.926 94.1387C55.8243 93.7642 56.1677 93.4209 56.5421 93.5226L58.789 94.1327L56.5361 96.3857L55.926 94.1387Z" fill="#434040"/>
<path d="M80.5812 124.201L86.6027 118.179L87.8315 119.408C89.0079 120.585 89.0079 122.492 87.8315 123.669L86.0702 125.43C84.8938 126.607 82.9864 126.607 81.81 125.43L80.5812 124.201Z" fill="#FEA1BD"/>
<path d="M98.1564 60.6631C101.099 65.5996 105.846 78.4347 101.289 90.2824C96.7324 102.13 86.1953 105.851 81.4963 106.231" stroke="#2B9FE6" stroke-width="5.72639" stroke-linecap="round" stroke-linejoin="round"/>
<path d="M98.1091 60.6631C101.052 65.5996 105.798 78.4347 101.242 90.2824C96.6852 102.13 86.1481 105.851 81.4491 106.231" stroke="#FEA1BD" stroke-width="5.72639" stroke-linecap="round" stroke-linejoin="round" stroke-dasharray="8.59 8.59"/>
<path d="M98.1091 60.6631C101.052 65.5996 105.798 78.4347 101.242 90.2824C96.6852 102.13 86.1481 105.851 81.4491 106.231" stroke="#EF6125" stroke-width="5.72639" stroke-linecap="round" stroke-linejoin="round" stroke-dasharray="8.59 8.59"/>
<path d="M83.3475 106.515C83.3475 112.964 77.123 119.901 70.6744 119.901C64.2258 119.901 58.0014 113.208 61.2765 106.515C62.9681 103.058 66.2603 101.674 66.2603 100.819C66.2603 98.6834 66.4327 95.4441 69.393 94.4114C75.4686 92.292 83.3475 100.066 83.3475 106.515Z" fill="#7766C2"/>
<path d="M23.1331 75.7348C18.7959 75.3292 20.8851 73.7935 14.3911 70.7229C7.89705 67.6523 5.97835 65.6616 7.7963 61.7418C11.3471 57.1657 18.3525 60.5468 23.1331 64.875C27.9137 69.2031 27.4703 76.1405 23.1331 75.7348Z" fill="#7766C2"/>
<ellipse cx="13.4071" cy="7.71136" rx="13.4071" ry="7.71136" transform="matrix(0.963648 0.267174 -0.26715 0.963655 21.2075 47.2773)" fill="#FEA1BD"/>
<rect x="25.3461" y="59.2383" width="8.8284" height="4.84161" rx="2.42081" transform="rotate(-180 25.3461 59.2383)" fill="#EF6125"/>
</svg>
