<svg width="31" height="36" viewBox="0 0 31 36" fill="none" xmlns="http://www.w3.org/2000/svg">
<path d="M16.081 26.8849L22.154 24.0486C21.576 21.8687 21.8125 19.3774 22.0609 16.7655C22.3479 13.7325 22.6461 10.5922 21.5287 8.19968C19.4154 3.67957 13.8398 1.80226 9.09961 4.01604C4.35939 6.22981 2.21808 11.711 4.32949 16.2321C5.44683 18.6246 8.04616 20.4117 10.5561 22.1385C12.7183 23.6245 14.7825 25.0415 16.081 26.8849Z" fill="#FFCD1C"/>
<path d="M18.986 30.4721C19.5348 31.6472 20.8879 32.1732 22.0067 31.6507C23.1255 31.1282 23.5896 29.7506 23.0419 28.5779L18.9837 30.4731L18.986 30.4721Z" fill="#616465"/>
<path d="M22.4028 23.9333L16.0256 26.9116C15.7588 27.0362 15.6435 27.3535 15.7681 27.6203C15.8927 27.8872 16.21 28.0024 16.4769 27.8778L22.8541 24.8995C23.1209 24.7749 23.2362 24.4576 23.1116 24.1908C22.987 23.924 22.6697 23.8087 22.4028 23.9333Z" fill="#93979A"/>
<path d="M22.7256 26.136L17.3146 28.663C17.0478 28.7877 16.9325 29.105 17.0571 29.3718C17.1817 29.6386 17.499 29.7539 17.7659 29.6293L23.1769 27.1023C23.4437 26.9776 23.559 26.6603 23.4344 26.3935C23.3097 26.1267 22.9924 26.0114 22.7256 26.136Z" fill="#93979A"/>
<path d="M22.2743 25.1702L16.8633 27.6972C16.5965 27.8218 16.4812 28.1392 16.6058 28.406C16.7304 28.6728 17.0477 28.7881 17.3146 28.6635L22.7256 26.1364C22.9924 26.0118 23.1077 25.6945 22.9831 25.4277C22.8584 25.1609 22.5411 25.0456 22.2743 25.1702Z" fill="#616465"/>
<path d="M23.145 28.2945L18.7003 30.3703C18.4868 30.47 18.3946 30.7238 18.4943 30.9373C18.594 31.1507 18.8478 31.243 19.0613 31.1433L23.506 29.0675C23.7195 28.9678 23.8117 28.7139 23.712 28.5005C23.6123 28.287 23.3585 28.1948 23.145 28.2945Z" fill="#93979A"/>
<path d="M22.5971 27.3733L18.3456 29.3588C18.0788 29.4835 17.9635 29.8008 18.0881 30.0676C18.2127 30.3344 18.53 30.4497 18.7969 30.3251L23.0484 28.3396C23.3152 28.2149 23.4305 27.8976 23.3059 27.6308C23.1812 27.364 22.8639 27.2487 22.5971 27.3733Z" fill="#616465"/>
</svg>
