<svg width="125" height="128" viewBox="0 0 125 128" fill="none" xmlns="http://www.w3.org/2000/svg">
<path d="M19.7571 72.9176C19.5132 80.3983 20.0699 95.6488 24.2474 96.8056C28.425 97.9623 30.7455 79.2839 31.3835 69.8001" stroke="black" stroke-width="5.69574" stroke-linecap="round"/>
<path d="M19.7571 72.9176C19.5132 80.3983 20.0699 95.6488 24.2474 96.8056C28.425 97.9623 30.7455 79.2839 31.3835 69.8001" stroke="#2B9FE6" stroke-width="5.69574" stroke-linecap="round"/>
<path d="M19.7571 72.9176C19.5132 80.3983 20.0699 95.6488 24.2474 96.8056C28.425 97.9623 30.7455 79.2839 31.3835 69.8001" stroke="black" stroke-width="5.69574" stroke-linecap="round" stroke-linejoin="round" stroke-dasharray="7.97 7.97"/>
<path d="M19.7571 72.9176C19.5132 80.3983 20.0699 95.6488 24.2474 96.8056C28.425 97.9623 30.7455 79.2839 31.3835 69.8001" stroke="#EF6125" stroke-width="5.69574" stroke-linecap="round" stroke-linejoin="round" stroke-dasharray="7.97 7.97"/>
<path fill-rule="evenodd" clip-rule="evenodd" d="M76.9627 9.03384C74.3095 3.68039 68.7893 2.78873e-07 62.4095 0C56.0871 -2.76355e-07 50.6089 3.61444 47.9286 8.88971C42.6775 6.48925 36.2666 7.45021 31.9443 11.7726C29.7961 13.9208 28.4782 16.5848 27.9905 19.3659C22.2525 19.4157 17.5144 23.6555 16.6868 29.1747C11.846 31.9486 8.58472 37.1661 8.58472 43.1453C8.58472 47.9487 10.6895 52.2605 14.027 55.2087C13.636 56.5301 13.4261 57.9293 13.4261 59.3775C13.4261 67.4776 19.9925 74.044 28.0926 74.044H46.2159C46.8003 82.478 53.8271 89.1384 62.4095 89.1384C70.9919 89.1384 78.0187 82.478 78.603 74.044H96.4415C104.542 74.044 111.108 67.4776 111.108 59.3775C111.108 57.9293 110.898 56.5301 110.507 55.2087C113.845 52.2605 115.949 47.9487 115.949 43.1453C115.949 37.1661 112.688 31.9486 107.847 29.1747C107.015 23.6228 102.225 19.3655 96.4416 19.3655H96.3695C95.8358 16.7104 94.5397 14.1782 92.4811 12.1197C88.2858 7.92431 82.1229 6.8957 76.9627 9.03384Z" fill="#FEA1BD"/>
<path d="M113.791 52.9641C113.791 47.3594 113.791 47.7826 113.791 41.7547C113.791 35.7268 113.791 37.6249 113.791 31.1353C119.819 31.1353 124.706 36.0218 124.706 42.0497C124.706 48.0775 119.819 52.9641 113.791 52.9641Z" fill="#14AE59"/>
<rect x="113.791" y="18.4668" width="1.1694" height="20.2696" rx="0.584702" fill="#45AAE8"/>
<rect x="113.012" y="29.5757" width="2.72861" height="24.7524" rx="1.3643" fill="#FFCD1C"/>
<circle cx="114.376" cy="18.0768" r="1.5592" fill="#FFCD1C"/>
<path d="M36.4939 80.5949C49.875 80.5949 48.8647 80.5949 63.2562 80.5949C77.6476 80.5949 73.116 80.5949 88.6099 80.5949C88.6099 90.0319 76.9434 97.6821 62.5519 97.6821C48.1605 97.6821 36.4939 90.0319 36.4939 80.5949Z" fill="#45AAE8"/>
<path d="M10.653 52.0911C10.653 46.6207 10.653 47.0337 10.653 41.1502C10.653 35.2667 10.653 37.1194 10.653 30.7852C4.7695 30.7852 2.08482e-07 35.5547 4.65657e-07 41.4381C7.22832e-07 47.3216 4.7695 52.0911 10.653 52.0911Z" fill="#14AE59"/>
<rect width="1.14139" height="19.7841" rx="0.570696" transform="matrix(-1 0 0 1 10.6531 18.4199)" fill="#45AAE8"/>
<rect width="2.66325" height="24.1594" rx="1.33162" transform="matrix(-1 0 0 1 11.4141 29.2627)" fill="#FFCD1C"/>
<circle cx="1.52185" cy="1.52185" r="1.52185" transform="matrix(-1 0 0 1 11.6042 16.5176)" fill="#FFCD1C"/>
<rect x="95.4448" y="80.5947" width="66.3554" height="6.5501" rx="3.27505" transform="rotate(-180 95.4448 80.5947)" fill="#7766C2"/>
<rect x="91.4166" y="52.1157" width="8.8284" height="4.84138" rx="2.42069" transform="rotate(-180 91.4166 52.1157)" fill="#EF6125"/>
<rect x="57.8878" y="101.502" width="2.83856" height="29.3704" transform="rotate(-45 57.8878 101.502)" fill="#EF6125"/>
<rect x="78.6558" y="122.27" width="2.83856" height="2.7227" transform="rotate(-45 78.6558 122.27)" fill="#434040"/>
<rect x="59.8949" y="99.4951" width="2.83856" height="29.3704" transform="rotate(-45 59.8949 99.4951)" fill="#FFCD1C"/>
<rect x="80.663" y="120.263" width="2.83856" height="2.7227" transform="rotate(-45 80.663 120.263)" fill="#434040"/>
<rect x="61.9021" y="97.4873" width="2.83856" height="29.3704" transform="rotate(-45 61.9021 97.4873)" fill="#EF6125"/>
<rect x="82.6702" y="118.256" width="2.83856" height="2.7227" transform="rotate(-45 82.6702 118.256)" fill="#434040"/>
<path d="M55.919 94.1228C55.82 93.7518 56.1593 93.4125 56.5303 93.5115L63.9095 95.4806L57.888 101.502L55.919 94.1228Z" fill="#EAE8DC"/>
<path d="M62.6599 100.252L59.8949 99.4943L61.9021 97.4871L62.6599 100.252Z" fill="#EAE8DC"/>
<path d="M64.6671 98.2458L61.9021 97.488L63.9093 95.4808L64.6671 98.2458Z" fill="#EAE8DC"/>
<path d="M60.6527 102.26L57.8878 101.502L59.8949 99.495L60.6527 102.26Z" fill="#EAE8DC"/>
<path d="M55.9247 94.1298C55.8236 93.7574 56.1651 93.4159 56.5375 93.517L58.7889 94.1283L56.536 96.3812L55.9247 94.1298Z" fill="#434040"/>
<path d="M80.5811 124.195L86.6026 118.174L87.8427 119.414C89.0129 120.584 89.0129 122.481 87.8427 123.652L86.0588 125.435C84.8886 126.606 82.9914 126.606 81.8212 125.435L80.5811 124.195Z" fill="#FEA1BD"/>
<path d="M98.1563 60.6602C101.099 65.5965 105.846 78.4309 101.289 90.278C96.7324 102.125 86.1953 105.846 81.4963 106.226" stroke="#2B9FE6" stroke-width="5.69574" stroke-linecap="round" stroke-linejoin="round"/>
<path d="M98.1091 60.6602C101.052 65.5965 105.798 78.4309 101.242 90.278C96.6851 102.125 86.148 105.846 81.449 106.226" stroke="#FEA1BD" stroke-width="5.69574" stroke-linecap="round" stroke-linejoin="round" stroke-dasharray="8.54 8.54"/>
<path d="M98.1091 60.6602C101.052 65.5965 105.798 78.4309 101.242 90.278C96.6851 102.125 86.148 105.846 81.449 106.226" stroke="#EF6125" stroke-width="5.69574" stroke-linecap="round" stroke-linejoin="round" stroke-dasharray="8.54 8.54"/>
<path d="M83.3474 106.51C83.3474 112.959 77.1229 119.895 70.6743 119.895C64.2257 119.895 58.0013 113.202 61.2764 106.51C62.968 103.053 66.2601 101.669 66.2601 100.814C66.2601 98.6783 66.4326 95.4392 69.3928 94.4065C75.4685 92.2872 83.3474 100.061 83.3474 106.51Z" fill="#7766C2"/>
<path d="M23.133 75.7319C18.7959 75.3263 20.885 73.7907 14.391 70.7202C7.89699 67.6498 5.97829 65.6591 7.79624 61.7395C11.347 57.1637 18.3525 60.5447 23.133 64.8726C27.9136 69.2005 27.4702 76.1375 23.133 75.7319Z" fill="#7766C2"/>
<ellipse cx="32.3233" cy="40.7245" rx="12.673" ry="9.11319" fill="#D9D9D9"/>
<ellipse cx="31.0071" cy="39.1638" rx="9.93291" ry="7.14277" fill="#434040"/>
<circle cx="26.3265" cy="36.2944" r="1.8349" fill="#D9D9D9"/>
<ellipse cx="68.776" cy="40.7245" rx="12.673" ry="9.11319" fill="#D9D9D9"/>
<ellipse cx="67.4599" cy="39.1638" rx="9.93291" ry="7.14277" fill="#434040"/>
<circle cx="62.7793" cy="36.2944" r="1.8349" fill="#D9D9D9"/>
<path d="M59.3781 53.828C59.3781 56.2433 56.8673 57.7343 54.6547 56.7658C51.8687 55.5463 49.9184 55.2957 46.6736 56.4388C44.5304 57.1938 42.1484 55.7667 42.1484 53.4944V53.4944C42.1484 52.1351 43.0513 50.9327 44.3621 50.5725C51.3501 48.6523 53.0952 48.8878 57.5091 50.8984C58.6526 51.4193 59.3781 52.5714 59.3781 53.828V53.828Z" fill="#EF6125"/>
<ellipse cx="30.9094" cy="53.7075" rx="14.3462" ry="8.26466" transform="rotate(21.6997 30.9094 53.7075)" fill="#FEA1BD"/>
<rect x="23.9221" y="52.1157" width="8.8284" height="4.84138" rx="2.42069" transform="rotate(-180 23.9221 52.1157)" fill="#EF6125"/>
</svg>
