<svg width="1295" height="55" viewBox="0 0 1295 55" fill="none" xmlns="http://www.w3.org/2000/svg">
<path fill-rule="evenodd" clip-rule="evenodd" d="M52.8033 2.1967C49.8744 -0.732233 45.1256 -0.732233 42.1967 2.1967L2.1967 42.1967C-0.732233 45.1256 -0.732233 49.8744 2.1967 52.8033C5.12563 55.7322 9.87437 55.7322 12.8033 52.8033L47.5 18.1066L82.1967 52.8033C83.6032 54.2098 85.5109 55 87.5 55C89.4891 55 91.3968 54.2098 92.8033 52.8033L127.5 18.1066L162.197 52.8033C165.126 55.7322 169.874 55.7322 172.803 52.8033L207.5 18.1066L242.197 52.8033C243.603 54.2098 245.511 55 247.5 55C249.489 55 251.397 54.2098 252.803 52.8033L287.5 18.1066L322.197 52.8033C325.126 55.7322 329.874 55.7322 332.803 52.8033L367.5 18.1066L402.197 52.8033C403.603 54.2098 405.511 55 407.5 55C409.489 55 411.397 54.2098 412.803 52.8033L447.5 18.1066L482.197 52.8033C485.126 55.7322 489.874 55.7322 492.803 52.8033L527.5 18.1066L562.197 52.8033C563.603 54.2098 565.511 55 567.5 55C569.489 55 571.397 54.2098 572.803 52.8033L607.5 18.1066L642.197 52.8033C643.478 54.0847 645.108 54.8055 646.781 54.9657C647.02 54.9885 647.26 55 647.499 55C647.5 55 647.5 55 647.5 55C647.872 55 648.244 54.9725 648.612 54.9176C650.146 54.6888 651.623 53.9841 652.803 52.8033C652.809 52.7972 652.815 52.7912 652.821 52.7851L687.5 18.1066L722.197 52.8033C723.603 54.2098 725.511 55 727.5 55C729.489 55 731.397 54.2098 732.803 52.8033L767.5 18.1066L802.197 52.8033C805.126 55.7322 809.874 55.7322 812.803 52.8033L847.5 18.1066L882.197 52.8033C883.603 54.2098 885.511 55 887.5 55C889.489 55 891.397 54.2098 892.803 52.8033L927.5 18.1066L962.197 52.8033C965.126 55.7322 969.874 55.7322 972.803 52.8033L1007.5 18.1066L1042.2 52.8033C1043.6 54.2098 1045.51 55 1047.5 55C1049.49 55 1051.4 54.2098 1052.8 52.8033L1087.5 18.1066L1122.2 52.8033C1125.13 55.7322 1129.87 55.7322 1132.8 52.8033L1167.5 18.1066L1202.2 52.8033C1203.6 54.2098 1205.51 55 1207.5 55C1209.49 55 1211.4 54.2098 1212.8 52.8033L1247.5 18.1066L1282.2 52.8033C1285.13 55.7322 1289.87 55.7322 1292.8 52.8033C1295.73 49.8744 1295.73 45.1256 1292.8 42.1967L1252.8 2.1967C1249.87 -0.732234 1245.13 -0.732232 1242.2 2.1967L1207.5 36.8934L1172.8 2.1967C1169.87 -0.732232 1165.13 -0.732234 1162.2 2.1967L1127.5 36.8934L1092.8 2.1967C1091.4 0.790178 1089.49 0 1087.5 0C1085.51 0 1083.6 0.790176 1082.2 2.1967L1047.5 36.8934L1012.8 2.1967C1011.4 0.790178 1009.49 0 1007.5 0C1005.51 0 1003.6 0.790176 1002.2 2.1967L967.5 36.8934L932.803 2.1967C931.397 0.790176 929.489 0 927.5 0C925.511 0 923.603 0.790178 922.197 2.1967L887.5 36.8934L852.803 2.1967C849.874 -0.732233 845.126 -0.732233 842.197 2.1967L807.5 36.8934L772.803 2.1967C769.874 -0.732233 765.126 -0.732233 762.197 2.1967L727.5 36.8934L692.803 2.1967C691.397 0.790177 689.489 0 687.5 0C685.511 0 683.603 0.790177 682.197 2.1967L647.5 36.8934L612.803 2.1967C610.607 -1.07288e-06 607.386 -0.549175 604.678 0.549176C603.775 0.915293 602.929 1.46447 602.197 2.1967L567.5 36.8934L532.803 2.1967C529.874 -0.732231 525.126 -0.732234 522.197 2.19669L487.5 36.8934L452.803 2.1967C451.397 0.790178 449.489 0 447.5 0C445.511 0 443.603 0.790176 442.197 2.1967L407.5 36.8934L372.803 2.1967C371.397 0.790178 369.489 0 367.5 0C365.511 0 363.603 0.790176 362.197 2.1967L327.5 36.8934L292.803 2.1967C291.397 0.790176 289.489 0 287.5 0C285.511 0 283.603 0.790178 282.197 2.1967L247.5 36.8934L212.803 2.1967C209.874 -0.732233 205.126 -0.732233 202.197 2.1967L167.5 36.8934L132.803 2.1967C129.874 -0.732233 125.126 -0.732233 122.197 2.1967L87.5 36.8934L52.8033 2.1967Z" fill="black"/>
<path fill-rule="evenodd" clip-rule="evenodd" d="M52.8033 2.1967C49.8744 -0.732233 45.1256 -0.732233 42.1967 2.1967L2.1967 42.1967C-0.732233 45.1256 -0.732233 49.8744 2.1967 52.8033C5.12563 55.7322 9.87437 55.7322 12.8033 52.8033L47.5 18.1066L82.1967 52.8033C83.6032 54.2098 85.5109 55 87.5 55C89.4891 55 91.3968 54.2098 92.8033 52.8033L127.5 18.1066L162.197 52.8033C165.126 55.7322 169.874 55.7322 172.803 52.8033L207.5 18.1066L242.197 52.8033C243.603 54.2098 245.511 55 247.5 55C249.489 55 251.397 54.2098 252.803 52.8033L287.5 18.1066L322.197 52.8033C325.126 55.7322 329.874 55.7322 332.803 52.8033L367.5 18.1066L402.197 52.8033C403.603 54.2098 405.511 55 407.5 55C409.489 55 411.397 54.2098 412.803 52.8033L447.5 18.1066L482.197 52.8033C485.126 55.7322 489.874 55.7322 492.803 52.8033L527.5 18.1066L562.197 52.8033C563.603 54.2098 565.511 55 567.5 55C569.489 55 571.397 54.2098 572.803 52.8033L607.5 18.1066L642.197 52.8033C643.478 54.0847 645.108 54.8055 646.781 54.9657C647.02 54.9885 647.26 55 647.499 55C647.5 55 647.5 55 647.5 55C647.872 55 648.244 54.9725 648.612 54.9176C650.146 54.6888 651.623 53.9841 652.803 52.8033C652.809 52.7972 652.815 52.7912 652.821 52.7851L687.5 18.1066L722.197 52.8033C723.603 54.2098 725.511 55 727.5 55C729.489 55 731.397 54.2098 732.803 52.8033L767.5 18.1066L802.197 52.8033C805.126 55.7322 809.874 55.7322 812.803 52.8033L847.5 18.1066L882.197 52.8033C883.603 54.2098 885.511 55 887.5 55C889.489 55 891.397 54.2098 892.803 52.8033L927.5 18.1066L962.197 52.8033C965.126 55.7322 969.874 55.7322 972.803 52.8033L1007.5 18.1066L1042.2 52.8033C1043.6 54.2098 1045.51 55 1047.5 55C1049.49 55 1051.4 54.2098 1052.8 52.8033L1087.5 18.1066L1122.2 52.8033C1125.13 55.7322 1129.87 55.7322 1132.8 52.8033L1167.5 18.1066L1202.2 52.8033C1203.6 54.2098 1205.51 55 1207.5 55C1209.49 55 1211.4 54.2098 1212.8 52.8033L1247.5 18.1066L1282.2 52.8033C1285.13 55.7322 1289.87 55.7322 1292.8 52.8033C1295.73 49.8744 1295.73 45.1256 1292.8 42.1967L1252.8 2.1967C1249.87 -0.732234 1245.13 -0.732232 1242.2 2.1967L1207.5 36.8934L1172.8 2.1967C1169.87 -0.732232 1165.13 -0.732234 1162.2 2.1967L1127.5 36.8934L1092.8 2.1967C1091.4 0.790178 1089.49 0 1087.5 0C1085.51 0 1083.6 0.790176 1082.2 2.1967L1047.5 36.8934L1012.8 2.1967C1011.4 0.790178 1009.49 0 1007.5 0C1005.51 0 1003.6 0.790176 1002.2 2.1967L967.5 36.8934L932.803 2.1967C931.397 0.790176 929.489 0 927.5 0C925.511 0 923.603 0.790178 922.197 2.1967L887.5 36.8934L852.803 2.1967C849.874 -0.732233 845.126 -0.732233 842.197 2.1967L807.5 36.8934L772.803 2.1967C769.874 -0.732233 765.126 -0.732233 762.197 2.1967L727.5 36.8934L692.803 2.1967C691.397 0.790177 689.489 0 687.5 0C685.511 0 683.603 0.790177 682.197 2.1967L647.5 36.8934L612.803 2.1967C610.607 -1.07288e-06 607.386 -0.549175 604.678 0.549176C603.775 0.915293 602.929 1.46447 602.197 2.1967L567.5 36.8934L532.803 2.1967C529.874 -0.732231 525.126 -0.732234 522.197 2.19669L487.5 36.8934L452.803 2.1967C451.397 0.790178 449.489 0 447.5 0C445.511 0 443.603 0.790176 442.197 2.1967L407.5 36.8934L372.803 2.1967C371.397 0.790178 369.489 0 367.5 0C365.511 0 363.603 0.790176 362.197 2.1967L327.5 36.8934L292.803 2.1967C291.397 0.790176 289.489 0 287.5 0C285.511 0 283.603 0.790178 282.197 2.1967L247.5 36.8934L212.803 2.1967C209.874 -0.732233 205.126 -0.732233 202.197 2.1967L167.5 36.8934L132.803 2.1967C129.874 -0.732233 125.126 -0.732233 122.197 2.1967L87.5 36.8934L52.8033 2.1967Z" fill="#FEA1BD"/>
</svg>
