<svg width="279" height="85" viewBox="0 0 279 85" fill="none" xmlns="http://www.w3.org/2000/svg">
<ellipse cx="141.178" cy="44" rx="137.178" ry="41" fill="#434040"/>
<ellipse cx="138" cy="41" rx="137.178" ry="41" fill="#14AE59"/>
<path d="M267.894 41.0979C267.898 45.8441 264.572 50.5845 258.024 55.0745C251.508 59.5423 242.012 63.6086 230.187 67.0427C206.55 73.9071 173.832 78.1813 137.648 78.2111C101.464 78.2408 68.7398 74.0204 45.0914 67.1949C33.2604 63.7802 23.7579 59.7296 17.2348 55.2725C10.6794 50.7933 7.34607 46.0584 7.34217 41.3121C7.33826 36.5659 10.6638 31.8255 17.2118 27.3355C23.7275 22.8677 33.2234 18.8014 45.0487 15.3673C68.686 8.50295 101.403 4.22869 137.588 4.19894C173.772 4.16918 206.496 8.38963 230.145 15.2151C241.975 18.6298 251.478 22.6805 258.001 27.1375C264.557 31.6167 267.89 36.3516 267.894 41.0979Z" stroke="#EAE8DC" stroke-width="2"/>
<path d="M226.303 35.4599H223.521C223.645 33.7293 223.583 32.2459 223.583 31.0097C223.583 29.4645 223.336 28.661 222.656 28.661C222.038 28.661 221.791 29.2791 221.791 30.7625C221.791 34.1001 222.162 35.6453 224.819 37.8086C229.208 40.9608 231 43.9894 231 53.0133C231 61.9137 228.404 65.4985 221.852 65.4985C214.745 65.4985 212.952 62.2845 212.952 54.9294C212.952 52.8279 212.952 50.4174 213.138 47.8215C214.312 47.8833 215.857 48.0069 217.526 48.0069C218.515 48.0069 219.566 48.0069 220.122 47.9451C219.998 49.5521 220.06 51.0355 220.06 52.0862C220.06 53.755 220.184 54.6203 220.864 54.6203C221.543 54.6203 221.729 53.8786 221.729 52.148C221.729 48.3159 221.296 47.2652 218.7 45.5964C213.879 42.6914 212.767 39.0447 212.767 30.3916C212.767 21.3677 215.424 18.03 222.038 18.03C229.084 18.03 230.753 21.1822 230.753 29.0318C230.753 30.9479 230.753 33.1112 230.629 35.5835C229.517 35.4599 227.724 35.4599 226.303 35.4599Z" fill="#444342"/>
<path d="M202.713 18.5864H211.799C211.737 23.4693 211.737 28.3521 211.737 35.5836V52.519C211.737 61.9756 209.759 65.4987 201.786 65.4987C193.689 65.4987 191.711 61.9756 191.711 52.519C191.711 46.8327 191.773 39.8484 191.773 35.5836C191.773 28.3521 191.711 23.4693 191.65 18.5864H201.23C201.168 28.5993 201.106 41.27 201.106 49.614C201.106 50.8502 201.415 51.2828 201.972 51.2828C202.59 51.2828 202.837 50.8502 202.837 49.614C202.837 41.3318 202.713 28.5993 202.713 18.5864Z" fill="#444342"/>
<path d="M190.609 40.5281C190.609 60.1212 188.198 65.4367 180.472 65.4367C172.622 65.4367 170.336 60.1212 170.336 40.5281C170.336 21.8621 173.364 18.0918 180.41 18.0918C187.518 18.0918 190.609 21.8621 190.609 40.5281ZM180.41 52.2098C181.276 52.2098 181.461 51.4681 181.461 40.1572C181.461 30.268 181.276 29.5881 180.41 29.5881C179.607 29.5881 179.421 30.268 179.421 40.1572C179.421 51.4681 179.607 52.2098 180.41 52.2098Z" fill="#444342"/>
<path d="M169.247 64.9424H159.481C159.543 58.2671 159.481 51.6537 159.481 41.7644C159.481 31.9369 159.543 25.1999 159.481 18.5864H169.247C169.185 25.1999 169.123 31.8751 169.123 41.7644C169.123 51.5919 169.185 58.2671 169.247 64.9424Z" fill="#444342"/>
<path d="M150.062 18.5864H157.911C157.911 20.0698 157.726 31.8751 157.726 41.7026C157.726 52.0863 157.726 59.1325 157.849 64.9424H148.145C147.713 61.7902 147.342 58.947 146.848 56.1039C146.229 52.4572 145.673 48.2542 145.179 44.1131H144.808C145.055 48.8723 145.179 53.1371 145.179 56.5983C145.179 60.7395 145.241 63.8917 145.302 64.9424H137.329V41.7644C137.329 31.9369 137.391 25.2617 137.329 18.5864H147.651C147.898 21.2442 148.455 26.0034 149.134 31.6279C149.567 34.2856 150.062 38.0559 150.432 41.8262L150.741 41.7644C150.494 37.7469 150.309 33.853 150.309 31.4425C150.247 26.8069 150.185 22.7276 150.062 18.5864Z" fill="#444342"/>
<path d="M135.808 64.9424H126.042C126.104 58.2671 126.042 51.6537 126.042 41.7644C126.042 31.9369 126.104 25.1999 126.042 18.5864H135.808C135.746 25.1999 135.684 31.8751 135.684 41.7644C135.684 51.5919 135.746 58.2671 135.808 64.9424Z" fill="#444342"/>
<path d="M114.377 18.5864H124.452C124.39 25.3853 124.328 29.9591 124.328 35.8927C124.328 38.7358 124.39 44.7312 124.39 54.2496C124.39 61.4193 123.278 65.3132 117.468 65.3132C114.995 65.3132 113.265 64.9424 111.781 64.6334C111.843 62.7173 111.967 51.7773 111.905 49.5522C112.276 49.6758 112.647 49.8613 113.326 49.8613C114.315 49.8613 114.933 49.3668 114.933 47.3271C114.933 41.9498 114.872 23.8401 114.377 18.5864Z" fill="#444342"/>
<path d="M111.659 40.5281C111.659 60.1212 109.248 65.4367 101.522 65.4367C93.6724 65.4367 91.3855 60.1212 91.3855 40.5281C91.3855 21.8621 94.4141 18.0918 101.46 18.0918C108.568 18.0918 111.659 21.8621 111.659 40.5281ZM101.46 52.2098C102.326 52.2098 102.511 51.4681 102.511 40.1572C102.511 30.268 102.326 29.5881 101.46 29.5881C100.657 29.5881 100.471 30.268 100.471 40.1572C100.471 51.4681 100.657 52.2098 101.46 52.2098Z" fill="#444342"/>
<path d="M79.0664 18.5864H90.1918C90.13 24.6436 90.0682 31.5661 90.0682 41.7026C90.0682 51.5301 90.0682 58.2671 90.1918 64.9424H80.9825C81.0443 60.554 81.2297 57.8345 81.2297 53.3843C81.2297 50.603 81.4151 46.8945 81.6005 43.186L81.1679 43.1242C80.797 47.1417 80.4262 51.0974 80.1172 53.2607L78.6338 64.9424H74.8635L73.2565 53.3225C72.9474 51.1592 72.5148 47.0799 72.1439 43.1242L71.7113 43.186C71.8967 46.8327 72.1439 50.4175 72.0821 53.4461C72.0821 57.8963 72.3293 60.554 72.3912 64.9424H64.2943C64.2943 58.2671 64.3561 51.5301 64.3561 41.7026C64.3561 31.5661 64.2943 24.6436 64.2943 18.5864H76.4087C76.7795 22.2949 76.8413 25.7562 77.0886 29.5264C77.2122 32.0606 77.3976 36.2635 77.583 39.6629H77.9539C78.1393 36.2017 78.3247 32.0606 78.4483 29.4646C78.6338 25.6943 78.8192 22.4185 79.0664 18.5864Z" fill="#444342"/>
<path d="M47.0905 18.5864H62.8515C62.7897 20.3789 62.7897 23.1602 62.7897 25.5707C62.7897 28.2903 62.7897 31.1953 62.8515 33.0495C60.6264 32.9877 57.9687 32.9259 56.0526 32.9259V34.7801C58.2159 34.7801 60.8736 34.7183 62.6043 34.5947C62.5424 37.6233 62.4806 43.6805 62.5424 47.1417C60.8118 47.0181 58.2777 47.0181 56.0526 47.0181V48.8105C57.9687 48.8105 60.6264 48.7487 62.8515 48.6869C62.8515 50.7266 62.7897 53.817 62.7897 56.6601C62.7897 59.5033 62.8515 62.7173 62.8515 64.9424H47.0905C47.1523 58.2671 47.2141 51.6537 47.2141 41.7644C47.2141 31.9369 47.1523 25.2617 47.0905 18.5864Z" fill="#444342"/>
<path d="M223.212 34.4298H220.431C220.554 32.6992 220.493 31.2158 220.493 29.9797C220.493 28.4345 220.245 27.631 219.566 27.631C218.947 27.631 218.7 28.2491 218.7 29.7324C218.7 33.0701 219.071 34.6153 221.729 36.7785C226.117 39.9308 227.91 42.9593 227.91 51.9833C227.91 60.8837 225.314 64.4685 218.762 64.4685C211.654 64.4685 209.862 61.2545 209.862 53.8994C209.862 51.7979 209.862 49.3874 210.047 46.7914C211.221 46.8532 212.767 46.9769 214.435 46.9769C215.424 46.9769 216.475 46.9769 217.031 46.9151C216.908 48.5221 216.97 50.0055 216.97 51.0562C216.97 52.725 217.093 53.5903 217.773 53.5903C218.453 53.5903 218.638 52.8486 218.638 51.118C218.638 47.2859 218.206 46.2352 215.61 44.5664C210.789 41.6614 209.676 38.0147 209.676 29.3616C209.676 20.3376 212.334 17 218.947 17C225.994 17 227.662 20.1522 227.662 28.0018C227.662 29.9179 227.662 32.0811 227.539 34.5535C226.426 34.4298 224.634 34.4298 223.212 34.4298Z" fill="#FFCD1C"/>
<path d="M199.623 17.5562H208.709C208.647 22.439 208.647 27.3218 208.647 34.5533V51.4887C208.647 60.9454 206.669 64.4684 198.696 64.4684C190.599 64.4684 188.621 60.9454 188.621 51.4887C188.621 45.8024 188.683 38.8181 188.683 34.5533C188.683 27.3218 188.621 22.439 188.559 17.5562H198.139C198.078 27.569 198.016 40.2397 198.016 48.5838C198.016 49.8199 198.325 50.2526 198.881 50.2526C199.499 50.2526 199.746 49.8199 199.746 48.5838C199.746 40.3015 199.623 27.569 199.623 17.5562Z" fill="#FFCD1C"/>
<path d="M187.518 39.4981C187.518 59.0912 185.108 64.4067 177.382 64.4067C169.532 64.4067 167.245 59.0912 167.245 39.4981C167.245 20.8321 170.274 17.0618 177.32 17.0618C184.428 17.0618 187.518 20.8321 187.518 39.4981ZM177.32 51.1798C178.185 51.1798 178.371 50.4381 178.371 39.1272C178.371 29.2379 178.185 28.558 177.32 28.558C176.516 28.558 176.331 29.2379 176.331 39.1272C176.331 50.4381 176.516 51.1798 177.32 51.1798Z" fill="#FFCD1C"/>
<path d="M166.156 63.9121H156.391C156.452 57.2369 156.391 50.6234 156.391 40.7341C156.391 30.9067 156.452 24.1696 156.391 17.5562H166.156C166.094 24.1696 166.033 30.8449 166.033 40.7341C166.033 50.5616 166.094 57.2369 166.156 63.9121Z" fill="#FFCD1C"/>
<path d="M146.971 17.5562H154.821C154.821 19.0395 154.635 30.8449 154.635 40.6723C154.635 51.0561 154.635 58.1022 154.759 63.9121H145.055C144.622 60.7599 144.252 57.9168 143.757 55.0736C143.139 51.4269 142.583 47.224 142.088 43.0828H141.717C141.965 47.8421 142.088 52.1068 142.088 55.5681C142.088 59.7092 142.15 62.8614 142.212 63.9121H134.239V40.7341C134.239 30.9067 134.3 24.2314 134.239 17.5562H144.561C144.808 20.2139 145.364 24.9731 146.044 30.5976C146.477 33.2554 146.971 37.0257 147.342 40.7959L147.651 40.7341C147.404 36.7166 147.218 32.8227 147.218 30.4122C147.157 25.7766 147.095 21.6973 146.971 17.5562Z" fill="#FFCD1C"/>
<path d="M132.717 63.9121H122.951C123.013 57.2369 122.951 50.6234 122.951 40.7341C122.951 30.9067 123.013 24.1696 122.951 17.5562H132.717C132.655 24.1696 132.593 30.8449 132.593 40.7341C132.593 50.5616 132.655 57.2369 132.717 63.9121Z" fill="#FFCD1C"/>
<path d="M111.287 17.5562H121.361C121.299 24.355 121.238 28.9288 121.238 34.8624C121.238 37.7055 121.3 43.7009 121.3 53.2194C121.3 60.3891 120.187 64.283 114.377 64.283C111.905 64.283 110.174 63.9121 108.691 63.6031C108.752 61.687 108.876 50.747 108.814 48.5219C109.185 48.6456 109.556 48.831 110.236 48.831C111.225 48.831 111.843 48.3365 111.843 46.2969C111.843 40.9196 111.781 22.8098 111.287 17.5562Z" fill="#FFCD1C"/>
<path d="M108.568 39.4981C108.568 59.0912 106.158 64.4067 98.4315 64.4067C90.5819 64.4067 88.295 59.0912 88.295 39.4981C88.295 20.8321 91.3236 17.0618 98.3697 17.0618C105.478 17.0618 108.568 20.8321 108.568 39.4981ZM98.3697 51.1798C99.2351 51.1798 99.4205 50.4381 99.4205 39.1272C99.4205 29.2379 99.2351 28.558 98.3697 28.558C97.5662 28.558 97.3808 29.2379 97.3808 39.1272C97.3808 50.4381 97.5662 51.1798 98.3697 51.1798Z" fill="#FFCD1C"/>
<path d="M75.976 17.5562H87.1014C87.0396 23.6133 86.9778 30.5358 86.9778 40.6723C86.9778 50.4998 86.9778 57.2369 87.1014 63.9121H77.892C77.9538 59.5238 78.1392 56.8042 78.1392 52.354C78.1392 49.5727 78.3247 45.8642 78.5101 42.1557L78.0774 42.0939C77.7066 46.1114 77.3357 50.0671 77.0267 52.2304L75.5433 63.9121H71.773L70.166 52.2922C69.857 50.129 69.4243 46.0496 69.0535 42.0939L68.6208 42.1557C68.8062 45.8024 69.0535 49.3873 68.9917 52.4158C68.9917 56.866 69.2389 59.5238 69.3007 63.9121H61.2039C61.2039 57.2369 61.2657 50.4998 61.2657 40.6723C61.2657 30.5358 61.2039 23.6133 61.2039 17.5562H73.3182C73.6891 21.2646 73.7509 24.7259 73.9981 28.4962C74.1217 31.0303 74.3071 35.2332 74.4926 38.6327H74.8634C75.0488 35.1714 75.2343 31.0303 75.3579 28.4344C75.5433 24.6641 75.7287 21.3882 75.976 17.5562Z" fill="#FFCD1C"/>
<path d="M44 17.5562H59.761C59.6992 19.3486 59.6992 22.1299 59.6992 24.5405C59.6992 27.26 59.6992 30.165 59.761 32.0192C57.5359 31.9574 54.8782 31.8956 52.9622 31.8956V33.7498C55.1254 33.7498 57.7832 33.688 59.5138 33.5644C59.452 36.593 59.3902 42.6502 59.452 46.1114C57.7214 45.9878 55.1872 45.9878 52.9622 45.9878V47.7803C54.8782 47.7803 57.5359 47.7184 59.761 47.6566C59.761 49.6963 59.6992 52.7867 59.6992 55.6299C59.6992 58.473 59.761 61.687 59.761 63.9121H44C44.0618 57.2369 44.1236 50.6234 44.1236 40.7341C44.1236 30.9067 44.0618 24.2314 44 17.5562Z" fill="#FFCD1C"/>
</svg>
