<svg width="1296" height="56" viewBox="0 0 1296 56" fill="none" xmlns="http://www.w3.org/2000/svg">
<path d="M608 8L648 48L688 8L728 48L768 8L808 48L848 8L888 48L928 8L968 48L1008 8L1048 48L1088 8L1128 48L1168 8L1208 48L1248 8L1288 48" stroke="black" stroke-width="15" stroke-linecap="round" stroke-linejoin="round"/>
<path d="M608 8L648 48L688 8L728 48L768 8L808 48L848 8L888 48L928 8L968 48L1008 8L1048 48L1088 8L1128 48L1168 8L1208 48L1248 8L1288 48" stroke="#FEA1BD" stroke-width="15" stroke-linecap="round" stroke-linejoin="round"/>
<path d="M8 48L48 8L88 48L128 8L168 48L208 8L248 48L288 8L328 48L368 8L408 48L448 8L488 48L528 8L568 48L608 8L648 48" stroke="black" stroke-width="15" stroke-linecap="round" stroke-linejoin="round"/>
<path d="M8 48L48 8L88 48L128 8L168 48L208 8L248 48L288 8L328 48L368 8L408 48L448 8L488 48L528 8L568 48L608 8L648 48" stroke="#FEA1BD" stroke-width="15" stroke-linecap="round" stroke-linejoin="round"/>
</svg>
